<svg width="12" height="12" viewBox="0 0 12 12" fill="none" xmlns="http://www.w3.org/2000/svg">
<path d="M1 11H9.322C9.67619 11.0023 10.02 10.8806 10.294 10.656C10.5679 10.4315 10.7547 10.1182 10.822 9.7705L11.4745 6.2705C11.5144 6.05632 11.5065 5.83597 11.4515 5.62518C11.3964 5.41438 11.2955 5.21833 11.156 5.051C11.0117 4.87792 10.831 4.7388 10.6268 4.64355C10.4226 4.54831 10.1998 4.4993 9.9745 4.5H7.589V2.5C7.589 1.4695 6.5325 1 5.551 1C5.41839 1 5.29121 1.05268 5.19745 1.14645C5.10368 1.24021 5.051 1.36739 5.051 1.5C5.051 2.4535 4.881 3.455 4.689 3.642L3.2965 5H1C0.867392 5 0.740215 5.05268 0.646447 5.14645C0.552678 5.24021 0.5 5.36739 0.5 5.5V10.5C0.5 10.6326 0.552678 10.7598 0.646447 10.8536C0.740215 10.9473 0.867392 11 1 11ZM4 5.7105L5.387 4.3605C5.852 3.907 5.993 2.8045 6.037 2.0685C6.308 2.133 6.5915 2.2585 6.5915 2.5025V5.0025C6.5915 5.13511 6.64418 5.26229 6.73795 5.35605C6.83171 5.44982 6.95889 5.5025 7.0915 5.5025H9.977C10.0554 5.50194 10.133 5.51868 10.2042 5.55152C10.2754 5.58436 10.3385 5.6325 10.389 5.6925C10.4353 5.7471 10.4687 5.81136 10.4869 5.88058C10.5051 5.94981 10.5075 6.02222 10.494 6.0925L9.844 9.5925C9.81825 9.71068 9.75196 9.81613 9.65662 9.89056C9.56128 9.96499 9.4429 10.0037 9.322 10H4V5.7105ZM1.5 6H3V10H1.5V6Z" fill="#00286E"/>
</svg>
