<svg width="18" height="18" viewBox="0 0 56 55" fill="none" xmlns="http://www.w3.org/2000/svg">
<path d="M22.2687 3.42932C22.7301 2.41609 23.5215 1.54838 24.5416 0.937394C25.5617 0.326411 26.7639 0 27.9941 0C29.2243 0 30.4265 0.326411 31.4466 0.937394C32.4667 1.54838 33.2582 2.41609 33.7196 3.42932C38.2862 4.54514 42.3143 6.96202 45.1852 10.3087C48.0561 13.6555 49.611 17.747 49.6112 21.9549V34.8422L55.2688 42.3819C55.5791 42.7952 55.7573 43.2754 55.7844 43.7716C55.8115 44.2677 55.6865 44.7611 55.4228 45.1991C55.159 45.6371 54.7664 46.0032 54.2868 46.2585C53.8071 46.5137 53.2585 46.6485 52.6994 46.6484H38.6946C38.3228 48.9342 37.0364 51.0245 35.0713 52.5363C33.1061 54.0481 30.5936 54.8802 27.9941 54.8802C25.3946 54.8802 22.8822 54.0481 20.917 52.5363C18.9518 51.0245 17.6655 48.9342 17.2936 46.6484H3.28882C2.72973 46.6485 2.18111 46.5137 1.70148 46.2585C1.22185 46.0032 0.829209 45.6371 0.56545 45.1991C0.301691 44.7611 0.176708 44.2677 0.203833 43.7716C0.230958 43.2754 0.409174 42.7952 0.719469 42.3819L6.37698 34.8422V21.9549C6.37698 13.1092 13.1092 5.65722 22.2687 3.42932ZM23.6275 46.6484C23.9464 47.4514 24.5378 48.1467 25.3201 48.6385C26.1025 49.1303 27.0373 49.3944 27.9957 49.3944C28.954 49.3944 29.8888 49.1303 30.6712 48.6385C31.4535 48.1467 32.0449 47.4514 32.3639 46.6484H23.6244H23.6275ZM27.9941 8.23632C23.899 8.23632 19.9715 9.68167 17.0758 12.2544C14.1801 14.8271 12.5533 18.3165 12.5533 21.9549V35.6735C12.5534 36.2155 12.3729 36.7454 12.0345 37.1963L9.06059 41.161H46.9245L43.9506 37.1963C43.6133 36.7451 43.4339 36.2152 43.4349 35.6735V21.9549C43.4349 18.3165 41.8081 14.8271 38.9124 12.2544C36.0167 9.68167 32.0893 8.23632 27.9941 8.23632Z" fill="black"/>
</svg>
