<svg width="35" height="35" viewBox="0 0 35 35" fill="none" xmlns="http://www.w3.org/2000/svg">
<g clip-path="url(#clip0_44_188)">
<path d="M30.625 7.29167C29.0062 6.78125 27.2271 6.5625 25.5208 6.5625C22.6771 6.5625 19.6146 7.14583 17.5 8.75C15.3854 7.14583 12.3229 6.5625 9.47915 6.5625C6.6354 6.5625 3.5729 7.14583 1.45831 8.75V30.1146C1.45831 30.4792 1.8229 30.8437 2.18748 30.8437C2.33331 30.8437 2.40623 30.7708 2.55206 30.7708C4.52081 29.8229 7.36456 29.1667 9.47915 29.1667C12.3229 29.1667 15.3854 29.75 17.5 31.3542C19.4687 30.1146 23.0416 29.1667 25.5208 29.1667C27.9271 29.1667 30.4062 29.6042 32.4479 30.6979C32.5937 30.7708 32.6666 30.7708 32.8125 30.7708C33.1771 30.7708 33.5416 30.4062 33.5416 30.0417V8.75C32.6666 8.09375 31.7187 7.65625 30.625 7.29167ZM30.625 26.9792C29.0208 26.4687 27.2708 26.25 25.5208 26.25C23.0416 26.25 19.4687 27.1979 17.5 28.4375V11.6667C19.4687 10.4271 23.0416 9.47917 25.5208 9.47917C27.2708 9.47917 29.0208 9.69792 30.625 10.2083V26.9792Z" fill="#ffffff"/>
<path d="M25.5208 15.3125C26.8041 15.3125 28.0437 15.4438 29.1666 15.6917V13.475C28.0146 13.2562 26.775 13.125 25.5208 13.125C23.0416 13.125 20.7958 13.5479 18.9583 14.3354V16.7562C20.6062 15.8229 22.8958 15.3125 25.5208 15.3125Z" fill="#ffffff"/>
<path d="M18.9583 18.2146V20.6354C20.6062 19.7021 22.8958 19.1917 25.5208 19.1917C26.8041 19.1917 28.0437 19.3229 29.1666 19.5708V17.3542C28.0146 17.1354 26.775 17.0042 25.5208 17.0042C23.0416 17.0042 20.7958 17.4417 18.9583 18.2146Z" fill="#ffffff"/>
<path d="M25.5208 20.8979C23.0416 20.8979 20.7958 21.3209 18.9583 22.1084V24.5292C20.6062 23.5959 22.8958 23.0854 25.5208 23.0854C26.8041 23.0854 28.0437 23.2167 29.1666 23.4646V21.2479C28.0146 21.0146 26.775 20.8979 25.5208 20.8979Z" fill="#ffffff"/>
</g>
<defs>
<clipPath id="clip0_44_188">
<rect width="35" height="35" fill="white"/>
</clipPath>
</defs>
</svg>
