<svg width="72" height="84" viewBox="0 0 72 84" fill="none" xmlns="http://www.w3.org/2000/svg">
<path fill-rule="evenodd" clip-rule="evenodd" d="M13.8462 27.9997C21.4932 27.9997 27.6924 21.7318 27.6924 13.9999C27.6924 6.26795 21.4932 0 13.8462 0C6.19915 0 0 6.26795 0 13.9999C0 21.7318 6.19915 27.9997 13.8462 27.9997ZM13.8468 19.6008C16.9056 19.6008 19.3853 17.0936 19.3853 14.0009C19.3853 10.9081 16.9056 8.40095 13.8468 8.40095C10.788 8.40095 8.30831 10.9081 8.30831 14.0009C8.30831 17.0936 10.788 19.6008 13.8468 19.6008Z" fill="white"/>
<path fill-rule="evenodd" clip-rule="evenodd" d="M58.1537 44.8023C65.8007 44.8023 71.9999 38.5344 71.9999 30.8025C71.9999 23.0706 65.8007 16.8026 58.1537 16.8026C50.5066 16.8026 44.3075 23.0706 44.3075 30.8025C44.3075 38.5344 50.5066 44.8023 58.1537 44.8023ZM58.1542 36.401C61.213 36.401 63.6926 33.8938 63.6926 30.801C63.6926 27.7083 61.213 25.2011 58.1542 25.2011C55.0953 25.2011 52.6157 27.7083 52.6157 30.801C52.6157 33.8938 55.0953 36.401 58.1542 36.401Z" fill="white"/>
<path fill-rule="evenodd" clip-rule="evenodd" d="M13.8462 84C21.4932 84 27.6924 77.7321 27.6924 70.0002C27.6924 62.2683 21.4932 56.0003 13.8462 56.0003C6.19915 56.0003 0 62.2683 0 70.0002C0 77.7321 6.19915 84 13.8462 84ZM13.8468 75.5996C16.9056 75.5996 19.3853 73.0924 19.3853 69.9996C19.3853 66.9069 16.9056 64.3997 13.8468 64.3997C10.788 64.3997 8.30831 66.9069 8.30831 69.9996C8.30831 73.0924 10.788 75.5996 13.8468 75.5996Z" fill="white"/>
<path d="M11.0781 22.4001H19.3858V58.7997H11.0781V22.4001Z" fill="white"/>
<path d="M60.8672 39.2016H49.8044C50.9285 41.3722 37.7904 55.959 16.6161 51.8452V61.6014C43.5006 60.4253 53.6271 55.7668 60.8672 39.2016Z" fill="white"/>
</svg>
