<svg width="46" height="42" viewBox="0 0 46 42" fill="none" xmlns="http://www.w3.org/2000/svg">
<path d="M2.08333 41.6667H36.7583C38.2341 41.6761 39.6668 41.1691 40.8082 40.2335C41.9496 39.2979 42.7279 37.9927 43.0083 36.5437L45.7271 21.9604C45.8932 21.068 45.8605 20.1499 45.6311 19.2716C45.4017 18.3933 44.9813 17.5764 44.4 16.8792C43.7988 16.158 43.0459 15.5783 42.1949 15.1815C41.344 14.7846 40.416 14.5804 39.4771 14.5833H29.5375V6.25C29.5375 1.95625 25.1354 0 21.0458 0C20.4933 0 19.9634 0.219493 19.5727 0.610194C19.182 1.00089 18.9625 1.5308 18.9625 2.08333C18.9625 6.05625 18.2542 10.2292 17.4542 11.0083L11.6521 16.6667H2.08333C1.5308 16.6667 1.00089 16.8862 0.610194 17.2769C0.219493 17.6676 0 18.1975 0 18.75V39.5833C0 40.1359 0.219493 40.6658 0.610194 41.0565C1.00089 41.4472 1.5308 41.6667 2.08333 41.6667ZM14.5833 19.6271L20.3625 14.0021C22.3 12.1125 22.8875 7.51875 23.0708 4.45208C24.2 4.72083 25.3812 5.24375 25.3812 6.26042V16.6771C25.3812 17.2296 25.6007 17.7595 25.9914 18.1502C26.3821 18.5409 26.912 18.7604 27.4646 18.7604H39.4875C39.8142 18.7581 40.1375 18.8278 40.4342 18.9647C40.7309 19.1015 40.9938 19.3021 41.2042 19.5521C41.397 19.7796 41.5363 20.0474 41.612 20.3358C41.6878 20.6242 41.6979 20.9259 41.6417 21.2188L38.9333 35.8021C38.8261 36.2945 38.5498 36.7339 38.1526 37.044C37.7553 37.3541 37.2621 37.5154 36.7583 37.5H14.5833V19.6271ZM4.16667 20.8333H10.4167V37.5H4.16667V20.8333Z" fill="black"/>
</svg>
