<svg width="93" height="84" viewBox="0 0 93 84" fill="none" xmlns="http://www.w3.org/2000/svg">
<path d="M4.2738 83.9997H73.879C76.8415 84.0187 79.7173 82.9966 82.0085 81.1105C84.2997 79.2244 85.862 76.593 86.425 73.672L91.8825 44.2721C92.2161 42.4729 92.1503 40.622 91.6898 38.8514C91.2293 37.0807 90.3855 35.4339 89.2186 34.0283C88.0117 32.5744 86.5004 31.4058 84.7922 30.6058C83.0841 29.8057 81.2213 29.394 79.3365 29.3999H59.3842V12.6C59.3842 3.94379 50.5476 0 42.3384 0C41.2292 0 40.1655 0.442498 39.3812 1.23015C38.597 2.0178 38.1564 3.08608 38.1564 4.19999C38.1564 12.2094 36.7345 20.6219 35.1286 22.1927L23.4817 33.5999H4.2738C3.16466 33.5999 2.10095 34.0424 1.31668 34.83C0.532399 35.6177 0.0917969 36.686 0.0917969 37.7999V79.7997C0.0917969 80.9136 0.532399 81.9819 1.31668 82.7696C2.10095 83.5572 3.16466 83.9997 4.2738 83.9997ZM19.0001 43H27.0001V75.5998H19.0001V43Z" fill="white"/>
</svg>
