<svg width="92" height="84" viewBox="0 0 92 84" fill="none" xmlns="http://www.w3.org/2000/svg">
<path d="M4.182 83.9997H73.7872C76.7497 84.0187 79.6255 82.9966 81.9167 81.1105C84.2079 79.2244 85.7702 76.593 86.3332 73.672L91.7907 44.2721C92.1243 42.4729 92.0585 40.622 91.598 38.8514C91.1375 37.0807 90.2937 35.4339 89.1268 34.0283C87.9199 32.5744 86.4086 31.4058 84.7004 30.6058C82.9923 29.8057 81.1295 29.394 79.2447 29.3999H59.2924V12.6C59.2924 3.94379 50.4558 0 42.2466 0C41.1374 0 40.0737 0.442497 39.2895 1.23015C38.5052 2.0178 38.0646 3.08608 38.0646 4.19999C38.0646 12.2094 36.6427 20.6219 35.0368 22.1927L23.3899 33.5999H4.182C3.07287 33.5999 2.00916 34.0424 1.22488 34.83C0.440602 35.6177 0 36.686 0 37.7999V79.7998C0 80.9137 0.440602 81.982 1.22488 82.7696C2.00916 83.5573 3.07287 83.9997 4.182 83.9997ZM29.274 39.5681L40.8749 28.2281C44.7641 24.4187 45.9435 15.1578 46.3115 8.97537C48.5781 9.51717 50.9493 10.5714 50.9493 12.621V33.6209C50.9493 34.7348 51.3899 35.8031 52.1742 36.5907C52.9585 37.3784 54.0222 37.8209 55.1313 37.8209H79.2656C79.9215 37.8162 80.5704 37.9568 81.166 38.2327C81.7616 38.5085 82.2893 38.9129 82.7116 39.4169C83.0986 39.8755 83.3784 40.4153 83.5304 40.9968C83.6824 41.5782 83.7027 42.1865 83.5898 42.7769L78.1532 72.1768C77.9379 73.1695 77.3834 74.0553 76.586 74.6805C75.7886 75.3057 74.7984 75.6309 73.7872 75.5998H29.274V39.5681ZM8.364 41.9999H20.91V75.5998H8.364V41.9999Z" fill="white"/>
</svg>
