<svg width="278" height="311" viewBox="0 0 278 311" fill="none" xmlns="http://www.w3.org/2000/svg">
<line y1="-1.5" x2="52.4211" y2="-1.5" transform="matrix(0.458755 0.888563 -0.896548 0.442946 88.9795 188.2)" stroke="black" stroke-width="3"/>
<path d="M144 115.583C165.644 97.2338 168.529 110.878 168.529 110.878" stroke="black" stroke-width="3"/>
<path d="M135.503 69C135.503 88.2905 141.513 98.6794 145.363 117.697C146.887 125.04 148.033 129.016 145.363 138.399C138.101 148.614 144.401 147.103 135.503 162.159C126.606 177.215 126.846 184.508 126.606 190.154C126.365 195.8 126.606 216.502 123.96 224.03C121.315 231.557 114.822 234.851 114.822 234.851C105.445 243.671 104 250.848 104 250.848C104 250.848 104.358 266.253 104 268.727" stroke="black" stroke-width="4"/>
<path d="M124.571 209.843C134.008 213.221 140.975 213 155.594 209.843C170.212 206.685 184.692 196.669 194.312 209.843" stroke="black" stroke-width="3"/>
<ellipse cx="191.048" cy="41.525" rx="24.0484" ry="23.525" fill="#FFC6E7"/>
<ellipse cx="113.028" cy="105.862" rx="24.0484" ry="23.525" fill="#FFC6E7"/>
<ellipse cx="167.378" cy="164.675" rx="24.0484" ry="23.525" fill="#FFC6E7"/>
<ellipse cx="24.0484" cy="201.374" rx="24.0484" ry="23.525" fill="#FFC6E7"/>
<ellipse cx="128.073" cy="36.2874" rx="36.0727" ry="35.2874" fill="#FF99CB"/>
<ellipse cx="201.073" cy="106.287" rx="36.0727" ry="35.2874" fill="#FF99CB"/>
<ellipse cx="76.9555" cy="156.676" rx="36.0727" ry="35.2874" fill="#FF99CB"/>
<ellipse cx="232.287" cy="199.345" rx="43.2872" ry="42.3449" fill="#F43054"/>
<g clip-path="url(#clip0_1990_2351)">
<path d="M128.063 247.937L114.385 265.385L124.78 278.645L118.945 282.833C112.781 274.981 102.532 261.895 102.532 261.895L80.6475 289.812H160.889L128.063 247.937Z" fill="#8E2A2A"/>
<path d="M106 242L107.347 270.886L81.3284 289.812C90.4269 271.987 62.8445 314.268 106 242Z" fill="#8E2A2A"/>
</g>
<defs>
<clipPath id="clip0_1990_2351">
<rect width="87.5363" height="83.7489" fill="white" transform="translate(77 227)"/>
</clipPath>
</defs>
</svg>
