<svg width="35" height="35" viewBox="0 0 35 35" fill="none" xmlns="http://www.w3.org/2000/svg">
<path d="M17.5 0C10.2512 0 4.375 5.87617 4.375 13.125C4.375 16.2302 5.74328 18.9607 7.25758 21.3281L16.6075 34.5384C16.8126 34.8283 17.1456 35 17.5 35C17.8544 35 18.1874 34.8283 18.3925 34.5384L27.7424 21.3281C29.1895 19.3802 30.625 16.2302 30.625 13.125C30.625 5.87617 24.7488 0 17.5 0ZM26.2976 21.3281H26.2921L17.5 33.3594L8.70789 21.3281H8.70242C7.36586 19.3971 5.46875 16.2963 5.46875 13.125C5.46875 6.48047 10.8555 1.09375 17.5 1.09375C24.1445 1.09375 29.5312 6.48047 29.5312 13.125C29.5312 16.2963 27.4974 19.5677 26.2976 21.3281Z" fill="#394240"/>
<path d="M17.5 7.65625C14.4796 7.65625 12.0312 10.1052 12.0312 13.125C12.0312 16.1448 14.4796 18.5938 17.5 18.5938C20.5204 18.5938 22.9688 16.1448 22.9688 13.125C22.9688 10.1052 20.5204 7.65625 17.5 7.65625ZM17.5 17.5C15.0839 17.5 13.125 15.5411 13.125 13.125C13.125 10.7089 15.0839 8.75 17.5 8.75C19.9161 8.75 21.875 10.7089 21.875 13.125C21.875 15.5411 19.9161 17.5 17.5 17.5Z" fill="#394240"/>
<path d="M17.5 5.46875C13.2716 5.46875 9.84375 8.89656 9.84375 13.125C9.84375 17.3534 13.2716 20.7812 17.5 20.7812C21.7284 20.7812 25.1562 17.3534 25.1562 13.125C25.1562 8.89656 21.7284 5.46875 17.5 5.46875ZM17.5 19.6875C13.8759 19.6875 10.9375 16.7491 10.9375 13.125C10.9375 9.50086 13.8759 6.5625 17.5 6.5625C21.1241 6.5625 24.0625 9.50086 24.0625 13.125C24.0625 16.7491 21.1241 19.6875 17.5 19.6875Z" fill="#394240"/>
<path d="M17.5 6.5625C13.8759 6.5625 10.9375 9.50086 10.9375 13.125C10.9375 16.7491 13.8759 19.6875 17.5 19.6875C21.1241 19.6875 24.0625 16.7491 24.0625 13.125C24.0625 9.50086 21.1241 6.5625 17.5 6.5625ZM17.5 18.5938C14.4802 18.5938 12.0312 16.1454 12.0312 13.125C12.0312 10.1046 14.4802 7.65625 17.5 7.65625C20.5198 7.65625 22.9688 10.1046 22.9688 13.125C22.9688 16.1454 20.5198 18.5938 17.5 18.5938Z" fill="#F43054"/>
<path d="M17.5 1.09375C10.8555 1.09375 5.46875 6.48047 5.46875 13.125C5.46875 16.2963 7.36586 19.3971 8.70242 21.3281H8.70789L17.5 33.3594L26.2921 21.3281H26.2976C27.4974 19.5677 29.5312 16.2963 29.5312 13.125C29.5312 6.48047 24.1445 1.09375 17.5 1.09375ZM17.5 20.7812C13.2716 20.7812 9.84375 17.3534 9.84375 13.125C9.84375 8.89656 13.2716 5.46875 17.5 5.46875C21.7284 5.46875 25.1562 8.89656 25.1562 13.125C25.1562 17.3534 21.7284 20.7812 17.5 20.7812Z" fill="#F43054"/>
<path opacity="0.2" d="M17.5 6.5625C13.8759 6.5625 10.9375 9.50086 10.9375 13.125C10.9375 16.7491 13.8759 19.6875 17.5 19.6875C21.1241 19.6875 24.0625 16.7491 24.0625 13.125C24.0625 9.50086 21.1241 6.5625 17.5 6.5625ZM17.5 18.5938C14.4802 18.5938 12.0312 16.1454 12.0312 13.125C12.0312 10.1046 14.4802 7.65625 17.5 7.65625C20.5198 7.65625 22.9688 10.1046 22.9688 13.125C22.9688 16.1454 20.5198 18.5938 17.5 18.5938Z" fill="#231F20"/>
</svg>
