<?xml version="1.0" encoding="utf-8"?>
<!-- Svg Vector Icons : http://www.onlinewebfonts.com/icon -->
<!DOCTYPE svg PUBLIC "-//W3C//DTD SVG 1.1//EN" "http://www.w3.org/Graphics/SVG/1.1/DTD/svg11.dtd">
<svg version="1.1" xmlns="http://www.w3.org/2000/svg" xmlns:xlink="http://www.w3.org/1999/xlink" x="0px" y="0px" viewBox="0 0 1000 1000" enable-background="new 0 0 1000 1000" xml:space="preserve">
<metadata> Svg Vector Icons : http://www.onlinewebfonts.com/icon </metadata>
<g><g fill="#00286E" transform="translate(0.000000,511.000000) scale(0.100000,-0.100000)"><path d="M4781.6,4997.4c-753.5-115.3-1375.6-839.3-1541.8-1793.9c-21.4-123.3-40.2-236-40.2-246.7c0-13.4-142.1-24.1-313.7-24.1c-421-2.7-571.1-56.3-667.7-246.7c-21.4-37.5-332.5-1622.3-694.5-3520.8c-724-3788.9-689.1-3544.9-522.9-3746c42.9-53.6,131.4-123.3,195.7-152.9c115.3-56.3,118-56.3,3802.3-56.3c3579.7,0,3687,2.7,3791.6,53.6c131.4,61.7,179.7,99.2,238.7,190.4c112.6,174.3,112.6,160.9-182.4,1726.9c-887.6,4673.8-1040.4,5472.9-1061.9,5510.4c-37.5,69.7-144.8,158.2-246.7,201.1c-72.4,29.5-193.1,40.2-421,40.2h-321.8l-16.1,128.7c-123.3,925.1-689.1,1700.1-1380.9,1890.4C5199.9,5008.1,4961.3,5024.2,4781.6,4997.4z M5317.9,4522.7c504.1-177,898.3-750.8,1029.7-1501.6l16.1-88.5H4996.1H3631.3l13.4,88.5c88.5,506.8,268.1,884.9,565.8,1187.9C4537.6,4544.2,4934.5,4656.8,5317.9,4522.7z M3636.6,1953.9c88.5-64.4,179.7-244,179.7-351.3c-2.7-230.6-193.1-418.3-429-418.3c-236,0-426.3,187.7-429,423.7c0,123.3,107.3,305.7,214.5,364.7C3293.4,2039.7,3532,2029,3636.6,1953.9z M6819.5,1970c107.3-56.3,214.5-238.7,214.5-362c0-45.6-24.2-131.4-51-193.1c-139.4-305.7-600.6-311-753.5-8c-69.7,134.1-67,257.4,8,399.5c72.4,139.4,201.1,214.5,367.4,214.5C6672.1,2020.9,6768.6,1999.5,6819.5,1970z"/></g></g>
</svg>
