<svg width="65" height="65" viewBox="0 0 65 65" fill="none" xmlns="http://www.w3.org/2000/svg">
<g clip-path="url(#clip0_11_33)">
<path d="M32.5 5.4165C17.55 5.4165 5.41669 17.5498 5.41669 32.4998C5.41669 47.4498 17.55 59.5832 32.5 59.5832C47.45 59.5832 59.5834 47.4498 59.5834 32.4998C59.5834 17.5498 47.45 5.4165 32.5 5.4165ZM32.5 16.2498C37.7271 16.2498 41.9792 20.5019 41.9792 25.729C41.9792 30.9561 37.7271 35.2082 32.5 35.2082C27.2729 35.2082 23.0209 30.9561 23.0209 25.729C23.0209 20.5019 27.2729 16.2498 32.5 16.2498ZM32.5 54.1665C27.0021 54.1665 20.5021 51.9457 15.8709 46.3665C20.4479 42.7915 26.2167 40.6248 32.5 40.6248C38.7834 40.6248 44.5521 42.7915 49.1292 46.3665C44.4979 51.9457 37.9979 54.1665 32.5 54.1665Z" fill="white"/>
</g>
<defs>
<clipPath id="clip0_11_33">
<rect width="65" height="65" fill="white"/>
</clipPath>
</defs>
</svg>
