<svg width="45" height="30" viewBox="0 0 45 30" fill="none" xmlns="http://www.w3.org/2000/svg">
<path d="M40.9091 0.868566C38.6386 0.26057 36.1432 0 33.75 0C29.7614 0 25.4659 0.694853 22.5 2.6057C19.5341 0.694853 15.2386 0 11.25 0C7.26136 0 2.96591 0.694853 0 2.6057V28.0547C0 28.489 0.511364 28.9233 1.02273 28.9233C1.22727 28.9233 1.32955 28.8364 1.53409 28.8364C4.29545 27.7073 8.28409 26.9256 11.25 26.9256C15.2386 26.9256 19.5341 27.6204 22.5 29.5312C25.2614 28.0547 30.2727 26.9256 33.75 26.9256C37.125 26.9256 40.6023 27.4467 43.4659 28.7495C43.6705 28.8364 43.7727 28.8364 43.9773 28.8364C44.4886 28.8364 45 28.4021 45 27.9678V2.6057C43.7727 1.82399 42.4432 1.30285 40.9091 0.868566ZM40.9091 24.3199C38.6591 23.7119 36.2045 23.4513 33.75 23.4513C30.2727 23.4513 25.2614 24.5804 22.5 26.057V6.07996C25.2614 4.6034 30.2727 3.47426 33.75 3.47426C36.2045 3.47426 38.6591 3.73483 40.9091 4.34283V24.3199Z" fill="#09275B"/>
<path d="M33.7504 10.4228C35.5504 10.4228 37.2891 10.5792 38.8641 10.8745V8.23405C37.2482 7.97348 35.5095 7.81714 33.7504 7.81714C30.2732 7.81714 27.1232 8.32091 24.5459 9.25896V12.1426C26.8573 11.0308 30.0686 10.4228 33.7504 10.4228Z" fill="#09275B"/>
<path d="M24.5459 13.8798V16.7634C26.8573 15.6517 30.0686 15.0437 33.7504 15.0437C35.5504 15.0437 37.2891 15.2 38.8641 15.4953V12.8549C37.2482 12.5943 35.5095 12.438 33.7504 12.438C30.2732 12.438 27.1232 12.9591 24.5459 13.8798Z" fill="#09275B"/>
<path d="M33.7504 17.0762C30.2732 17.0762 27.1232 17.5799 24.5459 18.518V21.4016C26.8573 20.2899 30.0686 19.6819 33.7504 19.6819C35.5504 19.6819 37.2891 19.8382 38.8641 20.1335V17.4931C37.2482 17.2151 35.5095 17.0762 33.7504 17.0762Z" fill="#09275B"/>
</svg>
