<svg width="53" height="38" viewBox="0 0 53 38" fill="none" xmlns="http://www.w3.org/2000/svg">
<g filter="url(#filter0_d_730_6759)">
<path d="M44.9091 0.868566C42.6386 0.26057 40.1432 0 37.75 0C33.7614 0 29.4659 0.694853 26.5 2.6057C23.5341 0.694853 19.2386 0 15.25 0C11.2614 0 6.96591 0.694853 4 2.6057V28.0547C4 28.489 4.51136 28.9233 5.02273 28.9233C5.22727 28.9233 5.32955 28.8364 5.53409 28.8364C8.29545 27.7073 12.2841 26.9256 15.25 26.9256C19.2386 26.9256 23.5341 27.6204 26.5 29.5312C29.2614 28.0547 34.2727 26.9256 37.75 26.9256C41.125 26.9256 44.6023 27.4467 47.4659 28.7495C47.6705 28.8364 47.7727 28.8364 47.9773 28.8364C48.4886 28.8364 49 28.4021 49 27.9678V2.6057C47.7727 1.82399 46.4432 1.30285 44.9091 0.868566ZM44.9091 24.3199C42.6591 23.7119 40.2045 23.4513 37.75 23.4513C34.2727 23.4513 29.2614 24.5804 26.5 26.057V6.07996C29.2614 4.6034 34.2727 3.47426 37.75 3.47426C40.2045 3.47426 42.6591 3.73483 44.9091 4.34283V24.3199Z" fill="#09275B"/>
<path d="M37.75 10.4228C39.55 10.4228 41.2886 10.5792 42.8636 10.8745V8.23405C41.2477 7.97348 39.509 7.81714 37.75 7.81714C34.2727 7.81714 31.1227 8.32091 28.5454 9.25896V12.1426C30.8568 11.0308 34.0681 10.4228 37.75 10.4228Z" fill="#09275B"/>
<path d="M28.5454 13.8798V16.7634C30.8568 15.6517 34.0681 15.0437 37.75 15.0437C39.55 15.0437 41.2886 15.2 42.8636 15.4953V12.8549C41.2477 12.5943 39.509 12.438 37.75 12.438C34.2727 12.438 31.1227 12.9591 28.5454 13.8798Z" fill="#09275B"/>
<path d="M37.75 17.0762C34.2727 17.0762 31.1227 17.5799 28.5454 18.518V21.4016C30.8568 20.2899 34.0681 19.6819 37.75 19.6819C39.55 19.6819 41.2886 19.8382 42.8636 20.1335V17.4931C41.2477 17.2151 39.509 17.0762 37.75 17.0762Z" fill="#09275B"/>
</g>
<defs>
<filter id="filter0_d_730_6759" x="0" y="0" width="53" height="37.5312" filterUnits="userSpaceOnUse" color-interpolation-filters="sRGB">
<feFlood flood-opacity="0" result="BackgroundImageFix"/>
<feColorMatrix in="SourceAlpha" type="matrix" values="0 0 0 0 0 0 0 0 0 0 0 0 0 0 0 0 0 0 127 0" result="hardAlpha"/>
<feOffset dy="4"/>
<feGaussianBlur stdDeviation="2"/>
<feComposite in2="hardAlpha" operator="out"/>
<feColorMatrix type="matrix" values="0 0 0 0 0 0 0 0 0 0 0 0 0 0 0 0 0 0 0.25 0"/>
<feBlend mode="normal" in2="BackgroundImageFix" result="effect1_dropShadow_730_6759"/>
<feBlend mode="normal" in="SourceGraphic" in2="effect1_dropShadow_730_6759" result="shape"/>
</filter>
</defs>
</svg>
