<svg width="45" height="45" viewBox="0 0 45 45" fill="none" xmlns="http://www.w3.org/2000/svg">
<path d="M22.5 0C10.1 0 0 10.1 0 22.5C0 34.9 10.1 45 22.5 45C34.9 45 45 34.9 45 22.5C45 10.1 34.9 0 22.5 0ZM22.5 41.25C12.15 41.25 3.75 32.85 3.75 22.5C3.75 12.15 12.15 3.75 22.5 3.75C32.85 3.75 41.25 12.15 41.25 22.5C41.25 32.85 32.85 41.25 22.5 41.25ZM28.25 11.75C29.775 13.275 30.625 15.325 30.625 17.5C30.625 19.675 29.775 21.7 28.25 23.25C27.175 24.325 25.825 25.075 24.375 25.4V26.25C24.375 27.275 23.525 28.125 22.5 28.125C21.475 28.125 20.625 27.275 20.625 26.25V23.75C20.625 22.725 21.475 21.875 22.5 21.875C23.675 21.875 24.775 21.425 25.6 20.6C26.425 19.775 26.875 18.675 26.875 17.5C26.875 16.325 26.425 15.225 25.6 14.4C23.95 12.75 21.075 12.75 19.425 14.4C18.6 15.225 18.15 16.325 18.15 17.5C18.15 18.525 17.3 19.375 16.275 19.375C15.25 19.375 14.4 18.525 14.4 17.5C14.4 15.325 15.25 13.3 16.775 11.75C19.85 8.675 25.2 8.675 28.275 11.75H28.25ZM25 33.125C25 34.5 23.875 35.625 22.5 35.625C21.125 35.625 20 34.5 20 33.125C20 31.75 21.125 30.625 22.5 30.625C23.875 30.625 25 31.75 25 33.125Z" fill="white"/>
</svg>
