<svg width="12" height="16" viewBox="0 0 12 16" fill="none" xmlns="http://www.w3.org/2000/svg">
<rect x="0.692383" y="5.53833" width="10.3846" height="9.69231" fill="#525252"/>
<path d="M6 12C6.825 12 7.5 11.325 7.5 10.5C7.5 9.675 6.825 9 6 9C5.175 9 4.5 9.675 4.5 10.5C4.5 11.325 5.175 12 6 12ZM10.5 5.25H9.75V3.75C9.75 1.68 8.07 0 6 0C3.93 0 2.25 1.68 2.25 3.75H3.675C3.675 2.4675 4.7175 1.425 6 1.425C7.2825 1.425 8.325 2.4675 8.325 3.75V5.25H1.5C0.675 5.25 0 5.925 0 6.75V14.25C0 15.075 0.675 15.75 1.5 15.75H10.5C11.325 15.75 12 15.075 12 14.25V6.75C12 5.925 11.325 5.25 10.5 5.25ZM10.5 14.25H1.5V6.75H10.5V14.25Z" fill="#525252"/>
<path d="M7.61538 10.5577C7.61538 11.418 6.91798 12.1154 6.05769 12.1154C5.1974 12.1154 4.5 11.418 4.5 10.5577C4.5 9.6974 5.1974 9 6.05769 9C6.91798 9 7.61538 9.6974 7.61538 10.5577Z" fill="#F4F0E8"/>
</svg>
