<?xml version="1.0" standalone="no"?>
<!DOCTYPE svg PUBLIC "-//W3C//DTD SVG 20010904//EN"
 "http://www.w3.org/TR/2001/REC-SVG-20010904/DTD/svg10.dtd">
<svg version="1.0" xmlns="http://www.w3.org/2000/svg"
 width="532.000000pt" height="532.000000pt" viewBox="0 0 532.000000 532.000000"
 preserveAspectRatio="xMidYMid meet">
<metadata>
Created by potrace 1.14, written by Peter Selinger 2001-2017
</metadata>
<g transform="translate(0.000000,532.000000) scale(0.100000,-0.100000)"
fill="#000000" stroke="none">
<path d="M2288 5315 c-1 -2 -16 -6 -33 -8 -42 -8 -105 -26 -135 -39 -14 -6
-36 -15 -50 -21 -51 -22 -159 -99 -199 -143 -68 -74 -99 -128 -137 -229 -13
-37 -15 -49 -19 -140 -13 -263 161 -491 445 -584 89 -29 127 -35 253 -34 59 0
107 -2 108 -6 1 -3 2 -24 4 -46 3 -54 15 -155 20 -180 3 -11 7 -31 9 -45 2
-14 10 -45 17 -70 7 -25 13 -47 14 -50 1 -3 12 -39 24 -80 13 -41 24 -79 26
-85 1 -5 5 -17 8 -25 15 -40 39 -126 66 -235 23 -93 29 -139 27 -205 -2 -87
-2 -86 -68 -208 -15 -27 -30 -63 -32 -78 -13 -70 -20 -92 -46 -145 -15 -31
-45 -83 -65 -115 -63 -98 -126 -224 -140 -284 -1 -3 -5 -16 -8 -30 -14 -53
-18 -89 -22 -220 -5 -154 -15 -366 -20 -389 -1 -9 -6 -36 -10 -61 -9 -61 -50
-142 -86 -175 -17 -15 -33 -24 -36 -21 -3 3 -99 169 -213 368 l-208 363 32 15
c17 8 33 17 36 20 3 3 31 22 62 43 200 135 295 378 236 600 -94 349 -491 549
-877 441 -61 -17 -179 -71 -199 -91 -7 -7 -17 -13 -21 -13 -5 0 -37 -29 -73
-63 -266 -260 -234 -652 72 -873 48 -35 104 -65 175 -95 106 -44 340 -55 436
-21 51 18 69 10 101 -48 17 -30 39 -67 50 -83 11 -15 16 -27 12 -27 -4 0 -1
-8 7 -17 8 -10 20 -29 28 -43 8 -14 46 -79 84 -145 38 -66 79 -138 91 -160 12
-22 44 -77 70 -123 l48 -83 -61 -62 c-105 -107 -167 -209 -172 -284 0 -5 -6
-15 -13 -23 -7 -8 -29 -44 -48 -80 -62 -114 -90 -165 -98 -175 -4 -5 -42 -73
-85 -150 -43 -77 -83 -147 -91 -155 -38 -44 -63 -43 733 -44 414 -1 753 1 753
4 0 3 -15 21 -33 41 -17 20 -52 60 -77 89 -25 29 -49 58 -55 64 -5 6 -28 31
-49 56 -21 25 -65 74 -96 110 -66 75 -126 144 -189 218 -104 123 -122 138
-135 120 -12 -16 -87 -103 -139 -161 -16 -18 -46 -53 -67 -78 l-39 -45 32 -35
c18 -19 57 -64 87 -100 30 -35 59 -67 64 -70 5 -4 6 -14 3 -22 -7 -19 -98 -70
-107 -60 -4 5 -42 49 -85 98 -43 50 -89 102 -102 116 -27 29 -28 37 -38 228
-3 68 -7 127 -7 130 -6 33 99 154 181 210 70 48 120 103 149 161 21 45 27 66
41 148 4 23 9 45 9 47 1 3 2 18 2 34 0 29 1 29 34 20 19 -5 58 -11 87 -14 30
-2 56 -5 59 -6 3 -1 7 -1 10 -1 227 13 204 10 479 68 14 3 28 7 33 10 4 3 16
7 25 9 10 1 59 15 108 29 116 33 147 38 220 38 70 -1 134 -25 184 -71 19 -17
37 -31 40 -31 4 0 12 -15 20 -32 36 -84 122 -189 217 -266 45 -36 194 -120
227 -126 6 -2 19 -6 27 -9 21 -8 87 -25 135 -34 48 -9 263 -7 320 2 106 18
270 89 361 156 108 80 220 229 261 349 31 91 40 249 20 336 -20 84 -66 198
-86 214 -3 3 -18 23 -33 45 -87 133 -279 263 -443 300 -5 2 -30 8 -55 15 -56
16 -269 22 -335 9 -28 -6 -61 -12 -75 -14 -62 -9 -280 -107 -280 -125 0 -5 -9
-12 -20 -15 -28 -9 -149 -129 -189 -188 -89 -131 -134 -330 -107 -479 l7 -37
-43 24 c-37 21 -108 39 -158 39 -58 0 -143 -17 -275 -54 -260 -74 -360 -92
-533 -96 -67 -1 -137 1 -155 6 -17 4 -44 11 -59 14 -16 4 -25 12 -23 19 2 6 6
98 9 202 5 180 8 203 43 320 9 27 75 153 109 206 66 102 101 177 118 247 8 34
13 62 10 62 -2 0 10 21 26 48 68 109 74 127 74 257 0 73 -5 132 -13 150 -11
27 -10 31 16 50 160 117 316 154 354 84 5 -10 18 -19 29 -19 11 0 21 -9 25
-22 41 -143 162 -282 312 -358 34 -17 65 -31 68 -30 3 0 20 -6 38 -13 17 -8
50 -18 72 -22 22 -5 47 -10 55 -12 26 -6 204 -5 240 1 322 58 549 297 556 584
3 126 -23 212 -97 322 -96 143 -270 250 -464 285 -39 7 -202 7 -235 0 -14 -3
-37 -7 -53 -10 -213 -39 -431 -227 -493 -425 -21 -67 -33 -168 -22 -186 9 -14
-10 -42 -19 -29 -27 35 -110 39 -198 10 -28 -10 -84 -37 -126 -61 -42 -24 -79
-44 -82 -44 -4 0 -7 8 -7 17 0 9 -4 30 -10 47 -82 258 -113 362 -124 416 -16
74 -27 157 -29 215 -4 70 -4 70 -32 68 -27 -2 -30 6 -3 11 34 5 158 51 158 58
0 4 6 8 13 8 16 0 102 59 148 102 46 42 109 121 109 137 0 6 4 11 9 11 5 0 12
10 16 23 9 28 11 33 29 83 13 36 31 143 28 169 -14 134 -34 197 -90 285 -123
195 -345 308 -606 308 -52 0 -96 -1 -98 -3z"/>
<path d="M3536 5024 c-62 -15 -155 -61 -196 -97 -81 -72 -135 -175 -142 -272
-5 -68 56 -245 84 -245 6 0 9 -3 5 -6 -3 -3 14 -23 37 -44 103 -88 194 -123
326 -123 201 -1 362 96 435 263 15 34 20 66 20 140 0 83 -4 102 -28 150 -52
104 -155 190 -272 226 -68 21 -197 25 -269 8z"/>
<path d="M2052 3900 c-93 -20 -202 -89 -267 -171 -72 -90 -93 -229 -52 -339
33 -91 76 -144 161 -201 232 -155 571 -78 689 158 105 208 -6 447 -248 535
-67 24 -211 33 -283 18z"/>
<path d="M3095 2893 c-198 -41 -344 -197 -350 -376 -2 -71 15 -142 46 -198 44
-77 167 -171 254 -194 17 -5 37 -10 45 -12 8 -3 49 -6 91 -8 253 -12 465 163
473 390 9 259 -270 457 -559 398z"/>
<path d="M419 2276 c-2 -2 -20 -6 -39 -9 -136 -20 -270 -120 -328 -245 -21
-46 -26 -72 -26 -137 0 -94 6 -123 42 -188 73 -135 246 -226 422 -222 156 4
282 67 374 187 61 80 85 232 52 323 -62 170 -218 279 -416 290 -42 3 -79 3
-81 1z"/>
</g>
</svg>
