<svg width="45" height="45" viewBox="0 0 45 45" fill="none" xmlns="http://www.w3.org/2000/svg">
<path d="M36.0009 19.0035C36.0009 12.9585 31.9134 7.86602 26.3521 6.34352C26.072 5.6511 25.5914 5.05813 24.9721 4.64059C24.3528 4.22306 23.6228 4 22.8759 4C22.1289 4 21.399 4.22306 20.7797 4.64059C20.1603 5.05813 19.6798 5.6511 19.3996 6.34352C18.3609 6.62847 17.3614 7.04098 16.424 7.57165L19.2215 10.3673C20.6471 9.76383 22.2 9.52281 23.7415 9.66575C25.283 9.80869 26.7651 10.3311 28.0554 11.1864C29.3458 12.0417 30.4043 13.2032 31.1364 14.5673C31.8684 15.9313 32.2514 17.4554 32.2509 19.0035V23.3966L36.0009 27.1466V19.0035ZM6.32902 32.9423L9.75089 27.8104V19.0035C9.75089 17.0348 10.184 15.1673 10.9621 13.491L6.55027 9.07914C6.20872 8.72552 6.01973 8.25189 6.024 7.76027C6.02827 7.26865 6.22547 6.79838 6.57311 6.45074C6.92075 6.1031 7.39102 5.9059 7.88264 5.90163C8.37426 5.89736 8.84789 6.08635 9.20152 6.42789L39.2015 36.4279C39.5431 36.7815 39.7321 37.2551 39.7278 37.7468C39.7235 38.2384 39.5263 38.7087 39.1787 39.0563C38.831 39.4039 38.3608 39.6011 37.8691 39.6054C37.3775 39.6097 36.9039 39.4207 36.5503 39.0791L33.3496 35.8785H29.3728C29.147 37.4406 28.366 38.869 27.1728 39.9022C25.9797 40.9353 24.4542 41.5039 22.8759 41.5039C21.2976 41.5039 19.7721 40.9353 18.579 39.9022C17.3858 38.869 16.6048 37.4406 16.379 35.8785H7.90027C7.46996 35.8852 7.05061 35.7428 6.71339 35.4754C6.34005 35.181 6.09261 34.7557 6.02124 34.2857C5.94986 33.8157 6.05989 33.3342 6.32902 32.9423ZM11.3821 32.1285H29.6015L13.8703 16.3973C13.6253 17.2443 13.5009 18.1217 13.5009 19.0035V28.3785C13.501 28.7489 13.3914 29.111 13.1859 29.4191L11.3821 32.1285ZM20.2246 35.8785C20.4179 36.4279 20.7769 36.9037 21.2522 37.2403C21.7274 37.5769 22.2954 37.7577 22.8778 37.7577C23.4601 37.7577 24.0281 37.5769 24.5034 37.2403C24.9786 36.9037 25.3376 36.4279 25.5309 35.8785H20.2246Z" fill="#525252"/>
</svg>
