<svg width="36" height="35" viewBox="0 0 36 35" fill="none" xmlns="http://www.w3.org/2000/svg">
<path d="M14.0811 2.18706C14.3716 1.54087 14.87 0.987482 15.5122 0.597826C16.1545 0.208169 16.9114 0 17.686 0C18.4606 0 19.2176 0.208169 19.8598 0.597826C20.5021 0.987482 21.0005 1.54087 21.291 2.18706C24.1663 2.89868 26.7025 4.44004 28.5101 6.57443C30.3177 8.70882 31.2968 11.3182 31.2969 14.0018V22.2207L34.8591 27.0292C35.0545 27.2927 35.1667 27.599 35.1837 27.9154C35.2008 28.2319 35.1221 28.5465 34.9561 28.8258C34.79 29.1052 34.5428 29.3387 34.2408 29.5015C33.9388 29.6642 33.5934 29.7502 33.2413 29.7502H24.4234C24.1893 31.2079 23.3794 32.541 22.142 33.5052C20.9047 34.4693 19.3228 35 17.686 35C16.0493 35 14.4674 34.4693 13.23 33.5052C11.9927 32.541 11.1828 31.2079 10.9486 29.7502H2.13074C1.77872 29.7502 1.43328 29.6642 1.13129 29.5015C0.829303 29.3387 0.582084 29.1052 0.416012 28.8258C0.24994 28.5465 0.171246 28.2319 0.188325 27.9154C0.205404 27.599 0.317615 27.2927 0.512988 27.0292L4.07515 22.2207V14.0018C4.07515 8.36041 8.31397 3.60791 14.0811 2.18706ZM14.9366 29.7502C15.1375 30.2622 15.5098 30.7057 16.0024 31.0193C16.495 31.333 17.0836 31.5014 17.687 31.5014C18.2904 31.5014 18.879 31.333 19.3716 31.0193C19.8642 30.7057 20.2366 30.2622 20.4374 29.7502H14.9347H14.9366ZM17.686 5.25273C15.1076 5.25273 12.6347 6.17451 10.8115 7.81528C8.98826 9.45605 7.96397 11.6814 7.96397 14.0018V22.7509C7.96406 23.0965 7.85039 23.4345 7.63731 23.722L5.76484 26.2505H29.6053L27.7328 23.722C27.5204 23.4343 27.4074 23.0964 27.4081 22.7509V14.0018C27.4081 11.6814 26.3838 9.45605 24.5606 7.81528C22.7373 6.17451 20.2645 5.25273 17.686 5.25273Z" fill="#525252"/>
</svg>
