<svg width="30" height="28" viewBox="0 0 30 28" fill="none" xmlns="http://www.w3.org/2000/svg">
<g opacity="0.4" filter="url(#filter0_d_313_473)">
<path d="M15 25.5C21.9035 25.5 27.5 19.9035 27.5 13C27.5 6.09644 21.9035 0.5 15 0.5C8.09644 0.5 2.5 6.09644 2.5 13C2.5 19.9035 8.09644 25.5 15 25.5Z" fill="#292D32"/>
<path d="M16 13C16 13.5522 15.5522 14 15 14C14.4477 14 14 13.5523 14 13C14 12.4477 14.4477 12 15 12C15.5523 12 16 12.4477 16 13Z" stroke="black" stroke-width="23"/>
</g>
<path d="M20 12.0625H15.9375V8C15.9375 7.4875 15.5125 7.0625 15 7.0625C14.4875 7.0625 14.0625 7.4875 14.0625 8V12.0625H10C9.4875 12.0625 9.0625 12.4875 9.0625 13C9.0625 13.5125 9.4875 13.9375 10 13.9375H14.0625V18C14.0625 18.5125 14.4875 18.9375 15 18.9375C15.5125 18.9375 15.9375 18.5125 15.9375 18V13.9375H20C20.5125 13.9375 20.9375 13.5125 20.9375 13C20.9375 12.4875 20.5125 12.0625 20 12.0625Z" fill="#292D32"/>
<defs>
<filter id="filter0_d_313_473" x="-1.5" y="0.5" width="33" height="33" filterUnits="userSpaceOnUse" color-interpolation-filters="sRGB">
<feFlood flood-opacity="0" result="BackgroundImageFix"/>
<feColorMatrix in="SourceAlpha" type="matrix" values="0 0 0 0 0 0 0 0 0 0 0 0 0 0 0 0 0 0 127 0" result="hardAlpha"/>
<feOffset dy="4"/>
<feGaussianBlur stdDeviation="2"/>
<feComposite in2="hardAlpha" operator="out"/>
<feColorMatrix type="matrix" values="0 0 0 0 0 0 0 0 0 0 0 0 0 0 0 0 0 0 0.25 0"/>
<feBlend mode="normal" in2="BackgroundImageFix" result="effect1_dropShadow_313_473"/>
<feBlend mode="normal" in="SourceGraphic" in2="effect1_dropShadow_313_473" result="shape"/>
</filter>
</defs>
</svg>
