<svg width="51" height="43" viewBox="0 0 51 43" fill="none" xmlns="http://www.w3.org/2000/svg">
<path d="M45.576 1.69551C46.0175 1.15293 46.6546 0.805548 47.3498 0.728253C48.045 0.650957 48.7428 0.849936 49.2927 1.2823C49.8426 1.71466 50.2006 2.34578 50.2895 3.03962C50.3784 3.73346 50.1911 4.43446 49.768 4.99151L21.44 41.0288C21.0733 41.4953 20.6073 41.8743 20.076 42.1384C19.5447 42.4025 18.9612 42.545 18.368 42.5557C17.7747 42.5665 17.1865 42.4451 16.6459 42.2003C16.1054 41.9556 15.6261 41.5937 15.2427 41.1408L1.63204 25.0555C1.39637 24.7896 1.21621 24.4794 1.10214 24.1429C0.988059 23.8064 0.94237 23.4505 0.967751 23.0962C0.993132 22.7418 1.08907 22.396 1.24994 22.0793C1.4108 21.7625 1.63334 21.481 1.90449 21.2515C2.17565 21.0219 2.48994 20.8488 2.82891 20.7424C3.16789 20.636 3.52471 20.5984 3.87842 20.6318C4.23213 20.6652 4.5756 20.769 4.88865 20.937C5.20169 21.105 5.47801 21.3339 5.70138 21.6102L18.256 36.4475L45.576 1.69551Z" fill="#00286E"/>
</svg>
