<?xml version="1.0" standalone="no"?>
<!DOCTYPE svg PUBLIC "-//W3C//DTD SVG 20010904//EN"
 "http://www.w3.org/TR/2001/REC-SVG-20010904/DTD/svg10.dtd">
<svg version="1.0" xmlns="http://www.w3.org/2000/svg"
 width="32px" height="32px" viewBox="0 0 512.000000 512.000000"
 preserveAspectRatio="xMidYMid meet">

<g transform="translate(0.000000,512.000000) scale(0.100000,-0.100000)"
fill="#FFFFFF" stroke="none">
<path d="M2348 5109 c-596 -49 -1164 -314 -1594 -743 -1001 -1002 -1001 -2610
0 -3612 1002 -1001 2610 -1001 3612 0 1001 1002 1001 2610 0 3612 -535 534
-1270 805 -2018 743z m-231 -1651 l443 -443 443 443 c243 243 447 442 452 442
13 0 445 -432 445 -445 0 -5 -199 -209 -442 -452 l-443 -443 443 -443 c243
-243 442 -447 442 -452 0 -13 -432 -445 -445 -445 -5 0 -209 199 -452 442
l-443 443 -443 -443 c-243 -243 -447 -442 -452 -442 -13 0 -445 432 -445 445
0 5 199 209 442 452 l443 443 -443 443 c-243 243 -442 447 -442 452 0 13 432
445 445 445 5 0 209 -199 452 -442z"/>
</g>
</svg>
