<svg width="37" height="47" viewBox="0 0 37 47" fill="none" xmlns="http://www.w3.org/2000/svg">
<path d="M31.8082 15.6315H29.5878V11.1907C29.5878 5.06243 24.6141 0.0887451 18.4858 0.0887451C12.3575 0.0887451 7.38384 5.06243 7.38384 11.1907V15.6315H5.16345C2.72101 15.6315 0.722656 17.6299 0.722656 20.0723V42.2762C0.722656 44.7187 2.72101 46.717 5.16345 46.717H31.8082C34.2506 46.717 36.249 44.7187 36.249 42.2762V20.0723C36.249 17.6299 34.2506 15.6315 31.8082 15.6315ZM11.8246 11.1907C11.8246 7.50486 14.8 4.52953 18.4858 4.52953C22.1717 4.52953 25.147 7.50486 25.147 11.1907V15.6315H11.8246V11.1907ZM31.8082 42.2762H5.16345V20.0723H31.8082V42.2762ZM18.4858 35.6151C20.9282 35.6151 22.9266 33.6167 22.9266 31.1743C22.9266 28.7318 20.9282 26.7335 18.4858 26.7335C16.0434 26.7335 14.045 28.7318 14.045 31.1743C14.045 33.6167 16.0434 35.6151 18.4858 35.6151Z" fill="black"/>
</svg>
