<svg width="51" height="57" viewBox="0 0 51 57" fill="none" xmlns="http://www.w3.org/2000/svg">
<ellipse cx="34.6356" cy="7.29115" rx="4.35121" ry="4.28896" fill="#FFC6E7"/>
<ellipse cx="20.4507" cy="19.3002" rx="4.35121" ry="4.28896" fill="#FFC6E7"/>
<ellipse cx="30.2844" cy="30.0226" rx="4.35121" ry="4.28896" fill="#FFC6E7"/>
<ellipse cx="42.4678" cy="35.8556" rx="7.83218" ry="7.72012" fill="#F43054"/>
<ellipse cx="4.35121" cy="36.7135" rx="4.35121" ry="4.28896" fill="#FFC6E7"/>
<ellipse cx="22.6263" cy="6.43343" rx="6.52682" ry="6.43343" fill="#FF99CB"/>
<ellipse cx="36.8112" cy="19.3004" rx="6.52682" ry="6.43343" fill="#FF99CB"/>
<ellipse cx="13.9239" cy="28.5645" rx="6.52682" ry="6.43343" fill="#FF99CB"/>
<line y1="-1.5" x2="9.54198" y2="-1.5" transform="matrix(0.456007 0.889976 -0.895205 0.445655 16.0995 34.3118)" stroke="black" stroke-width="3"/>
<path d="M25.9767 21.6163C29.8928 18.2709 30.415 20.7585 30.415 20.7585" stroke="black" stroke-width="3"/>
<path d="M24.2362 12.7383C24.2362 16.2552 25.3235 18.1493 26.0202 21.6164C26.2959 22.9553 26.5032 23.6801 26.0202 25.3907C24.7061 27.2531 25.8462 26.9776 24.2362 29.7225C22.6263 32.4675 22.6698 33.7971 22.6263 34.8264C22.5828 35.8558 22.6263 39.63 22.1476 41.0025C21.669 42.375 20.4942 42.9754 20.4942 42.9754C18.7976 44.5835 18.5361 45.8919 18.5361 45.8919C18.5361 45.8919 18.6008 48.7006 18.5361 49.1515" stroke="black" stroke-width="4"/>
<path d="M22.5392 38.2576C24.2467 38.8735 25.5073 38.8332 28.1523 38.2576C30.7973 37.6819 33.4173 35.8557 35.1578 38.2576" stroke="black" stroke-width="3"/>
<g clip-path="url(#clip0_44_160)">
<path d="M23.1629 45.2485L20.6882 48.4295L22.569 50.8471L21.5131 51.6105C20.3978 50.179 18.5434 47.7933 18.5434 47.7933L14.5838 52.8829H29.1023L23.1629 45.2485Z" fill="#8E2A2A"/>
<path d="M19.165 44.0476L19.4147 49.4324L14.7071 52.8829L19.165 44.0476Z" fill="#8E2A2A"/>
</g>
<defs>
<clipPath id="clip0_44_160">
<rect width="15.8384" height="15.2687" fill="white" transform="translate(13.9239 41.4314)"/>
</clipPath>
</defs>
</svg>
