<svg width="35" height="35" viewBox="0 0 35 35" fill="none" xmlns="http://www.w3.org/2000/svg">
<g clip-path="url(#clip0_739_1831)">
<path d="M28.3355 18.9292C28.3939 18.4626 28.4376 17.9959 28.4376 17.5001C28.4376 17.0042 28.3939 16.5376 28.3355 16.0709L31.4126 13.6647C31.6897 13.4459 31.7626 13.0522 31.5876 12.7313L28.671 7.6855C28.5397 7.45216 28.2918 7.32091 28.0293 7.32091C27.9418 7.32091 27.8543 7.3355 27.7814 7.36466L24.1501 8.823C23.3918 8.23966 22.5751 7.75841 21.6855 7.39383L21.1314 3.52925C21.0876 3.17925 20.7814 2.91675 20.4168 2.91675H14.5835C14.2189 2.91675 13.9126 3.17925 13.8689 3.52925L13.3147 7.39383C12.4251 7.75841 11.6085 8.25425 10.8501 8.823L7.21888 7.36466C7.13138 7.3355 7.04388 7.32091 6.95638 7.32091C6.70847 7.32091 6.46055 7.45216 6.3293 7.6855L3.41263 12.7313C3.22305 13.0522 3.31055 13.4459 3.58763 13.6647L6.66472 16.0709C6.60638 16.5376 6.56263 17.0188 6.56263 17.5001C6.56263 17.9813 6.60638 18.4626 6.66472 18.9292L3.58763 21.3355C3.31055 21.5542 3.23763 21.948 3.41263 22.2688L6.3293 27.3147C6.46055 27.548 6.70847 27.6792 6.97097 27.6792C7.05847 27.6792 7.14597 27.6647 7.21888 27.6355L10.8501 26.1772C11.6085 26.7605 12.4251 27.2417 13.3147 27.6063L13.8689 31.4709C13.9126 31.8209 14.2189 32.0834 14.5835 32.0834H20.4168C20.7814 32.0834 21.0876 31.8209 21.1314 31.4709L21.6855 27.6063C22.5751 27.2417 23.3918 26.7459 24.1501 26.1772L27.7814 27.6355C27.8689 27.6647 27.9564 27.6792 28.0439 27.6792C28.2918 27.6792 28.5397 27.548 28.671 27.3147L31.5876 22.2688C31.7626 21.948 31.6897 21.5542 31.4126 21.3355L28.3355 18.9292ZM25.448 16.4355C25.5064 16.8876 25.521 17.1938 25.521 17.5001C25.521 17.8063 25.4918 18.1272 25.448 18.5647L25.2439 20.2126L26.5418 21.2334L28.1168 22.4584L27.096 24.223L25.2439 23.4792L23.7272 22.8667L22.4147 23.8584C21.7876 24.3251 21.1897 24.6751 20.5918 24.923L19.046 25.5501L18.8126 27.198L18.521 29.1667H16.4793L16.2022 27.198L15.9689 25.5501L14.423 24.923C13.796 24.6605 13.2126 24.3251 12.6293 23.8876L11.3022 22.8667L9.75638 23.4938L7.9043 24.2376L6.88347 22.473L8.45847 21.248L9.75638 20.2272L9.55222 18.5792C9.50847 18.1272 9.4793 17.7917 9.4793 17.5001C9.4793 17.2084 9.50847 16.873 9.55222 16.4355L9.75638 14.7876L8.45847 13.7667L6.88347 12.5417L7.9043 10.7772L9.75638 11.5209L11.273 12.1334L12.5855 11.1417C13.2126 10.6751 13.8105 10.3251 14.4085 10.0772L15.9543 9.45008L16.1876 7.80216L16.4793 5.83341H18.5064L18.7835 7.80216L19.0168 9.45008L20.5626 10.0772C21.1897 10.3397 21.773 10.6751 22.3564 11.1126L23.6835 12.1334L25.2293 11.5063L27.0814 10.7626L28.1022 12.5272L26.5418 13.7667L25.2439 14.7876L25.448 16.4355ZM17.5001 11.6667C14.2772 11.6667 11.6668 14.2772 11.6668 17.5001C11.6668 20.723 14.2772 23.3334 17.5001 23.3334C20.723 23.3334 23.3335 20.723 23.3335 17.5001C23.3335 14.2772 20.723 11.6667 17.5001 11.6667ZM17.5001 20.4167C15.896 20.4167 14.5835 19.1042 14.5835 17.5001C14.5835 15.8959 15.896 14.5834 17.5001 14.5834C19.1043 14.5834 20.4168 15.8959 20.4168 17.5001C20.4168 19.1042 19.1043 20.4167 17.5001 20.4167Z" fill="black"/>
</g>
<defs>
<clipPath id="clip0_739_1831">
<rect width="35" height="35" fill="white"/>
</clipPath>
</defs>
</svg>
