<svg width="35" height="35" viewBox="0 0 35 35" fill="none" xmlns="http://www.w3.org/2000/svg">
<g clip-path="url(#clip0_741_3091)">
<path d="M17.4999 32.0835C19.1041 32.0835 20.4166 30.771 20.4166 29.1668H14.5833C14.5833 30.771 15.8958 32.0835 17.4999 32.0835ZM26.2499 23.3335V16.0418C26.2499 11.5647 23.8728 7.81683 19.6874 6.82516V5.8335C19.6874 4.62308 18.7103 3.646 17.4999 3.646C16.2895 3.646 15.3124 4.62308 15.3124 5.8335V6.82516C11.1416 7.81683 8.74992 11.5502 8.74992 16.0418V23.3335L5.83325 26.2502V27.7085H29.1666V26.2502L26.2499 23.3335ZM23.3333 24.7918H11.6666V16.0418C11.6666 12.4252 13.8687 9.47933 17.4999 9.47933C21.1312 9.47933 23.3333 12.4252 23.3333 16.0418V24.7918Z" fill="black"/>
</g>
<defs>
<clipPath id="clip0_741_3091">
<rect width="35" height="35" fill="white"/>
</clipPath>
</defs>
</svg>
