<svg width="35" height="35" viewBox="0 0 35 35" fill="none" xmlns="http://www.w3.org/2000/svg">
<g clip-path="url(#clip0_739_1911)">
<path d="M17.5002 8.74992C19.1043 8.74992 20.4168 10.0624 20.4168 11.6666C20.4168 13.2708 19.1043 14.5833 17.5002 14.5833C15.896 14.5833 14.5835 13.2708 14.5835 11.6666C14.5835 10.0624 15.896 8.74992 17.5002 8.74992ZM17.5002 23.3333C21.4377 23.3333 25.9585 25.2145 26.2502 26.2499H8.75016C9.08558 25.1999 13.5772 23.3333 17.5002 23.3333ZM17.5002 5.83325C14.2772 5.83325 11.6668 8.44367 11.6668 11.6666C11.6668 14.8895 14.2772 17.4999 17.5002 17.4999C20.7231 17.4999 23.3335 14.8895 23.3335 11.6666C23.3335 8.44367 20.7231 5.83325 17.5002 5.83325ZM17.5002 20.4166C13.6064 20.4166 5.8335 22.3708 5.8335 26.2499V29.1666H29.1668V26.2499C29.1668 22.3708 21.3939 20.4166 17.5002 20.4166Z" fill="black"/>
</g>
<defs>
<clipPath id="clip0_739_1911">
<rect width="35" height="35" fill="white"/>
</clipPath>
</defs>
</svg>
