<svg width="307" height="306" viewBox="0 0 307 306" fill="none" xmlns="http://www.w3.org/2000/svg">
<g filter="url(#filter0_d_846_2473)">
<rect x="85.2729" y="31.3684" width="175.378" height="14.2584" fill="#00286E"/>
<circle cx="48.2007" cy="38.4976" r="38.4976" fill="#E17C7C"/>
<path d="M260.637 31.3684C282.738 37.7847 301.273 51.3301 299.848 76.9952C298.422 102.66 282.751 86.2631 284.876 76.9952C287.002 67.7273 279.2 56.8621 279.2 56.8621C279.2 56.8621 274.909 46.8813 259.225 45.4554C243.541 44.0296 260.637 31.3684 260.637 31.3684Z" fill="#00286E"/>
<path d="M298.454 85.3428C291.92 107.409 278.277 125.873 252.619 124.31C226.962 122.748 244.253 109.339 252.699 109.339C261.144 109.34 272.862 103.77 272.862 103.77C272.862 103.77 282.865 99.5324 284.375 83.856C285.884 68.1796 298.454 85.3428 298.454 85.3428Z" fill="#00286E"/>
<rect x="234.986" y="109.789" width="21.3876" height="14.2584" fill="#00286E"/>
<path d="M43.2106 201.756C21.0325 194.757 2.65191 183.089 4.07774 157.424C5.50358 131.759 19.6843 147.574 18.2585 157.555C16.8326 167.536 24.7249 177.557 24.7249 177.557C24.7249 177.557 29.016 187.538 44.7002 188.964C60.3844 190.39 43.2106 201.756 43.2106 201.756Z" fill="#00286E"/>
<path d="M5.47137 149.077C12.005 127.011 25.6488 108.547 51.3059 110.11C76.963 111.672 59.4981 124.048 51.0527 124.048C42.6073 124.048 31.0634 130.649 31.0634 130.649C31.0634 130.649 19.7678 136.175 18.2587 151.852C16.7495 167.528 5.47137 149.077 5.47137 149.077Z" fill="#00286E"/>
<rect x="71.0146" y="124.048" width="22.8134" height="14.2584" transform="rotate(-180 71.0146 124.048)" fill="#00286E"/>
<path d="M262.848 188.228C285.022 195.241 303.395 206.921 301.953 232.585C300.51 258.249 286.34 242.425 287.772 232.445C289.204 222.465 281.318 212.438 281.318 212.438C281.318 212.438 277.033 202.455 261.35 201.019C245.667 199.583 262.848 188.228 262.848 188.228Z" fill="#00286E"/>
<path d="M300.554 240.932C294.006 262.993 280.35 281.448 254.694 279.87C229.038 278.291 246.511 265.926 254.956 265.931C263.402 265.937 274.95 259.343 274.95 259.343C274.95 259.343 286.249 253.824 287.768 238.149C289.287 222.473 300.554 240.932 300.554 240.932Z" fill="#00286E"/>
<rect x="241.25" y="265.923" width="16.5588" height="14.2584" transform="rotate(0.0366036 241.25 265.923)" fill="#00286E"/>
<rect x="122.344" y="109.79" width="62.7368" height="14.2584" fill="#00286E"/>
<circle cx="210.034" cy="117.632" r="26.378" fill="#49D5D0"/>
<circle cx="95.9664" cy="117.632" r="26.378" fill="#FFC6E7"/>
<circle cx="48.9136" cy="271.622" r="26.378" fill="#58E616"/>
<rect x="39.646" y="188.21" width="96.9569" height="12.8325" fill="#00286E"/>
<rect x="69.5884" y="265.206" width="131.177" height="12.8325" fill="#00286E"/>
<path d="M183.656 188.21H262.928C264.033 188.21 264.928 189.106 264.928 190.21V201.043H183.656V188.21Z" fill="#00286E"/>
<path d="M41.0723 239.541H55.3306V255.225C55.3306 259.162 52.1388 262.354 48.2015 262.354C44.2641 262.354 41.0723 259.162 41.0723 255.225V239.541Z" fill="#D9D9D9"/>
<path d="M41.0723 209.746C41.0723 208.089 42.4154 206.746 44.0723 206.746H79.4215C81.0784 206.746 82.4215 208.089 82.4215 209.746V236.541C82.4215 238.197 81.0784 239.541 79.4215 239.541H41.0723V209.746Z" fill="#3A9E0B"/>
<circle cx="158.703" cy="194.627" r="26.378" fill="#49D5D0"/>
<circle cx="222.866" cy="270.196" r="26.378" fill="#FFC6E7"/>
</g>
<defs>
<filter id="filter0_d_846_2473" x="0" y="0" width="306.032" height="306" filterUnits="userSpaceOnUse" color-interpolation-filters="sRGB">
<feFlood flood-opacity="0" result="BackgroundImageFix"/>
<feColorMatrix in="SourceAlpha" type="matrix" values="0 0 0 0 0 0 0 0 0 0 0 0 0 0 0 0 0 0 127 0" result="hardAlpha"/>
<feOffset dy="4"/>
<feGaussianBlur stdDeviation="2"/>
<feComposite in2="hardAlpha" operator="out"/>
<feColorMatrix type="matrix" values="0 0 0 0 0 0 0 0 0 0 0 0 0 0 0 0 0 0 0.25 0"/>
<feBlend mode="normal" in2="BackgroundImageFix" result="effect1_dropShadow_846_2473"/>
<feBlend mode="normal" in="SourceGraphic" in2="effect1_dropShadow_846_2473" result="shape"/>
</filter>
</defs>
</svg>
