<svg width="202" height="71" viewBox="0 0 202 71" fill="none" xmlns="http://www.w3.org/2000/svg">
<line x1="64.9023" y1="37.1498" x2="93.3428" y2="37.1498" stroke="#00286E" stroke-width="3"/>
<path d="M180.275 29.1393H176.325V37.0394H168.424V40.9895H176.325V48.8896H180.275V40.9895H188.175V37.0394H180.275V29.1393ZM178.3 19.2642C167.397 19.2642 158.549 28.1123 158.549 39.0145C158.549 49.9166 167.397 58.7648 178.3 58.7648C189.202 58.7648 198.05 49.9166 198.05 39.0145C198.05 28.1123 189.202 19.2642 178.3 19.2642ZM178.3 54.8147C169.59 54.8147 162.499 47.7243 162.499 39.0145C162.499 30.3046 169.59 23.2142 178.3 23.2142C187.01 23.2142 194.1 30.3046 194.1 39.0145C194.1 47.7243 187.01 54.8147 178.3 54.8147Z" fill="#00286E"/>
<g clip-path="url(#clip0_849_2532)">
<path d="M37.1912 11.6679C50.055 11.6679 60.5269 22.1398 60.5269 35.0037C60.5269 47.8675 50.055 58.3394 37.1912 58.3394C24.3273 58.3394 13.8554 47.8675 13.8554 35.0037C13.8554 22.1398 24.3273 11.6679 37.1912 11.6679ZM37.1912 5.83398C21.0895 5.83398 8.02148 18.902 8.02148 35.0037C8.02148 51.1053 21.0895 64.1733 37.1912 64.1733C53.2928 64.1733 66.3608 51.1053 66.3608 35.0037C66.3608 18.902 53.2928 5.83398 37.1912 5.83398Z" fill="#00286E"/>
</g>
<g clip-path="url(#clip1_849_2532)">
<path d="M118.867 11.6679C131.731 11.6679 142.203 22.1398 142.203 35.0037C142.203 47.8675 131.731 58.3394 118.867 58.3394C106.003 58.3394 95.5312 47.8675 95.5312 35.0037C95.5312 22.1398 106.003 11.6679 118.867 11.6679ZM118.867 5.83398C102.765 5.83398 89.6973 18.902 89.6973 35.0037C89.6973 51.1053 102.765 64.1733 118.867 64.1733C134.969 64.1733 148.037 51.1053 148.037 35.0037C148.037 18.902 134.969 5.83398 118.867 5.83398Z" fill="#00286E"/>
</g>
<defs>
<clipPath id="clip0_849_2532">
<rect width="70.0072" height="70.0072" fill="white"/>
</clipPath>
<clipPath id="clip1_849_2532">
<rect width="70.0072" height="70.0072" fill="white" transform="translate(83.8633)"/>
</clipPath>
</defs>
</svg>
