<svg width="110" height="80" viewBox="0 0 110 80" fill="none" xmlns="http://www.w3.org/2000/svg">
<g clip-path="url(#clip0_935_2824)">
<path d="M93.335 38.65C90.665 37.765 89.375 37.21 89.375 35.8C89.375 34.27 91.04 33.715 92.09 33.715C94.055 33.715 94.775 35.2 94.94 35.725L97.31 34.72C97.085 34.045 96.08 31.84 93.5 31.36V29.5H90.5V31.39C86.78 32.23 86.765 35.68 86.765 35.83C86.765 39.235 90.14 40.195 91.79 40.795C94.16 41.635 95.21 42.4 95.21 43.84C95.21 45.535 93.635 46.255 92.24 46.255C89.51 46.255 88.73 43.45 88.64 43.12L86.15 44.125C87.095 47.41 89.57 48.295 90.5 48.565V50.5H93.5V48.64C94.1 48.505 97.85 47.755 97.85 43.81C97.85 41.725 96.935 39.895 93.335 38.65ZM78.5 53.5H75.5V44.5H84.5V47.5H80.78C83.195 51.115 87.32 53.5 92 53.5C99.455 53.5 105.5 47.455 105.5 40H108.5C108.5 49.12 101.12 56.5 92 56.5C86.42 56.5 81.485 53.725 78.5 49.495V53.5ZM75.5 40C75.5 30.88 82.88 23.5 92 23.5C97.58 23.5 102.515 26.275 105.5 30.505V26.5H108.5V35.5H99.5V32.5H103.22C100.805 28.885 96.68 26.5 92 26.5C84.545 26.5 78.5 32.545 78.5 40H75.5Z" fill="#00286E"/>
</g>
<path d="M39.9998 29.6334L43.1332 40.0001H52.5332L44.9665 45.4001L48.0665 55.4334L39.9998 49.3001L31.9332 55.4334L35.0332 45.4001L27.4665 40.0001H36.8665L39.9998 29.6334ZM39.9998 6.66675L31.9332 33.3334H6.6665L27.2332 48.0334L19.4332 73.3334L39.9998 57.7001L60.5998 73.3334L52.7665 48.0334L73.3332 33.3334H48.0665L39.9998 6.66675Z" fill="#00286E"/>
<defs>
<clipPath id="clip0_935_2824">
<rect width="36" height="36" fill="white" transform="translate(74 22)"/>
</clipPath>
</defs>
</svg>
