<svg width="80" height="80" viewBox="0 0 80 80" fill="none" xmlns="http://www.w3.org/2000/svg">
<g clip-path="url(#clip0_849_2543)">
<path d="M63.3333 13.3333H60V6.66663H53.3333V13.3333H26.6667V6.66663H20V13.3333H16.6667C12.9667 13.3333 10.0333 16.3333 10.0333 20L10 66.6666C10 70.3333 12.9667 73.3333 16.6667 73.3333H63.3333C67 73.3333 70 70.3333 70 66.6666V20C70 16.3333 67 13.3333 63.3333 13.3333ZM63.3333 66.6666H16.6667V33.3333H63.3333V66.6666ZM63.3333 26.6666H16.6667V20H63.3333V26.6666ZM40 43.3333H56.6667V60H40V43.3333Z" fill="#00286E"/>
</g>
<defs>
<clipPath id="clip0_849_2543">
<rect width="80" height="80" fill="white"/>
</clipPath>
</defs>
</svg>
