<svg width="110" height="114" viewBox="0 0 110 114" fill="none" xmlns="http://www.w3.org/2000/svg">
<rect x="30.7915" y="14.7498" width="64.0791" height="5.20968" fill="#00286E"/>
<path d="M94.8649 14.7498C102.94 17.0941 109.712 22.0433 109.191 31.4207C108.671 40.7982 102.945 34.807 103.721 31.4207C104.498 28.0345 101.647 24.0646 101.647 24.0646C101.647 24.0646 100.08 20.4178 94.349 19.8968C88.6183 19.3759 94.8649 14.7498 94.8649 14.7498Z" fill="#00286E"/>
<path d="M108.683 34.4708C106.296 42.5332 101.311 49.2794 91.9362 48.7086C82.5617 48.1378 88.8795 43.2384 91.9653 43.2385C95.0511 43.2386 99.3324 41.2038 99.3324 41.2038C99.3324 41.2038 102.987 39.6553 103.539 33.9275C104.09 28.1997 108.683 34.4708 108.683 34.4708Z" fill="#00286E"/>
<rect x="85.4932" y="43.4028" width="7.81453" height="5.20968" fill="#00286E"/>
<path d="M15.423 77.0054C7.31959 74.4482 0.603754 70.1851 1.12472 60.8077C1.64569 51.4302 6.827 57.2086 6.30604 60.8554C5.78507 64.5021 8.66872 68.1638 8.66872 68.1638C8.66872 68.1638 10.2366 71.8106 15.9673 72.3316C21.6979 72.8525 15.423 77.0054 15.423 77.0054Z" fill="#00286E"/>
<path d="M1.63376 57.7577C4.021 49.6953 9.00612 42.9491 18.3806 43.5199C27.7552 44.0907 21.3739 48.6128 18.2881 48.6127C15.2024 48.6126 10.9845 51.0247 10.9845 51.0247C10.9845 51.0247 6.85736 53.0437 6.30594 58.7715C5.75453 64.4993 1.63376 57.7577 1.63376 57.7577Z" fill="#00286E"/>
<rect x="25.5815" y="48.6127" width="8.33549" height="5.20968" transform="rotate(-180 25.5815 48.6127)" fill="#00286E"/>
<path d="M96.5451 72.0632C104.154 74.6252 110.459 78.8924 109.963 88.2695C109.468 97.6466 104.606 91.8651 105.097 88.2187C105.589 84.5722 102.883 80.9088 102.883 80.9088C102.883 80.9088 101.413 77.2611 96.0309 76.7367C90.6492 76.2123 96.5451 72.0632 96.5451 72.0632Z" fill="#00286E"/>
<path d="M109.483 91.3193C107.236 99.3803 102.549 106.124 93.7456 105.547C84.9416 104.971 90.9376 100.452 93.8357 100.454C96.7338 100.456 100.697 98.0467 100.697 98.0467C100.697 98.0467 104.574 96.0302 105.096 90.3027C105.617 84.5752 109.483 91.3193 109.483 91.3193Z" fill="#00286E"/>
<rect x="89.1323" y="100.451" width="5.68218" height="5.20968" transform="rotate(0.0366036 89.1323 100.451)" fill="#00286E"/>
<rect x="44.3364" y="43.403" width="22.9226" height="5.20968" fill="#00286E"/>
<rect x="14.1201" y="72.0562" width="35.4259" height="4.68872" fill="#00286E"/>
<rect x="26.3071" y="100.113" width="46.7683" height="4.7499" fill="#00286E"/>
<path d="M66.7378 72.0562H94.433C95.5376 72.0562 96.433 72.9516 96.433 74.0562V76.7449H66.7378V72.0562Z" fill="#00286E"/>
<g clip-path="url(#clip0_935_2485)">
<path d="M17.3554 5.78515C23.7335 5.78515 28.9257 10.9773 28.9257 17.3554C28.9257 23.7335 23.7335 28.9257 17.3554 28.9257C10.9773 28.9257 5.78515 23.7335 5.78515 17.3554C5.78515 10.9773 10.9773 5.78515 17.3554 5.78515ZM17.3554 2.89258C9.37193 2.89258 2.89258 9.37193 2.89258 17.3554C2.89258 25.3389 9.37193 31.8183 17.3554 31.8183C25.3389 31.8183 31.8183 25.3389 31.8183 17.3554C31.8183 9.37193 25.3389 2.89258 17.3554 2.89258Z" fill="#00286E"/>
<g clip-path="url(#clip1_935_2485)">
<path d="M21.0782 16.5181H11.022V18.1927H21.0782V20.7047L24.4191 17.3554L21.0782 14.0061V16.5181Z" fill="#00286E"/>
</g>
</g>
<g clip-path="url(#clip2_935_2485)">
<path d="M34.7114 38.3646C39.1426 38.3646 42.7497 41.9717 42.7497 46.4029C42.7497 50.834 39.1426 54.4412 34.7114 54.4412C30.2803 54.4412 26.6731 50.834 26.6731 46.4029C26.6731 41.9717 30.2803 38.3646 34.7114 38.3646ZM34.7114 36.355C29.165 36.355 24.6636 40.8564 24.6636 46.4029C24.6636 51.9493 29.165 56.4507 34.7114 56.4507C40.2579 56.4507 44.7593 51.9493 44.7593 46.4029C44.7593 40.8564 40.2579 36.355 34.7114 36.355Z" fill="#00286E"/>
<g clip-path="url(#clip3_935_2485)">
<path d="M37.9081 42.2924H31.514C31.0116 42.2924 30.6006 42.7034 30.6006 43.2058V49.5999C30.6006 50.1023 31.0116 50.5133 31.514 50.5133H37.9081C38.4105 50.5133 38.8216 50.1023 38.8216 49.5999V43.2058C38.8216 42.7034 38.4105 42.2924 37.9081 42.2924ZM37.9081 49.5999H31.514V43.2058H37.9081V49.5999ZM34.7111 48.6865H35.6245V44.1192H33.7976V45.0327H34.7111V48.6865Z" fill="#00286E"/>
</g>
</g>
<g clip-path="url(#clip4_935_2485)">
<path d="M76.3638 37.9992C80.7949 37.9992 84.4021 41.6064 84.4021 46.0375C84.4021 50.4686 80.7949 54.0758 76.3638 54.0758C71.9327 54.0758 68.3255 50.4686 68.3255 46.0375C68.3255 41.6064 71.9327 37.9992 76.3638 37.9992ZM76.3638 35.9896C70.8174 35.9896 66.3159 40.4911 66.3159 46.0375C66.3159 51.5839 70.8174 56.0854 76.3638 56.0854C81.9102 56.0854 86.4117 51.5839 86.4117 46.0375C86.4117 40.4911 81.9102 35.9896 76.3638 35.9896Z" fill="#00286E"/>
<g clip-path="url(#clip5_935_2485)">
<path d="M79.5605 41.927H73.1664C72.664 41.927 72.2529 42.3381 72.2529 42.8404V49.2345C72.2529 49.7369 72.664 50.148 73.1664 50.148H79.5605C80.0629 50.148 80.4739 49.7369 80.4739 49.2345V42.8404C80.4739 42.3381 80.0629 41.927 79.5605 41.927ZM79.5605 49.2345H73.1664V42.8404H79.5605V49.2345ZM77.7336 47.4077H75.9067V46.4942H76.8201C77.3225 46.4942 77.7336 46.0877 77.7336 45.5808V44.6673C77.7336 44.1604 77.3225 43.7539 76.8201 43.7539H74.9933V44.6673H76.8201V45.5808H75.9067C75.4043 45.5808 74.9933 45.9873 74.9933 46.4942V48.3211H77.7336V47.4077Z" fill="#00286E"/>
</g>
</g>
<g clip-path="url(#clip6_935_2485)">
<path d="M57.73 66.4986C62.1611 66.4986 65.7683 70.1058 65.7683 74.5369C65.7683 78.968 62.1611 82.5752 57.73 82.5752C53.2989 82.5752 49.6917 78.968 49.6917 74.5369C49.6917 70.1058 53.2989 66.4986 57.73 66.4986ZM57.73 64.489C52.1836 64.489 47.6821 68.9905 47.6821 74.5369C47.6821 80.0833 52.1836 84.5848 57.73 84.5848C63.2764 84.5848 67.7779 80.0833 67.7779 74.5369C67.7779 68.9905 63.2764 64.489 57.73 64.489Z" fill="#00286E"/>
<g clip-path="url(#clip7_935_2485)">
<path d="M60.9267 70.4264H54.5326C54.0302 70.4264 53.6191 70.8374 53.6191 71.3398V77.7339C53.6191 78.2363 54.0302 78.6474 54.5326 78.6474H60.9267C61.4291 78.6474 61.8401 78.2363 61.8401 77.7339V71.3398C61.8401 70.8374 61.4291 70.4264 60.9267 70.4264ZM60.9267 77.7339H54.5326V71.3398H60.9267V77.7339ZM59.0998 75.907V75.222C59.0998 74.8429 58.7938 74.5369 58.4147 74.5369C58.7938 74.5369 59.0998 74.2309 59.0998 73.8518V73.1667C59.0998 72.6598 58.6887 72.2533 58.1864 72.2533H56.3595V73.1667H58.1864V74.0802H57.2729V74.9936H58.1864V75.907H56.3595V76.8205H58.1864C58.6887 76.8205 59.0998 76.414 59.0998 75.907Z" fill="#00286E"/>
</g>
</g>
<g clip-path="url(#clip8_935_2485)">
<path d="M17.5386 93.9019C21.9697 93.9019 25.5769 97.5091 25.5769 101.94C25.5769 106.371 21.9697 109.979 17.5386 109.979C13.1075 109.979 9.5003 106.371 9.5003 101.94C9.5003 97.5091 13.1075 93.9019 17.5386 93.9019ZM17.5386 91.8923C11.9922 91.8923 7.49072 96.3938 7.49072 101.94C7.49072 107.487 11.9922 111.988 17.5386 111.988C23.085 111.988 27.5865 107.487 27.5865 101.94C27.5865 96.3938 23.085 91.8923 17.5386 91.8923Z" fill="#00286E"/>
<path d="M17.5384 97.5923C20.1165 97.5923 22.2152 99.6254 22.2152 102.123C22.2152 104.62 20.1165 106.654 17.5384 106.654C14.9603 106.654 12.8616 104.62 12.8616 102.123C12.8616 99.6254 14.9603 97.5923 17.5384 97.5923ZM17.5384 96.4596C14.3114 96.4596 11.6924 98.9968 11.6924 102.123C11.6924 105.249 14.3114 107.786 17.5384 107.786C20.7654 107.786 23.3845 105.249 23.3845 102.123C23.3845 98.9968 20.7654 96.4596 17.5384 96.4596Z" fill="#00286E"/>
<circle cx="17.5386" cy="101.94" r="2.55764" fill="#00286E"/>
</g>
<g clip-path="url(#clip9_935_2485)">
<path d="M81.1143 93.9019C85.5454 93.9019 89.1526 97.5091 89.1526 101.94C89.1526 106.371 85.5454 109.979 81.1143 109.979C76.6832 109.979 73.076 106.371 73.076 101.94C73.076 97.5091 76.6832 93.9019 81.1143 93.9019ZM81.1143 91.8923C75.5679 91.8923 71.0664 96.3938 71.0664 101.94C71.0664 107.487 75.5679 111.988 81.1143 111.988C86.6607 111.988 91.1622 107.487 91.1622 101.94C91.1622 96.3938 86.6607 91.8923 81.1143 91.8923Z" fill="#00286E"/>
<g clip-path="url(#clip10_935_2485)">
<path d="M84.3295 97.8297H77.9354C77.433 97.8297 77.022 98.2408 77.022 98.7432V105.137C77.022 105.64 77.433 106.051 77.9354 106.051H84.3295C84.8319 106.051 85.243 105.64 85.243 105.137V98.7432C85.243 98.2408 84.8319 97.8297 84.3295 97.8297ZM84.3295 105.137H77.9354V98.7432H84.3295V105.137ZM81.5892 104.224H82.5026V99.6566H81.5892V101.483H80.6757V99.6566H79.7623V102.397H81.5892V104.224Z" fill="#00286E"/>
</g>
</g>
<defs>
<clipPath id="clip0_935_2485">
<rect width="34.7108" height="34.7108" fill="white"/>
</clipPath>
<clipPath id="clip1_935_2485">
<rect width="20.0957" height="20.0957" fill="white" transform="translate(7.67285 7.3075)"/>
</clipPath>
<clipPath id="clip2_935_2485">
<rect width="24.1149" height="24.1149" fill="white" transform="translate(22.6538 34.3455)"/>
</clipPath>
<clipPath id="clip3_935_2485">
<rect width="10.9613" height="10.9613" fill="white" transform="translate(29.2305 40.9222)"/>
</clipPath>
<clipPath id="clip4_935_2485">
<rect width="24.1149" height="24.1149" fill="white" transform="translate(64.3062 33.9801)"/>
</clipPath>
<clipPath id="clip5_935_2485">
<rect width="10.9613" height="10.9613" fill="white" transform="translate(70.8828 40.5569)"/>
</clipPath>
<clipPath id="clip6_935_2485">
<rect width="24.1149" height="24.1149" fill="white" transform="translate(45.6724 62.4795)"/>
</clipPath>
<clipPath id="clip7_935_2485">
<rect width="10.9613" height="10.9613" fill="white" transform="translate(52.249 69.0563)"/>
</clipPath>
<clipPath id="clip8_935_2485">
<rect width="24.1149" height="24.1149" fill="white" transform="translate(5.48096 89.8828)"/>
</clipPath>
<clipPath id="clip9_935_2485">
<rect width="24.1149" height="24.1149" fill="white" transform="translate(69.0566 89.8828)"/>
</clipPath>
<clipPath id="clip10_935_2485">
<rect width="10.9613" height="10.9613" fill="white" transform="translate(75.6333 96.4596)"/>
</clipPath>
</defs>
</svg>
