<svg width="85" height="85" viewBox="0 0 85 85" fill="none" xmlns="http://www.w3.org/2000/svg">
<g clip-path="url(#clip0_935_2538)">
<path d="M72.7458 18.5229L67.8229 12.5729C66.8667 11.3687 65.4146 10.625 63.75 10.625H21.25C19.5854 10.625 18.1333 11.3687 17.1417 12.5729L12.2542 18.5229C11.2271 19.7271 10.625 21.3208 10.625 23.0208V67.2917C10.625 71.1875 13.8125 74.375 17.7083 74.375H67.2917C71.1875 74.375 74.375 71.1875 74.375 67.2917V23.0208C74.375 21.3208 73.7729 19.7271 72.7458 18.5229ZM22.1 17.7083H62.9L65.7687 21.1437H19.2667L22.1 17.7083ZM17.7083 67.2917V28.3333H67.2917V67.2917H17.7083ZM47.6354 35.4167H37.3646V46.0417H28.3333L42.5 60.2083L56.6667 46.0417H47.6354V35.4167Z" fill="#00286E"/>
</g>
<defs>
<clipPath id="clip0_935_2538">
<rect width="85" height="85" fill="white"/>
</clipPath>
</defs>
</svg>
