<svg width="90" height="90" viewBox="0 0 90 90" fill="none" xmlns="http://www.w3.org/2000/svg">
<g clip-path="url(#clip0_935_2780)">
<path d="M30 30H22.5V56.25C22.5 60.375 25.875 63.75 30 63.75H63.75V56.25H30V30Z" fill="#00286E"/>
<path d="M75 11.25H45C40.875 11.25 37.5 14.625 37.5 18.75V41.25C37.5 45.375 40.875 48.75 45 48.75H75C79.125 48.75 82.5 45.375 82.5 41.25V18.75C82.5 14.625 79.125 11.25 75 11.25ZM75 41.25H45V26.25H75V41.25Z" fill="#00286E"/>
<path d="M15 45H7.5V71.25C7.5 75.375 10.875 78.75 15 78.75H48.75V71.25H15V45Z" fill="#00286E"/>
</g>
<defs>
<clipPath id="clip0_935_2780">
<rect width="90" height="90" fill="white"/>
</clipPath>
</defs>
</svg>
