<svg width="90" height="90" viewBox="0 0 90 90" fill="none" xmlns="http://www.w3.org/2000/svg">
<g clip-path="url(#clip0_935_2795)">
<path d="M58.125 52.5H55.1625L54.1125 51.4875C57.7875 47.2125 60 41.6625 60 35.625C60 22.1625 49.0875 11.25 35.625 11.25C22.1625 11.25 11.25 22.1625 11.25 35.625C11.25 49.0875 22.1625 60 35.625 60C41.6625 60 47.2125 57.7875 51.4875 54.1125L52.5 55.1625V58.125L71.25 76.8375L76.8375 71.25L58.125 52.5ZM35.625 52.5C26.2875 52.5 18.75 44.9625 18.75 35.625C18.75 26.2875 26.2875 18.75 35.625 18.75C44.9625 18.75 52.5 26.2875 52.5 35.625C52.5 44.9625 44.9625 52.5 35.625 52.5Z" fill="#00286E"/>
</g>
<defs>
<clipPath id="clip0_935_2795">
<rect width="90" height="90" fill="white"/>
</clipPath>
</defs>
</svg>
