<svg width="65" height="75" viewBox="0 0 65 75" fill="none" xmlns="http://www.w3.org/2000/svg">
<path fill-rule="evenodd" clip-rule="evenodd" d="M12.5 25C19.4036 25 25 19.4036 25 12.5C25 5.59644 19.4036 0 12.5 0C5.59644 0 0 5.59644 0 12.5C0 19.4036 5.59644 25 12.5 25ZM12.5 17.5C15.2614 17.5 17.5 15.2614 17.5 12.5C17.5 9.73858 15.2614 7.5 12.5 7.5C9.73858 7.5 7.5 9.73858 7.5 12.5C7.5 15.2614 9.73858 17.5 12.5 17.5Z" fill="#00286E"/>
<path fill-rule="evenodd" clip-rule="evenodd" d="M52.5 40C59.4036 40 65 34.4036 65 27.5C65 20.5964 59.4036 15 52.5 15C45.5964 15 40 20.5964 40 27.5C40 34.4036 45.5964 40 52.5 40ZM52.4998 32.5C55.2613 32.5 57.4998 30.2614 57.4998 27.5C57.4998 24.7386 55.2613 22.5 52.4998 22.5C49.7384 22.5 47.4998 24.7386 47.4998 27.5C47.4998 30.2614 49.7384 32.5 52.4998 32.5Z" fill="#00286E"/>
<path fill-rule="evenodd" clip-rule="evenodd" d="M12.5 75C19.4036 75 25 69.4036 25 62.5C25 55.5964 19.4036 50 12.5 50C5.59644 50 0 55.5964 0 62.5C0 69.4036 5.59644 75 12.5 75ZM12.5 67.5C15.2614 67.5 17.5 65.2615 17.5 62.5C17.5 59.7386 15.2614 57.5 12.5 57.5C9.73858 57.5 7.5 59.7386 7.5 62.5C7.5 65.2615 9.73858 67.5 12.5 67.5Z" fill="#00286E"/>
<path d="M10 26.5V20H17.5V26.5V29.75V39.5V52.5H15H10V49.25V46V39.5V33V26.5Z" fill="#00286E" stroke="#2431A1" stroke-width="0.1"/>
<path fill-rule="evenodd" clip-rule="evenodd" d="M44.9616 35H54.9488C54.9556 35.7783 54.9655 36.4895 54.9747 37.1569C55.0018 39.1224 55.0237 40.7068 54.9488 42.5L51.6197 47.5L48.2907 50L41.6325 52.5L31.6453 55H24.9872H15V46.2891H25.179C28.6577 46.1781 31.3568 45.9794 33.1635 45.8464C34.1129 45.7765 34.8158 45.7247 35.2559 45.7134C36.1984 45.5606 36.8226 45.3062 37.2661 45.0046C40.8675 44.9831 43.8626 43.2694 44.5494 40.9983C44.7469 40.7615 44.8914 40.4392 44.9616 40C45.2559 38.1579 45.1556 37.3537 45.0564 36.5582C44.9994 36.101 44.9428 35.6468 44.9616 35Z" fill="#00286E"/>
<path d="M54.9488 35L54.9988 34.9996L54.9984 34.95H54.9488V35ZM44.9616 35V34.95H44.913L44.9116 34.9985L44.9616 35ZM54.9747 37.1569L54.9247 37.1576L54.9747 37.1569ZM54.9488 42.5L54.9904 42.5277L54.9982 42.5161L54.9988 42.5021L54.9488 42.5ZM51.6197 47.5L51.6498 47.54L51.6566 47.5348L51.6613 47.5277L51.6197 47.5ZM48.2907 50L48.3082 50.0468L48.315 50.0443L48.3207 50.04L48.2907 50ZM41.6325 52.5L41.6448 52.5488L41.6501 52.5468L41.6325 52.5ZM31.6453 55V55.0515L31.6575 55.0485L31.6453 55ZM15 55H14.95V55.05H15V55ZM15 46.2891V46.2391H14.95V46.2891H15ZM25.179 46.2891V46.3391L25.1806 46.339L25.179 46.2891ZM33.1635 45.8464L33.1598 45.7965L33.1635 45.8464ZM35.2559 45.7134L35.2572 45.7638L35.2639 45.7628L35.2559 45.7134ZM37.2661 45.0046L37.2658 44.9546L37.2506 44.9547L37.238 44.9633L37.2661 45.0046ZM44.5494 40.9983L44.511 40.9663L44.5045 40.9741L44.5015 40.9838L44.5494 40.9983ZM44.9616 40L44.9122 39.9921L44.9616 40ZM45.0564 36.5582L45.0068 36.5644L45.0564 36.5582ZM54.9488 34.95H44.9616V35.05H54.9488V34.95ZM55.0247 37.1562C55.0155 36.4888 55.0056 35.7777 54.9988 34.9996L54.8988 35.0004C54.9056 35.7789 54.9155 36.4902 54.9247 37.1576L55.0247 37.1562ZM54.9988 42.5021C55.0737 40.7073 55.0518 39.1215 55.0247 37.1562L54.9247 37.1576C54.9518 39.1233 54.9736 40.7063 54.8988 42.4979L54.9988 42.5021ZM51.6613 47.5277L54.9904 42.5277L54.9072 42.4723L51.5781 47.4723L51.6613 47.5277ZM48.3207 50.04L51.6498 47.54L51.5897 47.46L48.2606 49.96L48.3207 50.04ZM41.6501 52.5468L48.3082 50.0468L48.2731 49.9532L41.615 52.4532L41.6501 52.5468ZM31.6575 55.0485L41.6447 52.5485L41.6204 52.4515L31.6332 54.9515L31.6575 55.0485ZM24.9872 55.05H31.6453V54.95H24.9872V55.05ZM15 55.05H24.9872V54.95H15V55.05ZM14.95 46.2891V55H15.05V46.2891H14.95ZM25.179 46.2391H15V46.3391H25.179V46.2391ZM33.1598 45.7965C31.3533 45.9295 28.655 46.1282 25.1774 46.2391L25.1806 46.339C28.6604 46.2281 31.3604 46.0293 33.1672 45.8963L33.1598 45.7965ZM35.2546 45.6634C34.813 45.6748 34.1085 45.7267 33.1598 45.7965L33.1672 45.8963C34.1172 45.8263 34.8186 45.7747 35.2572 45.7634L35.2546 45.6634ZM37.238 44.9633C36.802 45.2597 36.1852 45.5121 35.2479 45.664L35.2639 45.7628C36.2116 45.6091 36.8431 45.3527 37.2942 45.046L37.238 44.9633ZM44.5015 40.9838C44.163 42.1034 43.2536 43.0906 41.9764 43.8014C40.6997 44.5119 39.0589 44.9439 37.2658 44.9546L37.2664 45.0546C39.0746 45.0438 40.7322 44.6082 42.025 43.8887C43.3174 43.1695 44.249 42.1643 44.5972 41.0128L44.5015 40.9838ZM44.9122 39.9921C44.8432 40.4244 44.7016 40.7377 44.511 40.9663L44.5878 41.0303C44.7922 40.7852 44.9397 40.454 45.011 40.0079L44.9122 39.9921ZM45.0068 36.5644C45.1056 37.3565 45.2056 38.1559 44.9122 39.9921L45.011 40.0079C45.3062 38.16 45.2056 37.3509 45.106 36.552L45.0068 36.5644ZM44.9116 34.9985C44.8927 35.6494 44.9497 36.1069 45.0068 36.5644L45.106 36.552C45.0491 36.0952 44.9929 35.6441 45.0116 35.0015L44.9116 34.9985Z" fill="#2431A1"/>
</svg>
