<svg width="85" height="85" viewBox="0 0 85 85" fill="none" xmlns="http://www.w3.org/2000/svg">
<g clip-path="url(#clip0_935_2812)">
<path d="M67.2917 17.7083H60.2083V10.625H24.7917V17.7083H17.7083C13.8125 17.7083 10.625 20.8958 10.625 24.7917V28.3333C10.625 37.3646 17.425 44.7313 26.1729 45.8292C28.4042 51.1417 33.1854 55.1437 38.9583 56.3125V67.2917H24.7917V74.375H60.2083V67.2917H46.0417V56.3125C51.8146 55.1437 56.5958 51.1417 58.8271 45.8292C67.575 44.7313 74.375 37.3646 74.375 28.3333V24.7917C74.375 20.8958 71.1875 17.7083 67.2917 17.7083ZM17.7083 28.3333V24.7917H24.7917V38.3208C20.6833 36.8333 17.7083 32.9375 17.7083 28.3333ZM42.5 49.5833C36.6562 49.5833 31.875 44.8021 31.875 38.9583V17.7083H53.125V38.9583C53.125 44.8021 48.3438 49.5833 42.5 49.5833ZM67.2917 28.3333C67.2917 32.9375 64.3167 36.8333 60.2083 38.3208V24.7917H67.2917V28.3333Z" fill="#00286E"/>
</g>
<defs>
<clipPath id="clip0_935_2812">
<rect width="85" height="85" fill="white"/>
</clipPath>
</defs>
</svg>
