<svg width="45" height="45" viewBox="0 0 45 45" fill="none" xmlns="http://www.w3.org/2000/svg">
<g clip-path="url(#clip0_1428_1639)">
<path d="M22.5 3.75C12.15 3.75 3.75 12.15 3.75 22.5C3.75 32.85 12.15 41.25 22.5 41.25C32.85 41.25 41.25 32.85 41.25 22.5C41.25 12.15 32.85 3.75 22.5 3.75ZM24.15 33.3V35.625H20.8687V33.2062C19.4812 32.8687 16.3875 31.7625 15.2062 27.6562L18.3 26.4C18.4125 26.8125 19.3875 30.3188 22.8 30.3188C24.5437 30.3188 26.5125 29.4188 26.5125 27.3C26.5125 25.5 25.2 24.5625 22.2375 23.4937C20.175 22.7625 15.9563 21.5625 15.9563 17.2875C15.9563 17.1 15.975 12.7875 20.8687 11.7375V9.375H24.15V11.7C27.6 12.3 28.8563 15.0563 29.1375 15.8813L26.175 17.1375C25.9688 16.4813 25.0688 14.625 22.6125 14.625C21.3 14.625 19.2188 15.3187 19.2188 17.2312C19.2188 19.0125 20.8313 19.6875 24.1688 20.7938C28.6688 22.35 29.8125 24.6375 29.8125 27.2625C29.8125 32.1938 25.125 33.1313 24.15 33.3Z" fill="#00286E"/>
</g>
<defs>
<clipPath id="clip0_1428_1639">
<rect width="45" height="45" fill="white"/>
</clipPath>
</defs>
</svg>
