<svg width="149" height="30" viewBox="0 0 149 30" fill="none" xmlns="http://www.w3.org/2000/svg">
<path d="M0.681641 3.16602H3.8125L14.3672 13.0781L25.209 3.16602H28.2305V25H19.248V17.918L13.6699 24.043L8.24219 18.082V25H0.681641V3.16602ZM35.791 0.130859C37.1309 0.130859 38.1243 0.413411 38.7715 0.978516C39.4186 1.53451 39.7376 2.24544 39.7285 3.11133C39.7285 3.97721 39.3138 4.77474 38.4844 5.50391C37.6641 6.23307 36.5658 6.59766 35.1895 6.59766C33.2572 6.59766 32.054 6.01432 31.5801 4.84766C31.4434 4.51953 31.375 4.15495 31.375 3.75391C31.375 3.35286 31.4707 2.93359 31.6621 2.49609C31.8535 2.05859 32.1406 1.66667 32.5234 1.32031C33.3711 0.527344 34.4603 0.130859 35.791 0.130859ZM39.4961 25H31.5801V8.00586H39.4961V25ZM50.5977 25H42.8457V1.99023H50.5977V25ZM65.0352 12.873C65.0352 12.071 64.6615 11.6699 63.9141 11.6699C63.0573 11.752 62.5013 12.194 62.2461 12.9961C62.1185 13.3789 62.0273 13.8255 61.9727 14.3359C61.9271 14.8372 61.8542 15.375 61.7539 15.9492L64.748 15.2793L65.0078 13.1875L65.0352 12.873ZM63.1895 19.0938C63.1895 19.0938 62.9388 19.0938 62.4375 19.0938C62.2005 19.0938 61.9727 19.0846 61.7539 19.0664C61.7539 20.151 62.3327 20.7435 63.4902 20.8438C63.8092 20.8711 64.1191 20.8848 64.4199 20.8848C65.1947 20.8848 66.1654 20.707 67.332 20.3516C68.5078 19.9961 69.5605 19.4173 70.4902 18.6152L71.3379 22.8672C69.3053 24.6263 66.2337 25.5059 62.123 25.5059C59.7624 25.5059 57.7344 24.8177 56.0391 23.4414C54.1979 21.9375 53.2773 19.8548 53.2773 17.1934C53.2773 15.1882 53.7969 13.388 54.8359 11.793C55.8021 10.3346 57.11 9.22721 58.7598 8.4707C60.4095 7.71419 62.1914 7.33594 64.1055 7.33594C66.5846 7.33594 68.4577 7.87826 69.7246 8.96289C71.0007 10.0475 71.6341 11.3874 71.625 12.9824C71.625 14.5775 70.8639 15.9948 69.3418 17.2344C67.8197 18.474 65.7689 19.0938 63.1895 19.0938ZM74.5371 3.16602H77.668L88.2227 13.0781L99.0645 3.16602H102.086V25H93.1035V17.918L87.5254 24.043L82.0977 18.082V25H74.5371V3.16602ZM107.322 23.4961C106.593 22.8125 106.01 21.9557 105.572 20.9258C105.144 19.8867 104.93 18.7702 104.93 17.5762C104.93 16.3822 105.048 15.3477 105.285 14.4727C105.759 12.7318 106.589 11.2689 107.773 10.084C108.339 9.50065 108.967 9.00846 109.66 8.60742C111.082 7.77799 112.581 7.36328 114.158 7.36328C115.744 7.36328 117.134 7.88737 118.328 8.93555C118.711 9.27279 119.044 9.66016 119.326 10.0977L121.281 8.00586H125.766V25H121.281L119.326 22.1699C117.831 24.3757 115.566 25.4831 112.531 25.4922C111.693 25.5013 110.795 25.3372 109.838 25C108.89 24.6719 108.051 24.1706 107.322 23.4961ZM118.396 13.1602C118.068 12.9688 117.676 12.873 117.221 12.873C116.765 12.873 116.282 13.0371 115.771 13.3652C115.27 13.6842 114.819 14.0898 114.418 14.582C113.525 15.6849 113.078 16.806 113.078 17.9453C113.078 18.7474 113.324 19.3125 113.816 19.6406C114.272 19.9414 114.965 19.9004 115.895 19.5176C116.833 19.1257 117.667 18.6198 118.396 18V13.1602ZM148.83 14.2266C148.821 16.8333 147.96 19.1576 146.246 21.1992C144.97 22.7214 143.234 23.806 141.037 24.4531C139.898 24.7904 138.604 24.9727 137.154 25V29.4297H129.033V8.00586H133.518L135.418 10.6309C137.46 8.45247 139.606 7.36328 141.857 7.36328C144.109 7.36328 145.831 8.01042 147.025 9.30469C148.229 10.599 148.83 12.2396 148.83 14.2266ZM141.242 13.1191C141.051 13.0462 140.814 13.0098 140.531 13.0098C139.957 13.0098 139.337 13.3424 138.672 14.0078C138.016 14.6641 137.51 15.416 137.154 16.2637V20.1875C137.309 20.0781 137.537 19.9323 137.838 19.75C138.148 19.5586 138.485 19.3307 138.85 19.0664C141.001 17.5352 142.076 15.9766 142.076 14.3906C142.076 13.7526 141.798 13.3288 141.242 13.1191Z" fill="#00286E"/>
</svg>
