<svg width="279" height="282" viewBox="0 0 279 282" fill="none" xmlns="http://www.w3.org/2000/svg">
<g filter="url(#filter0_d_1558_2974)">
<rect x="10" y="6" width="259" height="262" rx="30" fill="white"/>
<rect x="10.5" y="6.5" width="258" height="261" rx="29.5" stroke="#D9D9D9"/>
</g>
<rect x="15" y="13" width="248" height="154" rx="30" fill="#F2F2F2"/>
<path d="M27.6882 188.492H24.8885C24.8374 188.13 24.733 187.808 24.5753 187.527C24.4176 187.241 24.2152 186.999 23.968 186.798C23.7209 186.598 23.4354 186.445 23.1115 186.338C22.7919 186.232 22.4446 186.178 22.0696 186.178C21.392 186.178 20.8018 186.347 20.299 186.683C19.7962 187.016 19.4063 187.501 19.1293 188.141C18.8523 188.776 18.7138 189.547 18.7138 190.455C18.7138 191.388 18.8523 192.172 19.1293 192.807C19.4105 193.442 19.8026 193.921 20.3054 194.245C20.8082 194.569 21.3899 194.731 22.0504 194.731C22.4212 194.731 22.7642 194.682 23.0795 194.584C23.3991 194.486 23.6825 194.343 23.9297 194.156C24.1768 193.964 24.3814 193.732 24.5433 193.459C24.7095 193.186 24.8246 192.875 24.8885 192.526L27.6882 192.538C27.6158 193.139 27.4347 193.719 27.1449 194.277C26.8594 194.831 26.4737 195.327 25.9879 195.766C25.5064 196.201 24.9311 196.546 24.2621 196.802C23.5973 197.053 22.8452 197.179 22.0057 197.179C20.8381 197.179 19.794 196.915 18.8736 196.386C17.9574 195.858 17.233 195.093 16.7003 194.092C16.1719 193.09 15.9077 191.878 15.9077 190.455C15.9077 189.027 16.1761 187.812 16.7131 186.811C17.25 185.81 17.9787 185.047 18.8991 184.523C19.8196 183.994 20.8551 183.73 22.0057 183.73C22.7642 183.73 23.4673 183.837 24.1151 184.05C24.767 184.263 25.3445 184.574 25.8473 184.983C26.3501 185.388 26.7592 185.884 27.0746 186.472C27.3942 187.06 27.5987 187.734 27.6882 188.492ZM34.0579 197.192C33.065 197.192 32.2063 196.981 31.4819 196.559C30.7617 196.133 30.2056 195.54 29.8136 194.782C29.4215 194.019 29.2255 193.135 29.2255 192.129C29.2255 191.115 29.4215 190.229 29.8136 189.47C30.2056 188.707 30.7617 188.115 31.4819 187.693C32.2063 187.267 33.065 187.054 34.0579 187.054C35.0508 187.054 35.9073 187.267 36.6275 187.693C37.3519 188.115 37.9102 188.707 38.3022 189.47C38.6942 190.229 38.8903 191.115 38.8903 192.129C38.8903 193.135 38.6942 194.019 38.3022 194.782C37.9102 195.54 37.3519 196.133 36.6275 196.559C35.9073 196.981 35.0508 197.192 34.0579 197.192ZM34.0707 195.082C34.5224 195.082 34.8995 194.955 35.2021 194.699C35.5046 194.439 35.7326 194.085 35.886 193.638C36.0437 193.19 36.1225 192.681 36.1225 192.11C36.1225 191.539 36.0437 191.03 35.886 190.582C35.7326 190.135 35.5046 189.781 35.2021 189.521C34.8995 189.261 34.5224 189.131 34.0707 189.131C33.6147 189.131 33.2312 189.261 32.9201 189.521C32.6133 189.781 32.381 190.135 32.2234 190.582C32.07 191.03 31.9933 191.539 31.9933 192.11C31.9933 192.681 32.07 193.19 32.2234 193.638C32.381 194.085 32.6133 194.439 32.9201 194.699C33.2312 194.955 33.6147 195.082 34.0707 195.082ZM45.0969 197.192C44.104 197.192 43.2454 196.981 42.521 196.559C41.8008 196.133 41.2447 195.54 40.8526 194.782C40.4606 194.019 40.2646 193.135 40.2646 192.129C40.2646 191.115 40.4606 190.229 40.8526 189.47C41.2447 188.707 41.8008 188.115 42.521 187.693C43.2454 187.267 44.104 187.054 45.0969 187.054C46.0898 187.054 46.9464 187.267 47.6665 187.693C48.391 188.115 48.9492 188.707 49.3413 189.47C49.7333 190.229 49.9293 191.115 49.9293 192.129C49.9293 193.135 49.7333 194.019 49.3413 194.782C48.9492 195.54 48.391 196.133 47.6665 196.559C46.9464 196.981 46.0898 197.192 45.0969 197.192ZM45.1097 195.082C45.5614 195.082 45.9386 194.955 46.2411 194.699C46.5437 194.439 46.7717 194.085 46.9251 193.638C47.0827 193.19 47.1616 192.681 47.1616 192.11C47.1616 191.539 47.0827 191.03 46.9251 190.582C46.7717 190.135 46.5437 189.781 46.2411 189.521C45.9386 189.261 45.5614 189.131 45.1097 189.131C44.6538 189.131 44.2702 189.261 43.9592 189.521C43.6523 189.781 43.4201 190.135 43.2624 190.582C43.109 191.03 43.0323 191.539 43.0323 192.11C43.0323 192.681 43.109 193.19 43.2624 193.638C43.4201 194.085 43.6523 194.439 43.9592 194.699C44.2702 194.955 44.6538 195.082 45.1097 195.082ZM54.1673 194.175L54.1737 190.908H54.57L57.7148 187.182H60.8406L56.6154 192.116H55.9698L54.1673 194.175ZM51.6999 197V183.909H54.4229V197H51.6999ZM57.8363 197L54.9471 192.724L56.7624 190.8L61.0259 197H57.8363ZM69.1422 197.185C68.5158 197.185 67.9576 197.077 67.4675 196.859C66.9775 196.638 66.5897 196.312 66.3042 195.881C66.0229 195.447 65.8823 194.906 65.8823 194.258C65.8823 193.712 65.9824 193.254 66.1827 192.884C66.383 192.513 66.6557 192.214 67.0009 191.989C67.3461 191.763 67.7381 191.592 68.177 191.477C68.6202 191.362 69.0847 191.281 69.5705 191.234C70.1415 191.175 70.6017 191.119 70.9512 191.068C71.3006 191.013 71.5542 190.932 71.7118 190.825C71.8695 190.719 71.9483 190.561 71.9483 190.352V190.314C71.9483 189.909 71.8205 189.596 71.5648 189.374C71.3134 189.153 70.9554 189.042 70.4909 189.042C70.0009 189.042 69.611 189.151 69.3212 189.368C69.0314 189.581 68.8397 189.849 68.7459 190.173L66.2275 189.969C66.3553 189.372 66.6067 188.857 66.9817 188.422C67.3567 187.983 67.8404 187.646 68.4327 187.412C69.0293 187.173 69.7196 187.054 70.5037 187.054C71.0492 187.054 71.5712 187.118 72.0698 187.246C72.5726 187.374 73.0179 187.572 73.4057 187.84C73.7978 188.109 74.1067 188.454 74.3326 188.876C74.5584 189.293 74.6713 189.794 74.6713 190.378V197H72.089V195.638H72.0123C71.8546 195.945 71.6436 196.216 71.3794 196.45C71.1152 196.68 70.7978 196.862 70.427 196.994C70.0563 197.121 69.628 197.185 69.1422 197.185ZM69.9221 195.306C70.3226 195.306 70.6763 195.227 70.9831 195.07C71.29 194.908 71.5307 194.69 71.7054 194.418C71.8801 194.145 71.9675 193.836 71.9675 193.491V192.449C71.8823 192.504 71.7651 192.555 71.6159 192.602C71.4711 192.645 71.307 192.685 71.1238 192.724C70.9405 192.758 70.7573 192.79 70.574 192.82C70.3908 192.845 70.2246 192.869 70.0755 192.89C69.7559 192.937 69.4767 193.011 69.2381 193.114C68.9995 193.216 68.8141 193.354 68.682 193.529C68.5499 193.7 68.4838 193.913 68.4838 194.168C68.4838 194.539 68.6181 194.822 68.8865 195.018C69.1593 195.21 69.5044 195.306 69.9221 195.306ZM79.5069 191.324V197H76.7839V187.182H79.3791V188.914H79.4941C79.7115 188.343 80.0758 187.891 80.5872 187.559C81.0985 187.222 81.7186 187.054 82.4473 187.054C83.1291 187.054 83.7235 187.203 84.2306 187.501C84.7377 187.8 85.1319 188.226 85.4132 188.78C85.6944 189.33 85.8351 189.986 85.8351 190.749V197H83.112V191.234C83.1163 190.634 82.9629 190.165 82.6518 189.828C82.3407 189.487 81.9125 189.317 81.367 189.317C81.0005 189.317 80.6767 189.396 80.3954 189.553C80.1184 189.711 79.9011 189.941 79.7434 190.244C79.59 190.542 79.5112 190.902 79.5069 191.324ZM96.6216 197.192C95.6117 197.192 94.7424 196.987 94.0137 196.578C93.2892 196.165 92.731 195.581 92.339 194.827C91.9469 194.068 91.7509 193.171 91.7509 192.136C91.7509 191.126 91.9469 190.239 92.339 189.477C92.731 188.714 93.2828 188.119 93.9945 187.693C94.7104 187.267 95.5499 187.054 96.513 187.054C97.1607 187.054 97.7637 187.158 98.3219 187.367C98.8844 187.572 99.3745 187.881 99.7921 188.294C100.214 188.707 100.542 189.227 100.776 189.854C101.011 190.476 101.128 191.205 101.128 192.04V192.788H92.8375V191.1H98.5648C98.5648 190.708 98.4796 190.361 98.3091 190.058C98.1387 189.756 97.9022 189.519 97.5996 189.349C97.3013 189.174 96.954 189.087 96.5577 189.087C96.1444 189.087 95.7779 189.183 95.4583 189.374C95.1429 189.562 94.8958 189.815 94.7168 190.135C94.5378 190.45 94.4462 190.802 94.4419 191.19V192.794C94.4419 193.28 94.5314 193.7 94.7104 194.053C94.8936 194.407 95.1515 194.68 95.4838 194.871C95.8162 195.063 96.2104 195.159 96.6664 195.159C96.9689 195.159 97.2459 195.116 97.4973 195.031C97.7488 194.946 97.964 194.818 98.1429 194.648C98.3219 194.477 98.4583 194.268 98.552 194.021L101.07 194.188C100.943 194.793 100.681 195.321 100.284 195.773C99.8922 196.22 99.3851 196.57 98.763 196.821C98.1451 197.068 97.4313 197.192 96.6216 197.192ZM107.328 200.886C106.446 200.886 105.69 200.765 105.059 200.522C104.433 200.283 103.934 199.957 103.563 199.544C103.193 199.131 102.952 198.666 102.841 198.151L105.36 197.812C105.436 198.008 105.558 198.191 105.724 198.362C105.89 198.532 106.11 198.668 106.382 198.771C106.659 198.877 106.996 198.93 107.392 198.93C107.985 198.93 108.472 198.786 108.856 198.496C109.244 198.21 109.438 197.731 109.438 197.058V195.261H109.323C109.203 195.534 109.024 195.792 108.786 196.035C108.547 196.278 108.24 196.476 107.865 196.629C107.49 196.783 107.043 196.859 106.523 196.859C105.786 196.859 105.115 196.689 104.509 196.348C103.909 196.003 103.429 195.477 103.071 194.769C102.718 194.058 102.541 193.158 102.541 192.072C102.541 190.96 102.722 190.031 103.084 189.285C103.446 188.539 103.928 187.981 104.529 187.61C105.134 187.239 105.796 187.054 106.517 187.054C107.066 187.054 107.526 187.148 107.897 187.335C108.268 187.518 108.566 187.749 108.792 188.026C109.022 188.298 109.199 188.567 109.323 188.831H109.425V187.182H112.129V197.096C112.129 197.931 111.924 198.63 111.515 199.192C111.106 199.755 110.539 200.177 109.815 200.458C109.095 200.744 108.266 200.886 107.328 200.886ZM107.386 194.814C107.825 194.814 108.195 194.705 108.498 194.488C108.805 194.266 109.039 193.951 109.201 193.542C109.367 193.129 109.45 192.634 109.45 192.059C109.45 191.484 109.369 190.985 109.208 190.563C109.046 190.137 108.811 189.807 108.504 189.572C108.198 189.338 107.825 189.221 107.386 189.221C106.938 189.221 106.561 189.342 106.254 189.585C105.948 189.824 105.715 190.156 105.558 190.582C105.4 191.009 105.321 191.501 105.321 192.059C105.321 192.626 105.4 193.116 105.558 193.529C105.72 193.938 105.952 194.256 106.254 194.482C106.561 194.703 106.938 194.814 107.386 194.814ZM118.719 200.886C117.837 200.886 117.08 200.765 116.45 200.522C115.823 200.283 115.325 199.957 114.954 199.544C114.583 199.131 114.343 198.666 114.232 198.151L116.75 197.812C116.827 198.008 116.948 198.191 117.115 198.362C117.281 198.532 117.5 198.668 117.773 198.771C118.05 198.877 118.387 198.93 118.783 198.93C119.375 198.93 119.863 198.786 120.247 198.496C120.634 198.21 120.828 197.731 120.828 197.058V195.261H120.713C120.594 195.534 120.415 195.792 120.176 196.035C119.938 196.278 119.631 196.476 119.256 196.629C118.881 196.783 118.433 196.859 117.914 196.859C117.176 196.859 116.505 196.689 115.9 196.348C115.299 196.003 114.82 195.477 114.462 194.769C114.108 194.058 113.931 193.158 113.931 192.072C113.931 190.96 114.112 190.031 114.475 189.285C114.837 188.539 115.318 187.981 115.919 187.61C116.524 187.239 117.187 187.054 117.907 187.054C118.457 187.054 118.917 187.148 119.288 187.335C119.659 187.518 119.957 187.749 120.183 188.026C120.413 188.298 120.59 188.567 120.713 188.831H120.816V187.182H123.519V197.096C123.519 197.931 123.315 198.63 122.906 199.192C122.497 199.755 121.93 200.177 121.205 200.458C120.485 200.744 119.656 200.886 118.719 200.886ZM118.776 194.814C119.215 194.814 119.586 194.705 119.889 194.488C120.195 194.266 120.43 193.951 120.592 193.542C120.758 193.129 120.841 192.634 120.841 192.059C120.841 191.484 120.76 190.985 120.598 190.563C120.436 190.137 120.202 189.807 119.895 189.572C119.588 189.338 119.215 189.221 118.776 189.221C118.329 189.221 117.952 189.342 117.645 189.585C117.338 189.824 117.106 190.156 116.948 190.582C116.791 191.009 116.712 191.501 116.712 192.059C116.712 192.626 116.791 193.116 116.948 193.529C117.11 193.938 117.343 194.256 117.645 194.482C117.952 194.703 118.329 194.814 118.776 194.814Z" fill="black"/>
<path d="M219 6H239C255.569 6 269 19.4315 269 36V56H219V6Z" fill="#D9D9D9" fill-opacity="0.3"/>
<path d="M62.5156 256.977C62.3229 256.977 62.1576 256.908 62.0195 256.77C61.8815 256.632 61.8125 256.466 61.8125 256.273C61.8125 256.081 61.8815 255.915 62.0195 255.777C62.1576 255.639 62.3229 255.57 62.5156 255.57C62.7083 255.57 62.8737 255.639 63.0117 255.777C63.1497 255.915 63.2188 256.081 63.2188 256.273C63.2188 256.401 63.1862 256.518 63.1211 256.625C63.0586 256.732 62.974 256.818 62.8672 256.883C62.763 256.945 62.6458 256.977 62.5156 256.977ZM62.5156 252.93C62.3229 252.93 62.1576 252.861 62.0195 252.723C61.8815 252.585 61.8125 252.419 61.8125 252.227C61.8125 252.034 61.8815 251.868 62.0195 251.73C62.1576 251.592 62.3229 251.523 62.5156 251.523C62.7083 251.523 62.8737 251.592 63.0117 251.73C63.1497 251.868 63.2188 252.034 63.2188 252.227C63.2188 252.354 63.1862 252.471 63.1211 252.578C63.0586 252.685 62.974 252.771 62.8672 252.836C62.763 252.898 62.6458 252.93 62.5156 252.93ZM67.9512 258V257.297L70.5918 254.406C70.9017 254.068 71.1569 253.773 71.3574 253.523C71.5579 253.271 71.7064 253.034 71.8027 252.812C71.9017 252.589 71.9512 252.354 71.9512 252.109C71.9512 251.828 71.8835 251.585 71.748 251.379C71.6152 251.173 71.4329 251.014 71.2012 250.902C70.9694 250.79 70.709 250.734 70.4199 250.734C70.1126 250.734 69.8444 250.798 69.6152 250.926C69.3887 251.051 69.2129 251.227 69.0879 251.453C68.9655 251.68 68.9043 251.945 68.9043 252.25H67.9824C67.9824 251.781 68.0905 251.37 68.3066 251.016C68.5228 250.661 68.8171 250.385 69.1895 250.187C69.5645 249.99 69.985 249.891 70.4512 249.891C70.9199 249.891 71.3353 249.99 71.6973 250.187C72.0592 250.385 72.3431 250.652 72.5488 250.988C72.7546 251.324 72.8574 251.698 72.8574 252.109C72.8574 252.404 72.804 252.691 72.6973 252.973C72.5931 253.251 72.4108 253.562 72.1504 253.906C71.8926 254.247 71.5345 254.664 71.0762 255.156L69.2793 257.078V257.141H72.998V258H67.9512ZM77.4238 250V258H76.4551V251.016H76.4082L74.4551 252.312V251.328L76.4551 250H77.4238ZM82.4277 258.109C81.9121 258.109 81.4525 258.021 81.0488 257.844C80.6478 257.667 80.3288 257.421 80.0918 257.105C79.8574 256.788 79.7298 256.419 79.709 256H80.6934C80.7142 256.258 80.8027 256.48 80.959 256.668C81.1152 256.853 81.3197 256.996 81.5723 257.098C81.8249 257.199 82.1048 257.25 82.4121 257.25C82.7559 257.25 83.0605 257.19 83.3262 257.07C83.5918 256.951 83.8001 256.784 83.9512 256.57C84.1022 256.357 84.1777 256.109 84.1777 255.828C84.1777 255.534 84.1048 255.275 83.959 255.051C83.8132 254.824 83.5996 254.647 83.3184 254.52C83.0371 254.392 82.6934 254.328 82.2871 254.328H81.6465V253.469H82.2871C82.6048 253.469 82.8835 253.411 83.123 253.297C83.3652 253.182 83.554 253.021 83.6895 252.812C83.8275 252.604 83.8965 252.359 83.8965 252.078C83.8965 251.807 83.8366 251.572 83.7168 251.371C83.597 251.171 83.4277 251.014 83.209 250.902C82.9928 250.79 82.7376 250.734 82.4434 250.734C82.1673 250.734 81.9069 250.785 81.6621 250.887C81.4199 250.986 81.222 251.13 81.0684 251.32C80.9147 251.508 80.8314 251.734 80.8184 252H79.8809C79.8965 251.581 80.0228 251.214 80.2598 250.898C80.4967 250.581 80.8066 250.333 81.1895 250.156C81.5749 249.979 81.998 249.891 82.459 249.891C82.9538 249.891 83.3783 249.991 83.7324 250.191C84.0866 250.389 84.3587 250.651 84.5488 250.977C84.7389 251.302 84.834 251.654 84.834 252.031C84.834 252.482 84.7155 252.866 84.4785 253.184C84.2441 253.501 83.9251 253.721 83.5215 253.844V253.906C84.0267 253.99 84.4212 254.204 84.7051 254.551C84.9889 254.895 85.1309 255.32 85.1309 255.828C85.1309 256.263 85.0124 256.654 84.7754 257C84.541 257.344 84.2207 257.615 83.8145 257.812C83.4082 258.01 82.946 258.109 82.4277 258.109ZM86.541 256.359V255.562L90.0566 250H90.6348V251.234H90.2441L87.5879 255.437V255.5H92.3223V256.359H86.541ZM90.3066 258V256.117V255.746V250H91.2285V258H90.3066ZM101.802 252L99.583 258H98.6455L96.4268 252H97.4268L99.083 256.781H99.1455L100.802 252H101.802ZM103.019 258V252H103.94V258H103.019ZM103.487 251C103.308 251 103.153 250.939 103.022 250.816C102.895 250.694 102.831 250.547 102.831 250.375C102.831 250.203 102.895 250.056 103.022 249.934C103.153 249.811 103.308 249.75 103.487 249.75C103.667 249.75 103.821 249.811 103.948 249.934C104.078 250.056 104.144 250.203 104.144 250.375C104.144 250.547 104.078 250.694 103.948 250.816C103.821 250.939 103.667 251 103.487 251ZM108.145 258.125C107.566 258.125 107.068 257.997 106.648 257.742C106.232 257.484 105.91 257.125 105.684 256.664C105.46 256.201 105.348 255.661 105.348 255.047C105.348 254.432 105.46 253.891 105.684 253.422C105.91 252.951 106.225 252.583 106.629 252.32C107.035 252.055 107.509 251.922 108.051 251.922C108.363 251.922 108.672 251.974 108.977 252.078C109.281 252.182 109.559 252.352 109.809 252.586C110.059 252.818 110.258 253.125 110.406 253.508C110.555 253.891 110.629 254.362 110.629 254.922V255.312H106.004V254.516H109.691C109.691 254.177 109.624 253.875 109.488 253.609C109.355 253.344 109.165 253.134 108.918 252.98C108.673 252.827 108.384 252.75 108.051 252.75C107.684 252.75 107.366 252.841 107.098 253.023C106.832 253.203 106.628 253.437 106.484 253.727C106.341 254.016 106.27 254.326 106.27 254.656V255.188C106.27 255.641 106.348 256.025 106.504 256.34C106.663 256.652 106.883 256.891 107.164 257.055C107.445 257.216 107.772 257.297 108.145 257.297C108.387 257.297 108.605 257.263 108.801 257.195C108.999 257.125 109.169 257.021 109.313 256.883C109.456 256.742 109.566 256.568 109.645 256.359L110.535 256.609C110.441 256.911 110.284 257.177 110.063 257.406C109.841 257.633 109.568 257.81 109.242 257.937C108.917 258.063 108.551 258.125 108.145 258.125ZM113.391 258L111.563 252H112.531L113.828 256.594H113.891L115.172 252H116.156L117.422 256.578H117.484L118.781 252H119.75L117.922 258H117.016L115.703 253.391H115.609L114.297 258H113.391ZM125.219 253.344L124.391 253.578C124.339 253.44 124.262 253.306 124.16 253.176C124.061 253.043 123.926 252.934 123.754 252.848C123.582 252.762 123.362 252.719 123.094 252.719C122.727 252.719 122.421 252.803 122.176 252.973C121.934 253.139 121.813 253.352 121.813 253.609C121.813 253.839 121.896 254.02 122.063 254.152C122.229 254.285 122.49 254.396 122.844 254.484L123.734 254.703C124.271 254.833 124.671 255.033 124.934 255.301C125.197 255.566 125.328 255.909 125.328 256.328C125.328 256.672 125.229 256.979 125.031 257.25C124.836 257.521 124.563 257.734 124.211 257.891C123.859 258.047 123.451 258.125 122.984 258.125C122.372 258.125 121.866 257.992 121.465 257.727C121.064 257.461 120.81 257.073 120.703 256.562L121.578 256.344C121.661 256.667 121.819 256.909 122.051 257.07C122.285 257.232 122.591 257.312 122.969 257.312C123.398 257.312 123.74 257.221 123.992 257.039C124.247 256.854 124.375 256.633 124.375 256.375C124.375 256.167 124.302 255.992 124.156 255.852C124.01 255.708 123.786 255.602 123.484 255.531L122.484 255.297C121.935 255.167 121.531 254.965 121.273 254.691C121.018 254.415 120.891 254.07 120.891 253.656C120.891 253.318 120.986 253.018 121.176 252.758C121.368 252.497 121.63 252.293 121.961 252.145C122.294 251.996 122.672 251.922 123.094 251.922C123.688 251.922 124.154 252.052 124.492 252.312C124.833 252.573 125.076 252.917 125.219 253.344Z" fill="#525252"/>
<path d="M134.969 160V152H135.938V159.141H139.656V160H134.969ZM142.797 160.141C142.417 160.141 142.072 160.069 141.762 159.926C141.452 159.78 141.206 159.57 141.023 159.297C140.841 159.021 140.75 158.687 140.75 158.297C140.75 157.953 140.818 157.674 140.953 157.461C141.089 157.245 141.27 157.076 141.496 156.953C141.723 156.831 141.973 156.74 142.246 156.68C142.522 156.617 142.799 156.568 143.078 156.531C143.443 156.484 143.738 156.449 143.965 156.426C144.194 156.4 144.361 156.357 144.465 156.297C144.572 156.237 144.625 156.133 144.625 155.984V155.953C144.625 155.568 144.52 155.268 144.309 155.055C144.1 154.841 143.784 154.734 143.359 154.734C142.919 154.734 142.574 154.831 142.324 155.023C142.074 155.216 141.898 155.422 141.797 155.641L140.922 155.328C141.078 154.964 141.286 154.68 141.547 154.477C141.81 154.271 142.096 154.128 142.406 154.047C142.719 153.964 143.026 153.922 143.328 153.922C143.521 153.922 143.742 153.945 143.992 153.992C144.245 154.036 144.488 154.129 144.723 154.27C144.96 154.41 145.156 154.622 145.313 154.906C145.469 155.19 145.547 155.57 145.547 156.047V160H144.625V159.187H144.578C144.516 159.318 144.411 159.457 144.266 159.605C144.12 159.754 143.926 159.88 143.684 159.984C143.441 160.089 143.146 160.141 142.797 160.141ZM142.938 159.312C143.302 159.312 143.609 159.241 143.859 159.098C144.112 158.954 144.302 158.77 144.43 158.543C144.56 158.316 144.625 158.078 144.625 157.828V156.984C144.586 157.031 144.5 157.074 144.367 157.113C144.237 157.15 144.086 157.182 143.914 157.211C143.745 157.237 143.579 157.26 143.418 157.281C143.259 157.299 143.13 157.315 143.031 157.328C142.792 157.359 142.568 157.41 142.359 157.48C142.154 157.548 141.987 157.651 141.859 157.789C141.734 157.924 141.672 158.109 141.672 158.344C141.672 158.664 141.79 158.906 142.027 159.07C142.267 159.232 142.57 159.312 142.938 159.312ZM151.479 155.344L150.651 155.578C150.599 155.44 150.522 155.306 150.421 155.176C150.322 155.043 150.187 154.934 150.015 154.848C149.843 154.762 149.623 154.719 149.354 154.719C148.987 154.719 148.681 154.803 148.437 154.973C148.194 155.139 148.073 155.352 148.073 155.609C148.073 155.839 148.157 156.02 148.323 156.152C148.49 156.285 148.75 156.396 149.104 156.484L149.995 156.703C150.532 156.833 150.931 157.033 151.194 157.301C151.457 157.566 151.589 157.909 151.589 158.328C151.589 158.672 151.49 158.979 151.292 159.25C151.097 159.521 150.823 159.734 150.472 159.891C150.12 160.047 149.711 160.125 149.245 160.125C148.633 160.125 148.127 159.992 147.726 159.727C147.325 159.461 147.071 159.073 146.964 158.562L147.839 158.344C147.922 158.667 148.08 158.909 148.312 159.07C148.546 159.232 148.852 159.312 149.229 159.312C149.659 159.312 150 159.221 150.253 159.039C150.508 158.854 150.636 158.633 150.636 158.375C150.636 158.167 150.563 157.992 150.417 157.852C150.271 157.708 150.047 157.602 149.745 157.531L148.745 157.297C148.196 157.167 147.792 156.965 147.534 156.691C147.279 156.415 147.151 156.07 147.151 155.656C147.151 155.318 147.246 155.018 147.437 154.758C147.629 154.497 147.891 154.293 148.222 154.145C148.555 153.996 148.933 153.922 149.354 153.922C149.948 153.922 150.414 154.052 150.753 154.312C151.094 154.573 151.336 154.917 151.479 155.344ZM155.586 154V154.781H152.477V154H155.586ZM153.383 152.562H154.305V158.281C154.305 158.542 154.342 158.737 154.418 158.867C154.496 158.995 154.595 159.081 154.715 159.125C154.837 159.167 154.966 159.187 155.102 159.187C155.203 159.187 155.286 159.182 155.352 159.172C155.417 159.159 155.469 159.148 155.508 159.141L155.695 159.969C155.633 159.992 155.546 160.016 155.434 160.039C155.322 160.065 155.18 160.078 155.008 160.078C154.747 160.078 154.492 160.022 154.242 159.91C153.995 159.798 153.789 159.628 153.625 159.398C153.464 159.169 153.383 158.88 153.383 158.531V152.562ZM163.848 157.547V154H164.77V160H163.848V158.984H163.785C163.645 159.289 163.426 159.548 163.129 159.762C162.832 159.973 162.457 160.078 162.004 160.078C161.629 160.078 161.296 159.996 161.004 159.832C160.712 159.665 160.483 159.415 160.316 159.082C160.15 158.746 160.066 158.323 160.066 157.812V154H160.988V157.75C160.988 158.187 161.111 158.536 161.355 158.797C161.603 159.057 161.918 159.187 162.301 159.187C162.53 159.187 162.763 159.129 163 159.012C163.24 158.895 163.44 158.715 163.602 158.473C163.766 158.23 163.848 157.922 163.848 157.547ZM166.458 162.25V154H167.349V154.953H167.458C167.526 154.849 167.619 154.716 167.739 154.555C167.862 154.391 168.036 154.245 168.263 154.117C168.492 153.987 168.802 153.922 169.192 153.922C169.698 153.922 170.143 154.048 170.528 154.301C170.914 154.553 171.215 154.911 171.431 155.375C171.647 155.839 171.755 156.385 171.755 157.016C171.755 157.651 171.647 158.202 171.431 158.668C171.215 159.132 170.915 159.491 170.532 159.746C170.149 159.999 169.708 160.125 169.208 160.125C168.823 160.125 168.514 160.061 168.282 159.934C168.05 159.803 167.872 159.656 167.747 159.492C167.622 159.326 167.526 159.187 167.458 159.078H167.38V162.25H166.458ZM167.364 157C167.364 157.453 167.431 157.853 167.563 158.199C167.696 158.543 167.89 158.812 168.146 159.008C168.401 159.201 168.713 159.297 169.083 159.297C169.468 159.297 169.79 159.195 170.048 158.992C170.308 158.786 170.504 158.51 170.634 158.164C170.767 157.815 170.833 157.427 170.833 157C170.833 156.578 170.768 156.198 170.638 155.859C170.51 155.518 170.316 155.249 170.056 155.051C169.798 154.85 169.474 154.75 169.083 154.75C168.708 154.75 168.393 154.845 168.138 155.035C167.882 155.223 167.69 155.486 167.56 155.824C167.429 156.16 167.364 156.552 167.364 157ZM175.427 160.125C174.927 160.125 174.485 159.999 174.103 159.746C173.72 159.491 173.42 159.132 173.204 158.668C172.988 158.202 172.88 157.651 172.88 157.016C172.88 156.385 172.988 155.839 173.204 155.375C173.42 154.911 173.721 154.553 174.106 154.301C174.492 154.048 174.937 153.922 175.442 153.922C175.833 153.922 176.142 153.987 176.368 154.117C176.597 154.245 176.772 154.391 176.892 154.555C177.014 154.716 177.109 154.849 177.177 154.953H177.255V152H178.177V160H177.286V159.078H177.177C177.109 159.187 177.013 159.326 176.888 159.492C176.763 159.656 176.584 159.803 176.353 159.934C176.121 160.061 175.812 160.125 175.427 160.125ZM175.552 159.297C175.922 159.297 176.234 159.201 176.489 159.008C176.744 158.812 176.938 158.543 177.071 158.199C177.204 157.853 177.271 157.453 177.271 157C177.271 156.552 177.205 156.16 177.075 155.824C176.945 155.486 176.752 155.223 176.497 155.035C176.242 154.845 175.927 154.75 175.552 154.75C175.161 154.75 174.836 154.85 174.575 155.051C174.317 155.249 174.123 155.518 173.993 155.859C173.866 156.198 173.802 156.578 173.802 157C173.802 157.427 173.867 157.815 173.997 158.164C174.13 158.51 174.325 158.786 174.583 158.992C174.843 159.195 175.166 159.297 175.552 159.297ZM181.759 160.141C181.379 160.141 181.034 160.069 180.724 159.926C180.414 159.78 180.168 159.57 179.985 159.297C179.803 159.021 179.712 158.687 179.712 158.297C179.712 157.953 179.78 157.674 179.915 157.461C180.05 157.245 180.231 157.076 180.458 156.953C180.685 156.831 180.935 156.74 181.208 156.68C181.484 156.617 181.761 156.568 182.04 156.531C182.405 156.484 182.7 156.449 182.927 156.426C183.156 156.4 183.323 156.357 183.427 156.297C183.534 156.237 183.587 156.133 183.587 155.984V155.953C183.587 155.568 183.481 155.268 183.271 155.055C183.062 154.841 182.746 154.734 182.321 154.734C181.881 154.734 181.536 154.831 181.286 155.023C181.036 155.216 180.86 155.422 180.759 155.641L179.884 155.328C180.04 154.964 180.248 154.68 180.509 154.477C180.772 154.271 181.058 154.128 181.368 154.047C181.681 153.964 181.988 153.922 182.29 153.922C182.483 153.922 182.704 153.945 182.954 153.992C183.207 154.036 183.45 154.129 183.685 154.27C183.922 154.41 184.118 154.622 184.274 154.906C184.431 155.19 184.509 155.57 184.509 156.047V160H183.587V159.187H183.54C183.478 159.318 183.373 159.457 183.228 159.605C183.082 159.754 182.888 159.88 182.646 159.984C182.403 160.089 182.108 160.141 181.759 160.141ZM181.899 159.312C182.264 159.312 182.571 159.241 182.821 159.098C183.074 158.954 183.264 158.77 183.392 158.543C183.522 158.316 183.587 158.078 183.587 157.828V156.984C183.548 157.031 183.462 157.074 183.329 157.113C183.199 157.15 183.048 157.182 182.876 157.211C182.707 157.237 182.541 157.26 182.38 157.281C182.221 157.299 182.092 157.315 181.993 157.328C181.754 157.359 181.53 157.41 181.321 157.48C181.116 157.548 180.949 157.651 180.821 157.789C180.696 157.924 180.634 158.109 180.634 158.344C180.634 158.664 180.752 158.906 180.989 159.07C181.229 159.232 181.532 159.312 181.899 159.312ZM188.801 154V154.781H185.691V154H188.801ZM186.598 152.562H187.52V158.281C187.52 158.542 187.557 158.737 187.633 158.867C187.711 158.995 187.81 159.081 187.93 159.125C188.052 159.167 188.181 159.187 188.316 159.187C188.418 159.187 188.501 159.182 188.566 159.172C188.632 159.159 188.684 159.148 188.723 159.141L188.91 159.969C188.848 159.992 188.76 160.016 188.648 160.039C188.536 160.065 188.395 160.078 188.223 160.078C187.962 160.078 187.707 160.022 187.457 159.91C187.21 159.798 187.004 159.628 186.84 159.398C186.678 159.169 186.598 158.88 186.598 158.531V152.562ZM192.639 160.125C192.061 160.125 191.562 159.997 191.143 159.742C190.726 159.484 190.404 159.125 190.178 158.664C189.954 158.201 189.842 157.661 189.842 157.047C189.842 156.432 189.954 155.891 190.178 155.422C190.404 154.951 190.719 154.583 191.123 154.32C191.529 154.055 192.003 153.922 192.545 153.922C192.857 153.922 193.166 153.974 193.471 154.078C193.775 154.182 194.053 154.352 194.303 154.586C194.553 154.818 194.752 155.125 194.9 155.508C195.049 155.891 195.123 156.362 195.123 156.922V157.312H190.498V156.516H194.186C194.186 156.177 194.118 155.875 193.982 155.609C193.85 155.344 193.66 155.134 193.412 154.98C193.167 154.827 192.878 154.75 192.545 154.75C192.178 154.75 191.86 154.841 191.592 155.023C191.326 155.203 191.122 155.437 190.979 155.727C190.835 156.016 190.764 156.326 190.764 156.656V157.188C190.764 157.641 190.842 158.025 190.998 158.34C191.157 158.652 191.377 158.891 191.658 159.055C191.939 159.216 192.266 159.297 192.639 159.297C192.881 159.297 193.1 159.263 193.295 159.195C193.493 159.125 193.663 159.021 193.807 158.883C193.95 158.742 194.061 158.568 194.139 158.359L195.029 158.609C194.936 158.911 194.778 159.177 194.557 159.406C194.335 159.633 194.062 159.81 193.736 159.937C193.411 160.063 193.045 160.125 192.639 160.125ZM198.791 160.125C198.291 160.125 197.85 159.999 197.467 159.746C197.084 159.491 196.785 159.132 196.568 158.668C196.352 158.202 196.244 157.651 196.244 157.016C196.244 156.385 196.352 155.839 196.568 155.375C196.785 154.911 197.085 154.553 197.471 154.301C197.856 154.048 198.301 153.922 198.807 153.922C199.197 153.922 199.506 153.987 199.732 154.117C199.962 154.245 200.136 154.391 200.256 154.555C200.378 154.716 200.473 154.849 200.541 154.953H200.619V152H201.541V160H200.65V159.078H200.541C200.473 159.187 200.377 159.326 200.252 159.492C200.127 159.656 199.949 159.803 199.717 159.934C199.485 160.061 199.176 160.125 198.791 160.125ZM198.916 159.297C199.286 159.297 199.598 159.201 199.854 159.008C200.109 158.812 200.303 158.543 200.436 158.199C200.568 157.853 200.635 157.453 200.635 157C200.635 156.552 200.57 156.16 200.439 155.824C200.309 155.486 200.117 155.223 199.861 155.035C199.606 154.845 199.291 154.75 198.916 154.75C198.525 154.75 198.2 154.85 197.939 155.051C197.682 155.249 197.488 155.518 197.357 155.859C197.23 156.198 197.166 156.578 197.166 157C197.166 157.427 197.231 157.815 197.361 158.164C197.494 158.51 197.689 158.786 197.947 158.992C198.208 159.195 198.531 159.297 198.916 159.297ZM204.029 160.063C203.837 160.063 203.671 159.993 203.533 159.855C203.395 159.717 203.326 159.552 203.326 159.359C203.326 159.167 203.395 159.001 203.533 158.863C203.671 158.725 203.837 158.656 204.029 158.656C204.222 158.656 204.387 158.725 204.525 158.863C204.663 159.001 204.732 159.167 204.732 159.359C204.732 159.487 204.7 159.604 204.635 159.711C204.572 159.818 204.488 159.904 204.381 159.969C204.277 160.031 204.16 160.063 204.029 160.063ZM204.029 155.609C203.837 155.609 203.671 155.54 203.533 155.402C203.395 155.264 203.326 155.099 203.326 154.906C203.326 154.714 203.395 154.548 203.533 154.41C203.671 154.272 203.837 154.203 204.029 154.203C204.222 154.203 204.387 154.272 204.525 154.41C204.663 154.548 204.732 154.714 204.732 154.906C204.732 155.034 204.7 155.151 204.635 155.258C204.572 155.365 204.488 155.451 204.381 155.516C204.277 155.578 204.16 155.609 204.029 155.609ZM212.277 152V160H211.309V153.016H211.262L209.309 154.312V153.328L211.309 152H212.277ZM214.578 160V159.297L217.219 156.406C217.529 156.068 217.784 155.773 217.984 155.523C218.185 155.271 218.333 155.034 218.43 154.812C218.529 154.589 218.578 154.354 218.578 154.109C218.578 153.828 218.51 153.585 218.375 153.379C218.242 153.173 218.06 153.014 217.828 152.902C217.596 152.79 217.336 152.734 217.047 152.734C216.74 152.734 216.471 152.798 216.242 152.926C216.016 153.051 215.84 153.227 215.715 153.453C215.592 153.68 215.531 153.945 215.531 154.25H214.609C214.609 153.781 214.717 153.37 214.934 153.016C215.15 152.661 215.444 152.385 215.816 152.187C216.191 151.99 216.612 151.891 217.078 151.891C217.547 151.891 217.962 151.99 218.324 152.187C218.686 152.385 218.97 152.652 219.176 152.988C219.382 153.324 219.484 153.698 219.484 154.109C219.484 154.404 219.431 154.691 219.324 154.973C219.22 155.251 219.038 155.562 218.777 155.906C218.52 156.247 218.161 156.664 217.703 157.156L215.906 159.078V159.141H219.625V160H214.578ZM224.082 151.625L221.504 161.203H220.66L223.238 151.625H224.082ZM225.159 160V159.297L227.8 156.406C228.11 156.068 228.365 155.773 228.565 155.523C228.766 155.271 228.914 155.034 229.011 154.812C229.11 154.589 229.159 154.354 229.159 154.109C229.159 153.828 229.091 153.585 228.956 153.379C228.823 153.173 228.641 153.014 228.409 152.902C228.177 152.79 227.917 152.734 227.628 152.734C227.321 152.734 227.052 152.798 226.823 152.926C226.597 153.051 226.421 153.227 226.296 153.453C226.174 153.68 226.112 153.945 226.112 154.25H225.19C225.19 153.781 225.299 153.37 225.515 153.016C225.731 152.661 226.025 152.385 226.397 152.187C226.772 151.99 227.193 151.891 227.659 151.891C228.128 151.891 228.543 151.99 228.905 152.187C229.267 152.385 229.551 152.652 229.757 152.988C229.963 153.324 230.065 153.698 230.065 154.109C230.065 154.404 230.012 154.691 229.905 154.973C229.801 155.251 229.619 155.562 229.358 155.906C229.101 156.247 228.743 156.664 228.284 157.156L226.487 159.078V159.141H230.206V160H225.159ZM234.663 151.625L232.085 161.203H231.241L233.819 151.625H234.663ZM235.74 160V159.297L238.381 156.406C238.691 156.068 238.946 155.773 239.146 155.523C239.347 155.271 239.495 155.034 239.592 154.812C239.691 154.589 239.74 154.354 239.74 154.109C239.74 153.828 239.673 153.585 239.537 153.379C239.404 153.173 239.222 153.014 238.99 152.902C238.758 152.79 238.498 152.734 238.209 152.734C237.902 152.734 237.633 152.798 237.404 152.926C237.178 153.051 237.002 153.227 236.877 153.453C236.755 153.68 236.693 153.945 236.693 154.25H235.771C235.771 153.781 235.88 153.37 236.096 153.016C236.312 152.661 236.606 152.385 236.979 152.187C237.354 151.99 237.774 151.891 238.24 151.891C238.709 151.891 239.124 151.99 239.486 152.187C239.848 152.385 240.132 152.652 240.338 152.988C240.544 153.324 240.646 153.698 240.646 154.109C240.646 154.404 240.593 154.691 240.486 154.973C240.382 155.251 240.2 155.562 239.939 155.906C239.682 156.247 239.324 156.664 238.865 157.156L237.068 159.078V159.141H240.787V160H235.74ZM245.104 160.109C244.588 160.109 244.128 160.021 243.725 159.844C243.324 159.667 243.005 159.421 242.768 159.105C242.533 158.788 242.406 158.419 242.385 158H243.369C243.39 158.258 243.479 158.48 243.635 158.668C243.791 158.853 243.995 158.996 244.248 159.098C244.501 159.199 244.781 159.25 245.088 159.25C245.432 159.25 245.736 159.19 246.002 159.07C246.268 158.951 246.476 158.784 246.627 158.57C246.778 158.357 246.854 158.109 246.854 157.828C246.854 157.534 246.781 157.275 246.635 157.051C246.489 156.824 246.275 156.647 245.994 156.52C245.713 156.392 245.369 156.328 244.963 156.328H244.322V155.469H244.963C245.281 155.469 245.559 155.411 245.799 155.297C246.041 155.182 246.23 155.021 246.365 154.812C246.503 154.604 246.572 154.359 246.572 154.078C246.572 153.807 246.512 153.572 246.393 153.371C246.273 153.171 246.104 153.014 245.885 152.902C245.669 152.79 245.413 152.734 245.119 152.734C244.843 152.734 244.583 152.785 244.338 152.887C244.096 152.986 243.898 153.13 243.744 153.32C243.59 153.508 243.507 153.734 243.494 154H242.557C242.572 153.581 242.699 153.214 242.936 152.898C243.173 152.581 243.482 152.333 243.865 152.156C244.251 151.979 244.674 151.891 245.135 151.891C245.63 151.891 246.054 151.991 246.408 152.191C246.762 152.389 247.035 152.651 247.225 152.977C247.415 153.302 247.51 153.654 247.51 154.031C247.51 154.482 247.391 154.866 247.154 155.184C246.92 155.501 246.601 155.721 246.197 155.844V155.906C246.702 155.99 247.097 156.204 247.381 156.551C247.665 156.895 247.807 157.32 247.807 157.828C247.807 158.263 247.688 158.654 247.451 159C247.217 159.344 246.896 159.615 246.49 159.812C246.084 160.01 245.622 160.109 245.104 160.109Z" fill="#525252"/>
<path d="M162.406 222.5H161.438C161.38 222.221 161.28 221.977 161.137 221.766C160.996 221.555 160.824 221.378 160.621 221.234C160.421 221.089 160.198 220.979 159.953 220.906C159.708 220.833 159.453 220.797 159.188 220.797C158.703 220.797 158.264 220.919 157.871 221.164C157.48 221.409 157.169 221.77 156.938 222.246C156.708 222.723 156.594 223.307 156.594 224C156.594 224.693 156.708 225.277 156.938 225.754C157.169 226.23 157.48 226.591 157.871 226.836C158.264 227.081 158.703 227.203 159.188 227.203C159.453 227.203 159.708 227.167 159.953 227.094C160.198 227.021 160.421 226.913 160.621 226.77C160.824 226.624 160.996 226.445 161.137 226.234C161.28 226.021 161.38 225.776 161.438 225.5H162.406C162.333 225.909 162.201 226.275 162.008 226.598C161.815 226.921 161.576 227.195 161.289 227.422C161.003 227.646 160.681 227.816 160.324 227.934C159.97 228.051 159.591 228.109 159.188 228.109C158.505 228.109 157.898 227.943 157.367 227.609C156.836 227.276 156.418 226.802 156.113 226.187C155.809 225.573 155.656 224.844 155.656 224C155.656 223.156 155.809 222.427 156.113 221.812C156.418 221.198 156.836 220.724 157.367 220.391C157.898 220.057 158.505 219.891 159.188 219.891C159.591 219.891 159.97 219.949 160.324 220.066C160.681 220.184 161.003 220.355 161.289 220.582C161.576 220.806 161.815 221.079 162.008 221.402C162.201 221.723 162.333 222.089 162.406 222.5ZM163.847 228V222H164.737V222.906H164.8C164.909 222.609 165.107 222.368 165.394 222.184C165.68 221.999 166.003 221.906 166.362 221.906C166.43 221.906 166.515 221.908 166.616 221.91C166.718 221.913 166.795 221.917 166.847 221.922V222.859C166.815 222.852 166.744 222.84 166.632 222.824C166.522 222.806 166.407 222.797 166.284 222.797C165.993 222.797 165.732 222.858 165.503 222.98C165.276 223.1 165.097 223.267 164.964 223.48C164.834 223.691 164.769 223.932 164.769 224.203V228H163.847ZM170.272 228.125C169.694 228.125 169.196 227.997 168.776 227.742C168.36 227.484 168.038 227.125 167.812 226.664C167.588 226.201 167.476 225.661 167.476 225.047C167.476 224.432 167.588 223.891 167.812 223.422C168.038 222.951 168.353 222.583 168.757 222.32C169.163 222.055 169.637 221.922 170.179 221.922C170.491 221.922 170.8 221.974 171.104 222.078C171.409 222.182 171.687 222.352 171.937 222.586C172.187 222.818 172.386 223.125 172.534 223.508C172.683 223.891 172.757 224.362 172.757 224.922V225.312H168.132V224.516H171.819C171.819 224.177 171.752 223.875 171.616 223.609C171.483 223.344 171.293 223.134 171.046 222.98C170.801 222.827 170.512 222.75 170.179 222.75C169.812 222.75 169.494 222.841 169.226 223.023C168.96 223.203 168.756 223.437 168.612 223.727C168.469 224.016 168.397 224.326 168.397 224.656V225.188C168.397 225.641 168.476 226.025 168.632 226.34C168.791 226.652 169.011 226.891 169.292 227.055C169.573 227.216 169.9 227.297 170.272 227.297C170.515 227.297 170.733 227.263 170.929 227.195C171.127 227.125 171.297 227.021 171.44 226.883C171.584 226.742 171.694 226.568 171.772 226.359L172.663 226.609C172.569 226.911 172.412 227.177 172.19 227.406C171.969 227.633 171.696 227.81 171.37 227.937C171.045 228.063 170.679 228.125 170.272 228.125ZM175.925 228.141C175.545 228.141 175.2 228.069 174.89 227.926C174.58 227.78 174.334 227.57 174.151 227.297C173.969 227.021 173.878 226.687 173.878 226.297C173.878 225.953 173.946 225.674 174.081 225.461C174.216 225.245 174.397 225.076 174.624 224.953C174.851 224.831 175.101 224.74 175.374 224.68C175.65 224.617 175.927 224.568 176.206 224.531C176.571 224.484 176.866 224.449 177.093 224.426C177.322 224.4 177.489 224.357 177.593 224.297C177.7 224.237 177.753 224.133 177.753 223.984V223.953C177.753 223.568 177.647 223.268 177.437 223.055C177.228 222.841 176.912 222.734 176.487 222.734C176.047 222.734 175.702 222.831 175.452 223.023C175.202 223.216 175.026 223.422 174.925 223.641L174.05 223.328C174.206 222.964 174.414 222.68 174.675 222.477C174.938 222.271 175.224 222.128 175.534 222.047C175.847 221.964 176.154 221.922 176.456 221.922C176.649 221.922 176.87 221.945 177.12 221.992C177.373 222.036 177.616 222.129 177.851 222.27C178.088 222.41 178.284 222.622 178.44 222.906C178.597 223.19 178.675 223.57 178.675 224.047V228H177.753V227.187H177.706C177.644 227.318 177.539 227.457 177.394 227.605C177.248 227.754 177.054 227.88 176.812 227.984C176.569 228.089 176.274 228.141 175.925 228.141ZM176.065 227.312C176.43 227.312 176.737 227.241 176.987 227.098C177.24 226.954 177.43 226.77 177.558 226.543C177.688 226.316 177.753 226.078 177.753 225.828V224.984C177.714 225.031 177.628 225.074 177.495 225.113C177.365 225.15 177.214 225.182 177.042 225.211C176.873 225.237 176.707 225.26 176.546 225.281C176.387 225.299 176.258 225.315 176.159 225.328C175.92 225.359 175.696 225.41 175.487 225.48C175.282 225.548 175.115 225.651 174.987 225.789C174.862 225.924 174.8 226.109 174.8 226.344C174.8 226.664 174.918 226.906 175.155 227.07C175.395 227.232 175.698 227.312 176.065 227.312ZM182.967 222V222.781H179.857V222H182.967ZM180.764 220.562H181.686V226.281C181.686 226.542 181.723 226.737 181.799 226.867C181.877 226.995 181.976 227.081 182.096 227.125C182.218 227.167 182.347 227.187 182.482 227.187C182.584 227.187 182.667 227.182 182.732 227.172C182.798 227.159 182.85 227.148 182.889 227.141L183.076 227.969C183.014 227.992 182.926 228.016 182.814 228.039C182.702 228.065 182.561 228.078 182.389 228.078C182.128 228.078 181.873 228.022 181.623 227.91C181.376 227.798 181.17 227.628 181.006 227.398C180.844 227.169 180.764 226.88 180.764 226.531V220.562ZM186.805 228.125C186.227 228.125 185.728 227.997 185.309 227.742C184.892 227.484 184.57 227.125 184.344 226.664C184.12 226.201 184.008 225.661 184.008 225.047C184.008 224.432 184.12 223.891 184.344 223.422C184.57 222.951 184.885 222.583 185.289 222.32C185.695 222.055 186.169 221.922 186.711 221.922C187.023 221.922 187.332 221.974 187.637 222.078C187.941 222.182 188.219 222.352 188.469 222.586C188.719 222.818 188.918 223.125 189.066 223.508C189.215 223.891 189.289 224.362 189.289 224.922V225.312H184.664V224.516H188.352C188.352 224.177 188.284 223.875 188.148 223.609C188.016 223.344 187.826 223.134 187.578 222.98C187.333 222.827 187.044 222.75 186.711 222.75C186.344 222.75 186.026 222.841 185.758 223.023C185.492 223.203 185.288 223.437 185.145 223.727C185.001 224.016 184.93 224.326 184.93 224.656V225.188C184.93 225.641 185.008 226.025 185.164 226.34C185.323 226.652 185.543 226.891 185.824 227.055C186.105 227.216 186.432 227.297 186.805 227.297C187.047 227.297 187.266 227.263 187.461 227.195C187.659 227.125 187.829 227.021 187.973 226.883C188.116 226.742 188.227 226.568 188.305 226.359L189.195 226.609C189.102 226.911 188.944 227.177 188.723 227.406C188.501 227.633 188.228 227.81 187.902 227.937C187.577 228.063 187.211 228.125 186.805 228.125ZM192.957 228.125C192.457 228.125 192.016 227.999 191.633 227.746C191.25 227.491 190.951 227.132 190.734 226.668C190.518 226.202 190.41 225.651 190.41 225.016C190.41 224.385 190.518 223.839 190.734 223.375C190.951 222.911 191.251 222.553 191.637 222.301C192.022 222.048 192.467 221.922 192.973 221.922C193.363 221.922 193.672 221.987 193.898 222.117C194.128 222.245 194.302 222.391 194.422 222.555C194.544 222.716 194.639 222.849 194.707 222.953H194.785V220H195.707V228H194.816V227.078H194.707C194.639 227.187 194.543 227.326 194.418 227.492C194.293 227.656 194.115 227.803 193.883 227.934C193.651 228.061 193.342 228.125 192.957 228.125ZM193.082 227.297C193.452 227.297 193.764 227.201 194.02 227.008C194.275 226.812 194.469 226.543 194.602 226.199C194.734 225.853 194.801 225.453 194.801 225C194.801 224.552 194.736 224.16 194.605 223.824C194.475 223.486 194.283 223.223 194.027 223.035C193.772 222.845 193.457 222.75 193.082 222.75C192.691 222.75 192.366 222.85 192.105 223.051C191.848 223.249 191.654 223.518 191.523 223.859C191.396 224.198 191.332 224.578 191.332 225C191.332 225.427 191.397 225.815 191.527 226.164C191.66 226.51 191.855 226.786 192.113 226.992C192.374 227.195 192.697 227.297 193.082 227.297ZM201.289 226.977C201.096 226.977 200.931 226.908 200.793 226.77C200.655 226.632 200.586 226.466 200.586 226.273C200.586 226.081 200.655 225.915 200.793 225.777C200.931 225.639 201.096 225.57 201.289 225.57C201.482 225.57 201.647 225.639 201.785 225.777C201.923 225.915 201.992 226.081 201.992 226.273C201.992 226.401 201.96 226.518 201.895 226.625C201.832 226.732 201.747 226.818 201.641 226.883C201.536 226.945 201.419 226.977 201.289 226.977ZM201.289 222.93C201.096 222.93 200.931 222.861 200.793 222.723C200.655 222.585 200.586 222.419 200.586 222.227C200.586 222.034 200.655 221.868 200.793 221.73C200.931 221.592 201.096 221.523 201.289 221.523C201.482 221.523 201.647 221.592 201.785 221.73C201.923 221.868 201.992 222.034 201.992 222.227C201.992 222.354 201.96 222.471 201.895 222.578C201.832 222.685 201.747 222.771 201.641 222.836C201.536 222.898 201.419 222.93 201.289 222.93ZM206.725 228V227.297L209.365 224.406C209.675 224.068 209.93 223.773 210.131 223.523C210.331 223.271 210.48 223.034 210.576 222.812C210.675 222.589 210.725 222.354 210.725 222.109C210.725 221.828 210.657 221.585 210.521 221.379C210.389 221.173 210.206 221.014 209.975 220.902C209.743 220.79 209.482 220.734 209.193 220.734C208.886 220.734 208.618 220.798 208.389 220.926C208.162 221.051 207.986 221.227 207.861 221.453C207.739 221.68 207.678 221.945 207.678 222.25H206.756C206.756 221.781 206.864 221.37 207.08 221.016C207.296 220.661 207.59 220.385 207.963 220.187C208.338 219.99 208.758 219.891 209.225 219.891C209.693 219.891 210.109 219.99 210.471 220.187C210.833 220.385 211.117 220.652 211.322 220.988C211.528 221.324 211.631 221.698 211.631 222.109C211.631 222.404 211.577 222.691 211.471 222.973C211.367 223.251 211.184 223.562 210.924 223.906C210.666 224.247 210.308 224.664 209.85 225.156L208.053 227.078V227.141H211.771V228H206.725ZM213.025 226.359V225.562L216.541 220H217.119V221.234H216.729L214.072 225.437V225.5H218.807V226.359H213.025ZM216.791 228V226.117V225.746V220H217.713V228H216.791ZM223.114 219.625L220.536 229.203H219.692L222.271 219.625H223.114ZM227.004 220V228H226.035V221.016H225.988L224.035 222.312V221.328L226.035 220H227.004ZM232.148 219.625L229.57 229.203H228.727L231.305 219.625H232.148ZM233.226 228V227.297L235.866 224.406C236.176 224.068 236.431 223.773 236.632 223.523C236.832 223.271 236.981 223.034 237.077 222.812C237.176 222.589 237.226 222.354 237.226 222.109C237.226 221.828 237.158 221.585 237.022 221.379C236.89 221.173 236.707 221.014 236.476 220.902C236.244 220.79 235.983 220.734 235.694 220.734C235.387 220.734 235.119 220.798 234.89 220.926C234.663 221.051 234.487 221.227 234.362 221.453C234.24 221.68 234.179 221.945 234.179 222.25H233.257C233.257 221.781 233.365 221.37 233.581 221.016C233.797 220.661 234.091 220.385 234.464 220.187C234.839 219.99 235.259 219.891 235.726 219.891C236.194 219.891 236.61 219.99 236.972 220.187C237.334 220.385 237.618 220.652 237.823 220.988C238.029 221.324 238.132 221.698 238.132 222.109C238.132 222.404 238.078 222.691 237.972 222.973C237.868 223.251 237.685 223.562 237.425 223.906C237.167 224.247 236.809 224.664 236.351 225.156L234.554 227.078V227.141H238.272V228H233.226ZM242.589 228.109C242.073 228.109 241.614 228.021 241.21 227.844C240.809 227.667 240.49 227.421 240.253 227.105C240.019 226.788 239.891 226.419 239.87 226H240.854C240.875 226.258 240.964 226.48 241.12 226.668C241.276 226.853 241.481 226.996 241.733 227.098C241.986 227.199 242.266 227.25 242.573 227.25C242.917 227.25 243.222 227.19 243.487 227.07C243.753 226.951 243.961 226.784 244.112 226.57C244.263 226.357 244.339 226.109 244.339 225.828C244.339 225.534 244.266 225.275 244.12 225.051C243.974 224.824 243.761 224.647 243.479 224.52C243.198 224.392 242.854 224.328 242.448 224.328H241.808V223.469H242.448C242.766 223.469 243.045 223.411 243.284 223.297C243.526 223.182 243.715 223.021 243.851 222.812C243.989 222.604 244.058 222.359 244.058 222.078C244.058 221.807 243.998 221.572 243.878 221.371C243.758 221.171 243.589 221.014 243.37 220.902C243.154 220.79 242.899 220.734 242.604 220.734C242.328 220.734 242.068 220.785 241.823 220.887C241.581 220.986 241.383 221.13 241.229 221.32C241.076 221.508 240.993 221.734 240.979 222H240.042C240.058 221.581 240.184 221.214 240.421 220.898C240.658 220.581 240.968 220.333 241.351 220.156C241.736 219.979 242.159 219.891 242.62 219.891C243.115 219.891 243.539 219.991 243.894 220.191C244.248 220.389 244.52 220.651 244.71 220.977C244.9 221.302 244.995 221.654 244.995 222.031C244.995 222.482 244.877 222.866 244.64 223.184C244.405 223.501 244.086 223.721 243.683 223.844V223.906C244.188 223.99 244.582 224.204 244.866 224.551C245.15 224.895 245.292 225.32 245.292 225.828C245.292 226.263 245.174 226.654 244.937 227C244.702 227.344 244.382 227.615 243.976 227.812C243.569 228.01 243.107 228.109 242.589 228.109Z" fill="#525252"/>
<g filter="url(#filter1_d_1558_2974)">
<rect x="200" y="182" width="55" height="19" rx="9.5" fill="white"/>
<rect x="200.25" y="182.25" width="54.5" height="18.5" rx="9.25" stroke="#D9D9D9" stroke-width="0.5"/>
</g>
<g filter="url(#filter2_d_1558_2974)">
<rect x="130" y="182" width="55" height="19" rx="9.5" fill="white"/>
<rect x="130.25" y="182.25" width="54.5" height="18.5" rx="9.25" stroke="#D9D9D9" stroke-width="0.5"/>
</g>
<path d="M155.452 194.126C155.237 194.126 155.052 194.051 154.898 193.899C154.745 193.745 154.669 193.561 154.671 193.345C154.669 193.132 154.745 192.95 154.898 192.798C155.052 192.647 155.237 192.571 155.452 192.571C155.661 192.571 155.842 192.647 155.996 192.798C156.152 192.95 156.231 193.132 156.234 193.345C156.231 193.49 156.193 193.621 156.12 193.739C156.049 193.858 155.954 193.952 155.836 194.023C155.72 194.092 155.592 194.126 155.452 194.126ZM155.452 190.522C155.237 190.522 155.052 190.446 154.898 190.295C154.745 190.141 154.669 189.956 154.671 189.741C154.669 189.528 154.745 189.345 154.898 189.194C155.052 189.04 155.237 188.963 155.452 188.963C155.661 188.963 155.842 189.04 155.996 189.194C156.152 189.345 156.231 189.528 156.234 189.741C156.231 189.883 156.193 190.013 156.12 190.131C156.049 190.25 155.954 190.344 155.836 190.415C155.72 190.487 155.592 190.522 155.452 190.522ZM165.036 195.099C164.563 195.099 164.139 195.011 163.765 194.833C163.391 194.653 163.094 194.407 162.873 194.094C162.656 193.782 162.54 193.424 162.525 193.022H163.804C163.827 193.32 163.956 193.564 164.191 193.754C164.425 193.941 164.707 194.034 165.036 194.034C165.294 194.034 165.524 193.975 165.725 193.857C165.926 193.738 166.085 193.574 166.201 193.363C166.317 193.152 166.374 192.912 166.371 192.642C166.374 192.367 166.316 192.124 166.197 191.911C166.079 191.697 165.917 191.531 165.711 191.41C165.505 191.287 165.268 191.225 165.001 191.225C164.783 191.223 164.568 191.263 164.358 191.346C164.147 191.429 163.98 191.538 163.857 191.673L162.667 191.477L163.047 187.727H167.266V188.828H164.138L163.928 190.756H163.971C164.106 190.598 164.296 190.466 164.542 190.362C164.789 190.256 165.059 190.202 165.352 190.202C165.792 190.202 166.185 190.307 166.531 190.515C166.877 190.721 167.149 191.005 167.348 191.367C167.547 191.729 167.646 192.144 167.646 192.61C167.646 193.091 167.535 193.519 167.312 193.896C167.092 194.27 166.786 194.564 166.393 194.78C166.002 194.993 165.55 195.099 165.036 195.099ZM171.421 195.099C170.893 195.099 170.424 195.011 170.015 194.833C169.608 194.656 169.288 194.413 169.056 194.105C168.826 193.795 168.713 193.443 168.715 193.05C168.713 192.745 168.779 192.464 168.914 192.209C169.049 191.953 169.231 191.74 169.461 191.57C169.693 191.397 169.951 191.287 170.235 191.239V191.19C169.861 191.107 169.558 190.916 169.326 190.618C169.096 190.317 168.983 189.97 168.985 189.577C168.983 189.203 169.087 188.87 169.297 188.576C169.508 188.282 169.797 188.052 170.164 187.884C170.531 187.713 170.95 187.628 171.421 187.628C171.887 187.628 172.303 187.713 172.667 187.884C173.034 188.052 173.323 188.282 173.534 188.576C173.747 188.87 173.854 189.203 173.854 189.577C173.854 189.97 173.736 190.317 173.502 190.618C173.27 190.916 172.97 191.107 172.604 191.19V191.239C172.888 191.287 173.143 191.397 173.371 191.57C173.6 191.74 173.782 191.953 173.917 192.209C174.055 192.464 174.123 192.745 174.123 193.05C174.123 193.443 174.007 193.795 173.775 194.105C173.543 194.413 173.224 194.656 172.817 194.833C172.412 195.011 171.947 195.099 171.421 195.099ZM171.421 194.084C171.693 194.084 171.93 194.038 172.131 193.945C172.332 193.851 172.489 193.718 172.6 193.548C172.711 193.377 172.768 193.181 172.77 192.958C172.768 192.726 172.708 192.521 172.589 192.344C172.473 192.164 172.314 192.023 172.11 191.921C171.909 191.819 171.679 191.768 171.421 191.768C171.161 191.768 170.929 191.819 170.725 191.921C170.521 192.023 170.36 192.164 170.242 192.344C170.126 192.521 170.069 192.726 170.072 192.958C170.069 193.181 170.124 193.377 170.235 193.548C170.346 193.716 170.502 193.847 170.704 193.942C170.907 194.036 171.146 194.084 171.421 194.084ZM171.421 190.771C171.644 190.771 171.84 190.726 172.01 190.636C172.183 190.546 172.319 190.42 172.419 190.259C172.518 190.098 172.569 189.912 172.572 189.702C172.569 189.493 172.519 189.311 172.422 189.155C172.325 188.996 172.19 188.874 172.018 188.789C171.845 188.701 171.646 188.658 171.421 188.658C171.191 188.658 170.989 188.701 170.814 188.789C170.641 188.874 170.506 188.996 170.409 189.155C170.314 189.311 170.268 189.493 170.27 189.702C170.268 189.912 170.315 190.098 170.412 190.259C170.512 190.418 170.648 190.543 170.821 190.636C170.996 190.726 171.196 190.771 171.421 190.771ZM177.816 187.628C178.164 187.63 178.502 187.692 178.831 187.812C179.163 187.931 179.461 188.125 179.726 188.395C179.991 188.662 180.202 189.021 180.358 189.471C180.515 189.921 180.593 190.477 180.593 191.14C180.595 191.765 180.529 192.324 180.394 192.816C180.261 193.306 180.071 193.72 179.822 194.059C179.574 194.397 179.274 194.656 178.924 194.833C178.573 195.011 178.179 195.099 177.741 195.099C177.282 195.099 176.875 195.009 176.52 194.83C176.167 194.65 175.882 194.403 175.664 194.091C175.446 193.778 175.312 193.421 175.262 193.018H176.559C176.625 193.307 176.76 193.537 176.963 193.707C177.169 193.875 177.429 193.96 177.741 193.96C178.245 193.96 178.634 193.741 178.906 193.303C179.178 192.865 179.314 192.256 179.314 191.477H179.265C179.149 191.686 178.998 191.866 178.814 192.017C178.629 192.166 178.419 192.281 178.185 192.362C177.953 192.442 177.707 192.482 177.446 192.482C177.02 192.482 176.637 192.38 176.296 192.177C175.957 191.973 175.689 191.694 175.49 191.339C175.293 190.984 175.194 190.578 175.191 190.121C175.191 189.647 175.3 189.222 175.518 188.846C175.738 188.467 176.045 188.169 176.438 187.951C176.831 187.731 177.29 187.623 177.816 187.628ZM177.819 188.693C177.564 188.693 177.333 188.756 177.127 188.881C176.923 189.004 176.762 189.173 176.644 189.386C176.528 189.596 176.47 189.832 176.47 190.092C176.472 190.35 176.53 190.585 176.644 190.795C176.76 191.006 176.917 191.173 177.116 191.296C177.317 191.419 177.547 191.481 177.805 191.481C177.997 191.481 178.176 191.444 178.341 191.371C178.507 191.297 178.651 191.196 178.775 191.065C178.9 190.933 178.997 190.782 179.066 190.614C179.137 190.446 179.171 190.269 179.169 190.082C179.169 189.833 179.109 189.603 178.991 189.393C178.875 189.182 178.715 189.013 178.512 188.885C178.31 188.757 178.08 188.693 177.819 188.693Z" fill="black"/>
<path d="M225.452 194.126C225.237 194.126 225.052 194.051 224.898 193.899C224.745 193.745 224.669 193.561 224.671 193.345C224.669 193.132 224.745 192.95 224.898 192.798C225.052 192.647 225.237 192.571 225.452 192.571C225.661 192.571 225.842 192.647 225.996 192.798C226.152 192.95 226.231 193.132 226.234 193.345C226.231 193.49 226.193 193.621 226.12 193.739C226.049 193.858 225.954 193.952 225.836 194.023C225.72 194.092 225.592 194.126 225.452 194.126ZM225.452 190.522C225.237 190.522 225.052 190.446 224.898 190.295C224.745 190.141 224.669 189.956 224.671 189.741C224.669 189.528 224.745 189.345 224.898 189.194C225.052 189.04 225.237 188.963 225.452 188.963C225.661 188.963 225.842 189.04 225.996 189.194C226.152 189.345 226.231 189.528 226.234 189.741C226.231 189.883 226.193 190.013 226.12 190.131C226.049 190.25 225.954 190.344 225.836 190.415C225.72 190.487 225.592 190.522 225.452 190.522ZM230.505 187.727V195H229.187V189.009H229.145L227.444 190.096V188.888L229.251 187.727H230.505ZM232.351 195V194.048L234.876 191.573C235.118 191.329 235.319 191.113 235.48 190.923C235.641 190.734 235.762 190.55 235.842 190.373C235.923 190.195 235.963 190.006 235.963 189.805C235.963 189.575 235.911 189.379 235.807 189.215C235.702 189.049 235.559 188.922 235.377 188.832C235.195 188.742 234.988 188.697 234.756 188.697C234.516 188.697 234.307 188.746 234.127 188.846C233.947 188.943 233.807 189.081 233.708 189.261C233.611 189.441 233.562 189.656 233.562 189.904H232.309C232.309 189.442 232.414 189.041 232.625 188.7C232.836 188.359 233.126 188.095 233.495 187.908C233.867 187.721 234.293 187.628 234.773 187.628C235.261 187.628 235.689 187.719 236.059 187.901C236.428 188.084 236.715 188.333 236.918 188.651C237.124 188.968 237.227 189.33 237.227 189.737C237.227 190.009 237.175 190.277 237.071 190.54C236.967 190.803 236.783 191.094 236.52 191.413C236.26 191.733 235.894 192.12 235.423 192.575L234.17 193.849V193.899H237.337V195H232.351ZM241.172 195.099C240.661 195.099 240.206 195.012 239.809 194.837C239.413 194.661 239.101 194.418 238.871 194.105C238.642 193.793 238.52 193.432 238.506 193.022H239.841C239.853 193.219 239.918 193.39 240.036 193.537C240.154 193.681 240.312 193.794 240.508 193.874C240.705 193.955 240.925 193.995 241.169 193.995C241.429 193.995 241.66 193.95 241.861 193.86C242.063 193.768 242.22 193.64 242.334 193.477C242.447 193.313 242.503 193.125 242.501 192.912C242.503 192.692 242.446 192.498 242.33 192.33C242.214 192.161 242.046 192.03 241.826 191.935C241.608 191.841 241.345 191.793 241.037 191.793H240.395V190.778H241.037C241.291 190.778 241.512 190.734 241.702 190.646C241.893 190.559 242.044 190.436 242.153 190.277C242.261 190.116 242.315 189.93 242.312 189.719C242.315 189.513 242.269 189.335 242.174 189.183C242.081 189.029 241.95 188.91 241.78 188.825C241.612 188.739 241.414 188.697 241.187 188.697C240.964 188.697 240.758 188.737 240.569 188.817C240.379 188.898 240.227 189.013 240.111 189.162C239.995 189.309 239.933 189.484 239.926 189.688H238.658C238.668 189.28 238.785 188.923 239.01 188.615C239.237 188.305 239.54 188.063 239.919 187.891C240.298 187.715 240.723 187.628 241.194 187.628C241.679 187.628 242.1 187.719 242.458 187.901C242.818 188.081 243.096 188.324 243.292 188.629C243.489 188.935 243.587 189.272 243.587 189.641C243.59 190.051 243.469 190.394 243.225 190.671C242.983 190.948 242.666 191.129 242.273 191.214V191.271C242.785 191.342 243.176 191.532 243.449 191.839C243.723 192.145 243.859 192.525 243.857 192.979C243.857 193.387 243.741 193.751 243.509 194.073C243.279 194.393 242.962 194.644 242.557 194.826C242.155 195.008 241.693 195.099 241.172 195.099ZM244.945 193.651V192.603L248.031 187.727H248.904V189.219H248.371L246.294 192.511V192.567H250.602V193.651H244.945ZM248.414 195V193.331L248.428 192.862V187.727H249.671V195H248.414Z" fill="black"/>
<path fill-rule="evenodd" clip-rule="evenodd" d="M138.5 189C139.881 189 141 187.881 141 186.5C141 185.119 139.881 184 138.5 184C137.119 184 136 185.119 136 186.5C136 187.881 137.119 189 138.5 189ZM138.5 187.5C139.052 187.5 139.5 187.052 139.5 186.5C139.5 185.948 139.052 185.5 138.5 185.5C137.948 185.5 137.5 185.948 137.5 186.5C137.5 187.052 137.948 187.5 138.5 187.5Z" fill="#2431A1"/>
<path fill-rule="evenodd" clip-rule="evenodd" d="M146.5 192C147.881 192 149 190.881 149 189.5C149 188.119 147.881 187 146.5 187C145.119 187 144 188.119 144 189.5C144 190.881 145.119 192 146.5 192ZM146.5 190.5C147.052 190.5 147.5 190.052 147.5 189.5C147.5 188.948 147.052 188.5 146.5 188.5C145.948 188.5 145.5 188.948 145.5 189.5C145.5 190.052 145.948 190.5 146.5 190.5Z" fill="#2431A1"/>
<path fill-rule="evenodd" clip-rule="evenodd" d="M138.5 199C139.881 199 141 197.881 141 196.5C141 195.119 139.881 194 138.5 194C137.119 194 136 195.119 136 196.5C136 197.881 137.119 199 138.5 199ZM138.5 197.5C139.052 197.5 139.5 197.052 139.5 196.5C139.5 195.948 139.052 195.5 138.5 195.5C137.948 195.5 137.5 195.948 137.5 196.5C137.5 197.052 137.948 197.5 138.5 197.5Z" fill="#2431A1"/>
<path d="M138 189.3V188H139.5V189.3V189.95V191.9V194.5H139H138V193.85V193.2V191.9V190.6V189.3Z" fill="#2431A1" stroke="#2431A1" stroke-width="0.1"/>
<path fill-rule="evenodd" clip-rule="evenodd" d="M144.992 191H146.99C146.991 191.156 146.993 191.298 146.995 191.431C147 191.824 147.005 192.141 146.99 192.5L146.324 193.5L145.658 194L144.327 194.5L142.329 195H140.997H139V193.258H141.036C141.732 193.236 142.271 193.196 142.633 193.169C142.823 193.155 142.963 193.145 143.051 193.143C143.24 193.112 143.365 193.061 143.453 193.001C144.173 192.997 144.772 192.654 144.91 192.2C144.949 192.153 144.978 192.088 144.992 192C145.051 191.632 145.031 191.471 145.011 191.312C145 191.22 144.989 191.129 144.992 191Z" fill="#2431A1"/>
<path d="M146.99 191L147.04 191L147.039 190.95H146.99V191ZM144.992 191V190.95H144.944L144.942 190.999L144.992 191ZM146.995 191.431L146.945 191.432V191.432L146.995 191.431ZM146.99 192.5L147.031 192.528L147.039 192.516L147.04 192.502L146.99 192.5ZM146.324 193.5L146.354 193.54L146.361 193.535L146.366 193.528L146.324 193.5ZM145.658 194L145.676 194.047L145.682 194.044L145.688 194.04L145.658 194ZM144.327 194.5L144.339 194.549L144.344 194.547L144.327 194.5ZM142.329 195V195.052L142.341 195.049L142.329 195ZM139 195H138.95V195.05H139V195ZM139 193.258V193.208H138.95V193.258H139ZM141.036 193.258V193.308L141.037 193.308L141.036 193.258ZM142.633 193.169L142.629 193.119L142.633 193.169ZM143.051 193.143L143.052 193.193L143.059 193.192L143.051 193.143ZM143.453 193.001L143.453 192.951L143.438 192.951L143.425 192.96L143.453 193.001ZM144.91 192.2L144.871 192.168L144.865 192.176L144.862 192.186L144.91 192.2ZM144.992 192L144.943 191.992V191.992L144.992 192ZM145.011 191.312L144.962 191.318V191.318L145.011 191.312ZM146.99 190.95H144.992V191.05H146.99V190.95ZM147.045 191.431C147.043 191.297 147.041 191.155 147.04 191L146.94 191C146.941 191.156 146.943 191.299 146.945 191.432L147.045 191.431ZM147.04 192.502C147.055 192.142 147.05 191.824 147.045 191.431L146.945 191.432C146.95 191.825 146.955 192.141 146.94 192.498L147.04 192.502ZM146.366 193.528L147.031 192.528L146.948 192.472L146.282 193.472L146.366 193.528ZM145.688 194.04L146.354 193.54L146.294 193.46L145.628 193.96L145.688 194.04ZM144.344 194.547L145.676 194.047L145.641 193.953L144.309 194.453L144.344 194.547ZM142.341 195.049L144.339 194.549L144.314 194.451L142.317 194.951L142.341 195.049ZM140.997 195.05H142.329V194.95H140.997V195.05ZM139 195.05H140.997V194.95H139V195.05ZM138.95 193.258V195H139.05V193.258H138.95ZM141.036 193.208H139V193.308H141.036V193.208ZM142.629 193.119C142.268 193.146 141.729 193.186 141.034 193.208L141.037 193.308C141.734 193.286 142.275 193.246 142.636 193.219L142.629 193.119ZM143.05 193.093C142.96 193.095 142.818 193.105 142.629 193.119L142.636 193.219C142.827 193.205 142.966 193.195 143.052 193.193L143.05 193.093ZM143.425 192.96C143.344 193.015 143.227 193.064 143.043 193.093L143.059 193.192C143.253 193.161 143.385 193.108 143.481 193.042L143.425 192.96ZM144.862 192.186C144.798 192.397 144.625 192.587 144.375 192.725C144.127 192.864 143.805 192.949 143.453 192.951L143.454 193.051C143.821 193.049 144.159 192.96 144.424 192.813C144.689 192.666 144.884 192.458 144.957 192.215L144.862 192.186ZM144.943 191.992C144.93 192.073 144.904 192.129 144.871 192.168L144.948 192.232C144.995 192.176 145.027 192.103 145.042 192.008L144.943 191.992ZM144.962 191.318C144.981 191.474 145.001 191.63 144.943 191.992L145.042 192.008C145.101 191.634 145.081 191.468 145.061 191.305L144.962 191.318ZM144.942 190.999C144.938 191.132 144.95 191.226 144.962 191.318L145.061 191.305C145.05 191.214 145.039 191.127 145.042 191.001L144.942 190.999Z" fill="#2431A1"/>
<path d="M208 196H216.322C216.676 196.002 217.02 195.881 217.294 195.656C217.568 195.432 217.755 195.118 217.822 194.771L218.474 191.271C218.514 191.056 218.507 190.836 218.451 190.625C218.396 190.414 218.296 190.218 218.156 190.051C218.012 189.878 217.831 189.739 217.627 189.644C217.423 189.548 217.2 189.499 216.974 189.5H214.589V187.5C214.589 186.469 213.533 186 212.551 186C212.418 186 212.291 186.053 212.197 186.146C212.104 186.24 212.051 186.367 212.051 186.5C212.051 187.454 211.881 188.455 211.689 188.642L210.296 190H208C207.867 190 207.74 190.053 207.646 190.146C207.553 190.24 207.5 190.367 207.5 190.5V195.5C207.5 195.633 207.553 195.76 207.646 195.854C207.74 195.947 207.867 196 208 196ZM211 190.71L212.387 189.36C212.852 188.907 212.993 187.805 213.037 187.069C213.308 187.133 213.591 187.259 213.591 187.503V190.003C213.591 190.135 213.644 190.262 213.738 190.356C213.832 190.45 213.959 190.503 214.091 190.503H216.977C217.055 190.502 217.133 190.519 217.204 190.552C217.275 190.584 217.339 190.632 217.389 190.693C217.435 190.747 217.469 190.811 217.487 190.881C217.505 190.95 217.507 191.022 217.494 191.093L216.844 194.592C216.818 194.711 216.752 194.816 216.657 194.891C216.561 194.965 216.443 195.004 216.322 195H211V190.71ZM208.5 191H210V195H208.5V191Z" fill="#00286E"/>
<g clip-path="url(#clip0_1558_2974)">
<path d="M51.0007 249C54.159 249 56.9757 250.775 58.3507 253.583C56.9757 256.392 54.159 258.167 51.0007 258.167C47.8423 258.167 45.0257 256.392 43.6507 253.583C45.0257 250.775 47.8423 249 51.0007 249ZM51.0007 247.333C46.834 247.333 43.2757 249.925 41.834 253.583C43.2757 257.242 46.834 259.833 51.0007 259.833C55.1673 259.833 58.7257 257.242 60.1673 253.583C58.7257 249.925 55.1673 247.333 51.0007 247.333ZM51.0007 251.5C52.1507 251.5 53.084 252.433 53.084 253.583C53.084 254.733 52.1507 255.667 51.0007 255.667C49.8507 255.667 48.9173 254.733 48.9173 253.583C48.9173 252.433 49.8507 251.5 51.0007 251.5ZM51.0007 249.833C48.934 249.833 47.2507 251.517 47.2507 253.583C47.2507 255.65 48.934 257.333 51.0007 257.333C53.0673 257.333 54.7507 255.65 54.7507 253.583C54.7507 251.517 53.0673 249.833 51.0007 249.833Z" fill="#525252"/>
</g>
<path d="M24.9375 223C24.9375 223.862 24.776 224.6 24.4531 225.215C24.1328 225.827 23.6953 226.296 23.1406 226.621C22.5885 226.947 21.9622 227.109 21.2617 227.109C20.5612 227.109 19.9336 226.947 19.3789 226.621C18.8268 226.293 18.3893 225.823 18.0664 225.211C17.7461 224.596 17.5859 223.859 17.5859 223C17.5859 222.138 17.7461 221.401 18.0664 220.789C18.3893 220.174 18.8268 219.704 19.3789 219.379C19.9336 219.053 20.5612 218.891 21.2617 218.891C21.9622 218.891 22.5885 219.053 23.1406 219.379C23.6953 219.704 24.1328 220.174 24.4531 220.789C24.776 221.401 24.9375 222.138 24.9375 223ZM23.4805 223C23.4805 222.393 23.3854 221.882 23.1953 221.465C23.0078 221.046 22.7474 220.729 22.4141 220.516C22.0807 220.299 21.6966 220.191 21.2617 220.191C20.8268 220.191 20.4427 220.299 20.1094 220.516C19.776 220.729 19.5143 221.046 19.3242 221.465C19.1367 221.882 19.043 222.393 19.043 223C19.043 223.607 19.1367 224.12 19.3242 224.539C19.5143 224.956 19.776 225.272 20.1094 225.488C20.4427 225.702 20.8268 225.809 21.2617 225.809C21.6966 225.809 22.0807 225.702 22.4141 225.488C22.7474 225.272 23.0078 224.956 23.1953 224.539C23.3854 224.12 23.4805 223.607 23.4805 223ZM27.4834 227L25.7881 221H27.2295L28.2842 225.219H28.3389L29.417 221H30.8428L31.9209 225.195H31.9795L33.0186 221H34.4639L32.7646 227H31.292L30.167 222.945H30.085L28.96 227H27.4834ZM36.8652 223.484V227H35.4512V221H36.8027V222.02H36.873C37.0111 221.684 37.2311 221.417 37.5332 221.219C37.8379 221.021 38.2142 220.922 38.6621 220.922C39.0762 220.922 39.4368 221.01 39.7441 221.187C40.054 221.365 40.2936 221.621 40.4629 221.957C40.6348 222.293 40.7194 222.701 40.7168 223.18V227H39.3027V223.398C39.3027 222.997 39.1986 222.684 38.9902 222.457C38.7845 222.23 38.4993 222.117 38.1348 222.117C37.8874 222.117 37.6673 222.172 37.4746 222.281C37.2845 222.388 37.1348 222.543 37.0254 222.746C36.9186 222.949 36.8652 223.195 36.8652 223.484ZM44.8105 227.117C44.209 227.117 43.6895 226.992 43.252 226.742C42.8171 226.49 42.4824 226.133 42.248 225.672C42.0137 225.208 41.8965 224.663 41.8965 224.035C41.8965 223.418 42.0137 222.876 42.248 222.41C42.485 221.941 42.8158 221.577 43.2402 221.316C43.6647 221.053 44.1634 220.922 44.7363 220.922C45.1061 220.922 45.4551 220.982 45.7832 221.102C46.1139 221.219 46.4056 221.401 46.6582 221.648C46.9134 221.896 47.1139 222.211 47.2598 222.594C47.4056 222.974 47.4785 223.427 47.4785 223.953V224.387H42.5605V223.434H46.123C46.1204 223.163 46.0618 222.922 45.9473 222.711C45.8327 222.497 45.6725 222.329 45.4668 222.207C45.2637 222.085 45.0267 222.023 44.7559 222.023C44.4668 222.023 44.2129 222.094 43.9941 222.234C43.7754 222.372 43.6048 222.555 43.4824 222.781C43.3626 223.005 43.3014 223.251 43.2988 223.52V224.352C43.2988 224.701 43.3626 225 43.4902 225.25C43.6178 225.497 43.7962 225.687 44.0254 225.82C44.2546 225.951 44.5228 226.016 44.8301 226.016C45.0358 226.016 45.222 225.987 45.3887 225.93C45.5553 225.87 45.6999 225.783 45.8223 225.668C45.9447 225.553 46.0371 225.411 46.0996 225.242L47.4199 225.391C47.3366 225.74 47.1777 226.044 46.9434 226.305C46.7116 226.562 46.4147 226.763 46.0527 226.906C45.6908 227.047 45.2767 227.117 44.8105 227.117ZM48.6748 227V221H50.0459V222H50.1084C50.2178 221.654 50.4053 221.387 50.6709 221.199C50.9391 221.009 51.2451 220.914 51.5889 220.914C51.667 220.914 51.7542 220.918 51.8506 220.926C51.9495 220.931 52.0316 220.94 52.0967 220.953V222.254C52.0368 222.233 51.9417 222.215 51.8115 222.199C51.6839 222.181 51.5602 222.172 51.4404 222.172C51.1826 222.172 50.9508 222.228 50.7451 222.34C50.542 222.449 50.3818 222.602 50.2646 222.797C50.1475 222.992 50.0889 223.217 50.0889 223.473V227H48.6748ZM53.9072 227.086C53.6702 227.086 53.4671 227.003 53.2979 226.836C53.1286 226.669 53.0452 226.466 53.0479 226.227C53.0452 225.992 53.1286 225.792 53.2979 225.625C53.4671 225.458 53.6702 225.375 53.9072 225.375C54.1364 225.375 54.3356 225.458 54.5049 225.625C54.6768 225.792 54.764 225.992 54.7666 226.227C54.764 226.385 54.7223 226.53 54.6416 226.66C54.5635 226.79 54.4593 226.895 54.3291 226.973C54.2015 227.048 54.0609 227.086 53.9072 227.086ZM53.9072 222.805C53.6702 222.805 53.4671 222.721 53.2979 222.555C53.1286 222.385 53.0452 222.182 53.0479 221.945C53.0452 221.711 53.1286 221.51 53.2979 221.344C53.4671 221.174 53.6702 221.09 53.9072 221.09C54.1364 221.09 54.3356 221.174 54.5049 221.344C54.6768 221.51 54.764 221.711 54.7666 221.945C54.764 222.102 54.7223 222.245 54.6416 222.375C54.5635 222.505 54.4593 222.609 54.3291 222.687C54.2015 222.766 54.0609 222.805 53.9072 222.805ZM60.6816 227.121C60.3014 227.121 59.959 227.053 59.6543 226.918C59.3522 226.78 59.1126 226.577 58.9355 226.309C58.7611 226.04 58.6738 225.71 58.6738 225.316C58.6738 224.978 58.7363 224.698 58.8613 224.477C58.9863 224.255 59.1569 224.078 59.373 223.945C59.5892 223.812 59.8327 223.712 60.1035 223.645C60.377 223.574 60.6595 223.523 60.9512 223.492C61.3027 223.456 61.5879 223.423 61.8066 223.395C62.0254 223.363 62.1842 223.316 62.2832 223.254C62.3848 223.189 62.4355 223.089 62.4355 222.953V222.93C62.4355 222.635 62.3483 222.408 62.1738 222.246C61.9993 222.085 61.748 222.004 61.4199 222.004C61.0736 222.004 60.7988 222.079 60.5957 222.23C60.3952 222.382 60.2598 222.56 60.1895 222.766L58.8691 222.578C58.9733 222.214 59.1452 221.909 59.3848 221.664C59.6243 221.417 59.9173 221.232 60.2637 221.109C60.61 220.984 60.9928 220.922 61.4121 220.922C61.7012 220.922 61.9889 220.956 62.2754 221.023C62.5618 221.091 62.8236 221.203 63.0605 221.359C63.2975 221.513 63.4876 221.723 63.6309 221.988C63.7767 222.254 63.8496 222.586 63.8496 222.984V227H62.4902V226.176H62.4434C62.3574 226.342 62.2363 226.499 62.0801 226.645C61.9264 226.788 61.7324 226.904 61.498 226.992C61.2663 227.078 60.9941 227.121 60.6816 227.121ZM61.0488 226.082C61.3327 226.082 61.5788 226.026 61.7871 225.914C61.9954 225.799 62.1556 225.648 62.2676 225.461C62.3822 225.273 62.4395 225.069 62.4395 224.848V224.141C62.3952 224.177 62.3197 224.211 62.2129 224.242C62.1087 224.273 61.9915 224.301 61.8613 224.324C61.7311 224.348 61.6022 224.368 61.4746 224.387C61.347 224.405 61.2363 224.421 61.1426 224.434C60.9316 224.462 60.7428 224.509 60.5762 224.574C60.4095 224.639 60.278 224.73 60.1816 224.848C60.0853 224.962 60.0371 225.111 60.0371 225.293C60.0371 225.553 60.1322 225.75 60.3223 225.883C60.5124 226.016 60.7546 226.082 61.0488 226.082ZM66.6855 223.484V227H65.2715V221H66.623V222.02H66.6934C66.8314 221.684 67.0514 221.417 67.3535 221.219C67.6582 221.021 68.0345 220.922 68.4824 220.922C68.8965 220.922 69.2572 221.01 69.5645 221.187C69.8743 221.365 70.1139 221.621 70.2832 221.957C70.4551 222.293 70.5397 222.701 70.5371 223.18V227H69.123V223.398C69.123 222.997 69.0189 222.684 68.8105 222.457C68.6048 222.23 68.3197 222.117 67.9551 222.117C67.7077 222.117 67.4876 222.172 67.2949 222.281C67.1048 222.388 66.9551 222.543 66.8457 222.746C66.7389 222.949 66.6855 223.195 66.6855 223.484ZM74.5918 227.117C74.0059 227.117 73.498 226.988 73.0684 226.73C72.6387 226.473 72.3053 226.112 72.0684 225.648C71.834 225.185 71.7168 224.643 71.7168 224.023C71.7168 223.404 71.834 222.861 72.0684 222.395C72.3053 221.928 72.6387 221.566 73.0684 221.309C73.498 221.051 74.0059 220.922 74.5918 220.922C75.1777 220.922 75.6855 221.051 76.1152 221.309C76.5449 221.566 76.877 221.928 77.1113 222.395C77.3483 222.861 77.4668 223.404 77.4668 224.023C77.4668 224.643 77.3483 225.185 77.1113 225.648C76.877 226.112 76.5449 226.473 76.1152 226.73C75.6855 226.988 75.1777 227.117 74.5918 227.117ZM74.5996 225.984C74.9173 225.984 75.1829 225.897 75.3965 225.723C75.61 225.546 75.7689 225.309 75.873 225.012C75.9798 224.715 76.0332 224.384 76.0332 224.02C76.0332 223.652 75.9798 223.32 75.873 223.023C75.7689 222.724 75.61 222.486 75.3965 222.309C75.1829 222.132 74.9173 222.043 74.5996 222.043C74.2741 222.043 74.0033 222.132 73.7871 222.309C73.5736 222.486 73.4134 222.724 73.3066 223.023C73.2025 223.32 73.1504 223.652 73.1504 224.02C73.1504 224.384 73.2025 224.715 73.3066 225.012C73.4134 225.309 73.5736 225.546 73.7871 225.723C74.0033 225.897 74.2741 225.984 74.5996 225.984ZM80.0811 223.484V227H78.667V221H80.0186V222.02H80.0889C80.2269 221.684 80.4469 221.417 80.749 221.219C81.0537 221.021 81.43 220.922 81.8779 220.922C82.292 220.922 82.6527 221.01 82.96 221.187C83.2699 221.365 83.5094 221.621 83.6787 221.957C83.8506 222.293 83.9352 222.701 83.9326 223.18V227H82.5186V223.398C82.5186 222.997 82.4144 222.684 82.2061 222.457C82.0003 222.23 81.7152 222.117 81.3506 222.117C81.1032 222.117 80.8831 222.172 80.6904 222.281C80.5003 222.388 80.3506 222.543 80.2412 222.746C80.1344 222.949 80.0811 223.195 80.0811 223.484ZM86.0342 229.25C85.8415 229.25 85.6631 229.234 85.499 229.203C85.3376 229.174 85.2087 229.141 85.1123 229.102L85.4404 228C85.6462 228.06 85.8298 228.089 85.9912 228.086C86.1527 228.083 86.2946 228.033 86.417 227.934C86.542 227.837 86.6475 227.676 86.7334 227.449L86.8545 227.125L84.6787 221H86.1787L87.5615 225.531H87.624L89.0107 221H90.5146L88.1123 227.727C88.0003 228.044 87.8519 228.316 87.667 228.543C87.4821 228.772 87.2555 228.947 86.9873 229.066C86.7217 229.189 86.404 229.25 86.0342 229.25ZM91.4932 227V221H92.8447V222.02H92.915C93.04 221.676 93.2471 221.408 93.5361 221.215C93.8252 221.02 94.1702 220.922 94.5713 220.922C94.9775 220.922 95.32 221.021 95.5986 221.219C95.8799 221.414 96.0778 221.681 96.1924 222.02H96.2549C96.3877 221.686 96.6117 221.421 96.9268 221.223C97.2445 221.022 97.6208 220.922 98.0557 220.922C98.6077 220.922 99.0583 221.096 99.4072 221.445C99.7562 221.794 99.9307 222.303 99.9307 222.973V227H98.5127V223.191C98.5127 222.819 98.4137 222.547 98.2158 222.375C98.0179 222.201 97.7757 222.113 97.4893 222.113C97.1481 222.113 96.8812 222.22 96.6885 222.434C96.4984 222.645 96.4033 222.919 96.4033 223.258V227H95.0166V223.133C95.0166 222.823 94.9229 222.576 94.7354 222.391C94.5505 222.206 94.3083 222.113 94.0088 222.113C93.8057 222.113 93.6208 222.165 93.4541 222.27C93.2874 222.371 93.1546 222.516 93.0557 222.703C92.9567 222.888 92.9072 223.104 92.9072 223.352V227H91.4932ZM103.982 227.117C103.396 227.117 102.889 226.988 102.459 226.73C102.029 226.473 101.696 226.112 101.459 225.648C101.225 225.185 101.107 224.643 101.107 224.023C101.107 223.404 101.225 222.861 101.459 222.395C101.696 221.928 102.029 221.566 102.459 221.309C102.889 221.051 103.396 220.922 103.982 220.922C104.568 220.922 105.076 221.051 105.506 221.309C105.936 221.566 106.268 221.928 106.502 222.395C106.739 222.861 106.857 223.404 106.857 224.023C106.857 224.643 106.739 225.185 106.502 225.648C106.268 226.112 105.936 226.473 105.506 226.73C105.076 226.988 104.568 227.117 103.982 227.117ZM103.99 225.984C104.308 225.984 104.574 225.897 104.787 225.723C105.001 225.546 105.16 225.309 105.264 225.012C105.37 224.715 105.424 224.384 105.424 224.02C105.424 223.652 105.37 223.32 105.264 223.023C105.16 222.724 105.001 222.486 104.787 222.309C104.574 222.132 104.308 222.043 103.99 222.043C103.665 222.043 103.394 222.132 103.178 222.309C102.964 222.486 102.804 222.724 102.697 223.023C102.593 223.32 102.541 223.652 102.541 224.02C102.541 224.384 102.593 224.715 102.697 225.012C102.804 225.309 102.964 225.546 103.178 225.723C103.394 225.897 103.665 225.984 103.99 225.984ZM111.882 224.477V221H113.296V227H111.925V225.934H111.862C111.727 226.27 111.504 226.544 111.194 226.758C110.887 226.971 110.508 227.078 110.058 227.078C109.664 227.078 109.317 226.991 109.015 226.816C108.715 226.639 108.481 226.383 108.312 226.047C108.142 225.708 108.058 225.299 108.058 224.82V221H109.472V224.602C109.472 224.982 109.576 225.284 109.784 225.508C109.993 225.732 110.266 225.844 110.604 225.844C110.813 225.844 111.015 225.793 111.21 225.691C111.405 225.59 111.565 225.439 111.69 225.238C111.818 225.035 111.882 224.781 111.882 224.477ZM119.492 222.586L118.203 222.727C118.167 222.596 118.103 222.474 118.012 222.359C117.923 222.245 117.803 222.152 117.652 222.082C117.501 222.012 117.316 221.977 117.098 221.977C116.803 221.977 116.556 222.04 116.355 222.168C116.158 222.296 116.06 222.461 116.063 222.664C116.06 222.839 116.124 222.98 116.254 223.09C116.387 223.199 116.605 223.289 116.91 223.359L117.934 223.578C118.501 223.701 118.923 223.895 119.199 224.16C119.478 224.426 119.618 224.773 119.621 225.203C119.618 225.581 119.508 225.914 119.289 226.203C119.073 226.49 118.772 226.714 118.387 226.875C118.001 227.036 117.559 227.117 117.059 227.117C116.324 227.117 115.733 226.964 115.285 226.656C114.837 226.346 114.57 225.915 114.484 225.363L115.863 225.23C115.926 225.501 116.059 225.706 116.262 225.844C116.465 225.982 116.729 226.051 117.055 226.051C117.391 226.051 117.66 225.982 117.863 225.844C118.069 225.706 118.172 225.535 118.172 225.332C118.172 225.16 118.105 225.018 117.973 224.906C117.842 224.794 117.639 224.708 117.363 224.648L116.34 224.434C115.764 224.314 115.339 224.112 115.062 223.828C114.786 223.542 114.65 223.18 114.652 222.742C114.65 222.372 114.75 222.052 114.953 221.781C115.159 221.508 115.444 221.297 115.809 221.148C116.176 220.997 116.599 220.922 117.078 220.922C117.781 220.922 118.335 221.072 118.738 221.371C119.145 221.671 119.396 222.076 119.492 222.586Z" fill="black"/>
<path d="M33.4531 160.121C33.0729 160.121 32.7305 160.053 32.4258 159.918C32.1237 159.78 31.8841 159.577 31.707 159.309C31.5326 159.04 31.4453 158.71 31.4453 158.316C31.4453 157.978 31.5078 157.698 31.6328 157.477C31.7578 157.255 31.9284 157.078 32.1445 156.945C32.3607 156.812 32.6042 156.712 32.875 156.645C33.1484 156.574 33.431 156.523 33.7227 156.492C34.0742 156.456 34.3594 156.423 34.5781 156.395C34.7969 156.363 34.9557 156.316 35.0547 156.254C35.1563 156.189 35.207 156.089 35.207 155.953V155.93C35.207 155.635 35.1198 155.408 34.9453 155.246C34.7708 155.085 34.5195 155.004 34.1914 155.004C33.8451 155.004 33.5703 155.079 33.3672 155.23C33.1667 155.382 33.0313 155.56 32.9609 155.766L31.6406 155.578C31.7448 155.214 31.9167 154.909 32.1563 154.664C32.3958 154.417 32.6888 154.232 33.0352 154.109C33.3815 153.984 33.7643 153.922 34.1836 153.922C34.4727 153.922 34.7604 153.956 35.0469 154.023C35.3333 154.091 35.5951 154.203 35.832 154.359C36.069 154.513 36.2591 154.723 36.4023 154.988C36.5482 155.254 36.6211 155.586 36.6211 155.984V160H35.2617V159.176H35.2148C35.1289 159.342 35.0078 159.499 34.8516 159.645C34.6979 159.788 34.5039 159.904 34.2695 159.992C34.0378 160.078 33.7656 160.121 33.4531 160.121ZM33.8203 159.082C34.1042 159.082 34.3503 159.026 34.5586 158.914C34.7669 158.799 34.9271 158.648 35.0391 158.461C35.1536 158.273 35.2109 158.069 35.2109 157.848V157.141C35.1667 157.177 35.0911 157.211 34.9844 157.242C34.8802 157.273 34.763 157.301 34.6328 157.324C34.5026 157.348 34.3737 157.368 34.2461 157.387C34.1185 157.405 34.0078 157.421 33.9141 157.434C33.7031 157.462 33.5143 157.509 33.3477 157.574C33.181 157.639 33.0495 157.73 32.9531 157.848C32.8568 157.962 32.8086 158.111 32.8086 158.293C32.8086 158.553 32.9036 158.75 33.0938 158.883C33.2839 159.016 33.526 159.082 33.8203 159.082ZM39.457 156.484V160H38.043V154H39.3945V155.02H39.4648C39.6029 154.684 39.8229 154.417 40.125 154.219C40.4297 154.021 40.806 153.922 41.2539 153.922C41.668 153.922 42.0286 154.01 42.3359 154.187C42.6458 154.365 42.8854 154.621 43.0547 154.957C43.2266 155.293 43.3112 155.701 43.3086 156.18V160H41.8945V156.398C41.8945 155.997 41.7904 155.684 41.582 155.457C41.3763 155.23 41.0911 155.117 40.7266 155.117C40.4792 155.117 40.2591 155.172 40.0664 155.281C39.8763 155.388 39.7266 155.543 39.6172 155.746C39.5104 155.949 39.457 156.195 39.457 156.484ZM47.3633 160.117C46.7773 160.117 46.2695 159.988 45.8398 159.73C45.4102 159.473 45.0768 159.112 44.8398 158.648C44.6055 158.185 44.4883 157.643 44.4883 157.023C44.4883 156.404 44.6055 155.861 44.8398 155.395C45.0768 154.928 45.4102 154.566 45.8398 154.309C46.2695 154.051 46.7773 153.922 47.3633 153.922C47.9492 153.922 48.457 154.051 48.8867 154.309C49.3164 154.566 49.6484 154.928 49.8828 155.395C50.1198 155.861 50.2383 156.404 50.2383 157.023C50.2383 157.643 50.1198 158.185 49.8828 158.648C49.6484 159.112 49.3164 159.473 48.8867 159.73C48.457 159.988 47.9492 160.117 47.3633 160.117ZM47.3711 158.984C47.6888 158.984 47.9544 158.897 48.168 158.723C48.3815 158.546 48.5404 158.309 48.6445 158.012C48.7513 157.715 48.8047 157.384 48.8047 157.02C48.8047 156.652 48.7513 156.32 48.6445 156.023C48.5404 155.724 48.3815 155.486 48.168 155.309C47.9544 155.132 47.6888 155.043 47.3711 155.043C47.0456 155.043 46.7747 155.132 46.5586 155.309C46.3451 155.486 46.1849 155.724 46.0781 156.023C45.974 156.32 45.9219 156.652 45.9219 157.02C45.9219 157.384 45.974 157.715 46.0781 158.012C46.1849 158.309 46.3451 158.546 46.5586 158.723C46.7747 158.897 47.0456 158.984 47.3711 158.984ZM52.8525 156.484V160H51.4385V154H52.79V155.02H52.8604C52.9984 154.684 53.2184 154.417 53.5205 154.219C53.8252 154.021 54.2015 153.922 54.6494 153.922C55.0635 153.922 55.4242 154.01 55.7314 154.187C56.0413 154.365 56.2809 154.621 56.4502 154.957C56.6221 155.293 56.7067 155.701 56.7041 156.18V160H55.29V156.398C55.29 155.997 55.1859 155.684 54.9775 155.457C54.7718 155.23 54.4867 155.117 54.1221 155.117C53.8747 155.117 53.6546 155.172 53.4619 155.281C53.2718 155.388 53.1221 155.543 53.0127 155.746C52.9059 155.949 52.8525 156.195 52.8525 156.484ZM58.8057 162.25C58.613 162.25 58.4346 162.234 58.2705 162.203C58.109 162.174 57.9801 162.141 57.8838 162.102L58.2119 161C58.4176 161.06 58.6012 161.089 58.7627 161.086C58.9242 161.083 59.0661 161.033 59.1885 160.934C59.3135 160.837 59.4189 160.676 59.5049 160.449L59.626 160.125L57.4502 154H58.9502L60.333 158.531H60.3955L61.7822 154H63.2861L60.8838 160.727C60.7718 161.044 60.6234 161.316 60.4385 161.543C60.2536 161.772 60.027 161.947 59.7588 162.066C59.4932 162.189 59.1755 162.25 58.8057 162.25ZM64.2646 160V154H65.6162V155.02H65.6865C65.8115 154.676 66.0186 154.408 66.3076 154.215C66.5967 154.02 66.9417 153.922 67.3428 153.922C67.749 153.922 68.0915 154.021 68.3701 154.219C68.6514 154.414 68.8493 154.681 68.9639 155.02H69.0264C69.1592 154.686 69.3831 154.421 69.6982 154.223C70.016 154.022 70.3923 153.922 70.8271 153.922C71.3792 153.922 71.8298 154.096 72.1787 154.445C72.5277 154.794 72.7021 155.303 72.7021 155.973V160H71.2842V156.191C71.2842 155.819 71.1852 155.547 70.9873 155.375C70.7894 155.201 70.5472 155.113 70.2607 155.113C69.9196 155.113 69.6527 155.22 69.46 155.434C69.2699 155.645 69.1748 155.919 69.1748 156.258V160H67.7881V156.133C67.7881 155.823 67.6943 155.576 67.5068 155.391C67.3219 155.206 67.0798 155.113 66.7803 155.113C66.5771 155.113 66.3923 155.165 66.2256 155.27C66.0589 155.371 65.9261 155.516 65.8271 155.703C65.7282 155.888 65.6787 156.104 65.6787 156.352V160H64.2646ZM76.7539 160.117C76.168 160.117 75.6602 159.988 75.2305 159.73C74.8008 159.473 74.4674 159.112 74.2305 158.648C73.9961 158.185 73.8789 157.643 73.8789 157.023C73.8789 156.404 73.9961 155.861 74.2305 155.395C74.4674 154.928 74.8008 154.566 75.2305 154.309C75.6602 154.051 76.168 153.922 76.7539 153.922C77.3398 153.922 77.8477 154.051 78.2773 154.309C78.707 154.566 79.0391 154.928 79.2734 155.395C79.5104 155.861 79.6289 156.404 79.6289 157.023C79.6289 157.643 79.5104 158.185 79.2734 158.648C79.0391 159.112 78.707 159.473 78.2773 159.73C77.8477 159.988 77.3398 160.117 76.7539 160.117ZM76.7617 158.984C77.0794 158.984 77.3451 158.897 77.5586 158.723C77.7721 158.546 77.931 158.309 78.0352 158.012C78.1419 157.715 78.1953 157.384 78.1953 157.02C78.1953 156.652 78.1419 156.32 78.0352 156.023C77.931 155.724 77.7721 155.486 77.5586 155.309C77.3451 155.132 77.0794 155.043 76.7617 155.043C76.4362 155.043 76.1654 155.132 75.9492 155.309C75.7357 155.486 75.5755 155.724 75.4688 156.023C75.3646 156.32 75.3125 156.652 75.3125 157.02C75.3125 157.384 75.3646 157.715 75.4688 158.012C75.5755 158.309 75.7357 158.546 75.9492 158.723C76.1654 158.897 76.4362 158.984 76.7617 158.984ZM84.6533 157.477V154H86.0674V160H84.6963V158.934H84.6338C84.4984 159.27 84.2757 159.544 83.9658 159.758C83.6585 159.971 83.2796 160.078 82.8291 160.078C82.4359 160.078 82.0882 159.991 81.7861 159.816C81.4867 159.639 81.2523 159.383 81.083 159.047C80.9137 158.708 80.8291 158.299 80.8291 157.82V154H82.2432V157.602C82.2432 157.982 82.3473 158.284 82.5557 158.508C82.764 158.732 83.0374 158.844 83.376 158.844C83.5843 158.844 83.7861 158.793 83.9814 158.691C84.1768 158.59 84.3369 158.439 84.4619 158.238C84.5895 158.035 84.6533 157.781 84.6533 157.477ZM92.2637 155.586L90.9746 155.727C90.9382 155.596 90.8743 155.474 90.7832 155.359C90.6947 155.245 90.5749 155.152 90.4238 155.082C90.2728 155.012 90.0879 154.977 89.8691 154.977C89.5749 154.977 89.3275 155.04 89.127 155.168C88.929 155.296 88.8314 155.461 88.834 155.664C88.8314 155.839 88.8952 155.98 89.0254 156.09C89.1582 156.199 89.377 156.289 89.6816 156.359L90.7051 156.578C91.2728 156.701 91.6947 156.895 91.9707 157.16C92.2493 157.426 92.39 157.773 92.3926 158.203C92.39 158.581 92.2793 158.914 92.0605 159.203C91.8444 159.49 91.5436 159.714 91.1582 159.875C90.7728 160.036 90.3301 160.117 89.8301 160.117C89.0957 160.117 88.5046 159.964 88.0566 159.656C87.6087 159.346 87.3418 158.915 87.2559 158.363L88.6348 158.23C88.6973 158.501 88.8301 158.706 89.0332 158.844C89.2363 158.982 89.5007 159.051 89.8262 159.051C90.1621 159.051 90.4316 158.982 90.6348 158.844C90.8405 158.706 90.9434 158.535 90.9434 158.332C90.9434 158.16 90.877 158.018 90.7441 157.906C90.6139 157.794 90.4108 157.708 90.1348 157.648L89.1113 157.434C88.5358 157.314 88.11 157.112 87.834 156.828C87.5579 156.542 87.4212 156.18 87.4238 155.742C87.4212 155.372 87.5215 155.052 87.7246 154.781C87.9303 154.508 88.2155 154.297 88.5801 154.148C88.9473 153.997 89.3704 153.922 89.8496 153.922C90.5527 153.922 91.1061 154.072 91.5098 154.371C91.916 154.671 92.1673 155.076 92.2637 155.586Z" fill="black"/>
<rect x="236" y="27" width="15" height="14" fill="#525252"/>
<path d="M243.667 36.3333C244.858 36.3333 245.833 35.3583 245.833 34.1667C245.833 32.975 244.858 32 243.667 32C242.475 32 241.5 32.975 241.5 34.1667C241.5 35.3583 242.475 36.3333 243.667 36.3333ZM250.167 26.5833H249.083V24.4167C249.083 21.4267 246.657 19 243.667 19C240.677 19 238.25 21.4267 238.25 24.4167H240.308C240.308 22.5642 241.814 21.0583 243.667 21.0583C245.519 21.0583 247.025 22.5642 247.025 24.4167V26.5833H237.167C235.975 26.5833 235 27.5583 235 28.75V39.5833C235 40.775 235.975 41.75 237.167 41.75H250.167C251.358 41.75 252.333 40.775 252.333 39.5833V28.75C252.333 27.5583 251.358 26.5833 250.167 26.5833ZM250.167 39.5833H237.167V28.75H250.167V39.5833Z" fill="#525252"/>
<path d="M246 34.25C246 35.4926 244.993 36.5 243.75 36.5C242.507 36.5 241.5 35.4926 241.5 34.25C241.5 33.0074 242.507 32 243.75 32C244.993 32 246 33.0074 246 34.25Z" fill="#F4F0E8"/>
<path d="M76.5 95L106.5 95" stroke="black" stroke-width="2"/>
<path d="M125 95L155 95" stroke="black" stroke-width="2"/>
<path d="M171 95L201 95" stroke="black" stroke-width="2"/>
<path d="M116 111L98.6795 81.75H133.321L116 111Z" fill="#10720E"/>
<path d="M163 111L145.679 81.75H180.321L163 111Z" fill="#05FF00"/>
<path d="M210 111L192.679 81.75H227.321L210 111Z" fill="#7FB55E"/>
<path d="M69 111L51.6795 81.75H86.3205L69 111Z" fill="#15E029"/>
<defs>
<filter id="filter0_d_1558_2974" x="0" y="0" width="279" height="282" filterUnits="userSpaceOnUse" color-interpolation-filters="sRGB">
<feFlood flood-opacity="0" result="BackgroundImageFix"/>
<feColorMatrix in="SourceAlpha" type="matrix" values="0 0 0 0 0 0 0 0 0 0 0 0 0 0 0 0 0 0 127 0" result="hardAlpha"/>
<feOffset dy="4"/>
<feGaussianBlur stdDeviation="5"/>
<feComposite in2="hardAlpha" operator="out"/>
<feColorMatrix type="matrix" values="0 0 0 0 0 0 0 0 0 0 0 0 0 0 0 0 0 0 0.08 0"/>
<feBlend mode="normal" in2="BackgroundImageFix" result="effect1_dropShadow_1558_2974"/>
<feBlend mode="normal" in="SourceGraphic" in2="effect1_dropShadow_1558_2974" result="shape"/>
</filter>
<filter id="filter1_d_1558_2974" x="190" y="176" width="75" height="39" filterUnits="userSpaceOnUse" color-interpolation-filters="sRGB">
<feFlood flood-opacity="0" result="BackgroundImageFix"/>
<feColorMatrix in="SourceAlpha" type="matrix" values="0 0 0 0 0 0 0 0 0 0 0 0 0 0 0 0 0 0 127 0" result="hardAlpha"/>
<feOffset dy="4"/>
<feGaussianBlur stdDeviation="5"/>
<feComposite in2="hardAlpha" operator="out"/>
<feColorMatrix type="matrix" values="0 0 0 0 0 0 0 0 0 0 0 0 0 0 0 0 0 0 0.05 0"/>
<feBlend mode="normal" in2="BackgroundImageFix" result="effect1_dropShadow_1558_2974"/>
<feBlend mode="normal" in="SourceGraphic" in2="effect1_dropShadow_1558_2974" result="shape"/>
</filter>
<filter id="filter2_d_1558_2974" x="120" y="176" width="75" height="39" filterUnits="userSpaceOnUse" color-interpolation-filters="sRGB">
<feFlood flood-opacity="0" result="BackgroundImageFix"/>
<feColorMatrix in="SourceAlpha" type="matrix" values="0 0 0 0 0 0 0 0 0 0 0 0 0 0 0 0 0 0 127 0" result="hardAlpha"/>
<feOffset dy="4"/>
<feGaussianBlur stdDeviation="5"/>
<feComposite in2="hardAlpha" operator="out"/>
<feColorMatrix type="matrix" values="0 0 0 0 0 0 0 0 0 0 0 0 0 0 0 0 0 0 0.05 0"/>
<feBlend mode="normal" in2="BackgroundImageFix" result="effect1_dropShadow_1558_2974"/>
<feBlend mode="normal" in="SourceGraphic" in2="effect1_dropShadow_1558_2974" result="shape"/>
</filter>
<clipPath id="clip0_1558_2974">
<rect width="20" height="20" fill="white" transform="translate(41 244)"/>
</clipPath>
</defs>
</svg>
