<svg width="279" height="282" viewBox="0 0 279 282" fill="none" xmlns="http://www.w3.org/2000/svg">
<g filter="url(#filter0_d_1440_3718)">
<rect x="10" y="6" width="259" height="262" rx="30" fill="white"/>
<rect x="10.5" y="6.5" width="258" height="261" rx="29.5" stroke="#D9D9D9"/>
</g>
<rect x="15" y="13" width="248" height="154" rx="30" fill="#F2F2F2"/>
<path d="M24.8182 188.141C24.7287 187.83 24.603 187.555 24.4411 187.316C24.2791 187.073 24.081 186.869 23.8466 186.702C23.6165 186.532 23.3523 186.402 23.054 186.312C22.7599 186.223 22.4339 186.178 22.076 186.178C21.407 186.178 20.8189 186.344 20.3118 186.677C19.8089 187.009 19.4169 187.493 19.1357 188.128C18.8544 188.759 18.7138 189.53 18.7138 190.442C18.7138 191.354 18.8523 192.129 19.1293 192.768C19.4063 193.408 19.7983 193.896 20.3054 194.232C20.8125 194.565 21.4112 194.731 22.1016 194.731C22.728 194.731 23.2628 194.62 23.706 194.398C24.1534 194.173 24.4943 193.855 24.7287 193.446C24.9673 193.037 25.0866 192.553 25.0866 191.995L25.6491 192.078H22.2741V189.994H27.7521V191.643C27.7521 192.794 27.5092 193.783 27.0234 194.609C26.5376 195.432 25.8686 196.067 25.0163 196.514C24.1641 196.957 23.1882 197.179 22.0888 197.179C20.8615 197.179 19.7834 196.908 18.8544 196.367C17.9254 195.822 17.201 195.048 16.6811 194.047C16.1655 193.041 15.9077 191.848 15.9077 190.467C15.9077 189.406 16.0611 188.46 16.3679 187.629C16.679 186.794 17.1136 186.087 17.6719 185.507C18.2301 184.928 18.88 184.487 19.6214 184.184C20.3629 183.881 21.1662 183.73 22.0312 183.73C22.7727 183.73 23.4631 183.839 24.1023 184.056C24.7415 184.269 25.3082 184.572 25.8026 184.964C26.3011 185.356 26.7081 185.822 27.0234 186.364C27.3388 186.901 27.5412 187.493 27.6307 188.141H24.8182ZM36.0762 192.82V187.182H38.7992V197H36.1848V195.217H36.0826C35.861 195.792 35.4924 196.254 34.9767 196.604C34.4654 196.953 33.8411 197.128 33.1039 197.128C32.4476 197.128 31.8702 196.979 31.3716 196.68C30.873 196.382 30.4831 195.958 30.2019 195.408C29.9249 194.859 29.7843 194.2 29.78 193.433V187.182H32.503V192.947C32.5073 193.527 32.6628 193.985 32.9696 194.322C33.2765 194.658 33.6877 194.827 34.2033 194.827C34.5314 194.827 34.8382 194.752 35.1238 194.603C35.4093 194.45 35.6394 194.224 35.8141 193.925C35.9931 193.627 36.0804 193.259 36.0762 192.82ZM40.9773 197V187.182H43.7003V197H40.9773ZM42.3452 185.916C41.9403 185.916 41.593 185.782 41.3033 185.513C41.0178 185.241 40.875 184.915 40.875 184.536C40.875 184.161 41.0178 183.839 41.3033 183.57C41.593 183.298 41.9403 183.161 42.3452 183.161C42.75 183.161 43.0952 183.298 43.3807 183.57C43.6705 183.839 43.8153 184.161 43.8153 184.536C43.8153 184.915 43.6705 185.241 43.3807 185.513C43.0952 185.782 42.75 185.916 42.3452 185.916ZM51.1039 187.182V189.227H45.1912V187.182H51.1039ZM46.5336 184.83H49.2566V193.983C49.2566 194.234 49.2949 194.43 49.3716 194.571C49.4483 194.707 49.5549 194.803 49.6912 194.859C49.8319 194.914 49.9938 194.942 50.177 194.942C50.3049 194.942 50.4327 194.931 50.5605 194.91C50.6884 194.884 50.7864 194.865 50.8546 194.852L51.2828 196.879C51.1465 196.921 50.9547 196.97 50.7076 197.026C50.4604 197.085 50.16 197.121 49.8063 197.134C49.15 197.16 48.5748 197.072 48.0804 196.872C47.5904 196.672 47.209 196.361 46.9363 195.939C46.6635 195.517 46.5293 194.984 46.5336 194.341V184.83ZM55.6774 197.185C55.051 197.185 54.4927 197.077 54.0027 196.859C53.5126 196.638 53.1248 196.312 52.8393 195.881C52.5581 195.447 52.4174 194.906 52.4174 194.258C52.4174 193.712 52.5176 193.254 52.7179 192.884C52.9181 192.513 53.1909 192.214 53.536 191.989C53.8812 191.763 54.2733 191.592 54.7122 191.477C55.1554 191.362 55.6199 191.281 56.1056 191.234C56.6767 191.175 57.1369 191.119 57.4863 191.068C57.8358 191.013 58.0893 190.932 58.247 190.825C58.4047 190.719 58.4835 190.561 58.4835 190.352V190.314C58.4835 189.909 58.3556 189.596 58.1 189.374C57.8485 189.153 57.4906 189.042 57.0261 189.042C56.536 189.042 56.1461 189.151 55.8564 189.368C55.5666 189.581 55.3748 189.849 55.2811 190.173L52.7626 189.969C52.8904 189.372 53.1419 188.857 53.5169 188.422C53.8919 187.983 54.3755 187.646 54.9679 187.412C55.5645 187.173 56.2548 187.054 57.0389 187.054C57.5843 187.054 58.1064 187.118 58.6049 187.246C59.1078 187.374 59.5531 187.572 59.9409 187.84C60.3329 188.109 60.6419 188.454 60.8677 188.876C61.0936 189.293 61.2065 189.794 61.2065 190.378V197H58.6241V195.638H58.5474C58.3897 195.945 58.1788 196.216 57.9146 196.45C57.6504 196.68 57.3329 196.862 56.9622 196.994C56.5914 197.121 56.1632 197.185 55.6774 197.185ZM56.4572 195.306C56.8578 195.306 57.2115 195.227 57.5183 195.07C57.8251 194.908 58.0659 194.69 58.2406 194.418C58.4153 194.145 58.5027 193.836 58.5027 193.491V192.449C58.4174 192.504 58.3002 192.555 58.1511 192.602C58.0062 192.645 57.8422 192.685 57.6589 192.724C57.4757 192.758 57.2924 192.79 57.1092 192.82C56.926 192.845 56.7598 192.869 56.6106 192.89C56.291 192.937 56.0119 193.011 55.7733 193.114C55.5346 193.216 55.3493 193.354 55.2172 193.529C55.085 193.7 55.019 193.913 55.019 194.168C55.019 194.539 55.1532 194.822 55.4217 195.018C55.6944 195.21 56.0396 195.306 56.4572 195.306ZM63.3191 197V187.182H65.959V188.895H66.0613C66.2402 188.286 66.5407 187.825 66.9625 187.514C67.3844 187.199 67.8702 187.041 68.4199 187.041C68.5563 187.041 68.7033 187.05 68.861 187.067C69.0186 187.084 69.1571 187.107 69.2765 187.137V189.553C69.1486 189.515 68.9718 189.481 68.7459 189.451C68.5201 189.421 68.3134 189.406 68.1259 189.406C67.7253 189.406 67.3674 189.494 67.052 189.668C66.7409 189.839 66.4938 190.077 66.3105 190.384C66.1316 190.691 66.0421 191.045 66.0421 191.445V197H63.3191ZM74.9015 197V183.909H80.0662C81.0549 183.909 81.8986 184.086 82.5975 184.44C83.3006 184.789 83.8354 185.286 84.2019 185.929C84.5726 186.568 84.758 187.32 84.758 188.185C84.758 189.055 84.5705 189.803 84.1955 190.429C83.8205 191.051 83.2772 191.528 82.5655 191.861C81.8581 192.193 81.0016 192.359 79.9959 192.359H76.5378V190.135H79.5485C80.0769 190.135 80.5158 190.062 80.8652 189.918C81.2147 189.773 81.4746 189.555 81.6451 189.266C81.8198 188.976 81.9071 188.616 81.9071 188.185C81.9071 187.751 81.8198 187.384 81.6451 187.086C81.4746 186.788 81.2125 186.562 80.8588 186.408C80.5094 186.251 80.0684 186.172 79.5357 186.172H77.6692V197H74.9015ZM81.9711 191.043L85.2246 197H82.1692L78.986 191.043H81.9711ZM90.9407 197.192C89.9478 197.192 89.0891 196.981 88.3647 196.559C87.6445 196.133 87.0884 195.54 86.6964 194.782C86.3043 194.019 86.1083 193.135 86.1083 192.129C86.1083 191.115 86.3043 190.229 86.6964 189.47C87.0884 188.707 87.6445 188.115 88.3647 187.693C89.0891 187.267 89.9478 187.054 90.9407 187.054C91.9336 187.054 92.7901 187.267 93.5103 187.693C94.2347 188.115 94.793 188.707 95.185 189.47C95.5771 190.229 95.7731 191.115 95.7731 192.129C95.7731 193.135 95.5771 194.019 95.185 194.782C94.793 195.54 94.2347 196.133 93.5103 196.559C92.7901 196.981 91.9336 197.192 90.9407 197.192ZM90.9535 195.082C91.4052 195.082 91.7823 194.955 92.0849 194.699C92.3874 194.439 92.6154 194.085 92.7688 193.638C92.9265 193.19 93.0053 192.681 93.0053 192.11C93.0053 191.539 92.9265 191.03 92.7688 190.582C92.6154 190.135 92.3874 189.781 92.0849 189.521C91.7823 189.261 91.4052 189.131 90.9535 189.131C90.4975 189.131 90.114 189.261 89.8029 189.521C89.4961 189.781 89.2638 190.135 89.1062 190.582C88.9528 191.03 88.8761 191.539 88.8761 192.11C88.8761 192.681 88.9528 193.19 89.1062 193.638C89.2638 194.085 89.4961 194.439 89.8029 194.699C90.114 194.955 90.4975 195.082 90.9535 195.082ZM101.98 197.192C100.974 197.192 100.109 196.979 99.3846 196.553C98.6644 196.122 98.1104 195.526 97.7227 194.763C97.3391 194 97.1474 193.122 97.1474 192.129C97.1474 191.124 97.3413 190.241 97.729 189.483C98.1211 188.72 98.6772 188.126 99.3974 187.7C100.118 187.269 100.974 187.054 101.967 187.054C102.824 187.054 103.574 187.21 104.217 187.521C104.86 187.832 105.37 188.268 105.745 188.831C106.12 189.393 106.326 190.054 106.365 190.812H103.795C103.723 190.322 103.531 189.928 103.22 189.63C102.913 189.327 102.51 189.176 102.012 189.176C101.59 189.176 101.221 189.291 100.906 189.521C100.595 189.747 100.352 190.077 100.177 190.512C100.002 190.947 99.9151 191.473 99.9151 192.091C99.9151 192.717 100 193.25 100.171 193.689C100.346 194.128 100.591 194.462 100.906 194.692C101.221 194.923 101.59 195.038 102.012 195.038C102.323 195.038 102.602 194.974 102.849 194.846C103.1 194.718 103.307 194.533 103.469 194.29C103.635 194.043 103.744 193.746 103.795 193.401H106.365C106.322 194.151 106.118 194.812 105.751 195.383C105.389 195.95 104.888 196.393 104.249 196.712C103.61 197.032 102.853 197.192 101.98 197.192ZM110.575 194.175L110.582 190.908H110.978L114.123 187.182H117.249L113.024 192.116H112.378L110.575 194.175ZM108.108 197V183.909H110.831V197H108.108ZM114.244 197L111.355 192.724L113.171 190.8L117.434 197H114.244Z" fill="black"/>
<path d="M219 6H239C255.569 6 269 19.4315 269 36V56H219V6Z" fill="#D9D9D9" fill-opacity="0.3"/>
<path d="M62.5156 256.977C62.3229 256.977 62.1576 256.908 62.0195 256.77C61.8815 256.632 61.8125 256.466 61.8125 256.273C61.8125 256.081 61.8815 255.915 62.0195 255.777C62.1576 255.639 62.3229 255.57 62.5156 255.57C62.7083 255.57 62.8737 255.639 63.0117 255.777C63.1497 255.915 63.2188 256.081 63.2188 256.273C63.2188 256.401 63.1862 256.518 63.1211 256.625C63.0586 256.732 62.974 256.818 62.8672 256.883C62.763 256.945 62.6458 256.977 62.5156 256.977ZM62.5156 252.93C62.3229 252.93 62.1576 252.861 62.0195 252.723C61.8815 252.585 61.8125 252.419 61.8125 252.227C61.8125 252.034 61.8815 251.868 62.0195 251.73C62.1576 251.592 62.3229 251.523 62.5156 251.523C62.7083 251.523 62.8737 251.592 63.0117 251.73C63.1497 251.868 63.2188 252.034 63.2188 252.227C63.2188 252.354 63.1862 252.471 63.1211 252.578C63.0586 252.685 62.974 252.771 62.8672 252.836C62.763 252.898 62.6458 252.93 62.5156 252.93ZM70.7637 250V258H69.7949V251.016H69.748L67.7949 252.312V251.328L69.7949 250H70.7637ZM75.5645 258.109C75.1061 258.109 74.6934 258.018 74.3262 257.836C73.959 257.654 73.6647 257.404 73.4434 257.086C73.222 256.768 73.1009 256.406 73.0801 256H74.0176C74.054 256.362 74.2181 256.661 74.5098 256.898C74.804 257.133 75.1556 257.25 75.5645 257.25C75.8926 257.25 76.1842 257.173 76.4395 257.02C76.6973 256.866 76.8991 256.655 77.0449 256.387C77.1934 256.116 77.2676 255.81 77.2676 255.469C77.2676 255.12 77.1908 254.809 77.0371 254.535C76.8861 254.259 76.6777 254.042 76.4121 253.883C76.1465 253.724 75.8431 253.643 75.502 253.641C75.2572 253.638 75.0059 253.676 74.748 253.754C74.4902 253.829 74.278 253.927 74.1113 254.047L73.2051 253.937L73.6895 250H77.8457V250.859H74.502L74.2207 253.219H74.2676C74.4316 253.089 74.6374 252.98 74.8848 252.895C75.1322 252.809 75.39 252.766 75.6582 252.766C76.1478 252.766 76.584 252.883 76.9668 253.117C77.3522 253.349 77.6543 253.667 77.873 254.07C78.0944 254.474 78.2051 254.935 78.2051 255.453C78.2051 255.964 78.0905 256.419 77.8613 256.82C77.6348 257.219 77.3223 257.534 76.9238 257.766C76.5254 257.995 76.0723 258.109 75.5645 258.109ZM82.3193 258.109C81.7829 258.109 81.3089 258.014 80.8975 257.824C80.4886 257.632 80.1696 257.367 79.9404 257.031C79.7113 256.693 79.598 256.307 79.6006 255.875C79.598 255.536 79.6644 255.224 79.7998 254.937C79.9352 254.648 80.1201 254.408 80.3545 254.215C80.5915 254.02 80.8558 253.896 81.1475 253.844V253.797C80.7646 253.698 80.46 253.483 80.2334 253.152C80.0068 252.819 79.8949 252.44 79.8975 252.016C79.8949 251.609 79.9977 251.246 80.2061 250.926C80.4144 250.605 80.7008 250.353 81.0654 250.168C81.4326 249.983 81.8506 249.891 82.3193 249.891C82.7829 249.891 83.1969 249.983 83.5615 250.168C83.9261 250.353 84.2126 250.605 84.4209 250.926C84.6318 251.246 84.7386 251.609 84.7412 252.016C84.7386 252.44 84.6227 252.819 84.3936 253.152C84.167 253.483 83.8662 253.698 83.4912 253.797V253.844C83.7803 253.896 84.0407 254.02 84.2725 254.215C84.5042 254.408 84.6891 254.648 84.8271 254.937C84.9652 255.224 85.0355 255.536 85.0381 255.875C85.0355 256.307 84.9183 256.693 84.6865 257.031C84.4574 257.367 84.1383 257.632 83.7295 257.824C83.3232 258.014 82.8532 258.109 82.3193 258.109ZM82.3193 257.25C82.6813 257.25 82.9938 257.191 83.2568 257.074C83.5199 256.957 83.723 256.792 83.8662 256.578C84.0094 256.365 84.0824 256.115 84.085 255.828C84.0824 255.526 84.0042 255.259 83.8506 255.027C83.6969 254.796 83.4873 254.613 83.2217 254.48C82.9587 254.348 82.6579 254.281 82.3193 254.281C81.9782 254.281 81.6735 254.348 81.4053 254.48C81.1396 254.613 80.93 254.796 80.7764 255.027C80.6253 255.259 80.5511 255.526 80.5537 255.828C80.5511 256.115 80.6201 256.365 80.7607 256.578C80.904 256.792 81.1084 256.957 81.374 257.074C81.6396 257.191 81.9548 257.25 82.3193 257.25ZM82.3193 253.453C82.6058 253.453 82.8597 253.396 83.0811 253.281C83.305 253.167 83.4808 253.007 83.6084 252.801C83.736 252.595 83.8011 252.354 83.8037 252.078C83.8011 251.807 83.7373 251.572 83.6123 251.371C83.4873 251.168 83.3141 251.012 83.0928 250.902C82.8714 250.79 82.6136 250.734 82.3193 250.734C82.0199 250.734 81.7581 250.79 81.5342 250.902C81.3102 251.012 81.137 251.168 81.0146 251.371C80.8923 251.572 80.8324 251.807 80.835 252.078C80.8324 252.354 80.8936 252.595 81.0186 252.801C81.1462 253.007 81.3219 253.167 81.5459 253.281C81.7699 253.396 82.0277 253.453 82.3193 253.453ZM94.5508 252L92.332 258H91.3945L89.1758 252H90.1758L91.832 256.781H91.8945L93.5508 252H94.5508ZM95.7676 258V252H96.6895V258H95.7676ZM96.2363 251C96.0566 251 95.9017 250.939 95.7715 250.816C95.6439 250.694 95.5801 250.547 95.5801 250.375C95.5801 250.203 95.6439 250.056 95.7715 249.934C95.9017 249.811 96.0566 249.75 96.2363 249.75C96.416 249.75 96.5697 249.811 96.6973 249.934C96.8275 250.056 96.8926 250.203 96.8926 250.375C96.8926 250.547 96.8275 250.694 96.6973 250.816C96.5697 250.939 96.416 251 96.2363 251ZM100.894 258.125C100.315 258.125 99.8167 257.997 99.3975 257.742C98.9808 257.484 98.6592 257.125 98.4326 256.664C98.2087 256.201 98.0967 255.661 98.0967 255.047C98.0967 254.432 98.2087 253.891 98.4326 253.422C98.6592 252.951 98.9743 252.583 99.3779 252.32C99.7842 252.055 100.258 251.922 100.8 251.922C101.112 251.922 101.421 251.974 101.726 252.078C102.03 252.182 102.308 252.352 102.558 252.586C102.808 252.818 103.007 253.125 103.155 253.508C103.304 253.891 103.378 254.362 103.378 254.922V255.312H98.7529V254.516H102.44C102.44 254.177 102.373 253.875 102.237 253.609C102.104 253.344 101.914 253.134 101.667 252.98C101.422 252.827 101.133 252.75 100.8 252.75C100.433 252.75 100.115 252.841 99.8467 253.023C99.5811 253.203 99.3766 253.437 99.2334 253.727C99.0902 254.016 99.0186 254.326 99.0186 254.656V255.188C99.0186 255.641 99.0967 256.025 99.2529 256.34C99.4118 256.652 99.6318 256.891 99.9131 257.055C100.194 257.216 100.521 257.297 100.894 257.297C101.136 257.297 101.354 257.263 101.55 257.195C101.748 257.125 101.918 257.021 102.062 256.883C102.205 256.742 102.315 256.568 102.394 256.359L103.284 256.609C103.19 256.911 103.033 257.177 102.812 257.406C102.59 257.633 102.317 257.81 101.991 257.937C101.666 258.063 101.3 258.125 100.894 258.125ZM106.14 258L104.312 252H105.28L106.577 256.594H106.64L107.921 252H108.905L110.171 256.578H110.233L111.53 252H112.499L110.671 258H109.765L108.452 253.391H108.358L107.046 258H106.14ZM117.968 253.344L117.14 253.578C117.088 253.44 117.011 253.306 116.909 253.176C116.81 253.043 116.675 252.934 116.503 252.848C116.331 252.762 116.111 252.719 115.843 252.719C115.476 252.719 115.17 252.803 114.925 252.973C114.683 253.139 114.562 253.352 114.562 253.609C114.562 253.839 114.645 254.02 114.812 254.152C114.978 254.285 115.239 254.396 115.593 254.484L116.483 254.703C117.02 254.833 117.42 255.033 117.683 255.301C117.946 255.566 118.077 255.909 118.077 256.328C118.077 256.672 117.978 256.979 117.78 257.25C117.585 257.521 117.312 257.734 116.96 257.891C116.608 258.047 116.2 258.125 115.733 258.125C115.121 258.125 114.615 257.992 114.214 257.727C113.813 257.461 113.559 257.073 113.452 256.562L114.327 256.344C114.41 256.667 114.568 256.909 114.8 257.07C115.034 257.232 115.34 257.312 115.718 257.312C116.147 257.312 116.489 257.221 116.741 257.039C116.996 256.854 117.124 256.633 117.124 256.375C117.124 256.167 117.051 255.992 116.905 255.852C116.759 255.708 116.535 255.602 116.233 255.531L115.233 255.297C114.684 255.167 114.28 254.965 114.022 254.691C113.767 254.415 113.64 254.07 113.64 253.656C113.64 253.318 113.735 253.018 113.925 252.758C114.118 252.497 114.379 252.293 114.71 252.145C115.043 251.996 115.421 251.922 115.843 251.922C116.437 251.922 116.903 252.052 117.241 252.312C117.582 252.573 117.825 252.917 117.968 253.344Z" fill="#525252"/>
<path d="M134.969 160V152H135.938V159.141H139.656V160H134.969ZM142.797 160.141C142.417 160.141 142.072 160.069 141.762 159.926C141.452 159.78 141.206 159.57 141.023 159.297C140.841 159.021 140.75 158.687 140.75 158.297C140.75 157.953 140.818 157.674 140.953 157.461C141.089 157.245 141.27 157.076 141.496 156.953C141.723 156.831 141.973 156.74 142.246 156.68C142.522 156.617 142.799 156.568 143.078 156.531C143.443 156.484 143.738 156.449 143.965 156.426C144.194 156.4 144.361 156.357 144.465 156.297C144.572 156.237 144.625 156.133 144.625 155.984V155.953C144.625 155.568 144.52 155.268 144.309 155.055C144.1 154.841 143.784 154.734 143.359 154.734C142.919 154.734 142.574 154.831 142.324 155.023C142.074 155.216 141.898 155.422 141.797 155.641L140.922 155.328C141.078 154.964 141.286 154.68 141.547 154.477C141.81 154.271 142.096 154.128 142.406 154.047C142.719 153.964 143.026 153.922 143.328 153.922C143.521 153.922 143.742 153.945 143.992 153.992C144.245 154.036 144.488 154.129 144.723 154.27C144.96 154.41 145.156 154.622 145.313 154.906C145.469 155.19 145.547 155.57 145.547 156.047V160H144.625V159.187H144.578C144.516 159.318 144.411 159.457 144.266 159.605C144.12 159.754 143.926 159.88 143.684 159.984C143.441 160.089 143.146 160.141 142.797 160.141ZM142.938 159.312C143.302 159.312 143.609 159.241 143.859 159.098C144.112 158.954 144.302 158.77 144.43 158.543C144.56 158.316 144.625 158.078 144.625 157.828V156.984C144.586 157.031 144.5 157.074 144.367 157.113C144.237 157.15 144.086 157.182 143.914 157.211C143.745 157.237 143.579 157.26 143.418 157.281C143.259 157.299 143.13 157.315 143.031 157.328C142.792 157.359 142.568 157.41 142.359 157.48C142.154 157.548 141.987 157.651 141.859 157.789C141.734 157.924 141.672 158.109 141.672 158.344C141.672 158.664 141.79 158.906 142.027 159.07C142.267 159.232 142.57 159.312 142.938 159.312ZM151.479 155.344L150.651 155.578C150.599 155.44 150.522 155.306 150.421 155.176C150.322 155.043 150.187 154.934 150.015 154.848C149.843 154.762 149.623 154.719 149.354 154.719C148.987 154.719 148.681 154.803 148.437 154.973C148.194 155.139 148.073 155.352 148.073 155.609C148.073 155.839 148.157 156.02 148.323 156.152C148.49 156.285 148.75 156.396 149.104 156.484L149.995 156.703C150.532 156.833 150.931 157.033 151.194 157.301C151.457 157.566 151.589 157.909 151.589 158.328C151.589 158.672 151.49 158.979 151.292 159.25C151.097 159.521 150.823 159.734 150.472 159.891C150.12 160.047 149.711 160.125 149.245 160.125C148.633 160.125 148.127 159.992 147.726 159.727C147.325 159.461 147.071 159.073 146.964 158.562L147.839 158.344C147.922 158.667 148.08 158.909 148.312 159.07C148.546 159.232 148.852 159.312 149.229 159.312C149.659 159.312 150 159.221 150.253 159.039C150.508 158.854 150.636 158.633 150.636 158.375C150.636 158.167 150.563 157.992 150.417 157.852C150.271 157.708 150.047 157.602 149.745 157.531L148.745 157.297C148.196 157.167 147.792 156.965 147.534 156.691C147.279 156.415 147.151 156.07 147.151 155.656C147.151 155.318 147.246 155.018 147.437 154.758C147.629 154.497 147.891 154.293 148.222 154.145C148.555 153.996 148.933 153.922 149.354 153.922C149.948 153.922 150.414 154.052 150.753 154.312C151.094 154.573 151.336 154.917 151.479 155.344ZM155.586 154V154.781H152.477V154H155.586ZM153.383 152.562H154.305V158.281C154.305 158.542 154.342 158.737 154.418 158.867C154.496 158.995 154.595 159.081 154.715 159.125C154.837 159.167 154.966 159.187 155.102 159.187C155.203 159.187 155.286 159.182 155.352 159.172C155.417 159.159 155.469 159.148 155.508 159.141L155.695 159.969C155.633 159.992 155.546 160.016 155.434 160.039C155.322 160.065 155.18 160.078 155.008 160.078C154.747 160.078 154.492 160.022 154.242 159.91C153.995 159.798 153.789 159.628 153.625 159.398C153.464 159.169 153.383 158.88 153.383 158.531V152.562ZM163.848 157.547V154H164.77V160H163.848V158.984H163.785C163.645 159.289 163.426 159.548 163.129 159.762C162.832 159.973 162.457 160.078 162.004 160.078C161.629 160.078 161.296 159.996 161.004 159.832C160.712 159.665 160.483 159.415 160.316 159.082C160.15 158.746 160.066 158.323 160.066 157.812V154H160.988V157.75C160.988 158.187 161.111 158.536 161.355 158.797C161.603 159.057 161.918 159.187 162.301 159.187C162.53 159.187 162.763 159.129 163 159.012C163.24 158.895 163.44 158.715 163.602 158.473C163.766 158.23 163.848 157.922 163.848 157.547ZM166.458 162.25V154H167.349V154.953H167.458C167.526 154.849 167.619 154.716 167.739 154.555C167.862 154.391 168.036 154.245 168.263 154.117C168.492 153.987 168.802 153.922 169.192 153.922C169.698 153.922 170.143 154.048 170.528 154.301C170.914 154.553 171.215 154.911 171.431 155.375C171.647 155.839 171.755 156.385 171.755 157.016C171.755 157.651 171.647 158.202 171.431 158.668C171.215 159.132 170.915 159.491 170.532 159.746C170.149 159.999 169.708 160.125 169.208 160.125C168.823 160.125 168.514 160.061 168.282 159.934C168.05 159.803 167.872 159.656 167.747 159.492C167.622 159.326 167.526 159.187 167.458 159.078H167.38V162.25H166.458ZM167.364 157C167.364 157.453 167.431 157.853 167.563 158.199C167.696 158.543 167.89 158.812 168.146 159.008C168.401 159.201 168.713 159.297 169.083 159.297C169.468 159.297 169.79 159.195 170.048 158.992C170.308 158.786 170.504 158.51 170.634 158.164C170.767 157.815 170.833 157.427 170.833 157C170.833 156.578 170.768 156.198 170.638 155.859C170.51 155.518 170.316 155.249 170.056 155.051C169.798 154.85 169.474 154.75 169.083 154.75C168.708 154.75 168.393 154.845 168.138 155.035C167.882 155.223 167.69 155.486 167.56 155.824C167.429 156.16 167.364 156.552 167.364 157ZM175.427 160.125C174.927 160.125 174.485 159.999 174.103 159.746C173.72 159.491 173.42 159.132 173.204 158.668C172.988 158.202 172.88 157.651 172.88 157.016C172.88 156.385 172.988 155.839 173.204 155.375C173.42 154.911 173.721 154.553 174.106 154.301C174.492 154.048 174.937 153.922 175.442 153.922C175.833 153.922 176.142 153.987 176.368 154.117C176.597 154.245 176.772 154.391 176.892 154.555C177.014 154.716 177.109 154.849 177.177 154.953H177.255V152H178.177V160H177.286V159.078H177.177C177.109 159.187 177.013 159.326 176.888 159.492C176.763 159.656 176.584 159.803 176.353 159.934C176.121 160.061 175.812 160.125 175.427 160.125ZM175.552 159.297C175.922 159.297 176.234 159.201 176.489 159.008C176.744 158.812 176.938 158.543 177.071 158.199C177.204 157.853 177.271 157.453 177.271 157C177.271 156.552 177.205 156.16 177.075 155.824C176.945 155.486 176.752 155.223 176.497 155.035C176.242 154.845 175.927 154.75 175.552 154.75C175.161 154.75 174.836 154.85 174.575 155.051C174.317 155.249 174.123 155.518 173.993 155.859C173.866 156.198 173.802 156.578 173.802 157C173.802 157.427 173.867 157.815 173.997 158.164C174.13 158.51 174.325 158.786 174.583 158.992C174.843 159.195 175.166 159.297 175.552 159.297ZM181.759 160.141C181.379 160.141 181.034 160.069 180.724 159.926C180.414 159.78 180.168 159.57 179.985 159.297C179.803 159.021 179.712 158.687 179.712 158.297C179.712 157.953 179.78 157.674 179.915 157.461C180.05 157.245 180.231 157.076 180.458 156.953C180.685 156.831 180.935 156.74 181.208 156.68C181.484 156.617 181.761 156.568 182.04 156.531C182.405 156.484 182.7 156.449 182.927 156.426C183.156 156.4 183.323 156.357 183.427 156.297C183.534 156.237 183.587 156.133 183.587 155.984V155.953C183.587 155.568 183.481 155.268 183.271 155.055C183.062 154.841 182.746 154.734 182.321 154.734C181.881 154.734 181.536 154.831 181.286 155.023C181.036 155.216 180.86 155.422 180.759 155.641L179.884 155.328C180.04 154.964 180.248 154.68 180.509 154.477C180.772 154.271 181.058 154.128 181.368 154.047C181.681 153.964 181.988 153.922 182.29 153.922C182.483 153.922 182.704 153.945 182.954 153.992C183.207 154.036 183.45 154.129 183.685 154.27C183.922 154.41 184.118 154.622 184.274 154.906C184.431 155.19 184.509 155.57 184.509 156.047V160H183.587V159.187H183.54C183.478 159.318 183.373 159.457 183.228 159.605C183.082 159.754 182.888 159.88 182.646 159.984C182.403 160.089 182.108 160.141 181.759 160.141ZM181.899 159.312C182.264 159.312 182.571 159.241 182.821 159.098C183.074 158.954 183.264 158.77 183.392 158.543C183.522 158.316 183.587 158.078 183.587 157.828V156.984C183.548 157.031 183.462 157.074 183.329 157.113C183.199 157.15 183.048 157.182 182.876 157.211C182.707 157.237 182.541 157.26 182.38 157.281C182.221 157.299 182.092 157.315 181.993 157.328C181.754 157.359 181.53 157.41 181.321 157.48C181.116 157.548 180.949 157.651 180.821 157.789C180.696 157.924 180.634 158.109 180.634 158.344C180.634 158.664 180.752 158.906 180.989 159.07C181.229 159.232 181.532 159.312 181.899 159.312ZM188.801 154V154.781H185.691V154H188.801ZM186.598 152.562H187.52V158.281C187.52 158.542 187.557 158.737 187.633 158.867C187.711 158.995 187.81 159.081 187.93 159.125C188.052 159.167 188.181 159.187 188.316 159.187C188.418 159.187 188.501 159.182 188.566 159.172C188.632 159.159 188.684 159.148 188.723 159.141L188.91 159.969C188.848 159.992 188.76 160.016 188.648 160.039C188.536 160.065 188.395 160.078 188.223 160.078C187.962 160.078 187.707 160.022 187.457 159.91C187.21 159.798 187.004 159.628 186.84 159.398C186.678 159.169 186.598 158.88 186.598 158.531V152.562ZM192.639 160.125C192.061 160.125 191.562 159.997 191.143 159.742C190.726 159.484 190.404 159.125 190.178 158.664C189.954 158.201 189.842 157.661 189.842 157.047C189.842 156.432 189.954 155.891 190.178 155.422C190.404 154.951 190.719 154.583 191.123 154.32C191.529 154.055 192.003 153.922 192.545 153.922C192.857 153.922 193.166 153.974 193.471 154.078C193.775 154.182 194.053 154.352 194.303 154.586C194.553 154.818 194.752 155.125 194.9 155.508C195.049 155.891 195.123 156.362 195.123 156.922V157.312H190.498V156.516H194.186C194.186 156.177 194.118 155.875 193.982 155.609C193.85 155.344 193.66 155.134 193.412 154.98C193.167 154.827 192.878 154.75 192.545 154.75C192.178 154.75 191.86 154.841 191.592 155.023C191.326 155.203 191.122 155.437 190.979 155.727C190.835 156.016 190.764 156.326 190.764 156.656V157.188C190.764 157.641 190.842 158.025 190.998 158.34C191.157 158.652 191.377 158.891 191.658 159.055C191.939 159.216 192.266 159.297 192.639 159.297C192.881 159.297 193.1 159.263 193.295 159.195C193.493 159.125 193.663 159.021 193.807 158.883C193.95 158.742 194.061 158.568 194.139 158.359L195.029 158.609C194.936 158.911 194.778 159.177 194.557 159.406C194.335 159.633 194.062 159.81 193.736 159.937C193.411 160.063 193.045 160.125 192.639 160.125ZM198.791 160.125C198.291 160.125 197.85 159.999 197.467 159.746C197.084 159.491 196.785 159.132 196.568 158.668C196.352 158.202 196.244 157.651 196.244 157.016C196.244 156.385 196.352 155.839 196.568 155.375C196.785 154.911 197.085 154.553 197.471 154.301C197.856 154.048 198.301 153.922 198.807 153.922C199.197 153.922 199.506 153.987 199.732 154.117C199.962 154.245 200.136 154.391 200.256 154.555C200.378 154.716 200.473 154.849 200.541 154.953H200.619V152H201.541V160H200.65V159.078H200.541C200.473 159.187 200.377 159.326 200.252 159.492C200.127 159.656 199.949 159.803 199.717 159.934C199.485 160.061 199.176 160.125 198.791 160.125ZM198.916 159.297C199.286 159.297 199.598 159.201 199.854 159.008C200.109 158.812 200.303 158.543 200.436 158.199C200.568 157.853 200.635 157.453 200.635 157C200.635 156.552 200.57 156.16 200.439 155.824C200.309 155.486 200.117 155.223 199.861 155.035C199.606 154.845 199.291 154.75 198.916 154.75C198.525 154.75 198.2 154.85 197.939 155.051C197.682 155.249 197.488 155.518 197.357 155.859C197.23 156.198 197.166 156.578 197.166 157C197.166 157.427 197.231 157.815 197.361 158.164C197.494 158.51 197.689 158.786 197.947 158.992C198.208 159.195 198.531 159.297 198.916 159.297ZM204.029 160.063C203.837 160.063 203.671 159.993 203.533 159.855C203.395 159.717 203.326 159.552 203.326 159.359C203.326 159.167 203.395 159.001 203.533 158.863C203.671 158.725 203.837 158.656 204.029 158.656C204.222 158.656 204.387 158.725 204.525 158.863C204.663 159.001 204.732 159.167 204.732 159.359C204.732 159.487 204.7 159.604 204.635 159.711C204.572 159.818 204.488 159.904 204.381 159.969C204.277 160.031 204.16 160.063 204.029 160.063ZM204.029 155.609C203.837 155.609 203.671 155.54 203.533 155.402C203.395 155.264 203.326 155.099 203.326 154.906C203.326 154.714 203.395 154.548 203.533 154.41C203.671 154.272 203.837 154.203 204.029 154.203C204.222 154.203 204.387 154.272 204.525 154.41C204.663 154.548 204.732 154.714 204.732 154.906C204.732 155.034 204.7 155.151 204.635 155.258C204.572 155.365 204.488 155.451 204.381 155.516C204.277 155.578 204.16 155.609 204.029 155.609ZM212.277 152V160H211.309V153.016H211.262L209.309 154.312V153.328L211.309 152H212.277ZM214.578 160V159.297L217.219 156.406C217.529 156.068 217.784 155.773 217.984 155.523C218.185 155.271 218.333 155.034 218.43 154.812C218.529 154.589 218.578 154.354 218.578 154.109C218.578 153.828 218.51 153.585 218.375 153.379C218.242 153.173 218.06 153.014 217.828 152.902C217.596 152.79 217.336 152.734 217.047 152.734C216.74 152.734 216.471 152.798 216.242 152.926C216.016 153.051 215.84 153.227 215.715 153.453C215.592 153.68 215.531 153.945 215.531 154.25H214.609C214.609 153.781 214.717 153.37 214.934 153.016C215.15 152.661 215.444 152.385 215.816 152.187C216.191 151.99 216.612 151.891 217.078 151.891C217.547 151.891 217.962 151.99 218.324 152.187C218.686 152.385 218.97 152.652 219.176 152.988C219.382 153.324 219.484 153.698 219.484 154.109C219.484 154.404 219.431 154.691 219.324 154.973C219.22 155.251 219.038 155.562 218.777 155.906C218.52 156.247 218.161 156.664 217.703 157.156L215.906 159.078V159.141H219.625V160H214.578ZM224.082 151.625L221.504 161.203H220.66L223.238 151.625H224.082ZM225.159 160V159.297L227.8 156.406C228.11 156.068 228.365 155.773 228.565 155.523C228.766 155.271 228.914 155.034 229.011 154.812C229.11 154.589 229.159 154.354 229.159 154.109C229.159 153.828 229.091 153.585 228.956 153.379C228.823 153.173 228.641 153.014 228.409 152.902C228.177 152.79 227.917 152.734 227.628 152.734C227.321 152.734 227.052 152.798 226.823 152.926C226.597 153.051 226.421 153.227 226.296 153.453C226.174 153.68 226.112 153.945 226.112 154.25H225.19C225.19 153.781 225.299 153.37 225.515 153.016C225.731 152.661 226.025 152.385 226.397 152.187C226.772 151.99 227.193 151.891 227.659 151.891C228.128 151.891 228.543 151.99 228.905 152.187C229.267 152.385 229.551 152.652 229.757 152.988C229.963 153.324 230.065 153.698 230.065 154.109C230.065 154.404 230.012 154.691 229.905 154.973C229.801 155.251 229.619 155.562 229.358 155.906C229.101 156.247 228.743 156.664 228.284 157.156L226.487 159.078V159.141H230.206V160H225.159ZM234.663 151.625L232.085 161.203H231.241L233.819 151.625H234.663ZM235.74 160V159.297L238.381 156.406C238.691 156.068 238.946 155.773 239.146 155.523C239.347 155.271 239.495 155.034 239.592 154.812C239.691 154.589 239.74 154.354 239.74 154.109C239.74 153.828 239.673 153.585 239.537 153.379C239.404 153.173 239.222 153.014 238.99 152.902C238.758 152.79 238.498 152.734 238.209 152.734C237.902 152.734 237.633 152.798 237.404 152.926C237.178 153.051 237.002 153.227 236.877 153.453C236.755 153.68 236.693 153.945 236.693 154.25H235.771C235.771 153.781 235.88 153.37 236.096 153.016C236.312 152.661 236.606 152.385 236.979 152.187C237.354 151.99 237.774 151.891 238.24 151.891C238.709 151.891 239.124 151.99 239.486 152.187C239.848 152.385 240.132 152.652 240.338 152.988C240.544 153.324 240.646 153.698 240.646 154.109C240.646 154.404 240.593 154.691 240.486 154.973C240.382 155.251 240.2 155.562 239.939 155.906C239.682 156.247 239.324 156.664 238.865 157.156L237.068 159.078V159.141H240.787V160H235.74ZM245.104 160.109C244.588 160.109 244.128 160.021 243.725 159.844C243.324 159.667 243.005 159.421 242.768 159.105C242.533 158.788 242.406 158.419 242.385 158H243.369C243.39 158.258 243.479 158.48 243.635 158.668C243.791 158.853 243.995 158.996 244.248 159.098C244.501 159.199 244.781 159.25 245.088 159.25C245.432 159.25 245.736 159.19 246.002 159.07C246.268 158.951 246.476 158.784 246.627 158.57C246.778 158.357 246.854 158.109 246.854 157.828C246.854 157.534 246.781 157.275 246.635 157.051C246.489 156.824 246.275 156.647 245.994 156.52C245.713 156.392 245.369 156.328 244.963 156.328H244.322V155.469H244.963C245.281 155.469 245.559 155.411 245.799 155.297C246.041 155.182 246.23 155.021 246.365 154.812C246.503 154.604 246.572 154.359 246.572 154.078C246.572 153.807 246.512 153.572 246.393 153.371C246.273 153.171 246.104 153.014 245.885 152.902C245.669 152.79 245.413 152.734 245.119 152.734C244.843 152.734 244.583 152.785 244.338 152.887C244.096 152.986 243.898 153.13 243.744 153.32C243.59 153.508 243.507 153.734 243.494 154H242.557C242.572 153.581 242.699 153.214 242.936 152.898C243.173 152.581 243.482 152.333 243.865 152.156C244.251 151.979 244.674 151.891 245.135 151.891C245.63 151.891 246.054 151.991 246.408 152.191C246.762 152.389 247.035 152.651 247.225 152.977C247.415 153.302 247.51 153.654 247.51 154.031C247.51 154.482 247.391 154.866 247.154 155.184C246.92 155.501 246.601 155.721 246.197 155.844V155.906C246.702 155.99 247.097 156.204 247.381 156.551C247.665 156.895 247.807 157.32 247.807 157.828C247.807 158.263 247.688 158.654 247.451 159C247.217 159.344 246.896 159.615 246.49 159.812C246.084 160.01 245.622 160.109 245.104 160.109Z" fill="#525252"/>
<path d="M162.406 222.5H161.438C161.38 222.221 161.28 221.977 161.137 221.766C160.996 221.555 160.824 221.378 160.621 221.234C160.421 221.089 160.198 220.979 159.953 220.906C159.708 220.833 159.453 220.797 159.188 220.797C158.703 220.797 158.264 220.919 157.871 221.164C157.48 221.409 157.169 221.77 156.938 222.246C156.708 222.723 156.594 223.307 156.594 224C156.594 224.693 156.708 225.277 156.938 225.754C157.169 226.23 157.48 226.591 157.871 226.836C158.264 227.081 158.703 227.203 159.188 227.203C159.453 227.203 159.708 227.167 159.953 227.094C160.198 227.021 160.421 226.913 160.621 226.77C160.824 226.624 160.996 226.445 161.137 226.234C161.28 226.021 161.38 225.776 161.438 225.5H162.406C162.333 225.909 162.201 226.275 162.008 226.598C161.815 226.921 161.576 227.195 161.289 227.422C161.003 227.646 160.681 227.816 160.324 227.934C159.97 228.051 159.591 228.109 159.188 228.109C158.505 228.109 157.898 227.943 157.367 227.609C156.836 227.276 156.418 226.802 156.113 226.187C155.809 225.573 155.656 224.844 155.656 224C155.656 223.156 155.809 222.427 156.113 221.812C156.418 221.198 156.836 220.724 157.367 220.391C157.898 220.057 158.505 219.891 159.188 219.891C159.591 219.891 159.97 219.949 160.324 220.066C160.681 220.184 161.003 220.355 161.289 220.582C161.576 220.806 161.815 221.079 162.008 221.402C162.201 221.723 162.333 222.089 162.406 222.5ZM163.847 228V222H164.737V222.906H164.8C164.909 222.609 165.107 222.368 165.394 222.184C165.68 221.999 166.003 221.906 166.362 221.906C166.43 221.906 166.515 221.908 166.616 221.91C166.718 221.913 166.795 221.917 166.847 221.922V222.859C166.815 222.852 166.744 222.84 166.632 222.824C166.522 222.806 166.407 222.797 166.284 222.797C165.993 222.797 165.732 222.858 165.503 222.98C165.276 223.1 165.097 223.267 164.964 223.48C164.834 223.691 164.769 223.932 164.769 224.203V228H163.847ZM170.272 228.125C169.694 228.125 169.196 227.997 168.776 227.742C168.36 227.484 168.038 227.125 167.812 226.664C167.588 226.201 167.476 225.661 167.476 225.047C167.476 224.432 167.588 223.891 167.812 223.422C168.038 222.951 168.353 222.583 168.757 222.32C169.163 222.055 169.637 221.922 170.179 221.922C170.491 221.922 170.8 221.974 171.104 222.078C171.409 222.182 171.687 222.352 171.937 222.586C172.187 222.818 172.386 223.125 172.534 223.508C172.683 223.891 172.757 224.362 172.757 224.922V225.312H168.132V224.516H171.819C171.819 224.177 171.752 223.875 171.616 223.609C171.483 223.344 171.293 223.134 171.046 222.98C170.801 222.827 170.512 222.75 170.179 222.75C169.812 222.75 169.494 222.841 169.226 223.023C168.96 223.203 168.756 223.437 168.612 223.727C168.469 224.016 168.397 224.326 168.397 224.656V225.188C168.397 225.641 168.476 226.025 168.632 226.34C168.791 226.652 169.011 226.891 169.292 227.055C169.573 227.216 169.9 227.297 170.272 227.297C170.515 227.297 170.733 227.263 170.929 227.195C171.127 227.125 171.297 227.021 171.44 226.883C171.584 226.742 171.694 226.568 171.772 226.359L172.663 226.609C172.569 226.911 172.412 227.177 172.19 227.406C171.969 227.633 171.696 227.81 171.37 227.937C171.045 228.063 170.679 228.125 170.272 228.125ZM175.925 228.141C175.545 228.141 175.2 228.069 174.89 227.926C174.58 227.78 174.334 227.57 174.151 227.297C173.969 227.021 173.878 226.687 173.878 226.297C173.878 225.953 173.946 225.674 174.081 225.461C174.216 225.245 174.397 225.076 174.624 224.953C174.851 224.831 175.101 224.74 175.374 224.68C175.65 224.617 175.927 224.568 176.206 224.531C176.571 224.484 176.866 224.449 177.093 224.426C177.322 224.4 177.489 224.357 177.593 224.297C177.7 224.237 177.753 224.133 177.753 223.984V223.953C177.753 223.568 177.647 223.268 177.437 223.055C177.228 222.841 176.912 222.734 176.487 222.734C176.047 222.734 175.702 222.831 175.452 223.023C175.202 223.216 175.026 223.422 174.925 223.641L174.05 223.328C174.206 222.964 174.414 222.68 174.675 222.477C174.938 222.271 175.224 222.128 175.534 222.047C175.847 221.964 176.154 221.922 176.456 221.922C176.649 221.922 176.87 221.945 177.12 221.992C177.373 222.036 177.616 222.129 177.851 222.27C178.088 222.41 178.284 222.622 178.44 222.906C178.597 223.19 178.675 223.57 178.675 224.047V228H177.753V227.187H177.706C177.644 227.318 177.539 227.457 177.394 227.605C177.248 227.754 177.054 227.88 176.812 227.984C176.569 228.089 176.274 228.141 175.925 228.141ZM176.065 227.312C176.43 227.312 176.737 227.241 176.987 227.098C177.24 226.954 177.43 226.77 177.558 226.543C177.688 226.316 177.753 226.078 177.753 225.828V224.984C177.714 225.031 177.628 225.074 177.495 225.113C177.365 225.15 177.214 225.182 177.042 225.211C176.873 225.237 176.707 225.26 176.546 225.281C176.387 225.299 176.258 225.315 176.159 225.328C175.92 225.359 175.696 225.41 175.487 225.48C175.282 225.548 175.115 225.651 174.987 225.789C174.862 225.924 174.8 226.109 174.8 226.344C174.8 226.664 174.918 226.906 175.155 227.07C175.395 227.232 175.698 227.312 176.065 227.312ZM182.967 222V222.781H179.857V222H182.967ZM180.764 220.562H181.686V226.281C181.686 226.542 181.723 226.737 181.799 226.867C181.877 226.995 181.976 227.081 182.096 227.125C182.218 227.167 182.347 227.187 182.482 227.187C182.584 227.187 182.667 227.182 182.732 227.172C182.798 227.159 182.85 227.148 182.889 227.141L183.076 227.969C183.014 227.992 182.926 228.016 182.814 228.039C182.702 228.065 182.561 228.078 182.389 228.078C182.128 228.078 181.873 228.022 181.623 227.91C181.376 227.798 181.17 227.628 181.006 227.398C180.844 227.169 180.764 226.88 180.764 226.531V220.562ZM186.805 228.125C186.227 228.125 185.728 227.997 185.309 227.742C184.892 227.484 184.57 227.125 184.344 226.664C184.12 226.201 184.008 225.661 184.008 225.047C184.008 224.432 184.12 223.891 184.344 223.422C184.57 222.951 184.885 222.583 185.289 222.32C185.695 222.055 186.169 221.922 186.711 221.922C187.023 221.922 187.332 221.974 187.637 222.078C187.941 222.182 188.219 222.352 188.469 222.586C188.719 222.818 188.918 223.125 189.066 223.508C189.215 223.891 189.289 224.362 189.289 224.922V225.312H184.664V224.516H188.352C188.352 224.177 188.284 223.875 188.148 223.609C188.016 223.344 187.826 223.134 187.578 222.98C187.333 222.827 187.044 222.75 186.711 222.75C186.344 222.75 186.026 222.841 185.758 223.023C185.492 223.203 185.288 223.437 185.145 223.727C185.001 224.016 184.93 224.326 184.93 224.656V225.188C184.93 225.641 185.008 226.025 185.164 226.34C185.323 226.652 185.543 226.891 185.824 227.055C186.105 227.216 186.432 227.297 186.805 227.297C187.047 227.297 187.266 227.263 187.461 227.195C187.659 227.125 187.829 227.021 187.973 226.883C188.116 226.742 188.227 226.568 188.305 226.359L189.195 226.609C189.102 226.911 188.944 227.177 188.723 227.406C188.501 227.633 188.228 227.81 187.902 227.937C187.577 228.063 187.211 228.125 186.805 228.125ZM192.957 228.125C192.457 228.125 192.016 227.999 191.633 227.746C191.25 227.491 190.951 227.132 190.734 226.668C190.518 226.202 190.41 225.651 190.41 225.016C190.41 224.385 190.518 223.839 190.734 223.375C190.951 222.911 191.251 222.553 191.637 222.301C192.022 222.048 192.467 221.922 192.973 221.922C193.363 221.922 193.672 221.987 193.898 222.117C194.128 222.245 194.302 222.391 194.422 222.555C194.544 222.716 194.639 222.849 194.707 222.953H194.785V220H195.707V228H194.816V227.078H194.707C194.639 227.187 194.543 227.326 194.418 227.492C194.293 227.656 194.115 227.803 193.883 227.934C193.651 228.061 193.342 228.125 192.957 228.125ZM193.082 227.297C193.452 227.297 193.764 227.201 194.02 227.008C194.275 226.812 194.469 226.543 194.602 226.199C194.734 225.853 194.801 225.453 194.801 225C194.801 224.552 194.736 224.16 194.605 223.824C194.475 223.486 194.283 223.223 194.027 223.035C193.772 222.845 193.457 222.75 193.082 222.75C192.691 222.75 192.366 222.85 192.105 223.051C191.848 223.249 191.654 223.518 191.523 223.859C191.396 224.198 191.332 224.578 191.332 225C191.332 225.427 191.397 225.815 191.527 226.164C191.66 226.51 191.855 226.786 192.113 226.992C192.374 227.195 192.697 227.297 193.082 227.297ZM201.289 226.977C201.096 226.977 200.931 226.908 200.793 226.77C200.655 226.632 200.586 226.466 200.586 226.273C200.586 226.081 200.655 225.915 200.793 225.777C200.931 225.639 201.096 225.57 201.289 225.57C201.482 225.57 201.647 225.639 201.785 225.777C201.923 225.915 201.992 226.081 201.992 226.273C201.992 226.401 201.96 226.518 201.895 226.625C201.832 226.732 201.747 226.818 201.641 226.883C201.536 226.945 201.419 226.977 201.289 226.977ZM201.289 222.93C201.096 222.93 200.931 222.861 200.793 222.723C200.655 222.585 200.586 222.419 200.586 222.227C200.586 222.034 200.655 221.868 200.793 221.73C200.931 221.592 201.096 221.523 201.289 221.523C201.482 221.523 201.647 221.592 201.785 221.73C201.923 221.868 201.992 222.034 201.992 222.227C201.992 222.354 201.96 222.471 201.895 222.578C201.832 222.685 201.747 222.771 201.641 222.836C201.536 222.898 201.419 222.93 201.289 222.93ZM206.725 228V227.297L209.365 224.406C209.675 224.068 209.93 223.773 210.131 223.523C210.331 223.271 210.48 223.034 210.576 222.812C210.675 222.589 210.725 222.354 210.725 222.109C210.725 221.828 210.657 221.585 210.521 221.379C210.389 221.173 210.206 221.014 209.975 220.902C209.743 220.79 209.482 220.734 209.193 220.734C208.886 220.734 208.618 220.798 208.389 220.926C208.162 221.051 207.986 221.227 207.861 221.453C207.739 221.68 207.678 221.945 207.678 222.25H206.756C206.756 221.781 206.864 221.37 207.08 221.016C207.296 220.661 207.59 220.385 207.963 220.187C208.338 219.99 208.758 219.891 209.225 219.891C209.693 219.891 210.109 219.99 210.471 220.187C210.833 220.385 211.117 220.652 211.322 220.988C211.528 221.324 211.631 221.698 211.631 222.109C211.631 222.404 211.577 222.691 211.471 222.973C211.367 223.251 211.184 223.562 210.924 223.906C210.666 224.247 210.308 224.664 209.85 225.156L208.053 227.078V227.141H211.771V228H206.725ZM215.947 228.109C215.411 228.109 214.937 228.014 214.525 227.824C214.117 227.632 213.798 227.367 213.568 227.031C213.339 226.693 213.226 226.307 213.229 225.875C213.226 225.536 213.292 225.224 213.428 224.937C213.563 224.648 213.748 224.408 213.982 224.215C214.219 224.02 214.484 223.896 214.775 223.844V223.797C214.393 223.698 214.088 223.483 213.861 223.152C213.635 222.819 213.523 222.44 213.525 222.016C213.523 221.609 213.626 221.246 213.834 220.926C214.042 220.605 214.329 220.353 214.693 220.168C215.061 219.983 215.479 219.891 215.947 219.891C216.411 219.891 216.825 219.983 217.189 220.168C217.554 220.353 217.84 220.605 218.049 220.926C218.26 221.246 218.367 221.609 218.369 222.016C218.367 222.44 218.251 222.819 218.021 223.152C217.795 223.483 217.494 223.698 217.119 223.797V223.844C217.408 223.896 217.669 224.02 217.9 224.215C218.132 224.408 218.317 224.648 218.455 224.937C218.593 225.224 218.663 225.536 218.666 225.875C218.663 226.307 218.546 226.693 218.314 227.031C218.085 227.367 217.766 227.632 217.357 227.824C216.951 228.014 216.481 228.109 215.947 228.109ZM215.947 227.25C216.309 227.25 216.622 227.191 216.885 227.074C217.148 226.957 217.351 226.792 217.494 226.578C217.637 226.365 217.71 226.115 217.713 225.828C217.71 225.526 217.632 225.259 217.479 225.027C217.325 224.796 217.115 224.613 216.85 224.48C216.587 224.348 216.286 224.281 215.947 224.281C215.606 224.281 215.301 224.348 215.033 224.48C214.768 224.613 214.558 224.796 214.404 225.027C214.253 225.259 214.179 225.526 214.182 225.828C214.179 226.115 214.248 226.365 214.389 226.578C214.532 226.792 214.736 226.957 215.002 227.074C215.268 227.191 215.583 227.25 215.947 227.25ZM215.947 223.453C216.234 223.453 216.488 223.396 216.709 223.281C216.933 223.167 217.109 223.007 217.236 222.801C217.364 222.595 217.429 222.354 217.432 222.078C217.429 221.807 217.365 221.572 217.24 221.371C217.115 221.168 216.942 221.012 216.721 220.902C216.499 220.79 216.242 220.734 215.947 220.734C215.648 220.734 215.386 220.79 215.162 220.902C214.938 221.012 214.765 221.168 214.643 221.371C214.52 221.572 214.46 221.807 214.463 222.078C214.46 222.354 214.521 222.595 214.646 222.801C214.774 223.007 214.95 223.167 215.174 223.281C215.398 223.396 215.656 223.453 215.947 223.453ZM223.007 219.625L220.429 229.203H219.585L222.163 219.625H223.007ZM226.896 220V228H225.928V221.016H225.881L223.928 222.312V221.328L225.928 220H226.896ZM232.041 219.625L229.463 229.203H228.619L231.197 219.625H232.041ZM233.118 228V227.297L235.759 224.406C236.069 224.068 236.324 223.773 236.524 223.523C236.725 223.271 236.873 223.034 236.97 222.812C237.069 222.589 237.118 222.354 237.118 222.109C237.118 221.828 237.05 221.585 236.915 221.379C236.782 221.173 236.6 221.014 236.368 220.902C236.136 220.79 235.876 220.734 235.587 220.734C235.28 220.734 235.011 220.798 234.782 220.926C234.556 221.051 234.38 221.227 234.255 221.453C234.132 221.68 234.071 221.945 234.071 222.25H233.149C233.149 221.781 233.257 221.37 233.474 221.016C233.69 220.661 233.984 220.385 234.356 220.187C234.731 219.99 235.152 219.891 235.618 219.891C236.087 219.891 236.502 219.99 236.864 220.187C237.226 220.385 237.51 220.652 237.716 220.988C237.922 221.324 238.024 221.698 238.024 222.109C238.024 222.404 237.971 222.691 237.864 222.973C237.76 223.251 237.578 223.562 237.317 223.906C237.06 224.247 236.701 224.664 236.243 225.156L234.446 227.078V227.141H238.165V228H233.118ZM242.481 228.109C241.966 228.109 241.506 228.021 241.103 227.844C240.701 227.667 240.382 227.421 240.146 227.105C239.911 226.788 239.784 226.419 239.763 226H240.747C240.768 226.258 240.856 226.48 241.013 226.668C241.169 226.853 241.373 226.996 241.626 227.098C241.879 227.199 242.159 227.25 242.466 227.25C242.81 227.25 243.114 227.19 243.38 227.07C243.646 226.951 243.854 226.784 244.005 226.57C244.156 226.357 244.231 226.109 244.231 225.828C244.231 225.534 244.159 225.275 244.013 225.051C243.867 224.824 243.653 224.647 243.372 224.52C243.091 224.392 242.747 224.328 242.341 224.328H241.7V223.469H242.341C242.659 223.469 242.937 223.411 243.177 223.297C243.419 223.182 243.608 223.021 243.743 222.812C243.881 222.604 243.95 222.359 243.95 222.078C243.95 221.807 243.89 221.572 243.771 221.371C243.651 221.171 243.481 221.014 243.263 220.902C243.047 220.79 242.791 220.734 242.497 220.734C242.221 220.734 241.961 220.785 241.716 220.887C241.474 220.986 241.276 221.13 241.122 221.32C240.968 221.508 240.885 221.734 240.872 222H239.935C239.95 221.581 240.076 221.214 240.313 220.898C240.55 220.581 240.86 220.333 241.243 220.156C241.629 219.979 242.052 219.891 242.513 219.891C243.007 219.891 243.432 219.991 243.786 220.191C244.14 220.389 244.412 220.651 244.603 220.977C244.793 221.302 244.888 221.654 244.888 222.031C244.888 222.482 244.769 222.866 244.532 223.184C244.298 223.501 243.979 223.721 243.575 223.844V223.906C244.08 223.99 244.475 224.204 244.759 224.551C245.043 224.895 245.185 225.32 245.185 225.828C245.185 226.263 245.066 226.654 244.829 227C244.595 227.344 244.274 227.615 243.868 227.812C243.462 228.01 243 228.109 242.481 228.109Z" fill="#525252"/>
<path d="M246 247C247.1 247 248 246.1 248 245C248 243.9 247.1 243 246 243C244.9 243 244 243.9 244 245C244 246.1 244.9 247 246 247ZM246 249C244.9 249 244 249.9 244 251C244 252.1 244.9 253 246 253C247.1 253 248 252.1 248 251C248 249.9 247.1 249 246 249ZM246 255C244.9 255 244 255.9 244 257C244 258.1 244.9 259 246 259C247.1 259 248 258.1 248 257C248 255.9 247.1 255 246 255Z" fill="#525252"/>
<g filter="url(#filter1_d_1440_3718)">
<rect x="200" y="182" width="55" height="19" rx="9.5" fill="white"/>
<rect x="200.25" y="182.25" width="54.5" height="18.5" rx="9.25" stroke="#D9D9D9" stroke-width="0.5"/>
</g>
<g filter="url(#filter2_d_1440_3718)">
<rect x="130" y="182" width="55" height="19" rx="9.5" fill="white"/>
<rect x="130.25" y="182.25" width="54.5" height="18.5" rx="9.25" stroke="#D9D9D9" stroke-width="0.5"/>
</g>
<path d="M155.452 195.078C155.237 195.078 155.052 195.002 154.898 194.851C154.745 194.699 154.669 194.515 154.671 194.297C154.669 194.084 154.745 193.902 154.898 193.75C155.052 193.598 155.237 193.523 155.452 193.523C155.661 193.523 155.842 193.598 155.996 193.75C156.152 193.902 156.231 194.084 156.234 194.297C156.231 194.441 156.193 194.573 156.12 194.691C156.049 194.809 155.954 194.904 155.836 194.975C155.72 195.044 155.592 195.078 155.452 195.078ZM155.452 191.186C155.237 191.186 155.052 191.11 154.898 190.959C154.745 190.805 154.669 190.62 154.671 190.405C154.669 190.192 154.745 190.009 154.898 189.858C155.052 189.704 155.237 189.627 155.452 189.627C155.661 189.627 155.842 189.704 155.996 189.858C156.152 190.009 156.231 190.192 156.234 190.405C156.231 190.547 156.193 190.677 156.12 190.795C156.049 190.914 155.954 191.009 155.836 191.08C155.72 191.151 155.592 191.186 155.452 191.186ZM167.469 195V194.048L169.993 191.573C170.235 191.329 170.436 191.113 170.597 190.923C170.758 190.734 170.879 190.55 170.959 190.373C171.04 190.195 171.08 190.006 171.08 189.805C171.08 189.575 171.028 189.379 170.924 189.215C170.82 189.049 170.676 188.922 170.494 188.832C170.312 188.742 170.105 188.697 169.873 188.697C169.634 188.697 169.424 188.746 169.244 188.846C169.064 188.943 168.925 189.081 168.825 189.261C168.728 189.441 168.68 189.656 168.68 189.904H167.426C167.426 189.442 167.531 189.041 167.742 188.7C167.953 188.359 168.243 188.095 168.612 187.908C168.984 187.721 169.41 187.628 169.89 187.628C170.378 187.628 170.807 187.719 171.176 187.901C171.545 188.084 171.832 188.333 172.035 188.651C172.241 188.968 172.344 189.33 172.344 189.737C172.344 190.009 172.292 190.277 172.188 190.54C172.084 190.803 171.9 191.094 171.638 191.413C171.377 191.733 171.011 192.12 170.54 192.575L169.287 193.849V193.899H172.454V195H167.469ZM176.638 187.727V195H175.32V189.009H175.278L173.577 190.096V188.888L175.384 187.727H176.638Z" fill="black"/>
<path d="M225.452 195.078C225.237 195.078 225.052 195.002 224.898 194.851C224.745 194.699 224.669 194.515 224.671 194.297C224.669 194.084 224.745 193.902 224.898 193.75C225.052 193.598 225.237 193.523 225.452 193.523C225.661 193.523 225.842 193.598 225.996 193.75C226.152 193.902 226.231 194.084 226.234 194.297C226.231 194.441 226.193 194.573 226.12 194.691C226.049 194.809 225.954 194.904 225.836 194.975C225.72 195.044 225.592 195.078 225.452 195.078ZM225.452 191.186C225.237 191.186 225.052 191.11 224.898 190.959C224.745 190.805 224.669 190.62 224.671 190.405C224.669 190.192 224.745 190.009 224.898 189.858C225.052 189.704 225.237 189.627 225.452 189.627C225.661 189.627 225.842 189.704 225.996 189.858C226.152 190.009 226.231 190.192 226.234 190.405C226.231 190.547 226.193 190.677 226.12 190.795C226.049 190.914 225.954 191.009 225.836 191.08C225.72 191.151 225.592 191.186 225.452 191.186ZM237.946 187.727V195H236.629V189.009H236.586L234.885 190.096V188.888L236.693 187.727H237.946ZM239.793 195V194.048L242.318 191.573C242.559 191.329 242.76 191.113 242.921 190.923C243.082 190.734 243.203 190.55 243.284 190.373C243.364 190.195 243.404 190.006 243.404 189.805C243.404 189.575 243.352 189.379 243.248 189.215C243.144 189.049 243.001 188.922 242.818 188.832C242.636 188.742 242.429 188.697 242.197 188.697C241.958 188.697 241.748 188.746 241.568 188.846C241.388 188.943 241.249 189.081 241.149 189.261C241.052 189.441 241.004 189.656 241.004 189.904H239.75C239.75 189.442 239.856 189.041 240.066 188.7C240.277 188.359 240.567 188.095 240.936 187.908C241.308 187.721 241.734 187.628 242.215 187.628C242.702 187.628 243.131 187.719 243.5 187.901C243.869 188.084 244.156 188.333 244.36 188.651C244.566 188.968 244.669 189.33 244.669 189.737C244.669 190.009 244.616 190.277 244.512 190.54C244.408 190.803 244.225 191.094 243.962 191.413C243.701 191.733 243.336 192.12 242.865 192.575L241.611 193.849V193.899H244.779V195H239.793ZM248.962 187.727V195H247.644V189.009H247.602L245.901 190.096V188.888L247.708 187.727H248.962Z" fill="black"/>
<path d="M51.0007 249C54.159 249 56.9757 250.775 58.3507 253.583C56.9757 256.392 54.159 258.167 51.0007 258.167C47.8423 258.167 45.0257 256.392 43.6507 253.583C45.0257 250.775 47.8423 249 51.0007 249ZM51.0007 247.333C46.834 247.333 43.2757 249.925 41.834 253.583C43.2757 257.242 46.834 259.833 51.0007 259.833C55.1673 259.833 58.7257 257.242 60.1673 253.583C58.7257 249.925 55.1673 247.333 51.0007 247.333ZM51.0007 251.5C52.1507 251.5 53.084 252.433 53.084 253.583C53.084 254.733 52.1507 255.667 51.0007 255.667C49.8507 255.667 48.9173 254.733 48.9173 253.583C48.9173 252.433 49.8507 251.5 51.0007 251.5ZM51.0007 249.833C48.934 249.833 47.2507 251.517 47.2507 253.583C47.2507 255.65 48.934 257.333 51.0007 257.333C53.0673 257.333 54.7507 255.65 54.7507 253.583C54.7507 251.517 53.0673 249.833 51.0007 249.833Z" fill="#525252"/>
<path d="M24.9375 223C24.9375 223.862 24.776 224.6 24.4531 225.215C24.1328 225.827 23.6953 226.296 23.1406 226.621C22.5885 226.947 21.9622 227.109 21.2617 227.109C20.5612 227.109 19.9336 226.947 19.3789 226.621C18.8268 226.293 18.3893 225.823 18.0664 225.211C17.7461 224.596 17.5859 223.859 17.5859 223C17.5859 222.138 17.7461 221.401 18.0664 220.789C18.3893 220.174 18.8268 219.704 19.3789 219.379C19.9336 219.053 20.5612 218.891 21.2617 218.891C21.9622 218.891 22.5885 219.053 23.1406 219.379C23.6953 219.704 24.1328 220.174 24.4531 220.789C24.776 221.401 24.9375 222.138 24.9375 223ZM23.4805 223C23.4805 222.393 23.3854 221.882 23.1953 221.465C23.0078 221.046 22.7474 220.729 22.4141 220.516C22.0807 220.299 21.6966 220.191 21.2617 220.191C20.8268 220.191 20.4427 220.299 20.1094 220.516C19.776 220.729 19.5143 221.046 19.3242 221.465C19.1367 221.882 19.043 222.393 19.043 223C19.043 223.607 19.1367 224.12 19.3242 224.539C19.5143 224.956 19.776 225.272 20.1094 225.488C20.4427 225.702 20.8268 225.809 21.2617 225.809C21.6966 225.809 22.0807 225.702 22.4141 225.488C22.7474 225.272 23.0078 224.956 23.1953 224.539C23.3854 224.12 23.4805 223.607 23.4805 223ZM27.4834 227L25.7881 221H27.2295L28.2842 225.219H28.3389L29.417 221H30.8428L31.9209 225.195H31.9795L33.0186 221H34.4639L32.7646 227H31.292L30.167 222.945H30.085L28.96 227H27.4834ZM36.8652 223.484V227H35.4512V221H36.8027V222.02H36.873C37.0111 221.684 37.2311 221.417 37.5332 221.219C37.8379 221.021 38.2142 220.922 38.6621 220.922C39.0762 220.922 39.4368 221.01 39.7441 221.187C40.054 221.365 40.2936 221.621 40.4629 221.957C40.6348 222.293 40.7194 222.701 40.7168 223.18V227H39.3027V223.398C39.3027 222.997 39.1986 222.684 38.9902 222.457C38.7845 222.23 38.4993 222.117 38.1348 222.117C37.8874 222.117 37.6673 222.172 37.4746 222.281C37.2845 222.388 37.1348 222.543 37.0254 222.746C36.9186 222.949 36.8652 223.195 36.8652 223.484ZM44.8105 227.117C44.209 227.117 43.6895 226.992 43.252 226.742C42.8171 226.49 42.4824 226.133 42.248 225.672C42.0137 225.208 41.8965 224.663 41.8965 224.035C41.8965 223.418 42.0137 222.876 42.248 222.41C42.485 221.941 42.8158 221.577 43.2402 221.316C43.6647 221.053 44.1634 220.922 44.7363 220.922C45.1061 220.922 45.4551 220.982 45.7832 221.102C46.1139 221.219 46.4056 221.401 46.6582 221.648C46.9134 221.896 47.1139 222.211 47.2598 222.594C47.4056 222.974 47.4785 223.427 47.4785 223.953V224.387H42.5605V223.434H46.123C46.1204 223.163 46.0618 222.922 45.9473 222.711C45.8327 222.497 45.6725 222.329 45.4668 222.207C45.2637 222.085 45.0267 222.023 44.7559 222.023C44.4668 222.023 44.2129 222.094 43.9941 222.234C43.7754 222.372 43.6048 222.555 43.4824 222.781C43.3626 223.005 43.3014 223.251 43.2988 223.52V224.352C43.2988 224.701 43.3626 225 43.4902 225.25C43.6178 225.497 43.7962 225.687 44.0254 225.82C44.2546 225.951 44.5228 226.016 44.8301 226.016C45.0358 226.016 45.222 225.987 45.3887 225.93C45.5553 225.87 45.6999 225.783 45.8223 225.668C45.9447 225.553 46.0371 225.411 46.0996 225.242L47.4199 225.391C47.3366 225.74 47.1777 226.044 46.9434 226.305C46.7116 226.562 46.4147 226.763 46.0527 226.906C45.6908 227.047 45.2767 227.117 44.8105 227.117ZM48.6748 227V221H50.0459V222H50.1084C50.2178 221.654 50.4053 221.387 50.6709 221.199C50.9391 221.009 51.2451 220.914 51.5889 220.914C51.667 220.914 51.7542 220.918 51.8506 220.926C51.9495 220.931 52.0316 220.94 52.0967 220.953V222.254C52.0368 222.233 51.9417 222.215 51.8115 222.199C51.6839 222.181 51.5602 222.172 51.4404 222.172C51.1826 222.172 50.9508 222.228 50.7451 222.34C50.542 222.449 50.3818 222.602 50.2646 222.797C50.1475 222.992 50.0889 223.217 50.0889 223.473V227H48.6748ZM53.9072 227.086C53.6702 227.086 53.4671 227.003 53.2979 226.836C53.1286 226.669 53.0452 226.466 53.0479 226.227C53.0452 225.992 53.1286 225.792 53.2979 225.625C53.4671 225.458 53.6702 225.375 53.9072 225.375C54.1364 225.375 54.3356 225.458 54.5049 225.625C54.6768 225.792 54.764 225.992 54.7666 226.227C54.764 226.385 54.7223 226.53 54.6416 226.66C54.5635 226.79 54.4593 226.895 54.3291 226.973C54.2015 227.048 54.0609 227.086 53.9072 227.086ZM53.9072 222.805C53.6702 222.805 53.4671 222.721 53.2979 222.555C53.1286 222.385 53.0452 222.182 53.0479 221.945C53.0452 221.711 53.1286 221.51 53.2979 221.344C53.4671 221.174 53.6702 221.09 53.9072 221.09C54.1364 221.09 54.3356 221.174 54.5049 221.344C54.6768 221.51 54.764 221.711 54.7666 221.945C54.764 222.102 54.7223 222.245 54.6416 222.375C54.5635 222.505 54.4593 222.609 54.3291 222.687C54.2015 222.766 54.0609 222.805 53.9072 222.805ZM59.0176 227V219H60.4316V221.992H60.4902C60.5632 221.846 60.666 221.691 60.7988 221.527C60.9316 221.361 61.1113 221.219 61.3379 221.102C61.5645 220.982 61.8535 220.922 62.2051 220.922C62.6686 220.922 63.0866 221.04 63.459 221.277C63.834 221.512 64.1309 221.859 64.3496 222.32C64.571 222.779 64.6816 223.341 64.6816 224.008C64.6816 224.667 64.5736 225.227 64.3574 225.687C64.1413 226.148 63.847 226.5 63.4746 226.742C63.1022 226.984 62.6803 227.105 62.209 227.105C61.8652 227.105 61.5801 227.048 61.3535 226.934C61.127 226.819 60.9447 226.681 60.8066 226.52C60.6712 226.355 60.5658 226.201 60.4902 226.055H60.4082V227H59.0176ZM60.4043 224C60.4043 224.388 60.459 224.728 60.5684 225.02C60.6803 225.311 60.8405 225.539 61.0488 225.703C61.2598 225.865 61.515 225.945 61.8145 225.945C62.127 225.945 62.3887 225.862 62.5996 225.695C62.8105 225.526 62.9694 225.296 63.0762 225.004C63.1855 224.71 63.2402 224.375 63.2402 224C63.2402 223.628 63.1868 223.297 63.0801 223.008C62.9733 222.719 62.8145 222.492 62.6035 222.328C62.3926 222.164 62.1296 222.082 61.8145 222.082C61.5124 222.082 61.2559 222.161 61.0449 222.32C60.834 222.479 60.6738 222.702 60.5645 222.988C60.4577 223.275 60.4043 223.612 60.4043 224ZM68.501 227.117C67.915 227.117 67.4072 226.988 66.9775 226.73C66.5479 226.473 66.2145 226.112 65.9775 225.648C65.7432 225.185 65.626 224.643 65.626 224.023C65.626 223.404 65.7432 222.861 65.9775 222.395C66.2145 221.928 66.5479 221.566 66.9775 221.309C67.4072 221.051 67.915 220.922 68.501 220.922C69.0869 220.922 69.5947 221.051 70.0244 221.309C70.4541 221.566 70.7861 221.928 71.0205 222.395C71.2575 222.861 71.376 223.404 71.376 224.023C71.376 224.643 71.2575 225.185 71.0205 225.648C70.7861 226.112 70.4541 226.473 70.0244 226.73C69.5947 226.988 69.0869 227.117 68.501 227.117ZM68.5088 225.984C68.8265 225.984 69.0921 225.897 69.3057 225.723C69.5192 225.546 69.6781 225.309 69.7822 225.012C69.889 224.715 69.9424 224.384 69.9424 224.02C69.9424 223.652 69.889 223.32 69.7822 223.023C69.6781 222.724 69.5192 222.486 69.3057 222.309C69.0921 222.132 68.8265 222.043 68.5088 222.043C68.1833 222.043 67.9124 222.132 67.6963 222.309C67.4827 222.486 67.3226 222.724 67.2158 223.023C67.1117 223.32 67.0596 223.652 67.0596 224.02C67.0596 224.384 67.1117 224.715 67.2158 225.012C67.3226 225.309 67.4827 225.546 67.6963 225.723C67.9124 225.897 68.1833 225.984 68.5088 225.984ZM75.1934 227.117C74.5944 227.117 74.0801 226.986 73.6504 226.723C73.2233 226.46 72.8939 226.096 72.6621 225.633C72.4329 225.167 72.3184 224.63 72.3184 224.023C72.3184 223.414 72.4355 222.876 72.6699 222.41C72.9043 221.941 73.235 221.577 73.6621 221.316C74.0918 221.053 74.5996 220.922 75.1855 220.922C75.6725 220.922 76.1035 221.012 76.4785 221.191C76.8561 221.368 77.1569 221.62 77.3809 221.945C77.6048 222.268 77.7324 222.646 77.7637 223.078H76.4121C76.3574 222.789 76.2272 222.548 76.0215 222.355C75.8184 222.16 75.5462 222.062 75.2051 222.062C74.916 222.062 74.6621 222.141 74.4434 222.297C74.2246 222.451 74.054 222.672 73.9316 222.961C73.8118 223.25 73.752 223.596 73.752 224C73.752 224.409 73.8118 224.76 73.9316 225.055C74.0514 225.346 74.2194 225.572 74.4355 225.73C74.6543 225.887 74.9108 225.965 75.2051 225.965C75.4134 225.965 75.5996 225.926 75.7637 225.848C75.9303 225.767 76.0697 225.651 76.1816 225.5C76.2936 225.349 76.3704 225.165 76.4121 224.949H77.7637C77.7298 225.374 77.6048 225.75 77.3887 226.078C77.1725 226.404 76.8783 226.659 76.5059 226.844C76.1335 227.026 75.696 227.117 75.1934 227.117ZM81.542 227.117C80.943 227.117 80.4287 226.986 79.999 226.723C79.5719 226.46 79.2425 226.096 79.0107 225.633C78.7816 225.167 78.667 224.63 78.667 224.023C78.667 223.414 78.7842 222.876 79.0186 222.41C79.2529 221.941 79.5837 221.577 80.0107 221.316C80.4404 221.053 80.9482 220.922 81.5342 220.922C82.0212 220.922 82.4521 221.012 82.8271 221.191C83.2048 221.368 83.5055 221.62 83.7295 221.945C83.9535 222.268 84.0811 222.646 84.1123 223.078H82.7607C82.7061 222.789 82.5758 222.548 82.3701 222.355C82.167 222.16 81.8949 222.062 81.5537 222.062C81.2646 222.062 81.0107 222.141 80.792 222.297C80.5732 222.451 80.4027 222.672 80.2803 222.961C80.1605 223.25 80.1006 223.596 80.1006 224C80.1006 224.409 80.1605 224.76 80.2803 225.055C80.4001 225.346 80.568 225.572 80.7842 225.73C81.0029 225.887 81.2594 225.965 81.5537 225.965C81.762 225.965 81.9482 225.926 82.1123 225.848C82.279 225.767 82.4183 225.651 82.5303 225.5C82.6423 225.349 82.7191 225.165 82.7607 224.949H84.1123C84.0785 225.374 83.9535 225.75 83.7373 226.078C83.5212 226.404 83.2269 226.659 82.8545 226.844C82.4821 227.026 82.0446 227.117 81.542 227.117ZM86.6875 223.484V227H85.2734V219H86.6563V222.02H86.7266C86.8672 221.681 87.0846 221.414 87.3789 221.219C87.6758 221.021 88.0534 220.922 88.5117 220.922C88.9284 220.922 89.2917 221.009 89.6016 221.184C89.9115 221.358 90.151 221.613 90.3203 221.949C90.4922 222.285 90.5781 222.695 90.5781 223.18V227H89.1641V223.398C89.1641 222.995 89.0599 222.681 88.8516 222.457C88.6458 222.23 88.3568 222.117 87.9844 222.117C87.7344 222.117 87.5104 222.172 87.3125 222.281C87.1172 222.388 86.9635 222.543 86.8516 222.746C86.7422 222.949 86.6875 223.195 86.6875 223.484ZM92.0195 227V221H93.4336V227H92.0195ZM92.7305 220.148C92.5065 220.148 92.3138 220.074 92.1523 219.926C91.9909 219.775 91.9102 219.594 91.9102 219.383C91.9102 219.169 91.9909 218.988 92.1523 218.84C92.3138 218.689 92.5065 218.613 92.7305 218.613C92.957 218.613 93.1497 218.689 93.3086 218.84C93.4701 218.988 93.5508 219.169 93.5508 219.383C93.5508 219.594 93.4701 219.775 93.3086 219.926C93.1497 220.074 92.957 220.148 92.7305 220.148Z" fill="black"/>
<path d="M31.7891 160V152H33.2031V154.992H33.2617C33.3346 154.846 33.4375 154.691 33.5703 154.527C33.7031 154.361 33.8828 154.219 34.1094 154.102C34.3359 153.982 34.625 153.922 34.9766 153.922C35.4401 153.922 35.8581 154.04 36.2305 154.277C36.6055 154.512 36.9023 154.859 37.1211 155.32C37.3424 155.779 37.4531 156.341 37.4531 157.008C37.4531 157.667 37.3451 158.227 37.1289 158.687C36.9128 159.148 36.6185 159.5 36.2461 159.742C35.8737 159.984 35.4518 160.105 34.9805 160.105C34.6367 160.105 34.3516 160.048 34.125 159.934C33.8984 159.819 33.7161 159.681 33.5781 159.52C33.4427 159.355 33.3372 159.201 33.2617 159.055H33.1797V160H31.7891ZM33.1758 157C33.1758 157.388 33.2305 157.728 33.3398 158.02C33.4518 158.311 33.612 158.539 33.8203 158.703C34.0313 158.865 34.2865 158.945 34.5859 158.945C34.8984 158.945 35.1602 158.862 35.3711 158.695C35.582 158.526 35.7409 158.296 35.8477 158.004C35.957 157.71 36.0117 157.375 36.0117 157C36.0117 156.628 35.9583 156.297 35.8516 156.008C35.7448 155.719 35.5859 155.492 35.375 155.328C35.1641 155.164 34.901 155.082 34.5859 155.082C34.2839 155.082 34.0273 155.161 33.8164 155.32C33.6055 155.479 33.4453 155.702 33.3359 155.988C33.2292 156.275 33.1758 156.612 33.1758 157ZM41.2725 160.117C40.6865 160.117 40.1787 159.988 39.749 159.73C39.3193 159.473 38.986 159.112 38.749 158.648C38.5146 158.185 38.3975 157.643 38.3975 157.023C38.3975 156.404 38.5146 155.861 38.749 155.395C38.986 154.928 39.3193 154.566 39.749 154.309C40.1787 154.051 40.6865 153.922 41.2725 153.922C41.8584 153.922 42.3662 154.051 42.7959 154.309C43.2256 154.566 43.5576 154.928 43.792 155.395C44.029 155.861 44.1475 156.404 44.1475 157.023C44.1475 157.643 44.029 158.185 43.792 158.648C43.5576 159.112 43.2256 159.473 42.7959 159.73C42.3662 159.988 41.8584 160.117 41.2725 160.117ZM41.2803 158.984C41.598 158.984 41.8636 158.897 42.0771 158.723C42.2907 158.546 42.4495 158.309 42.5537 158.012C42.6605 157.715 42.7139 157.384 42.7139 157.02C42.7139 156.652 42.6605 156.32 42.5537 156.023C42.4495 155.724 42.2907 155.486 42.0771 155.309C41.8636 155.132 41.598 155.043 41.2803 155.043C40.9548 155.043 40.6839 155.132 40.4678 155.309C40.2542 155.486 40.0941 155.724 39.9873 156.023C39.8831 156.32 39.8311 156.652 39.8311 157.02C39.8311 157.384 39.8831 157.715 39.9873 158.012C40.0941 158.309 40.2542 158.546 40.4678 158.723C40.6839 158.897 40.9548 158.984 41.2803 158.984ZM47.9648 160.117C47.3659 160.117 46.8516 159.986 46.4219 159.723C45.9948 159.46 45.6654 159.096 45.4336 158.633C45.2044 158.167 45.0898 157.63 45.0898 157.023C45.0898 156.414 45.207 155.876 45.4414 155.41C45.6758 154.941 46.0065 154.577 46.4336 154.316C46.8633 154.053 47.3711 153.922 47.957 153.922C48.444 153.922 48.875 154.012 49.25 154.191C49.6276 154.368 49.9284 154.62 50.1523 154.945C50.3763 155.268 50.5039 155.646 50.5352 156.078H49.1836C49.1289 155.789 48.9987 155.548 48.793 155.355C48.5898 155.16 48.3177 155.062 47.9766 155.062C47.6875 155.062 47.4336 155.141 47.2148 155.297C46.9961 155.451 46.8255 155.672 46.7031 155.961C46.5833 156.25 46.5234 156.596 46.5234 157C46.5234 157.409 46.5833 157.76 46.7031 158.055C46.8229 158.346 46.9909 158.572 47.207 158.73C47.4258 158.887 47.6823 158.965 47.9766 158.965C48.1849 158.965 48.3711 158.926 48.5352 158.848C48.7018 158.767 48.8411 158.651 48.9531 158.5C49.0651 158.349 49.1419 158.165 49.1836 157.949H50.5352C50.5013 158.374 50.3763 158.75 50.1602 159.078C49.944 159.404 49.6497 159.659 49.2773 159.844C48.9049 160.026 48.4674 160.117 47.9648 160.117ZM54.3135 160.117C53.7145 160.117 53.2002 159.986 52.7705 159.723C52.3434 159.46 52.014 159.096 51.7822 158.633C51.5531 158.167 51.4385 157.63 51.4385 157.023C51.4385 156.414 51.5557 155.876 51.79 155.41C52.0244 154.941 52.3551 154.577 52.7822 154.316C53.2119 154.053 53.7197 153.922 54.3057 153.922C54.7926 153.922 55.2236 154.012 55.5986 154.191C55.9762 154.368 56.277 154.62 56.501 154.945C56.7249 155.268 56.8525 155.646 56.8838 156.078H55.5322C55.4775 155.789 55.3473 155.548 55.1416 155.355C54.9385 155.16 54.6663 155.062 54.3252 155.062C54.0361 155.062 53.7822 155.141 53.5635 155.297C53.3447 155.451 53.1742 155.672 53.0518 155.961C52.932 156.25 52.8721 156.596 52.8721 157C52.8721 157.409 52.932 157.76 53.0518 158.055C53.1715 158.346 53.3395 158.572 53.5557 158.73C53.7744 158.887 54.0309 158.965 54.3252 158.965C54.5335 158.965 54.7197 158.926 54.8838 158.848C55.0505 158.767 55.1898 158.651 55.3018 158.5C55.4137 158.349 55.4906 158.165 55.5322 157.949H56.8838C56.8499 158.374 56.7249 158.75 56.5088 159.078C56.2926 159.404 55.9984 159.659 55.626 159.844C55.2536 160.026 54.8161 160.117 54.3135 160.117ZM59.459 156.484V160H58.0449V152H59.4277V155.02H59.498C59.6387 154.681 59.8561 154.414 60.1504 154.219C60.4473 154.021 60.8249 153.922 61.2832 153.922C61.6999 153.922 62.0632 154.009 62.373 154.184C62.6829 154.358 62.9225 154.613 63.0918 154.949C63.2637 155.285 63.3496 155.695 63.3496 156.18V160H61.9355V156.398C61.9355 155.995 61.8314 155.681 61.623 155.457C61.4173 155.23 61.1283 155.117 60.7559 155.117C60.5059 155.117 60.2819 155.172 60.084 155.281C59.8887 155.388 59.735 155.543 59.623 155.746C59.5137 155.949 59.459 156.195 59.459 156.484ZM64.791 160V154H66.2051V160H64.791ZM65.502 153.148C65.278 153.148 65.0853 153.074 64.9238 152.926C64.7624 152.775 64.6816 152.594 64.6816 152.383C64.6816 152.169 64.7624 151.988 64.9238 151.84C65.0853 151.689 65.278 151.613 65.502 151.613C65.7285 151.613 65.9212 151.689 66.0801 151.84C66.2415 151.988 66.3223 152.169 66.3223 152.383C66.3223 152.594 66.2415 152.775 66.0801 152.926C65.9212 153.074 65.7285 153.148 65.502 153.148Z" fill="black"/>
<rect x="236" y="27" width="15" height="14" fill="#525252"/>
<path d="M243.667 36.3333C244.858 36.3333 245.833 35.3583 245.833 34.1667C245.833 32.975 244.858 32 243.667 32C242.475 32 241.5 32.975 241.5 34.1667C241.5 35.3583 242.475 36.3333 243.667 36.3333ZM250.167 26.5833H249.083V24.4167C249.083 21.4267 246.657 19 243.667 19C240.677 19 238.25 21.4267 238.25 24.4167H240.308C240.308 22.5642 241.814 21.0583 243.667 21.0583C245.519 21.0583 247.025 22.5642 247.025 24.4167V26.5833H237.167C235.975 26.5833 235 27.5583 235 28.75V39.5833C235 40.775 235.975 41.75 237.167 41.75H250.167C251.358 41.75 252.333 40.775 252.333 39.5833V28.75C252.333 27.5583 251.358 26.5833 250.167 26.5833ZM250.167 39.5833H237.167V28.75H250.167V39.5833Z" fill="#525252"/>
<path d="M246 34.25C246 35.4926 244.993 36.5 243.75 36.5C242.507 36.5 241.5 35.4926 241.5 34.25C241.5 33.0074 242.507 32 243.75 32C244.993 32 246 33.0074 246 34.25Z" fill="#F4F0E8"/>
<path d="M75.5 92L105.5 92" stroke="black" stroke-width="2"/>
<path d="M124 92L154 92" stroke="black" stroke-width="2"/>
<path d="M171 92L201 92" stroke="black" stroke-width="2"/>
<path d="M115 108L97.6795 78.75H132.321L115 108Z" fill="#2431A1"/>
<path d="M162 108L144.679 78.75H179.321L162 108Z" fill="#00FFEF"/>
<path d="M209 108L191.679 78.75H226.321L209 108Z" fill="#39385E"/>
<path d="M68 108L50.6795 78.75H85.3205L68 108Z" fill="#49D5D0"/>
<path d="M208 196H216.322C216.676 196.002 217.02 195.881 217.294 195.656C217.568 195.432 217.755 195.118 217.822 194.771L218.474 191.271C218.514 191.056 218.507 190.836 218.451 190.625C218.396 190.414 218.296 190.218 218.156 190.051C218.012 189.878 217.831 189.739 217.627 189.644C217.423 189.548 217.2 189.499 216.974 189.5H214.589V187.5C214.589 186.469 213.533 186 212.551 186C212.418 186 212.291 186.053 212.197 186.146C212.104 186.24 212.051 186.367 212.051 186.5C212.051 187.454 211.881 188.455 211.689 188.642L210.296 190H208C207.867 190 207.74 190.053 207.646 190.146C207.553 190.24 207.5 190.367 207.5 190.5V195.5C207.5 195.633 207.553 195.76 207.646 195.854C207.74 195.947 207.867 196 208 196ZM211 190.71L212.387 189.36C212.852 188.907 212.993 187.805 213.037 187.069C213.308 187.133 213.591 187.259 213.591 187.503V190.003C213.591 190.135 213.644 190.262 213.738 190.356C213.832 190.45 213.959 190.503 214.091 190.503H216.977C217.055 190.502 217.133 190.519 217.204 190.552C217.275 190.584 217.339 190.632 217.389 190.693C217.435 190.747 217.469 190.811 217.487 190.881C217.505 190.95 217.507 191.022 217.494 191.093L216.844 194.592C216.818 194.711 216.752 194.816 216.657 194.891C216.561 194.965 216.443 195.004 216.322 195H211V190.71ZM208.5 191H210V195H208.5V191Z" fill="#00286E"/>
<path fill-rule="evenodd" clip-rule="evenodd" d="M138.5 189C139.881 189 141 187.881 141 186.5C141 185.119 139.881 184 138.5 184C137.119 184 136 185.119 136 186.5C136 187.881 137.119 189 138.5 189ZM138.5 187.5C139.052 187.5 139.5 187.052 139.5 186.5C139.5 185.948 139.052 185.5 138.5 185.5C137.948 185.5 137.5 185.948 137.5 186.5C137.5 187.052 137.948 187.5 138.5 187.5Z" fill="#2431A1"/>
<path fill-rule="evenodd" clip-rule="evenodd" d="M146.5 192C147.881 192 149 190.881 149 189.5C149 188.119 147.881 187 146.5 187C145.119 187 144 188.119 144 189.5C144 190.881 145.119 192 146.5 192ZM146.5 190.5C147.052 190.5 147.5 190.052 147.5 189.5C147.5 188.948 147.052 188.5 146.5 188.5C145.948 188.5 145.5 188.948 145.5 189.5C145.5 190.052 145.948 190.5 146.5 190.5Z" fill="#2431A1"/>
<path fill-rule="evenodd" clip-rule="evenodd" d="M138.5 199C139.881 199 141 197.881 141 196.5C141 195.119 139.881 194 138.5 194C137.119 194 136 195.119 136 196.5C136 197.881 137.119 199 138.5 199ZM138.5 197.5C139.052 197.5 139.5 197.052 139.5 196.5C139.5 195.948 139.052 195.5 138.5 195.5C137.948 195.5 137.5 195.948 137.5 196.5C137.5 197.052 137.948 197.5 138.5 197.5Z" fill="#2431A1"/>
<path d="M138 189.3V188H139.5V189.3V189.95V191.9V194.5H139H138V193.85V193.2V191.9V190.6V189.3Z" fill="#2431A1" stroke="#2431A1" stroke-width="0.1"/>
<path fill-rule="evenodd" clip-rule="evenodd" d="M144.992 191H146.99C146.991 191.156 146.993 191.298 146.995 191.431C147 191.824 147.005 192.141 146.99 192.5L146.324 193.5L145.658 194L144.327 194.5L142.329 195H140.997H139V193.258H141.036C141.732 193.236 142.271 193.196 142.633 193.169C142.823 193.155 142.963 193.145 143.051 193.143C143.24 193.112 143.365 193.061 143.453 193.001C144.173 192.997 144.772 192.654 144.91 192.2C144.949 192.153 144.978 192.088 144.992 192C145.051 191.632 145.031 191.471 145.011 191.312C145 191.22 144.989 191.129 144.992 191Z" fill="#2431A1"/>
<path d="M146.99 191L147.04 191L147.039 190.95H146.99V191ZM144.992 191V190.95H144.944L144.942 190.999L144.992 191ZM146.995 191.431L146.945 191.432V191.432L146.995 191.431ZM146.99 192.5L147.031 192.528L147.039 192.516L147.04 192.502L146.99 192.5ZM146.324 193.5L146.354 193.54L146.361 193.535L146.366 193.528L146.324 193.5ZM145.658 194L145.676 194.047L145.682 194.044L145.688 194.04L145.658 194ZM144.327 194.5L144.339 194.549L144.344 194.547L144.327 194.5ZM142.329 195V195.052L142.341 195.049L142.329 195ZM139 195H138.95V195.05H139V195ZM139 193.258V193.208H138.95V193.258H139ZM141.036 193.258V193.308L141.037 193.308L141.036 193.258ZM142.633 193.169L142.629 193.119L142.633 193.169ZM143.051 193.143L143.052 193.193L143.059 193.192L143.051 193.143ZM143.453 193.001L143.453 192.951L143.438 192.951L143.425 192.96L143.453 193.001ZM144.91 192.2L144.871 192.168L144.865 192.176L144.862 192.186L144.91 192.2ZM144.992 192L144.943 191.992V191.992L144.992 192ZM145.011 191.312L144.962 191.318V191.318L145.011 191.312ZM146.99 190.95H144.992V191.05H146.99V190.95ZM147.045 191.431C147.043 191.297 147.041 191.155 147.04 191L146.94 191C146.941 191.156 146.943 191.299 146.945 191.432L147.045 191.431ZM147.04 192.502C147.055 192.142 147.05 191.824 147.045 191.431L146.945 191.432C146.95 191.825 146.955 192.141 146.94 192.498L147.04 192.502ZM146.366 193.528L147.031 192.528L146.948 192.472L146.282 193.472L146.366 193.528ZM145.688 194.04L146.354 193.54L146.294 193.46L145.628 193.96L145.688 194.04ZM144.344 194.547L145.676 194.047L145.641 193.953L144.309 194.453L144.344 194.547ZM142.341 195.049L144.339 194.549L144.314 194.451L142.317 194.951L142.341 195.049ZM140.997 195.05H142.329V194.95H140.997V195.05ZM139 195.05H140.997V194.95H139V195.05ZM138.95 193.258V195H139.05V193.258H138.95ZM141.036 193.208H139V193.308H141.036V193.208ZM142.629 193.119C142.268 193.146 141.729 193.186 141.034 193.208L141.037 193.308C141.734 193.286 142.275 193.246 142.636 193.219L142.629 193.119ZM143.05 193.093C142.96 193.095 142.818 193.105 142.629 193.119L142.636 193.219C142.827 193.205 142.966 193.195 143.052 193.193L143.05 193.093ZM143.425 192.96C143.344 193.015 143.227 193.064 143.043 193.093L143.059 193.192C143.253 193.161 143.385 193.108 143.481 193.042L143.425 192.96ZM144.862 192.186C144.798 192.397 144.625 192.587 144.375 192.725C144.127 192.864 143.805 192.949 143.453 192.951L143.454 193.051C143.821 193.049 144.159 192.96 144.424 192.813C144.689 192.666 144.884 192.458 144.957 192.215L144.862 192.186ZM144.943 191.992C144.93 192.073 144.904 192.129 144.871 192.168L144.948 192.232C144.995 192.176 145.027 192.103 145.042 192.008L144.943 191.992ZM144.962 191.318C144.981 191.474 145.001 191.63 144.943 191.992L145.042 192.008C145.101 191.634 145.081 191.468 145.061 191.305L144.962 191.318ZM144.942 190.999C144.938 191.132 144.95 191.226 144.962 191.318L145.061 191.305C145.05 191.214 145.039 191.127 145.042 191.001L144.942 190.999Z" fill="#2431A1"/>
<defs>
<filter id="filter0_d_1440_3718" x="0" y="0" width="279" height="282" filterUnits="userSpaceOnUse" color-interpolation-filters="sRGB">
<feFlood flood-opacity="0" result="BackgroundImageFix"/>
<feColorMatrix in="SourceAlpha" type="matrix" values="0 0 0 0 0 0 0 0 0 0 0 0 0 0 0 0 0 0 127 0" result="hardAlpha"/>
<feOffset dy="4"/>
<feGaussianBlur stdDeviation="5"/>
<feComposite in2="hardAlpha" operator="out"/>
<feColorMatrix type="matrix" values="0 0 0 0 0 0 0 0 0 0 0 0 0 0 0 0 0 0 0.08 0"/>
<feBlend mode="normal" in2="BackgroundImageFix" result="effect1_dropShadow_1440_3718"/>
<feBlend mode="normal" in="SourceGraphic" in2="effect1_dropShadow_1440_3718" result="shape"/>
</filter>
<filter id="filter1_d_1440_3718" x="190" y="176" width="75" height="39" filterUnits="userSpaceOnUse" color-interpolation-filters="sRGB">
<feFlood flood-opacity="0" result="BackgroundImageFix"/>
<feColorMatrix in="SourceAlpha" type="matrix" values="0 0 0 0 0 0 0 0 0 0 0 0 0 0 0 0 0 0 127 0" result="hardAlpha"/>
<feOffset dy="4"/>
<feGaussianBlur stdDeviation="5"/>
<feComposite in2="hardAlpha" operator="out"/>
<feColorMatrix type="matrix" values="0 0 0 0 0 0 0 0 0 0 0 0 0 0 0 0 0 0 0.05 0"/>
<feBlend mode="normal" in2="BackgroundImageFix" result="effect1_dropShadow_1440_3718"/>
<feBlend mode="normal" in="SourceGraphic" in2="effect1_dropShadow_1440_3718" result="shape"/>
</filter>
<filter id="filter2_d_1440_3718" x="120" y="176" width="75" height="39" filterUnits="userSpaceOnUse" color-interpolation-filters="sRGB">
<feFlood flood-opacity="0" result="BackgroundImageFix"/>
<feColorMatrix in="SourceAlpha" type="matrix" values="0 0 0 0 0 0 0 0 0 0 0 0 0 0 0 0 0 0 127 0" result="hardAlpha"/>
<feOffset dy="4"/>
<feGaussianBlur stdDeviation="5"/>
<feComposite in2="hardAlpha" operator="out"/>
<feColorMatrix type="matrix" values="0 0 0 0 0 0 0 0 0 0 0 0 0 0 0 0 0 0 0.05 0"/>
<feBlend mode="normal" in2="BackgroundImageFix" result="effect1_dropShadow_1440_3718"/>
<feBlend mode="normal" in="SourceGraphic" in2="effect1_dropShadow_1440_3718" result="shape"/>
</filter>
</defs>
</svg>
