<svg width="279" height="282" viewBox="0 0 279 282" fill="none" xmlns="http://www.w3.org/2000/svg">
<g filter="url(#filter0_d_1288_1596)">
<rect x="10" y="6" width="259" height="262" rx="30" fill="white"/>
<rect x="10.5" y="6.5" width="258" height="261" rx="29.5" stroke="#D9D9D9"/>
</g>
<rect x="15" y="13" width="248" height="154" rx="30" fill="#F2F2F2"/>
<path d="M20.7784 197H16.1378V183.909H20.8168C22.1335 183.909 23.267 184.171 24.2173 184.695C25.1676 185.215 25.8984 185.963 26.4098 186.939C26.9254 187.915 27.1832 189.082 27.1832 190.442C27.1832 191.805 26.9254 192.977 26.4098 193.957C25.8984 194.937 25.1634 195.69 24.2045 196.214C23.25 196.738 22.108 197 20.7784 197ZM18.9055 194.629H20.6634C21.4815 194.629 22.1697 194.484 22.728 194.194C23.2905 193.9 23.7124 193.446 23.9936 192.832C24.2791 192.214 24.4219 191.418 24.4219 190.442C24.4219 189.474 24.2791 188.684 23.9936 188.07C23.7124 187.457 23.2926 187.005 22.7344 186.715C22.1761 186.425 21.4879 186.281 20.6697 186.281H18.9055V194.629ZM33.6568 197.192C32.6468 197.192 31.7775 196.987 31.0488 196.578C30.3244 196.165 29.7662 195.581 29.3741 194.827C28.9821 194.068 28.786 193.171 28.786 192.136C28.786 191.126 28.9821 190.239 29.3741 189.477C29.7662 188.714 30.318 188.119 31.0297 187.693C31.7456 187.267 32.585 187.054 33.5481 187.054C34.1958 187.054 34.7988 187.158 35.3571 187.367C35.9196 187.572 36.4096 187.881 36.8272 188.294C37.2491 188.707 37.5772 189.227 37.8116 189.854C38.046 190.476 38.1632 191.205 38.1632 192.04V192.788H29.8727V191.1H35.6C35.6 190.708 35.5147 190.361 35.3443 190.058C35.1738 189.756 34.9373 189.519 34.6348 189.349C34.3365 189.174 33.9892 189.087 33.5929 189.087C33.1795 189.087 32.813 189.183 32.4934 189.374C32.1781 189.562 31.9309 189.815 31.752 190.135C31.573 190.45 31.4814 190.802 31.4771 191.19V192.794C31.4771 193.28 31.5666 193.7 31.7456 194.053C31.9288 194.407 32.1866 194.68 32.519 194.871C32.8514 195.063 33.2456 195.159 33.7015 195.159C34.0041 195.159 34.2811 195.116 34.5325 195.031C34.7839 194.946 34.9991 194.818 35.1781 194.648C35.3571 194.477 35.4934 194.268 35.5872 194.021L38.1056 194.188C37.9778 194.793 37.7157 195.321 37.3194 195.773C36.9274 196.22 36.4203 196.57 35.7981 196.821C35.1802 197.068 34.4664 197.192 33.6568 197.192ZM48.1092 189.982L45.6163 190.135C45.5737 189.922 45.4821 189.73 45.3414 189.56C45.2008 189.385 45.0154 189.246 44.7853 189.144C44.5595 189.038 44.2889 188.984 43.9735 188.984C43.5517 188.984 43.1958 189.074 42.9061 189.253C42.6163 189.428 42.4714 189.662 42.4714 189.956C42.4714 190.19 42.5652 190.388 42.7527 190.55C42.9402 190.712 43.2619 190.842 43.7179 190.94L45.4949 191.298C46.4494 191.494 47.161 191.81 47.6298 192.244C48.0985 192.679 48.3329 193.25 48.3329 193.957C48.3329 194.601 48.1433 195.165 47.764 195.651C47.389 196.137 46.8734 196.516 46.2172 196.789C45.5652 197.058 44.813 197.192 43.9608 197.192C42.661 197.192 41.6255 196.921 40.8542 196.38C40.0872 195.835 39.6376 195.093 39.5055 194.156L42.1838 194.015C42.2647 194.411 42.4608 194.714 42.7718 194.923C43.0829 195.127 43.4814 195.229 43.9672 195.229C44.4444 195.229 44.8279 195.138 45.1177 194.955C45.4118 194.767 45.5609 194.526 45.5652 194.232C45.5609 193.985 45.4565 193.783 45.252 193.625C45.0474 193.463 44.7321 193.339 44.3059 193.254L42.6056 192.915C41.6468 192.724 40.9331 192.391 40.4643 191.918C39.9998 191.445 39.7676 190.842 39.7676 190.109C39.7676 189.479 39.938 188.935 40.2789 188.479C40.6241 188.023 41.1078 187.672 41.7299 187.425C42.3564 187.178 43.0893 187.054 43.9288 187.054C45.1689 187.054 46.1447 187.316 46.8564 187.84C47.5723 188.364 47.9899 189.078 48.1092 189.982ZM50.0476 197V187.182H52.7706V197H50.0476ZM51.4155 185.916C51.0107 185.916 50.6634 185.782 50.3736 185.513C50.0881 185.241 49.9453 184.915 49.9453 184.536C49.9453 184.161 50.0881 183.839 50.3736 183.57C50.6634 183.298 51.0107 183.161 51.4155 183.161C51.8203 183.161 52.1655 183.298 52.451 183.57C52.7408 183.839 52.8857 184.161 52.8857 184.536C52.8857 184.915 52.7408 185.241 52.451 185.513C52.1655 185.782 51.8203 185.916 51.4155 185.916ZM59.3752 200.886C58.4931 200.886 57.7367 200.765 57.106 200.522C56.4796 200.283 55.981 199.957 55.6103 199.544C55.2395 199.131 54.9988 198.666 54.888 198.151L57.4064 197.812C57.4831 198.008 57.6046 198.191 57.7708 198.362C57.937 198.532 58.1564 198.668 58.4292 198.771C58.7061 198.877 59.0428 198.93 59.4391 198.93C60.0314 198.93 60.5194 198.786 60.9029 198.496C61.2907 198.21 61.4846 197.731 61.4846 197.058V195.261H61.3695C61.2502 195.534 61.0712 195.792 60.8326 196.035C60.5939 196.278 60.2871 196.476 59.9121 196.629C59.5371 196.783 59.0897 196.859 58.5698 196.859C57.8326 196.859 57.1614 196.689 56.5563 196.348C55.9554 196.003 55.476 195.477 55.1181 194.769C54.7644 194.058 54.5875 193.158 54.5875 192.072C54.5875 190.96 54.7686 190.031 55.1309 189.285C55.4931 188.539 55.9746 187.981 56.5755 187.61C57.1806 187.239 57.8432 187.054 58.5634 187.054C59.1131 187.054 59.5733 187.148 59.9441 187.335C60.3148 187.518 60.6131 187.749 60.839 188.026C61.0691 188.298 61.2459 188.567 61.3695 188.831H61.4718V187.182H64.1756V197.096C64.1756 197.931 63.9711 198.63 63.562 199.192C63.1529 199.755 62.5861 200.177 61.8617 200.458C61.1415 200.744 60.3127 200.886 59.3752 200.886ZM59.4327 194.814C59.8716 194.814 60.2424 194.705 60.5449 194.488C60.8517 194.266 61.0861 193.951 61.248 193.542C61.4142 193.129 61.4973 192.634 61.4973 192.059C61.4973 191.484 61.4164 190.985 61.2544 190.563C61.0925 190.137 60.8581 189.807 60.5513 189.572C60.2445 189.338 59.8716 189.221 59.4327 189.221C58.9853 189.221 58.6081 189.342 58.3013 189.585C57.9945 189.824 57.7623 190.156 57.6046 190.582C57.4469 191.009 57.3681 191.501 57.3681 192.059C57.3681 192.626 57.4469 193.116 57.6046 193.529C57.7665 193.938 57.9988 194.256 58.3013 194.482C58.6081 194.703 58.9853 194.814 59.4327 194.814ZM69.0655 191.324V197H66.3425V187.182H68.9377V188.914H69.0527C69.2701 188.343 69.6344 187.891 70.1458 187.559C70.6571 187.222 71.2772 187.054 72.0059 187.054C72.6877 187.054 73.2821 187.203 73.7892 187.501C74.2963 187.8 74.6905 188.226 74.9718 188.78C75.253 189.33 75.3936 189.986 75.3936 190.749V197H72.6706V191.234C72.6749 190.634 72.5215 190.165 72.2104 189.828C71.8993 189.487 71.4711 189.317 70.9256 189.317C70.5591 189.317 70.2353 189.396 69.954 189.553C69.677 189.711 69.4597 189.941 69.302 190.244C69.1486 190.542 69.0698 190.902 69.0655 191.324ZM81.7058 200.682V187.182H84.3904V188.831H84.5119C84.6312 188.567 84.8038 188.298 85.0297 188.026C85.2598 187.749 85.5581 187.518 85.9245 187.335C86.2953 187.148 86.7555 187.054 87.3052 187.054C88.0211 187.054 88.6816 187.241 89.2868 187.616C89.8919 187.987 90.3755 188.548 90.7377 189.298C91.1 190.043 91.2811 190.979 91.2811 192.104C91.2811 193.199 91.1042 194.124 90.7505 194.878C90.4011 195.628 89.9238 196.197 89.3187 196.585C88.7179 196.968 88.0446 197.16 87.2988 197.16C86.7704 197.16 86.3208 197.072 85.9501 196.898C85.5836 196.723 85.2832 196.504 85.0488 196.239C84.8145 195.971 84.6355 195.7 84.5119 195.428H84.4288V200.682H81.7058ZM84.3713 192.091C84.3713 192.675 84.4522 193.184 84.6142 193.619C84.7761 194.053 85.0105 194.392 85.3173 194.635C85.6241 194.874 85.997 194.993 86.4359 194.993C86.8791 194.993 87.2541 194.871 87.5609 194.629C87.8677 194.381 88.1 194.04 88.2576 193.606C88.4196 193.167 88.5005 192.662 88.5005 192.091C88.5005 191.524 88.4217 191.026 88.264 190.595C88.1064 190.165 87.8741 189.828 87.5673 189.585C87.2605 189.342 86.8833 189.221 86.4359 189.221C85.9927 189.221 85.6177 189.338 85.3109 189.572C85.0083 189.807 84.7761 190.139 84.6142 190.57C84.4522 191 84.3713 191.507 84.3713 192.091ZM93.0964 197V187.182H95.7363V188.895H95.8386C96.0176 188.286 96.318 187.825 96.7399 187.514C97.1618 187.199 97.6475 187.041 98.1973 187.041C98.3336 187.041 98.4806 187.05 98.6383 187.067C98.796 187.084 98.9345 187.107 99.0538 187.137V189.553C98.926 189.515 98.7491 189.481 98.5233 189.451C98.2974 189.421 98.0907 189.406 97.9032 189.406C97.5027 189.406 97.1447 189.494 96.8294 189.668C96.5183 189.839 96.2711 190.077 96.0879 190.384C95.9089 190.691 95.8194 191.045 95.8194 191.445V197H93.0964ZM104.441 197.192C103.448 197.192 102.589 196.981 101.865 196.559C101.145 196.133 100.588 195.54 100.196 194.782C99.8043 194.019 99.6083 193.135 99.6083 192.129C99.6083 191.115 99.8043 190.229 100.196 189.47C100.588 188.707 101.145 188.115 101.865 187.693C102.589 187.267 103.448 187.054 104.441 187.054C105.434 187.054 106.29 187.267 107.01 187.693C107.735 188.115 108.293 188.707 108.685 189.47C109.077 190.229 109.273 191.115 109.273 192.129C109.273 193.135 109.077 194.019 108.685 194.782C108.293 195.54 107.735 196.133 107.01 196.559C106.29 196.981 105.434 197.192 104.441 197.192ZM104.453 195.082C104.905 195.082 105.282 194.955 105.585 194.699C105.887 194.439 106.115 194.085 106.269 193.638C106.426 193.19 106.505 192.681 106.505 192.11C106.505 191.539 106.426 191.03 106.269 190.582C106.115 190.135 105.887 189.781 105.585 189.521C105.282 189.261 104.905 189.131 104.453 189.131C103.998 189.131 103.614 189.261 103.303 189.521C102.996 189.781 102.764 190.135 102.606 190.582C102.453 191.03 102.376 191.539 102.376 192.11C102.376 192.681 102.453 193.19 102.606 193.638C102.764 194.085 102.996 194.439 103.303 194.699C103.614 194.955 103.998 195.082 104.453 195.082ZM111.044 187.182H113.767V197.486C113.767 198.244 113.618 198.858 113.319 199.327C113.021 199.795 112.593 200.138 112.034 200.356C111.48 200.573 110.818 200.682 110.047 200.682C109.953 200.682 109.863 200.68 109.778 200.675C109.689 200.675 109.595 200.673 109.497 200.669V198.54C109.569 198.545 109.633 198.547 109.689 198.547C109.74 198.551 109.795 198.553 109.855 198.553C110.294 198.553 110.6 198.46 110.775 198.272C110.954 198.089 111.044 197.812 111.044 197.441V187.182ZM112.399 185.916C111.998 185.916 111.653 185.782 111.363 185.513C111.074 185.241 110.929 184.915 110.929 184.536C110.929 184.161 111.074 183.839 111.363 183.57C111.653 183.298 111.998 183.161 112.399 183.161C112.808 183.161 113.155 183.298 113.441 183.57C113.73 183.839 113.875 184.161 113.875 184.536C113.875 184.915 113.73 185.241 113.441 185.513C113.155 185.782 112.808 185.916 112.399 185.916Z" fill="black"/>
<path d="M219 6H239C255.569 6 269 19.4315 269 36V56H219V6Z" fill="#D9D9D9" fill-opacity="0.3"/>
<path d="M62.5156 256.977C62.3229 256.977 62.1576 256.908 62.0195 256.77C61.8815 256.632 61.8125 256.466 61.8125 256.273C61.8125 256.081 61.8815 255.915 62.0195 255.777C62.1576 255.639 62.3229 255.57 62.5156 255.57C62.7083 255.57 62.8737 255.639 63.0117 255.777C63.1497 255.915 63.2188 256.081 63.2188 256.273C63.2188 256.401 63.1862 256.518 63.1211 256.625C63.0586 256.732 62.974 256.818 62.8672 256.883C62.763 256.945 62.6458 256.977 62.5156 256.977ZM62.5156 252.93C62.3229 252.93 62.1576 252.861 62.0195 252.723C61.8815 252.585 61.8125 252.419 61.8125 252.227C61.8125 252.034 61.8815 251.868 62.0195 251.73C62.1576 251.592 62.3229 251.523 62.5156 251.523C62.7083 251.523 62.8737 251.592 63.0117 251.73C63.1497 251.868 63.2188 252.034 63.2188 252.227C63.2188 252.354 63.1862 252.471 63.1211 252.578C63.0586 252.685 62.974 252.771 62.8672 252.836C62.763 252.898 62.6458 252.93 62.5156 252.93ZM70.5137 258.109C69.9772 258.109 69.5033 258.014 69.0918 257.824C68.6829 257.632 68.3639 257.367 68.1348 257.031C67.9056 256.693 67.7923 256.307 67.7949 255.875C67.7923 255.536 67.8587 255.224 67.9941 254.937C68.1296 254.648 68.3145 254.408 68.5488 254.215C68.7858 254.02 69.0501 253.896 69.3418 253.844V253.797C68.959 253.698 68.6543 253.483 68.4277 253.152C68.2012 252.819 68.0892 252.44 68.0918 252.016C68.0892 251.609 68.1921 251.246 68.4004 250.926C68.6087 250.605 68.8952 250.353 69.2598 250.168C69.627 249.983 70.0449 249.891 70.5137 249.891C70.9772 249.891 71.3913 249.983 71.7559 250.168C72.1204 250.353 72.4069 250.605 72.6152 250.926C72.8262 251.246 72.9329 251.609 72.9355 252.016C72.9329 252.44 72.8171 252.819 72.5879 253.152C72.3613 253.483 72.0605 253.698 71.6855 253.797V253.844C71.9746 253.896 72.235 254.02 72.4668 254.215C72.6986 254.408 72.8835 254.648 73.0215 254.937C73.1595 255.224 73.2298 255.536 73.2324 255.875C73.2298 256.307 73.1126 256.693 72.8809 257.031C72.6517 257.367 72.3327 257.632 71.9238 257.824C71.5176 258.014 71.0475 258.109 70.5137 258.109ZM70.5137 257.25C70.8757 257.25 71.1882 257.191 71.4512 257.074C71.7142 256.957 71.9173 256.792 72.0605 256.578C72.2038 256.365 72.2767 256.115 72.2793 255.828C72.2767 255.526 72.1986 255.259 72.0449 255.027C71.8913 254.796 71.6816 254.613 71.416 254.48C71.153 254.348 70.8522 254.281 70.5137 254.281C70.1725 254.281 69.8678 254.348 69.5996 254.48C69.334 254.613 69.1243 254.796 68.9707 255.027C68.8197 255.259 68.7454 255.526 68.748 255.828C68.7454 256.115 68.8145 256.365 68.9551 256.578C69.0983 256.792 69.3027 256.957 69.5684 257.074C69.834 257.191 70.1491 257.25 70.5137 257.25ZM70.5137 253.453C70.8001 253.453 71.054 253.396 71.2754 253.281C71.4993 253.167 71.6751 253.007 71.8027 252.801C71.9303 252.595 71.9954 252.354 71.998 252.078C71.9954 251.807 71.9316 251.572 71.8066 251.371C71.6816 251.168 71.5085 251.012 71.2871 250.902C71.0658 250.79 70.8079 250.734 70.5137 250.734C70.2142 250.734 69.9525 250.79 69.7285 250.902C69.5046 251.012 69.3314 251.168 69.209 251.371C69.0866 251.572 69.0267 251.807 69.0293 252.078C69.0267 252.354 69.0879 252.595 69.2129 252.801C69.3405 253.007 69.5163 253.167 69.7402 253.281C69.9642 253.396 70.222 253.453 70.5137 253.453ZM74.7295 258V257.297L77.3701 254.406C77.68 254.068 77.9352 253.773 78.1357 253.523C78.3363 253.271 78.4847 253.034 78.5811 252.812C78.68 252.589 78.7295 252.354 78.7295 252.109C78.7295 251.828 78.6618 251.585 78.5264 251.379C78.3936 251.173 78.2113 251.014 77.9795 250.902C77.7477 250.79 77.4873 250.734 77.1982 250.734C76.891 250.734 76.6227 250.798 76.3936 250.926C76.167 251.051 75.9912 251.227 75.8662 251.453C75.7438 251.68 75.6826 251.945 75.6826 252.25H74.7607C74.7607 251.781 74.8688 251.37 75.085 251.016C75.3011 250.661 75.5954 250.385 75.9678 250.187C76.3428 249.99 76.7633 249.891 77.2295 249.891C77.6982 249.891 78.1136 249.99 78.4756 250.187C78.8376 250.385 79.1214 250.652 79.3271 250.988C79.5329 251.324 79.6357 251.698 79.6357 252.109C79.6357 252.404 79.5824 252.691 79.4756 252.973C79.3714 253.251 79.1891 253.562 78.9287 253.906C78.6709 254.247 78.3128 254.664 77.8545 255.156L76.0576 257.078V257.141H79.7764V258H74.7295ZM84.0928 258.109C83.5771 258.109 83.1175 258.021 82.7139 257.844C82.3128 257.667 81.9938 257.421 81.7568 257.105C81.5225 256.788 81.3949 256.419 81.374 256H82.3584C82.3792 256.258 82.4678 256.48 82.624 256.668C82.7803 256.853 82.9847 256.996 83.2373 257.098C83.4899 257.199 83.7699 257.25 84.0771 257.25C84.4209 257.25 84.7256 257.19 84.9912 257.07C85.2568 256.951 85.4652 256.784 85.6162 256.57C85.7673 256.357 85.8428 256.109 85.8428 255.828C85.8428 255.534 85.7699 255.275 85.624 255.051C85.4782 254.824 85.2646 254.647 84.9834 254.52C84.7021 254.392 84.3584 254.328 83.9521 254.328H83.3115V253.469H83.9521C84.2699 253.469 84.5485 253.411 84.7881 253.297C85.0303 253.182 85.2191 253.021 85.3545 252.812C85.4925 252.604 85.5615 252.359 85.5615 252.078C85.5615 251.807 85.5016 251.572 85.3818 251.371C85.262 251.171 85.0928 251.014 84.874 250.902C84.6579 250.79 84.4027 250.734 84.1084 250.734C83.8324 250.734 83.5719 250.785 83.3271 250.887C83.085 250.986 82.887 251.13 82.7334 251.32C82.5798 251.508 82.4964 251.734 82.4834 252H81.5459C81.5615 251.581 81.6878 251.214 81.9248 250.898C82.1618 250.581 82.4717 250.333 82.8545 250.156C83.2399 249.979 83.6631 249.891 84.124 249.891C84.6188 249.891 85.0433 249.991 85.3975 250.191C85.7516 250.389 86.0238 250.651 86.2139 250.977C86.404 251.302 86.499 251.654 86.499 252.031C86.499 252.482 86.3805 252.866 86.1436 253.184C85.9092 253.501 85.5902 253.721 85.1865 253.844V253.906C85.6917 253.99 86.0863 254.204 86.3701 254.551C86.654 254.895 86.7959 255.32 86.7959 255.828C86.7959 256.263 86.6774 256.654 86.4404 257C86.2061 257.344 85.8857 257.615 85.4795 257.812C85.0732 258.01 84.611 258.109 84.0928 258.109ZM96.4092 252L94.1904 258H93.2529L91.0342 252H92.0342L93.6904 256.781H93.7529L95.4092 252H96.4092ZM97.626 258V252H98.5479V258H97.626ZM98.0947 251C97.915 251 97.7601 250.939 97.6299 250.816C97.5023 250.694 97.4385 250.547 97.4385 250.375C97.4385 250.203 97.5023 250.056 97.6299 249.934C97.7601 249.811 97.915 249.75 98.0947 249.75C98.2744 249.75 98.4281 249.811 98.5557 249.934C98.6859 250.056 98.751 250.203 98.751 250.375C98.751 250.547 98.6859 250.694 98.5557 250.816C98.4281 250.939 98.2744 251 98.0947 251ZM102.752 258.125C102.174 258.125 101.675 257.997 101.256 257.742C100.839 257.484 100.518 257.125 100.291 256.664C100.067 256.201 99.9551 255.661 99.9551 255.047C99.9551 254.432 100.067 253.891 100.291 253.422C100.518 252.951 100.833 252.583 101.236 252.32C101.643 252.055 102.117 251.922 102.658 251.922C102.971 251.922 103.279 251.974 103.584 252.078C103.889 252.182 104.166 252.352 104.416 252.586C104.666 252.818 104.865 253.125 105.014 253.508C105.162 253.891 105.236 254.362 105.236 254.922V255.312H100.611V254.516H104.299C104.299 254.177 104.231 253.875 104.096 253.609C103.963 253.344 103.773 253.134 103.525 252.98C103.281 252.827 102.992 252.75 102.658 252.75C102.291 252.75 101.973 252.841 101.705 253.023C101.439 253.203 101.235 253.437 101.092 253.727C100.949 254.016 100.877 254.326 100.877 254.656V255.188C100.877 255.641 100.955 256.025 101.111 256.34C101.27 256.652 101.49 256.891 101.771 257.055C102.053 257.216 102.38 257.297 102.752 257.297C102.994 257.297 103.213 257.263 103.408 257.195C103.606 257.125 103.777 257.021 103.92 256.883C104.063 256.742 104.174 256.568 104.252 256.359L105.143 256.609C105.049 256.911 104.891 257.177 104.67 257.406C104.449 257.633 104.175 257.81 103.85 257.937C103.524 258.063 103.158 258.125 102.752 258.125ZM107.998 258L106.17 252H107.139L108.436 256.594H108.498L109.779 252H110.764L112.029 256.578H112.092L113.389 252H114.357L112.529 258H111.623L110.311 253.391H110.217L108.904 258H107.998ZM119.826 253.344L118.998 253.578C118.946 253.44 118.869 253.306 118.768 253.176C118.669 253.043 118.533 252.934 118.361 252.848C118.189 252.762 117.969 252.719 117.701 252.719C117.334 252.719 117.028 252.803 116.783 252.973C116.541 253.139 116.42 253.352 116.42 253.609C116.42 253.839 116.503 254.02 116.67 254.152C116.837 254.285 117.097 254.396 117.451 254.484L118.342 254.703C118.878 254.833 119.278 255.033 119.541 255.301C119.804 255.566 119.936 255.909 119.936 256.328C119.936 256.672 119.837 256.979 119.639 257.25C119.443 257.521 119.17 257.734 118.818 257.891C118.467 258.047 118.058 258.125 117.592 258.125C116.98 258.125 116.473 257.992 116.072 257.727C115.671 257.461 115.417 257.073 115.311 256.562L116.186 256.344C116.269 256.667 116.426 256.909 116.658 257.07C116.893 257.232 117.199 257.312 117.576 257.312C118.006 257.312 118.347 257.221 118.6 257.039C118.855 256.854 118.982 256.633 118.982 256.375C118.982 256.167 118.91 255.992 118.764 255.852C118.618 255.708 118.394 255.602 118.092 255.531L117.092 255.297C116.542 255.167 116.139 254.965 115.881 254.691C115.626 254.415 115.498 254.07 115.498 253.656C115.498 253.318 115.593 253.018 115.783 252.758C115.976 252.497 116.238 252.293 116.568 252.145C116.902 251.996 117.279 251.922 117.701 251.922C118.295 251.922 118.761 252.052 119.1 252.312C119.441 252.573 119.683 252.917 119.826 253.344Z" fill="#525252"/>
<path d="M134.969 160V152H135.938V159.141H139.656V160H134.969ZM142.797 160.141C142.417 160.141 142.072 160.069 141.762 159.926C141.452 159.78 141.206 159.57 141.023 159.297C140.841 159.021 140.75 158.687 140.75 158.297C140.75 157.953 140.818 157.674 140.953 157.461C141.089 157.245 141.27 157.076 141.496 156.953C141.723 156.831 141.973 156.74 142.246 156.68C142.522 156.617 142.799 156.568 143.078 156.531C143.443 156.484 143.738 156.449 143.965 156.426C144.194 156.4 144.361 156.357 144.465 156.297C144.572 156.237 144.625 156.133 144.625 155.984V155.953C144.625 155.568 144.52 155.268 144.309 155.055C144.1 154.841 143.784 154.734 143.359 154.734C142.919 154.734 142.574 154.831 142.324 155.023C142.074 155.216 141.898 155.422 141.797 155.641L140.922 155.328C141.078 154.964 141.286 154.68 141.547 154.477C141.81 154.271 142.096 154.128 142.406 154.047C142.719 153.964 143.026 153.922 143.328 153.922C143.521 153.922 143.742 153.945 143.992 153.992C144.245 154.036 144.488 154.129 144.723 154.27C144.96 154.41 145.156 154.622 145.313 154.906C145.469 155.19 145.547 155.57 145.547 156.047V160H144.625V159.187H144.578C144.516 159.318 144.411 159.457 144.266 159.605C144.12 159.754 143.926 159.88 143.684 159.984C143.441 160.089 143.146 160.141 142.797 160.141ZM142.938 159.312C143.302 159.312 143.609 159.241 143.859 159.098C144.112 158.954 144.302 158.77 144.43 158.543C144.56 158.316 144.625 158.078 144.625 157.828V156.984C144.586 157.031 144.5 157.074 144.367 157.113C144.237 157.15 144.086 157.182 143.914 157.211C143.745 157.237 143.579 157.26 143.418 157.281C143.259 157.299 143.13 157.315 143.031 157.328C142.792 157.359 142.568 157.41 142.359 157.48C142.154 157.548 141.987 157.651 141.859 157.789C141.734 157.924 141.672 158.109 141.672 158.344C141.672 158.664 141.79 158.906 142.027 159.07C142.267 159.232 142.57 159.312 142.938 159.312ZM151.479 155.344L150.651 155.578C150.599 155.44 150.522 155.306 150.421 155.176C150.322 155.043 150.187 154.934 150.015 154.848C149.843 154.762 149.623 154.719 149.354 154.719C148.987 154.719 148.681 154.803 148.437 154.973C148.194 155.139 148.073 155.352 148.073 155.609C148.073 155.839 148.157 156.02 148.323 156.152C148.49 156.285 148.75 156.396 149.104 156.484L149.995 156.703C150.532 156.833 150.931 157.033 151.194 157.301C151.457 157.566 151.589 157.909 151.589 158.328C151.589 158.672 151.49 158.979 151.292 159.25C151.097 159.521 150.823 159.734 150.472 159.891C150.12 160.047 149.711 160.125 149.245 160.125C148.633 160.125 148.127 159.992 147.726 159.727C147.325 159.461 147.071 159.073 146.964 158.562L147.839 158.344C147.922 158.667 148.08 158.909 148.312 159.07C148.546 159.232 148.852 159.312 149.229 159.312C149.659 159.312 150 159.221 150.253 159.039C150.508 158.854 150.636 158.633 150.636 158.375C150.636 158.167 150.563 157.992 150.417 157.852C150.271 157.708 150.047 157.602 149.745 157.531L148.745 157.297C148.196 157.167 147.792 156.965 147.534 156.691C147.279 156.415 147.151 156.07 147.151 155.656C147.151 155.318 147.246 155.018 147.437 154.758C147.629 154.497 147.891 154.293 148.222 154.145C148.555 153.996 148.933 153.922 149.354 153.922C149.948 153.922 150.414 154.052 150.753 154.312C151.094 154.573 151.336 154.917 151.479 155.344ZM155.586 154V154.781H152.477V154H155.586ZM153.383 152.562H154.305V158.281C154.305 158.542 154.342 158.737 154.418 158.867C154.496 158.995 154.595 159.081 154.715 159.125C154.837 159.167 154.966 159.187 155.102 159.187C155.203 159.187 155.286 159.182 155.352 159.172C155.417 159.159 155.469 159.148 155.508 159.141L155.695 159.969C155.633 159.992 155.546 160.016 155.434 160.039C155.322 160.065 155.18 160.078 155.008 160.078C154.747 160.078 154.492 160.022 154.242 159.91C153.995 159.798 153.789 159.628 153.625 159.398C153.464 159.169 153.383 158.88 153.383 158.531V152.562ZM163.848 157.547V154H164.77V160H163.848V158.984H163.785C163.645 159.289 163.426 159.548 163.129 159.762C162.832 159.973 162.457 160.078 162.004 160.078C161.629 160.078 161.296 159.996 161.004 159.832C160.712 159.665 160.483 159.415 160.316 159.082C160.15 158.746 160.066 158.323 160.066 157.812V154H160.988V157.75C160.988 158.187 161.111 158.536 161.355 158.797C161.603 159.057 161.918 159.187 162.301 159.187C162.53 159.187 162.763 159.129 163 159.012C163.24 158.895 163.44 158.715 163.602 158.473C163.766 158.23 163.848 157.922 163.848 157.547ZM166.458 162.25V154H167.349V154.953H167.458C167.526 154.849 167.619 154.716 167.739 154.555C167.862 154.391 168.036 154.245 168.263 154.117C168.492 153.987 168.802 153.922 169.192 153.922C169.698 153.922 170.143 154.048 170.528 154.301C170.914 154.553 171.215 154.911 171.431 155.375C171.647 155.839 171.755 156.385 171.755 157.016C171.755 157.651 171.647 158.202 171.431 158.668C171.215 159.132 170.915 159.491 170.532 159.746C170.149 159.999 169.708 160.125 169.208 160.125C168.823 160.125 168.514 160.061 168.282 159.934C168.05 159.803 167.872 159.656 167.747 159.492C167.622 159.326 167.526 159.187 167.458 159.078H167.38V162.25H166.458ZM167.364 157C167.364 157.453 167.431 157.853 167.563 158.199C167.696 158.543 167.89 158.812 168.146 159.008C168.401 159.201 168.713 159.297 169.083 159.297C169.468 159.297 169.79 159.195 170.048 158.992C170.308 158.786 170.504 158.51 170.634 158.164C170.767 157.815 170.833 157.427 170.833 157C170.833 156.578 170.768 156.198 170.638 155.859C170.51 155.518 170.316 155.249 170.056 155.051C169.798 154.85 169.474 154.75 169.083 154.75C168.708 154.75 168.393 154.845 168.138 155.035C167.882 155.223 167.69 155.486 167.56 155.824C167.429 156.16 167.364 156.552 167.364 157ZM175.427 160.125C174.927 160.125 174.485 159.999 174.103 159.746C173.72 159.491 173.42 159.132 173.204 158.668C172.988 158.202 172.88 157.651 172.88 157.016C172.88 156.385 172.988 155.839 173.204 155.375C173.42 154.911 173.721 154.553 174.106 154.301C174.492 154.048 174.937 153.922 175.442 153.922C175.833 153.922 176.142 153.987 176.368 154.117C176.597 154.245 176.772 154.391 176.892 154.555C177.014 154.716 177.109 154.849 177.177 154.953H177.255V152H178.177V160H177.286V159.078H177.177C177.109 159.187 177.013 159.326 176.888 159.492C176.763 159.656 176.584 159.803 176.353 159.934C176.121 160.061 175.812 160.125 175.427 160.125ZM175.552 159.297C175.922 159.297 176.234 159.201 176.489 159.008C176.744 158.812 176.938 158.543 177.071 158.199C177.204 157.853 177.271 157.453 177.271 157C177.271 156.552 177.205 156.16 177.075 155.824C176.945 155.486 176.752 155.223 176.497 155.035C176.242 154.845 175.927 154.75 175.552 154.75C175.161 154.75 174.836 154.85 174.575 155.051C174.317 155.249 174.123 155.518 173.993 155.859C173.866 156.198 173.802 156.578 173.802 157C173.802 157.427 173.867 157.815 173.997 158.164C174.13 158.51 174.325 158.786 174.583 158.992C174.843 159.195 175.166 159.297 175.552 159.297ZM181.759 160.141C181.379 160.141 181.034 160.069 180.724 159.926C180.414 159.78 180.168 159.57 179.985 159.297C179.803 159.021 179.712 158.687 179.712 158.297C179.712 157.953 179.78 157.674 179.915 157.461C180.05 157.245 180.231 157.076 180.458 156.953C180.685 156.831 180.935 156.74 181.208 156.68C181.484 156.617 181.761 156.568 182.04 156.531C182.405 156.484 182.7 156.449 182.927 156.426C183.156 156.4 183.323 156.357 183.427 156.297C183.534 156.237 183.587 156.133 183.587 155.984V155.953C183.587 155.568 183.481 155.268 183.271 155.055C183.062 154.841 182.746 154.734 182.321 154.734C181.881 154.734 181.536 154.831 181.286 155.023C181.036 155.216 180.86 155.422 180.759 155.641L179.884 155.328C180.04 154.964 180.248 154.68 180.509 154.477C180.772 154.271 181.058 154.128 181.368 154.047C181.681 153.964 181.988 153.922 182.29 153.922C182.483 153.922 182.704 153.945 182.954 153.992C183.207 154.036 183.45 154.129 183.685 154.27C183.922 154.41 184.118 154.622 184.274 154.906C184.431 155.19 184.509 155.57 184.509 156.047V160H183.587V159.187H183.54C183.478 159.318 183.373 159.457 183.228 159.605C183.082 159.754 182.888 159.88 182.646 159.984C182.403 160.089 182.108 160.141 181.759 160.141ZM181.899 159.312C182.264 159.312 182.571 159.241 182.821 159.098C183.074 158.954 183.264 158.77 183.392 158.543C183.522 158.316 183.587 158.078 183.587 157.828V156.984C183.548 157.031 183.462 157.074 183.329 157.113C183.199 157.15 183.048 157.182 182.876 157.211C182.707 157.237 182.541 157.26 182.38 157.281C182.221 157.299 182.092 157.315 181.993 157.328C181.754 157.359 181.53 157.41 181.321 157.48C181.116 157.548 180.949 157.651 180.821 157.789C180.696 157.924 180.634 158.109 180.634 158.344C180.634 158.664 180.752 158.906 180.989 159.07C181.229 159.232 181.532 159.312 181.899 159.312ZM188.801 154V154.781H185.691V154H188.801ZM186.598 152.562H187.52V158.281C187.52 158.542 187.557 158.737 187.633 158.867C187.711 158.995 187.81 159.081 187.93 159.125C188.052 159.167 188.181 159.187 188.316 159.187C188.418 159.187 188.501 159.182 188.566 159.172C188.632 159.159 188.684 159.148 188.723 159.141L188.91 159.969C188.848 159.992 188.76 160.016 188.648 160.039C188.536 160.065 188.395 160.078 188.223 160.078C187.962 160.078 187.707 160.022 187.457 159.91C187.21 159.798 187.004 159.628 186.84 159.398C186.678 159.169 186.598 158.88 186.598 158.531V152.562ZM192.639 160.125C192.061 160.125 191.562 159.997 191.143 159.742C190.726 159.484 190.404 159.125 190.178 158.664C189.954 158.201 189.842 157.661 189.842 157.047C189.842 156.432 189.954 155.891 190.178 155.422C190.404 154.951 190.719 154.583 191.123 154.32C191.529 154.055 192.003 153.922 192.545 153.922C192.857 153.922 193.166 153.974 193.471 154.078C193.775 154.182 194.053 154.352 194.303 154.586C194.553 154.818 194.752 155.125 194.9 155.508C195.049 155.891 195.123 156.362 195.123 156.922V157.312H190.498V156.516H194.186C194.186 156.177 194.118 155.875 193.982 155.609C193.85 155.344 193.66 155.134 193.412 154.98C193.167 154.827 192.878 154.75 192.545 154.75C192.178 154.75 191.86 154.841 191.592 155.023C191.326 155.203 191.122 155.437 190.979 155.727C190.835 156.016 190.764 156.326 190.764 156.656V157.188C190.764 157.641 190.842 158.025 190.998 158.34C191.157 158.652 191.377 158.891 191.658 159.055C191.939 159.216 192.266 159.297 192.639 159.297C192.881 159.297 193.1 159.263 193.295 159.195C193.493 159.125 193.663 159.021 193.807 158.883C193.95 158.742 194.061 158.568 194.139 158.359L195.029 158.609C194.936 158.911 194.778 159.177 194.557 159.406C194.335 159.633 194.062 159.81 193.736 159.937C193.411 160.063 193.045 160.125 192.639 160.125ZM198.791 160.125C198.291 160.125 197.85 159.999 197.467 159.746C197.084 159.491 196.785 159.132 196.568 158.668C196.352 158.202 196.244 157.651 196.244 157.016C196.244 156.385 196.352 155.839 196.568 155.375C196.785 154.911 197.085 154.553 197.471 154.301C197.856 154.048 198.301 153.922 198.807 153.922C199.197 153.922 199.506 153.987 199.732 154.117C199.962 154.245 200.136 154.391 200.256 154.555C200.378 154.716 200.473 154.849 200.541 154.953H200.619V152H201.541V160H200.65V159.078H200.541C200.473 159.187 200.377 159.326 200.252 159.492C200.127 159.656 199.949 159.803 199.717 159.934C199.485 160.061 199.176 160.125 198.791 160.125ZM198.916 159.297C199.286 159.297 199.598 159.201 199.854 159.008C200.109 158.812 200.303 158.543 200.436 158.199C200.568 157.853 200.635 157.453 200.635 157C200.635 156.552 200.57 156.16 200.439 155.824C200.309 155.486 200.117 155.223 199.861 155.035C199.606 154.845 199.291 154.75 198.916 154.75C198.525 154.75 198.2 154.85 197.939 155.051C197.682 155.249 197.488 155.518 197.357 155.859C197.23 156.198 197.166 156.578 197.166 157C197.166 157.427 197.231 157.815 197.361 158.164C197.494 158.51 197.689 158.786 197.947 158.992C198.208 159.195 198.531 159.297 198.916 159.297ZM204.029 160.063C203.837 160.063 203.671 159.993 203.533 159.855C203.395 159.717 203.326 159.552 203.326 159.359C203.326 159.167 203.395 159.001 203.533 158.863C203.671 158.725 203.837 158.656 204.029 158.656C204.222 158.656 204.387 158.725 204.525 158.863C204.663 159.001 204.732 159.167 204.732 159.359C204.732 159.487 204.7 159.604 204.635 159.711C204.572 159.818 204.488 159.904 204.381 159.969C204.277 160.031 204.16 160.063 204.029 160.063ZM204.029 155.609C203.837 155.609 203.671 155.54 203.533 155.402C203.395 155.264 203.326 155.099 203.326 154.906C203.326 154.714 203.395 154.548 203.533 154.41C203.671 154.272 203.837 154.203 204.029 154.203C204.222 154.203 204.387 154.272 204.525 154.41C204.663 154.548 204.732 154.714 204.732 154.906C204.732 155.034 204.7 155.151 204.635 155.258C204.572 155.365 204.488 155.451 204.381 155.516C204.277 155.578 204.16 155.609 204.029 155.609ZM212.277 152V160H211.309V153.016H211.262L209.309 154.312V153.328L211.309 152H212.277ZM217.188 160.109C216.599 160.109 216.098 159.949 215.684 159.629C215.27 159.306 214.953 158.839 214.734 158.227C214.516 157.612 214.406 156.87 214.406 156C214.406 155.135 214.516 154.397 214.734 153.785C214.956 153.171 215.273 152.702 215.688 152.379C216.104 152.053 216.604 151.891 217.188 151.891C217.771 151.891 218.27 152.053 218.684 152.379C219.1 152.702 219.418 153.171 219.637 153.785C219.858 154.397 219.969 155.135 219.969 156C219.969 156.87 219.859 157.612 219.641 158.227C219.422 158.839 219.105 159.306 218.691 159.629C218.277 159.949 217.776 160.109 217.188 160.109ZM217.188 159.25C217.771 159.25 218.224 158.969 218.547 158.406C218.87 157.844 219.031 157.042 219.031 156C219.031 155.307 218.957 154.717 218.809 154.23C218.663 153.743 218.452 153.372 218.176 153.117C217.902 152.862 217.573 152.734 217.188 152.734C216.609 152.734 216.158 153.02 215.832 153.59C215.507 154.158 215.344 154.961 215.344 156C215.344 156.693 215.417 157.281 215.563 157.766C215.708 158.25 215.918 158.618 216.191 158.871C216.467 159.124 216.799 159.25 217.188 159.25ZM224.297 151.625L221.719 161.203H220.875L223.453 151.625H224.297ZM225.374 160V159.297L228.015 156.406C228.325 156.068 228.58 155.773 228.78 155.523C228.981 155.271 229.129 155.034 229.226 154.812C229.325 154.589 229.374 154.354 229.374 154.109C229.374 153.828 229.306 153.585 229.171 153.379C229.038 153.173 228.856 153.014 228.624 152.902C228.392 152.79 228.132 152.734 227.843 152.734C227.535 152.734 227.267 152.798 227.038 152.926C226.812 153.051 226.636 153.227 226.511 153.453C226.388 153.68 226.327 153.945 226.327 154.25H225.405C225.405 153.781 225.513 153.37 225.729 153.016C225.946 152.661 226.24 152.385 226.612 152.187C226.987 151.99 227.408 151.891 227.874 151.891C228.343 151.891 228.758 151.99 229.12 152.187C229.482 152.385 229.766 152.652 229.972 152.988C230.177 153.324 230.28 153.698 230.28 154.109C230.28 154.404 230.227 154.691 230.12 154.973C230.016 155.251 229.834 155.562 229.573 155.906C229.315 156.247 228.957 156.664 228.499 157.156L226.702 159.078V159.141H230.421V160H225.374ZM234.878 151.625L232.3 161.203H231.456L234.034 151.625H234.878ZM235.955 160V159.297L238.596 156.406C238.906 156.068 239.161 155.773 239.361 155.523C239.562 155.271 239.71 155.034 239.807 154.812C239.906 154.589 239.955 154.354 239.955 154.109C239.955 153.828 239.887 153.585 239.752 153.379C239.619 153.173 239.437 153.014 239.205 152.902C238.973 152.79 238.713 152.734 238.424 152.734C238.117 152.734 237.848 152.798 237.619 152.926C237.393 153.051 237.217 153.227 237.092 153.453C236.969 153.68 236.908 153.945 236.908 154.25H235.986C235.986 153.781 236.094 153.37 236.311 153.016C236.527 152.661 236.821 152.385 237.193 152.187C237.568 151.99 237.989 151.891 238.455 151.891C238.924 151.891 239.339 151.99 239.701 152.187C240.063 152.385 240.347 152.652 240.553 152.988C240.758 153.324 240.861 153.698 240.861 154.109C240.861 154.404 240.808 154.691 240.701 154.973C240.597 155.251 240.415 155.562 240.154 155.906C239.896 156.247 239.538 156.664 239.08 157.156L237.283 159.078V159.141H241.002V160H235.955ZM245.318 160.109C244.803 160.109 244.343 160.021 243.939 159.844C243.538 159.667 243.219 159.421 242.982 159.105C242.748 158.788 242.62 158.419 242.6 158H243.584C243.605 158.258 243.693 158.48 243.85 158.668C244.006 158.853 244.21 158.996 244.463 159.098C244.715 159.199 244.995 159.25 245.303 159.25C245.646 159.25 245.951 159.19 246.217 159.07C246.482 158.951 246.691 158.784 246.842 158.57C246.993 158.357 247.068 158.109 247.068 157.828C247.068 157.534 246.995 157.275 246.85 157.051C246.704 156.824 246.49 156.647 246.209 156.52C245.928 156.392 245.584 156.328 245.178 156.328H244.537V155.469H245.178C245.495 155.469 245.774 155.411 246.014 155.297C246.256 155.182 246.445 155.021 246.58 154.812C246.718 154.604 246.787 154.359 246.787 154.078C246.787 153.807 246.727 153.572 246.607 153.371C246.488 153.171 246.318 153.014 246.1 152.902C245.883 152.79 245.628 152.734 245.334 152.734C245.058 152.734 244.798 152.785 244.553 152.887C244.311 152.986 244.113 153.13 243.959 153.32C243.805 153.508 243.722 153.734 243.709 154H242.771C242.787 153.581 242.913 153.214 243.15 152.898C243.387 152.581 243.697 152.333 244.08 152.156C244.465 151.979 244.889 151.891 245.35 151.891C245.844 151.891 246.269 151.991 246.623 152.191C246.977 152.389 247.249 152.651 247.439 152.977C247.63 153.302 247.725 153.654 247.725 154.031C247.725 154.482 247.606 154.866 247.369 155.184C247.135 155.501 246.816 155.721 246.412 155.844V155.906C246.917 155.99 247.312 156.204 247.596 156.551C247.88 156.895 248.021 157.32 248.021 157.828C248.021 158.263 247.903 158.654 247.666 159C247.432 159.344 247.111 159.615 246.705 159.812C246.299 160.01 245.837 160.109 245.318 160.109Z" fill="#525252"/>
<path d="M162.406 222.5H161.438C161.38 222.221 161.28 221.977 161.137 221.766C160.996 221.555 160.824 221.378 160.621 221.234C160.421 221.089 160.198 220.979 159.953 220.906C159.708 220.833 159.453 220.797 159.188 220.797C158.703 220.797 158.264 220.919 157.871 221.164C157.48 221.409 157.169 221.77 156.938 222.246C156.708 222.723 156.594 223.307 156.594 224C156.594 224.693 156.708 225.277 156.938 225.754C157.169 226.23 157.48 226.591 157.871 226.836C158.264 227.081 158.703 227.203 159.188 227.203C159.453 227.203 159.708 227.167 159.953 227.094C160.198 227.021 160.421 226.913 160.621 226.77C160.824 226.624 160.996 226.445 161.137 226.234C161.28 226.021 161.38 225.776 161.438 225.5H162.406C162.333 225.909 162.201 226.275 162.008 226.598C161.815 226.921 161.576 227.195 161.289 227.422C161.003 227.646 160.681 227.816 160.324 227.934C159.97 228.051 159.591 228.109 159.188 228.109C158.505 228.109 157.898 227.943 157.367 227.609C156.836 227.276 156.418 226.802 156.113 226.187C155.809 225.573 155.656 224.844 155.656 224C155.656 223.156 155.809 222.427 156.113 221.812C156.418 221.198 156.836 220.724 157.367 220.391C157.898 220.057 158.505 219.891 159.188 219.891C159.591 219.891 159.97 219.949 160.324 220.066C160.681 220.184 161.003 220.355 161.289 220.582C161.576 220.806 161.815 221.079 162.008 221.402C162.201 221.723 162.333 222.089 162.406 222.5ZM163.847 228V222H164.737V222.906H164.8C164.909 222.609 165.107 222.368 165.394 222.184C165.68 221.999 166.003 221.906 166.362 221.906C166.43 221.906 166.515 221.908 166.616 221.91C166.718 221.913 166.795 221.917 166.847 221.922V222.859C166.815 222.852 166.744 222.84 166.632 222.824C166.522 222.806 166.407 222.797 166.284 222.797C165.993 222.797 165.732 222.858 165.503 222.98C165.276 223.1 165.097 223.267 164.964 223.48C164.834 223.691 164.769 223.932 164.769 224.203V228H163.847ZM170.272 228.125C169.694 228.125 169.196 227.997 168.776 227.742C168.36 227.484 168.038 227.125 167.812 226.664C167.588 226.201 167.476 225.661 167.476 225.047C167.476 224.432 167.588 223.891 167.812 223.422C168.038 222.951 168.353 222.583 168.757 222.32C169.163 222.055 169.637 221.922 170.179 221.922C170.491 221.922 170.8 221.974 171.104 222.078C171.409 222.182 171.687 222.352 171.937 222.586C172.187 222.818 172.386 223.125 172.534 223.508C172.683 223.891 172.757 224.362 172.757 224.922V225.312H168.132V224.516H171.819C171.819 224.177 171.752 223.875 171.616 223.609C171.483 223.344 171.293 223.134 171.046 222.98C170.801 222.827 170.512 222.75 170.179 222.75C169.812 222.75 169.494 222.841 169.226 223.023C168.96 223.203 168.756 223.437 168.612 223.727C168.469 224.016 168.397 224.326 168.397 224.656V225.188C168.397 225.641 168.476 226.025 168.632 226.34C168.791 226.652 169.011 226.891 169.292 227.055C169.573 227.216 169.9 227.297 170.272 227.297C170.515 227.297 170.733 227.263 170.929 227.195C171.127 227.125 171.297 227.021 171.44 226.883C171.584 226.742 171.694 226.568 171.772 226.359L172.663 226.609C172.569 226.911 172.412 227.177 172.19 227.406C171.969 227.633 171.696 227.81 171.37 227.937C171.045 228.063 170.679 228.125 170.272 228.125ZM175.925 228.141C175.545 228.141 175.2 228.069 174.89 227.926C174.58 227.78 174.334 227.57 174.151 227.297C173.969 227.021 173.878 226.687 173.878 226.297C173.878 225.953 173.946 225.674 174.081 225.461C174.216 225.245 174.397 225.076 174.624 224.953C174.851 224.831 175.101 224.74 175.374 224.68C175.65 224.617 175.927 224.568 176.206 224.531C176.571 224.484 176.866 224.449 177.093 224.426C177.322 224.4 177.489 224.357 177.593 224.297C177.7 224.237 177.753 224.133 177.753 223.984V223.953C177.753 223.568 177.647 223.268 177.437 223.055C177.228 222.841 176.912 222.734 176.487 222.734C176.047 222.734 175.702 222.831 175.452 223.023C175.202 223.216 175.026 223.422 174.925 223.641L174.05 223.328C174.206 222.964 174.414 222.68 174.675 222.477C174.938 222.271 175.224 222.128 175.534 222.047C175.847 221.964 176.154 221.922 176.456 221.922C176.649 221.922 176.87 221.945 177.12 221.992C177.373 222.036 177.616 222.129 177.851 222.27C178.088 222.41 178.284 222.622 178.44 222.906C178.597 223.19 178.675 223.57 178.675 224.047V228H177.753V227.187H177.706C177.644 227.318 177.539 227.457 177.394 227.605C177.248 227.754 177.054 227.88 176.812 227.984C176.569 228.089 176.274 228.141 175.925 228.141ZM176.065 227.312C176.43 227.312 176.737 227.241 176.987 227.098C177.24 226.954 177.43 226.77 177.558 226.543C177.688 226.316 177.753 226.078 177.753 225.828V224.984C177.714 225.031 177.628 225.074 177.495 225.113C177.365 225.15 177.214 225.182 177.042 225.211C176.873 225.237 176.707 225.26 176.546 225.281C176.387 225.299 176.258 225.315 176.159 225.328C175.92 225.359 175.696 225.41 175.487 225.48C175.282 225.548 175.115 225.651 174.987 225.789C174.862 225.924 174.8 226.109 174.8 226.344C174.8 226.664 174.918 226.906 175.155 227.07C175.395 227.232 175.698 227.312 176.065 227.312ZM182.967 222V222.781H179.857V222H182.967ZM180.764 220.562H181.686V226.281C181.686 226.542 181.723 226.737 181.799 226.867C181.877 226.995 181.976 227.081 182.096 227.125C182.218 227.167 182.347 227.187 182.482 227.187C182.584 227.187 182.667 227.182 182.732 227.172C182.798 227.159 182.85 227.148 182.889 227.141L183.076 227.969C183.014 227.992 182.926 228.016 182.814 228.039C182.702 228.065 182.561 228.078 182.389 228.078C182.128 228.078 181.873 228.022 181.623 227.91C181.376 227.798 181.17 227.628 181.006 227.398C180.844 227.169 180.764 226.88 180.764 226.531V220.562ZM186.805 228.125C186.227 228.125 185.728 227.997 185.309 227.742C184.892 227.484 184.57 227.125 184.344 226.664C184.12 226.201 184.008 225.661 184.008 225.047C184.008 224.432 184.12 223.891 184.344 223.422C184.57 222.951 184.885 222.583 185.289 222.32C185.695 222.055 186.169 221.922 186.711 221.922C187.023 221.922 187.332 221.974 187.637 222.078C187.941 222.182 188.219 222.352 188.469 222.586C188.719 222.818 188.918 223.125 189.066 223.508C189.215 223.891 189.289 224.362 189.289 224.922V225.312H184.664V224.516H188.352C188.352 224.177 188.284 223.875 188.148 223.609C188.016 223.344 187.826 223.134 187.578 222.98C187.333 222.827 187.044 222.75 186.711 222.75C186.344 222.75 186.026 222.841 185.758 223.023C185.492 223.203 185.288 223.437 185.145 223.727C185.001 224.016 184.93 224.326 184.93 224.656V225.188C184.93 225.641 185.008 226.025 185.164 226.34C185.323 226.652 185.543 226.891 185.824 227.055C186.105 227.216 186.432 227.297 186.805 227.297C187.047 227.297 187.266 227.263 187.461 227.195C187.659 227.125 187.829 227.021 187.973 226.883C188.116 226.742 188.227 226.568 188.305 226.359L189.195 226.609C189.102 226.911 188.944 227.177 188.723 227.406C188.501 227.633 188.228 227.81 187.902 227.937C187.577 228.063 187.211 228.125 186.805 228.125ZM192.957 228.125C192.457 228.125 192.016 227.999 191.633 227.746C191.25 227.491 190.951 227.132 190.734 226.668C190.518 226.202 190.41 225.651 190.41 225.016C190.41 224.385 190.518 223.839 190.734 223.375C190.951 222.911 191.251 222.553 191.637 222.301C192.022 222.048 192.467 221.922 192.973 221.922C193.363 221.922 193.672 221.987 193.898 222.117C194.128 222.245 194.302 222.391 194.422 222.555C194.544 222.716 194.639 222.849 194.707 222.953H194.785V220H195.707V228H194.816V227.078H194.707C194.639 227.187 194.543 227.326 194.418 227.492C194.293 227.656 194.115 227.803 193.883 227.934C193.651 228.061 193.342 228.125 192.957 228.125ZM193.082 227.297C193.452 227.297 193.764 227.201 194.02 227.008C194.275 226.812 194.469 226.543 194.602 226.199C194.734 225.853 194.801 225.453 194.801 225C194.801 224.552 194.736 224.16 194.605 223.824C194.475 223.486 194.283 223.223 194.027 223.035C193.772 222.845 193.457 222.75 193.082 222.75C192.691 222.75 192.366 222.85 192.105 223.051C191.848 223.249 191.654 223.518 191.523 223.859C191.396 224.198 191.332 224.578 191.332 225C191.332 225.427 191.397 225.815 191.527 226.164C191.66 226.51 191.855 226.786 192.113 226.992C192.374 227.195 192.697 227.297 193.082 227.297ZM201.289 226.977C201.096 226.977 200.931 226.908 200.793 226.77C200.655 226.632 200.586 226.466 200.586 226.273C200.586 226.081 200.655 225.915 200.793 225.777C200.931 225.639 201.096 225.57 201.289 225.57C201.482 225.57 201.647 225.639 201.785 225.777C201.923 225.915 201.992 226.081 201.992 226.273C201.992 226.401 201.96 226.518 201.895 226.625C201.832 226.732 201.747 226.818 201.641 226.883C201.536 226.945 201.419 226.977 201.289 226.977ZM201.289 222.93C201.096 222.93 200.931 222.861 200.793 222.723C200.655 222.585 200.586 222.419 200.586 222.227C200.586 222.034 200.655 221.868 200.793 221.73C200.931 221.592 201.096 221.523 201.289 221.523C201.482 221.523 201.647 221.592 201.785 221.73C201.923 221.868 201.992 222.034 201.992 222.227C201.992 222.354 201.96 222.471 201.895 222.578C201.832 222.685 201.747 222.771 201.641 222.836C201.536 222.898 201.419 222.93 201.289 222.93ZM209.537 220V228H208.568V221.016H208.521L206.568 222.312V221.328L208.568 220H209.537ZM214.447 228.109C213.859 228.109 213.357 227.949 212.943 227.629C212.529 227.306 212.213 226.839 211.994 226.227C211.775 225.612 211.666 224.87 211.666 224C211.666 223.135 211.775 222.397 211.994 221.785C212.215 221.171 212.533 220.702 212.947 220.379C213.364 220.053 213.864 219.891 214.447 219.891C215.031 219.891 215.529 220.053 215.943 220.379C216.36 220.702 216.678 221.171 216.896 221.785C217.118 222.397 217.229 223.135 217.229 224C217.229 224.87 217.119 225.612 216.9 226.227C216.682 226.839 216.365 227.306 215.951 227.629C215.537 227.949 215.036 228.109 214.447 228.109ZM214.447 227.25C215.031 227.25 215.484 226.969 215.807 226.406C216.13 225.844 216.291 225.042 216.291 224C216.291 223.307 216.217 222.717 216.068 222.23C215.923 221.743 215.712 221.372 215.436 221.117C215.162 220.862 214.833 220.734 214.447 220.734C213.869 220.734 213.417 221.02 213.092 221.59C212.766 222.158 212.604 222.961 212.604 224C212.604 224.693 212.676 225.281 212.822 225.766C212.968 226.25 213.178 226.618 213.451 226.871C213.727 227.124 214.059 227.25 214.447 227.25ZM221.557 219.625L218.979 229.203H218.135L220.713 219.625H221.557ZM222.634 228V227.297L225.274 224.406C225.584 224.068 225.84 223.773 226.04 223.523C226.241 223.271 226.389 223.034 226.485 222.812C226.584 222.589 226.634 222.354 226.634 222.109C226.634 221.828 226.566 221.585 226.431 221.379C226.298 221.173 226.116 221.014 225.884 220.902C225.652 220.79 225.392 220.734 225.103 220.734C224.795 220.734 224.527 220.798 224.298 220.926C224.071 221.051 223.896 221.227 223.771 221.453C223.648 221.68 223.587 221.945 223.587 222.25H222.665C222.665 221.781 222.773 221.37 222.989 221.016C223.205 220.661 223.5 220.385 223.872 220.187C224.247 219.99 224.668 219.891 225.134 219.891C225.603 219.891 226.018 219.99 226.38 220.187C226.742 220.385 227.026 220.652 227.231 220.988C227.437 221.324 227.54 221.698 227.54 222.109C227.54 222.404 227.487 222.691 227.38 222.973C227.276 223.251 227.093 223.562 226.833 223.906C226.575 224.247 226.217 224.664 225.759 225.156L223.962 227.078V227.141H227.681V228H222.634ZM232.138 219.625L229.56 229.203H228.716L231.294 219.625H232.138ZM233.215 228V227.297L235.855 224.406C236.165 224.068 236.421 223.773 236.621 223.523C236.822 223.271 236.97 223.034 237.066 222.812C237.165 222.589 237.215 222.354 237.215 222.109C237.215 221.828 237.147 221.585 237.012 221.379C236.879 221.173 236.697 221.014 236.465 220.902C236.233 220.79 235.973 220.734 235.684 220.734C235.376 220.734 235.108 220.798 234.879 220.926C234.652 221.051 234.477 221.227 234.352 221.453C234.229 221.68 234.168 221.945 234.168 222.25H233.246C233.246 221.781 233.354 221.37 233.57 221.016C233.786 220.661 234.081 220.385 234.453 220.187C234.828 219.99 235.249 219.891 235.715 219.891C236.184 219.891 236.599 219.99 236.961 220.187C237.323 220.385 237.607 220.652 237.813 220.988C238.018 221.324 238.121 221.698 238.121 222.109C238.121 222.404 238.068 222.691 237.961 222.973C237.857 223.251 237.674 223.562 237.414 223.906C237.156 224.247 236.798 224.664 236.34 225.156L234.543 227.078V227.141H238.262V228H233.215ZM242.578 228.109C242.063 228.109 241.603 228.021 241.199 227.844C240.798 227.667 240.479 227.421 240.242 227.105C240.008 226.788 239.88 226.419 239.859 226H240.844C240.865 226.258 240.953 226.48 241.109 226.668C241.266 226.853 241.47 226.996 241.723 227.098C241.975 227.199 242.255 227.25 242.563 227.25C242.906 227.25 243.211 227.19 243.477 227.07C243.742 226.951 243.951 226.784 244.102 226.57C244.253 226.357 244.328 226.109 244.328 225.828C244.328 225.534 244.255 225.275 244.109 225.051C243.964 224.824 243.75 224.647 243.469 224.52C243.188 224.392 242.844 224.328 242.438 224.328H241.797V223.469H242.438C242.755 223.469 243.034 223.411 243.273 223.297C243.516 223.182 243.704 223.021 243.84 222.812C243.978 222.604 244.047 222.359 244.047 222.078C244.047 221.807 243.987 221.572 243.867 221.371C243.747 221.171 243.578 221.014 243.359 220.902C243.143 220.79 242.888 220.734 242.594 220.734C242.318 220.734 242.057 220.785 241.813 220.887C241.57 220.986 241.372 221.13 241.219 221.32C241.065 221.508 240.982 221.734 240.969 222H240.031C240.047 221.581 240.173 221.214 240.41 220.898C240.647 220.581 240.957 220.333 241.34 220.156C241.725 219.979 242.148 219.891 242.609 219.891C243.104 219.891 243.529 219.991 243.883 220.191C244.237 220.389 244.509 220.651 244.699 220.977C244.889 221.302 244.984 221.654 244.984 222.031C244.984 222.482 244.866 222.866 244.629 223.184C244.395 223.501 244.076 223.721 243.672 223.844V223.906C244.177 223.99 244.572 224.204 244.855 224.551C245.139 224.895 245.281 225.32 245.281 225.828C245.281 226.263 245.163 226.654 244.926 227C244.691 227.344 244.371 227.615 243.965 227.812C243.559 228.01 243.096 228.109 242.578 228.109Z" fill="#525252"/>
<g filter="url(#filter1_d_1288_1596)">
<rect x="200" y="182" width="55" height="19" rx="9.5" fill="white"/>
<rect x="200.25" y="182.25" width="54.5" height="18.5" rx="9.25" stroke="#D9D9D9" stroke-width="0.5"/>
</g>
<g filter="url(#filter2_d_1288_1596)">
<rect x="130" y="182" width="55" height="19" rx="9.5" fill="white"/>
<rect x="130.25" y="182.25" width="54.5" height="18.5" rx="9.25" stroke="#D9D9D9" stroke-width="0.5"/>
</g>
<path d="M155.452 194.126C155.237 194.126 155.052 194.051 154.898 193.899C154.745 193.745 154.669 193.561 154.671 193.345C154.669 193.132 154.745 192.95 154.898 192.798C155.052 192.647 155.237 192.571 155.452 192.571C155.661 192.571 155.842 192.647 155.996 192.798C156.152 192.95 156.231 193.132 156.234 193.345C156.231 193.49 156.193 193.621 156.12 193.739C156.049 193.858 155.954 193.952 155.836 194.023C155.72 194.092 155.592 194.126 155.452 194.126ZM155.452 190.522C155.237 190.522 155.052 190.446 154.898 190.295C154.745 190.141 154.669 189.956 154.671 189.741C154.669 189.528 154.745 189.345 154.898 189.194C155.052 189.04 155.237 188.963 155.452 188.963C155.661 188.963 155.842 189.04 155.996 189.194C156.152 189.345 156.231 189.528 156.234 189.741C156.231 189.883 156.193 190.013 156.12 190.131C156.049 190.25 155.954 190.344 155.836 190.415C155.72 190.487 155.592 190.522 155.452 190.522ZM162.508 195V194.048L165.032 191.573C165.274 191.329 165.475 191.113 165.636 190.923C165.797 190.734 165.918 190.55 165.998 190.373C166.079 190.195 166.119 190.006 166.119 189.805C166.119 189.575 166.067 189.379 165.963 189.215C165.859 189.049 165.715 188.922 165.533 188.832C165.351 188.742 165.144 188.697 164.912 188.697C164.673 188.697 164.463 188.746 164.283 188.846C164.103 188.943 163.964 189.081 163.864 189.261C163.767 189.441 163.719 189.656 163.719 189.904H162.465C162.465 189.442 162.57 189.041 162.781 188.7C162.992 188.359 163.282 188.095 163.651 187.908C164.023 187.721 164.449 187.628 164.93 187.628C165.417 187.628 165.846 187.719 166.215 187.901C166.584 188.084 166.871 188.333 167.074 188.651C167.28 188.968 167.383 189.33 167.383 189.737C167.383 190.009 167.331 190.277 167.227 190.54C167.123 190.803 166.939 191.094 166.677 191.413C166.416 191.733 166.05 192.12 165.579 192.575L164.326 193.849V193.899H167.493V195H162.508ZM168.985 195L172.078 188.878V188.828H168.488V187.727H173.442V188.853L170.352 195H168.985ZM177.026 195.099C176.499 195.099 176.03 195.011 175.62 194.833C175.213 194.656 174.893 194.413 174.661 194.105C174.432 193.795 174.318 193.443 174.32 193.05C174.318 192.745 174.384 192.464 174.519 192.209C174.654 191.953 174.837 191.74 175.066 191.57C175.298 191.397 175.556 191.287 175.84 191.239V191.19C175.466 191.107 175.163 190.916 174.931 190.618C174.702 190.317 174.588 189.97 174.59 189.577C174.588 189.203 174.692 188.87 174.903 188.576C175.114 188.282 175.402 188.052 175.769 187.884C176.136 187.713 176.555 187.628 177.026 187.628C177.493 187.628 177.908 187.713 178.273 187.884C178.64 188.052 178.929 188.282 179.139 188.576C179.352 188.87 179.459 189.203 179.459 189.577C179.459 189.97 179.342 190.317 179.107 190.618C178.875 190.916 178.576 191.107 178.209 191.19V191.239C178.493 191.287 178.749 191.397 178.976 191.57C179.206 191.74 179.388 191.953 179.523 192.209C179.66 192.464 179.729 192.745 179.729 193.05C179.729 193.443 179.613 193.795 179.381 194.105C179.149 194.413 178.829 194.656 178.422 194.833C178.017 195.011 177.552 195.099 177.026 195.099ZM177.026 194.084C177.299 194.084 177.535 194.038 177.737 193.945C177.938 193.851 178.094 193.718 178.205 193.548C178.317 193.377 178.374 193.181 178.376 192.958C178.374 192.726 178.313 192.521 178.195 192.344C178.079 192.164 177.919 192.023 177.715 191.921C177.514 191.819 177.285 191.768 177.026 191.768C176.766 191.768 176.534 191.819 176.33 191.921C176.127 192.023 175.966 192.164 175.847 192.344C175.731 192.521 175.675 192.726 175.677 192.958C175.675 193.181 175.729 193.377 175.84 193.548C175.952 193.716 176.108 193.847 176.309 193.942C176.513 194.036 176.752 194.084 177.026 194.084ZM177.026 190.771C177.249 190.771 177.445 190.726 177.616 190.636C177.789 190.546 177.925 190.42 178.024 190.259C178.124 190.098 178.175 189.912 178.177 189.702C178.175 189.493 178.125 189.311 178.028 189.155C177.931 188.996 177.796 188.874 177.623 188.789C177.45 188.701 177.251 188.658 177.026 188.658C176.797 188.658 176.594 188.701 176.419 188.789C176.246 188.874 176.111 188.996 176.014 189.155C175.92 189.311 175.874 189.493 175.876 189.702C175.874 189.912 175.921 190.098 176.018 190.259C176.117 190.418 176.253 190.543 176.426 190.636C176.602 190.726 176.802 190.771 177.026 190.771Z" fill="black"/>
<path d="M225.452 194.126C225.237 194.126 225.052 194.051 224.898 193.899C224.745 193.745 224.669 193.561 224.671 193.345C224.669 193.132 224.745 192.95 224.898 192.798C225.052 192.647 225.237 192.571 225.452 192.571C225.661 192.571 225.842 192.647 225.996 192.798C226.152 192.95 226.231 193.132 226.234 193.345C226.231 193.49 226.193 193.621 226.12 193.739C226.049 193.858 225.954 193.952 225.836 194.023C225.72 194.092 225.592 194.126 225.452 194.126ZM225.452 190.522C225.237 190.522 225.052 190.446 224.898 190.295C224.745 190.141 224.669 189.956 224.671 189.741C224.669 189.528 224.745 189.345 224.898 189.194C225.052 189.04 225.237 188.963 225.452 188.963C225.661 188.963 225.842 189.04 225.996 189.194C226.152 189.345 226.231 189.528 226.234 189.741C226.231 189.883 226.193 190.013 226.12 190.131C226.049 190.25 225.954 190.344 225.836 190.415C225.72 190.487 225.592 190.522 225.452 190.522ZM235.036 195.099C234.563 195.099 234.139 195.011 233.765 194.833C233.391 194.653 233.094 194.407 232.873 194.094C232.656 193.782 232.54 193.424 232.525 193.022H233.804C233.827 193.32 233.956 193.564 234.191 193.754C234.425 193.941 234.707 194.034 235.036 194.034C235.294 194.034 235.524 193.975 235.725 193.857C235.926 193.738 236.085 193.574 236.201 193.363C236.317 193.152 236.374 192.912 236.371 192.642C236.374 192.367 236.316 192.124 236.197 191.911C236.079 191.697 235.917 191.531 235.711 191.41C235.505 191.287 235.268 191.225 235.001 191.225C234.783 191.223 234.568 191.263 234.358 191.346C234.147 191.429 233.98 191.538 233.857 191.673L232.667 191.477L233.047 187.727H237.266V188.828H234.138L233.928 190.756H233.971C234.106 190.598 234.296 190.466 234.542 190.362C234.789 190.256 235.059 190.202 235.352 190.202C235.792 190.202 236.185 190.307 236.531 190.515C236.877 190.721 237.149 191.005 237.348 191.367C237.547 191.729 237.646 192.144 237.646 192.61C237.646 193.091 237.535 193.519 237.312 193.896C237.092 194.27 236.786 194.564 236.393 194.78C236.002 194.993 235.55 195.099 235.036 195.099ZM241.446 195.099C240.934 195.099 240.48 195.012 240.082 194.837C239.687 194.661 239.374 194.418 239.145 194.105C238.915 193.793 238.793 193.432 238.779 193.022H240.114C240.126 193.219 240.191 193.39 240.309 193.537C240.428 193.681 240.585 193.794 240.782 193.874C240.978 193.955 241.198 193.995 241.442 193.995C241.703 193.995 241.934 193.95 242.135 193.86C242.336 193.768 242.493 193.64 242.607 193.477C242.721 193.313 242.776 193.125 242.774 192.912C242.776 192.692 242.72 192.498 242.604 192.33C242.488 192.161 242.319 192.03 242.099 191.935C241.881 191.841 241.619 191.793 241.311 191.793H240.668V190.778H241.311C241.564 190.778 241.786 190.734 241.975 190.646C242.167 190.559 242.317 190.436 242.426 190.277C242.535 190.116 242.588 189.93 242.586 189.719C242.588 189.513 242.542 189.335 242.447 189.183C242.355 189.029 242.224 188.91 242.053 188.825C241.885 188.739 241.687 188.697 241.46 188.697C241.238 188.697 241.032 188.737 240.842 188.817C240.653 188.898 240.5 189.013 240.384 189.162C240.268 189.309 240.206 189.484 240.199 189.688H238.932C238.941 189.28 239.058 188.923 239.283 188.615C239.51 188.305 239.814 188.063 240.192 187.891C240.571 187.715 240.996 187.628 241.467 187.628C241.952 187.628 242.374 187.719 242.731 187.901C243.091 188.081 243.369 188.324 243.566 188.629C243.762 188.935 243.861 189.272 243.861 189.641C243.863 190.051 243.742 190.394 243.498 190.671C243.257 190.948 242.94 191.129 242.547 191.214V191.271C243.058 191.342 243.45 191.532 243.722 191.839C243.997 192.145 244.133 192.525 244.131 192.979C244.131 193.387 244.015 193.751 243.782 194.073C243.553 194.393 243.236 194.644 242.831 194.826C242.428 195.008 241.967 195.099 241.446 195.099ZM245.349 195V194.048L247.874 191.573C248.116 191.329 248.317 191.113 248.478 190.923C248.639 190.734 248.76 190.55 248.84 190.373C248.921 190.195 248.961 190.006 248.961 189.805C248.961 189.575 248.909 189.379 248.805 189.215C248.701 189.049 248.557 188.922 248.375 188.832C248.193 188.742 247.986 188.697 247.754 188.697C247.514 188.697 247.305 188.746 247.125 188.846C246.945 188.943 246.805 189.081 246.706 189.261C246.609 189.441 246.56 189.656 246.56 189.904H245.307C245.307 189.442 245.412 189.041 245.623 188.7C245.834 188.359 246.124 188.095 246.493 187.908C246.865 187.721 247.291 187.628 247.771 187.628C248.259 187.628 248.688 187.719 249.057 187.901C249.426 188.084 249.713 188.333 249.916 188.651C250.122 188.968 250.225 189.33 250.225 189.737C250.225 190.009 250.173 190.277 250.069 190.54C249.965 190.803 249.781 191.094 249.518 191.413C249.258 191.733 248.892 192.12 248.421 192.575L247.168 193.849V193.899H250.335V195H245.349Z" fill="black"/>
<path fill-rule="evenodd" clip-rule="evenodd" d="M138.5 189C139.881 189 141 187.881 141 186.5C141 185.119 139.881 184 138.5 184C137.119 184 136 185.119 136 186.5C136 187.881 137.119 189 138.5 189ZM138.5 187.5C139.052 187.5 139.5 187.052 139.5 186.5C139.5 185.948 139.052 185.5 138.5 185.5C137.948 185.5 137.5 185.948 137.5 186.5C137.5 187.052 137.948 187.5 138.5 187.5Z" fill="#2431A1"/>
<path fill-rule="evenodd" clip-rule="evenodd" d="M146.5 192C147.881 192 149 190.881 149 189.5C149 188.119 147.881 187 146.5 187C145.119 187 144 188.119 144 189.5C144 190.881 145.119 192 146.5 192ZM146.5 190.5C147.052 190.5 147.5 190.052 147.5 189.5C147.5 188.948 147.052 188.5 146.5 188.5C145.948 188.5 145.5 188.948 145.5 189.5C145.5 190.052 145.948 190.5 146.5 190.5Z" fill="#2431A1"/>
<path fill-rule="evenodd" clip-rule="evenodd" d="M138.5 199C139.881 199 141 197.881 141 196.5C141 195.119 139.881 194 138.5 194C137.119 194 136 195.119 136 196.5C136 197.881 137.119 199 138.5 199ZM138.5 197.5C139.052 197.5 139.5 197.052 139.5 196.5C139.5 195.948 139.052 195.5 138.5 195.5C137.948 195.5 137.5 195.948 137.5 196.5C137.5 197.052 137.948 197.5 138.5 197.5Z" fill="#2431A1"/>
<path d="M138 189.3V188H139.5V189.3V189.95V191.9V194.5H139H138V193.85V193.2V191.9V190.6V189.3Z" fill="#2431A1" stroke="#2431A1" stroke-width="0.1"/>
<path fill-rule="evenodd" clip-rule="evenodd" d="M144.992 191H146.99C146.991 191.156 146.993 191.298 146.995 191.431C147 191.824 147.005 192.141 146.99 192.5L146.324 193.5L145.658 194L144.327 194.5L142.329 195H140.997H139V193.258H141.036C141.732 193.236 142.271 193.196 142.633 193.169C142.823 193.155 142.963 193.145 143.051 193.143C143.24 193.112 143.365 193.061 143.453 193.001C144.173 192.997 144.772 192.654 144.91 192.2C144.949 192.153 144.978 192.088 144.992 192C145.051 191.632 145.031 191.471 145.011 191.312C145 191.22 144.989 191.129 144.992 191Z" fill="#2431A1"/>
<path d="M146.99 191L147.04 191L147.039 190.95H146.99V191ZM144.992 191V190.95H144.944L144.942 190.999L144.992 191ZM146.995 191.431L146.945 191.432V191.432L146.995 191.431ZM146.99 192.5L147.031 192.528L147.039 192.516L147.04 192.502L146.99 192.5ZM146.324 193.5L146.354 193.54L146.361 193.535L146.366 193.528L146.324 193.5ZM145.658 194L145.676 194.047L145.682 194.044L145.688 194.04L145.658 194ZM144.327 194.5L144.339 194.549L144.344 194.547L144.327 194.5ZM142.329 195V195.052L142.341 195.049L142.329 195ZM139 195H138.95V195.05H139V195ZM139 193.258V193.208H138.95V193.258H139ZM141.036 193.258V193.308L141.037 193.308L141.036 193.258ZM142.633 193.169L142.629 193.119L142.633 193.169ZM143.051 193.143L143.052 193.193L143.059 193.192L143.051 193.143ZM143.453 193.001L143.453 192.951L143.438 192.951L143.425 192.96L143.453 193.001ZM144.91 192.2L144.871 192.168L144.865 192.176L144.862 192.186L144.91 192.2ZM144.992 192L144.943 191.992V191.992L144.992 192ZM145.011 191.312L144.962 191.318V191.318L145.011 191.312ZM146.99 190.95H144.992V191.05H146.99V190.95ZM147.045 191.431C147.043 191.297 147.041 191.155 147.04 191L146.94 191C146.941 191.156 146.943 191.299 146.945 191.432L147.045 191.431ZM147.04 192.502C147.055 192.142 147.05 191.824 147.045 191.431L146.945 191.432C146.95 191.825 146.955 192.141 146.94 192.498L147.04 192.502ZM146.366 193.528L147.031 192.528L146.948 192.472L146.282 193.472L146.366 193.528ZM145.688 194.04L146.354 193.54L146.294 193.46L145.628 193.96L145.688 194.04ZM144.344 194.547L145.676 194.047L145.641 193.953L144.309 194.453L144.344 194.547ZM142.341 195.049L144.339 194.549L144.314 194.451L142.317 194.951L142.341 195.049ZM140.997 195.05H142.329V194.95H140.997V195.05ZM139 195.05H140.997V194.95H139V195.05ZM138.95 193.258V195H139.05V193.258H138.95ZM141.036 193.208H139V193.308H141.036V193.208ZM142.629 193.119C142.268 193.146 141.729 193.186 141.034 193.208L141.037 193.308C141.734 193.286 142.275 193.246 142.636 193.219L142.629 193.119ZM143.05 193.093C142.96 193.095 142.818 193.105 142.629 193.119L142.636 193.219C142.827 193.205 142.966 193.195 143.052 193.193L143.05 193.093ZM143.425 192.96C143.344 193.015 143.227 193.064 143.043 193.093L143.059 193.192C143.253 193.161 143.385 193.108 143.481 193.042L143.425 192.96ZM144.862 192.186C144.798 192.397 144.625 192.587 144.375 192.725C144.127 192.864 143.805 192.949 143.453 192.951L143.454 193.051C143.821 193.049 144.159 192.96 144.424 192.813C144.689 192.666 144.884 192.458 144.957 192.215L144.862 192.186ZM144.943 191.992C144.93 192.073 144.904 192.129 144.871 192.168L144.948 192.232C144.995 192.176 145.027 192.103 145.042 192.008L144.943 191.992ZM144.962 191.318C144.981 191.474 145.001 191.63 144.943 191.992L145.042 192.008C145.101 191.634 145.081 191.468 145.061 191.305L144.962 191.318ZM144.942 190.999C144.938 191.132 144.95 191.226 144.962 191.318L145.061 191.305C145.05 191.214 145.039 191.127 145.042 191.001L144.942 190.999Z" fill="#2431A1"/>
<path d="M215.019 189.25L213.5 184.25L211.981 189.25H207.25L211.113 192.006L209.644 196.75L213.5 193.819L217.363 196.75L215.894 192.006L219.75 189.25H215.019Z" fill="#F3B21A"/>
<g clip-path="url(#clip0_1288_1596)">
<path d="M51.0002 249C54.1585 249 56.9752 250.775 58.3502 253.583C56.9752 256.392 54.1585 258.167 51.0002 258.167C47.8418 258.167 45.0252 256.392 43.6502 253.583C45.0252 250.775 47.8418 249 51.0002 249ZM51.0002 247.333C46.8335 247.333 43.2752 249.925 41.8335 253.583C43.2752 257.242 46.8335 259.833 51.0002 259.833C55.1668 259.833 58.7252 257.242 60.1668 253.583C58.7252 249.925 55.1668 247.333 51.0002 247.333ZM51.0002 251.5C52.1502 251.5 53.0835 252.433 53.0835 253.583C53.0835 254.733 52.1502 255.667 51.0002 255.667C49.8502 255.667 48.9168 254.733 48.9168 253.583C48.9168 252.433 49.8502 251.5 51.0002 251.5ZM51.0002 249.833C48.9335 249.833 47.2502 251.517 47.2502 253.583C47.2502 255.65 48.9335 257.333 51.0002 257.333C53.0668 257.333 54.7502 255.65 54.7502 253.583C54.7502 251.517 53.0668 249.833 51.0002 249.833Z" fill="#525252"/>
</g>
<path d="M24.9375 223C24.9375 223.862 24.776 224.6 24.4531 225.215C24.1328 225.827 23.6953 226.296 23.1406 226.621C22.5885 226.947 21.9622 227.109 21.2617 227.109C20.5612 227.109 19.9336 226.947 19.3789 226.621C18.8268 226.293 18.3893 225.823 18.0664 225.211C17.7461 224.596 17.5859 223.859 17.5859 223C17.5859 222.138 17.7461 221.401 18.0664 220.789C18.3893 220.174 18.8268 219.704 19.3789 219.379C19.9336 219.053 20.5612 218.891 21.2617 218.891C21.9622 218.891 22.5885 219.053 23.1406 219.379C23.6953 219.704 24.1328 220.174 24.4531 220.789C24.776 221.401 24.9375 222.138 24.9375 223ZM23.4805 223C23.4805 222.393 23.3854 221.882 23.1953 221.465C23.0078 221.046 22.7474 220.729 22.4141 220.516C22.0807 220.299 21.6966 220.191 21.2617 220.191C20.8268 220.191 20.4427 220.299 20.1094 220.516C19.776 220.729 19.5143 221.046 19.3242 221.465C19.1367 221.882 19.043 222.393 19.043 223C19.043 223.607 19.1367 224.12 19.3242 224.539C19.5143 224.956 19.776 225.272 20.1094 225.488C20.4427 225.702 20.8268 225.809 21.2617 225.809C21.6966 225.809 22.0807 225.702 22.4141 225.488C22.7474 225.272 23.0078 224.956 23.1953 224.539C23.3854 224.12 23.4805 223.607 23.4805 223ZM27.4834 227L25.7881 221H27.2295L28.2842 225.219H28.3389L29.417 221H30.8428L31.9209 225.195H31.9795L33.0186 221H34.4639L32.7646 227H31.292L30.167 222.945H30.085L28.96 227H27.4834ZM36.8652 223.484V227H35.4512V221H36.8027V222.02H36.873C37.0111 221.684 37.2311 221.417 37.5332 221.219C37.8379 221.021 38.2142 220.922 38.6621 220.922C39.0762 220.922 39.4368 221.01 39.7441 221.187C40.054 221.365 40.2936 221.621 40.4629 221.957C40.6348 222.293 40.7194 222.701 40.7168 223.18V227H39.3027V223.398C39.3027 222.997 39.1986 222.684 38.9902 222.457C38.7845 222.23 38.4993 222.117 38.1348 222.117C37.8874 222.117 37.6673 222.172 37.4746 222.281C37.2845 222.388 37.1348 222.543 37.0254 222.746C36.9186 222.949 36.8652 223.195 36.8652 223.484ZM44.8105 227.117C44.209 227.117 43.6895 226.992 43.252 226.742C42.8171 226.49 42.4824 226.133 42.248 225.672C42.0137 225.208 41.8965 224.663 41.8965 224.035C41.8965 223.418 42.0137 222.876 42.248 222.41C42.485 221.941 42.8158 221.577 43.2402 221.316C43.6647 221.053 44.1634 220.922 44.7363 220.922C45.1061 220.922 45.4551 220.982 45.7832 221.102C46.1139 221.219 46.4056 221.401 46.6582 221.648C46.9134 221.896 47.1139 222.211 47.2598 222.594C47.4056 222.974 47.4785 223.427 47.4785 223.953V224.387H42.5605V223.434H46.123C46.1204 223.163 46.0618 222.922 45.9473 222.711C45.8327 222.497 45.6725 222.329 45.4668 222.207C45.2637 222.085 45.0267 222.023 44.7559 222.023C44.4668 222.023 44.2129 222.094 43.9941 222.234C43.7754 222.372 43.6048 222.555 43.4824 222.781C43.3626 223.005 43.3014 223.251 43.2988 223.52V224.352C43.2988 224.701 43.3626 225 43.4902 225.25C43.6178 225.497 43.7962 225.687 44.0254 225.82C44.2546 225.951 44.5228 226.016 44.8301 226.016C45.0358 226.016 45.222 225.987 45.3887 225.93C45.5553 225.87 45.6999 225.783 45.8223 225.668C45.9447 225.553 46.0371 225.411 46.0996 225.242L47.4199 225.391C47.3366 225.74 47.1777 226.044 46.9434 226.305C46.7116 226.562 46.4147 226.763 46.0527 226.906C45.6908 227.047 45.2767 227.117 44.8105 227.117ZM48.6748 227V221H50.0459V222H50.1084C50.2178 221.654 50.4053 221.387 50.6709 221.199C50.9391 221.009 51.2451 220.914 51.5889 220.914C51.667 220.914 51.7542 220.918 51.8506 220.926C51.9495 220.931 52.0316 220.94 52.0967 220.953V222.254C52.0368 222.233 51.9417 222.215 51.8115 222.199C51.6839 222.181 51.5602 222.172 51.4404 222.172C51.1826 222.172 50.9508 222.228 50.7451 222.34C50.542 222.449 50.3818 222.602 50.2646 222.797C50.1475 222.992 50.0889 223.217 50.0889 223.473V227H48.6748ZM53.9072 227.086C53.6702 227.086 53.4671 227.003 53.2979 226.836C53.1286 226.669 53.0452 226.466 53.0479 226.227C53.0452 225.992 53.1286 225.792 53.2979 225.625C53.4671 225.458 53.6702 225.375 53.9072 225.375C54.1364 225.375 54.3356 225.458 54.5049 225.625C54.6768 225.792 54.764 225.992 54.7666 226.227C54.764 226.385 54.7223 226.53 54.6416 226.66C54.5635 226.79 54.4593 226.895 54.3291 226.973C54.2015 227.048 54.0609 227.086 53.9072 227.086ZM53.9072 222.805C53.6702 222.805 53.4671 222.721 53.2979 222.555C53.1286 222.385 53.0452 222.182 53.0479 221.945C53.0452 221.711 53.1286 221.51 53.2979 221.344C53.4671 221.174 53.6702 221.09 53.9072 221.09C54.1364 221.09 54.3356 221.174 54.5049 221.344C54.6768 221.51 54.764 221.711 54.7666 221.945C54.764 222.102 54.7223 222.245 54.6416 222.375C54.5635 222.505 54.4593 222.609 54.3291 222.687C54.2015 222.766 54.0609 222.805 53.9072 222.805ZM62.7793 224.477V221H64.1934V227H62.8223V225.934H62.7598C62.6243 226.27 62.4017 226.544 62.0918 226.758C61.7845 226.971 61.4056 227.078 60.9551 227.078C60.5618 227.078 60.2142 226.991 59.9121 226.816C59.6126 226.639 59.3783 226.383 59.209 226.047C59.0397 225.708 58.9551 225.299 58.9551 224.82V221H60.3691V224.602C60.3691 224.982 60.4733 225.284 60.6816 225.508C60.89 225.732 61.1634 225.844 61.502 225.844C61.7103 225.844 61.9121 225.793 62.1074 225.691C62.3027 225.59 62.4629 225.439 62.5879 225.238C62.7155 225.035 62.7793 224.781 62.7793 224.477ZM65.6475 227V221H67.0615V227H65.6475ZM66.3584 220.148C66.1344 220.148 65.9417 220.074 65.7803 219.926C65.6188 219.775 65.5381 219.594 65.5381 219.383C65.5381 219.169 65.6188 218.988 65.7803 218.84C65.9417 218.689 66.1344 218.613 66.3584 218.613C66.585 218.613 66.7777 218.689 66.9365 218.84C67.098 218.988 67.1787 219.169 67.1787 219.383C67.1787 219.594 67.098 219.775 66.9365 219.926C66.7777 220.074 66.585 220.148 66.3584 220.148ZM69.8047 225.117L69.8008 223.41H70.0273L72.1836 221H73.8359L71.1836 223.953H70.8906L69.8047 225.117ZM68.5156 227V219H69.9297V227H68.5156ZM72.2813 227L70.3281 224.27L71.2813 223.273L73.9727 227H72.2813ZM78.6025 224.477V221H80.0166V227H78.6455V225.934H78.583C78.4476 226.27 78.2249 226.544 77.915 226.758C77.6077 226.971 77.2288 227.078 76.7783 227.078C76.3851 227.078 76.0374 226.991 75.7354 226.816C75.4359 226.639 75.2015 226.383 75.0322 226.047C74.863 225.708 74.7783 225.299 74.7783 224.82V221H76.1924V224.602C76.1924 224.982 76.2965 225.284 76.5049 225.508C76.7132 225.732 76.9867 225.844 77.3252 225.844C77.5335 225.844 77.7354 225.793 77.9307 225.691C78.126 225.59 78.2861 225.439 78.4111 225.238C78.5387 225.035 78.6025 224.781 78.6025 224.477ZM82.8848 223.484V227H81.4707V221H82.8223V222.02H82.8926C83.0306 221.684 83.2507 221.417 83.5527 221.219C83.8574 221.021 84.2337 220.922 84.6816 220.922C85.0957 220.922 85.4564 221.01 85.7637 221.187C86.0736 221.365 86.3132 221.621 86.4824 221.957C86.6543 222.293 86.7389 222.701 86.7363 223.18V227H85.3223V223.398C85.3223 222.997 85.2181 222.684 85.0098 222.457C84.804 222.23 84.5189 222.117 84.1543 222.117C83.9069 222.117 83.6868 222.172 83.4941 222.281C83.304 222.388 83.1543 222.543 83.0449 222.746C82.9382 222.949 82.8848 223.195 82.8848 223.484ZM90.7832 229.375C90.2754 229.375 89.8392 229.306 89.4746 229.168C89.11 229.033 88.8171 228.85 88.5957 228.621C88.3743 228.392 88.2207 228.138 88.1348 227.859L89.4082 227.551C89.4655 227.668 89.5488 227.784 89.6582 227.898C89.7676 228.016 89.9147 228.112 90.0996 228.188C90.2871 228.266 90.5228 228.305 90.8066 228.305C91.2077 228.305 91.5397 228.207 91.8027 228.012C92.0658 227.819 92.1973 227.501 92.1973 227.059V225.922H92.127C92.054 226.068 91.9473 226.217 91.8066 226.371C91.6686 226.525 91.485 226.654 91.2559 226.758C91.0293 226.862 90.7441 226.914 90.4004 226.914C89.9395 226.914 89.5215 226.806 89.1465 226.59C88.7741 226.371 88.4772 226.046 88.2559 225.613C88.0371 225.178 87.9277 224.634 87.9277 223.98C87.9277 223.322 88.0371 222.766 88.2559 222.312C88.4772 221.857 88.7754 221.512 89.1504 221.277C89.5254 221.04 89.9434 220.922 90.4043 220.922C90.7559 220.922 91.0449 220.982 91.2715 221.102C91.5007 221.219 91.6829 221.361 91.8184 221.527C91.9538 221.691 92.0566 221.846 92.127 221.992H92.2051V221H93.5996V227.098C93.5996 227.611 93.4772 228.035 93.2324 228.371C92.9876 228.707 92.653 228.958 92.2285 229.125C91.804 229.292 91.3223 229.375 90.7832 229.375ZM90.7949 225.805C91.0944 225.805 91.3496 225.732 91.5605 225.586C91.7715 225.44 91.9316 225.23 92.041 224.957C92.1504 224.684 92.2051 224.355 92.2051 223.973C92.2051 223.595 92.1504 223.264 92.041 222.98C91.9342 222.697 91.7754 222.477 91.5645 222.32C91.3561 222.161 91.0996 222.082 90.7949 222.082C90.4798 222.082 90.2168 222.164 90.0059 222.328C89.7949 222.492 89.6361 222.717 89.5293 223.004C89.4225 223.288 89.3691 223.611 89.3691 223.973C89.3691 224.34 89.4225 224.661 89.5293 224.938C89.6387 225.211 89.7988 225.424 90.0098 225.578C90.2233 225.729 90.485 225.805 90.7949 225.805Z" fill="black"/>
<path d="M31.7891 160V152H33.2031V154.992H33.2617C33.3346 154.846 33.4375 154.691 33.5703 154.527C33.7031 154.361 33.8828 154.219 34.1094 154.102C34.3359 153.982 34.625 153.922 34.9766 153.922C35.4401 153.922 35.8581 154.04 36.2305 154.277C36.6055 154.512 36.9023 154.859 37.1211 155.32C37.3424 155.779 37.4531 156.341 37.4531 157.008C37.4531 157.667 37.3451 158.227 37.1289 158.687C36.9128 159.148 36.6185 159.5 36.2461 159.742C35.8737 159.984 35.4518 160.105 34.9805 160.105C34.6367 160.105 34.3516 160.048 34.125 159.934C33.8984 159.819 33.7161 159.681 33.5781 159.52C33.4427 159.355 33.3372 159.201 33.2617 159.055H33.1797V160H31.7891ZM33.1758 157C33.1758 157.388 33.2305 157.728 33.3398 158.02C33.4518 158.311 33.612 158.539 33.8203 158.703C34.0313 158.865 34.2865 158.945 34.5859 158.945C34.8984 158.945 35.1602 158.862 35.3711 158.695C35.582 158.526 35.7409 158.296 35.8477 158.004C35.957 157.71 36.0117 157.375 36.0117 157C36.0117 156.628 35.9583 156.297 35.8516 156.008C35.7448 155.719 35.5859 155.492 35.375 155.328C35.1641 155.164 34.901 155.082 34.5859 155.082C34.2839 155.082 34.0273 155.161 33.8164 155.32C33.6055 155.479 33.4453 155.702 33.3359 155.988C33.2292 156.275 33.1758 156.612 33.1758 157ZM41.2725 160.117C40.6865 160.117 40.1787 159.988 39.749 159.73C39.3193 159.473 38.986 159.112 38.749 158.648C38.5146 158.185 38.3975 157.643 38.3975 157.023C38.3975 156.404 38.5146 155.861 38.749 155.395C38.986 154.928 39.3193 154.566 39.749 154.309C40.1787 154.051 40.6865 153.922 41.2725 153.922C41.8584 153.922 42.3662 154.051 42.7959 154.309C43.2256 154.566 43.5576 154.928 43.792 155.395C44.029 155.861 44.1475 156.404 44.1475 157.023C44.1475 157.643 44.029 158.185 43.792 158.648C43.5576 159.112 43.2256 159.473 42.7959 159.73C42.3662 159.988 41.8584 160.117 41.2725 160.117ZM41.2803 158.984C41.598 158.984 41.8636 158.897 42.0771 158.723C42.2907 158.546 42.4495 158.309 42.5537 158.012C42.6605 157.715 42.7139 157.384 42.7139 157.02C42.7139 156.652 42.6605 156.32 42.5537 156.023C42.4495 155.724 42.2907 155.486 42.0771 155.309C41.8636 155.132 41.598 155.043 41.2803 155.043C40.9548 155.043 40.6839 155.132 40.4678 155.309C40.2542 155.486 40.0941 155.724 39.9873 156.023C39.8831 156.32 39.8311 156.652 39.8311 157.02C39.8311 157.384 39.8831 157.715 39.9873 158.012C40.0941 158.309 40.2542 158.546 40.4678 158.723C40.6839 158.897 40.9548 158.984 41.2803 158.984ZM47.9648 160.117C47.3659 160.117 46.8516 159.986 46.4219 159.723C45.9948 159.46 45.6654 159.096 45.4336 158.633C45.2044 158.167 45.0898 157.63 45.0898 157.023C45.0898 156.414 45.207 155.876 45.4414 155.41C45.6758 154.941 46.0065 154.577 46.4336 154.316C46.8633 154.053 47.3711 153.922 47.957 153.922C48.444 153.922 48.875 154.012 49.25 154.191C49.6276 154.368 49.9284 154.62 50.1523 154.945C50.3763 155.268 50.5039 155.646 50.5352 156.078H49.1836C49.1289 155.789 48.9987 155.548 48.793 155.355C48.5898 155.16 48.3177 155.062 47.9766 155.062C47.6875 155.062 47.4336 155.141 47.2148 155.297C46.9961 155.451 46.8255 155.672 46.7031 155.961C46.5833 156.25 46.5234 156.596 46.5234 157C46.5234 157.409 46.5833 157.76 46.7031 158.055C46.8229 158.346 46.9909 158.572 47.207 158.73C47.4258 158.887 47.6823 158.965 47.9766 158.965C48.1849 158.965 48.3711 158.926 48.5352 158.848C48.7018 158.767 48.8411 158.651 48.9531 158.5C49.0651 158.349 49.1419 158.165 49.1836 157.949H50.5352C50.5013 158.374 50.3763 158.75 50.1602 159.078C49.944 159.404 49.6497 159.659 49.2773 159.844C48.9049 160.026 48.4674 160.117 47.9648 160.117ZM54.3135 160.117C53.7145 160.117 53.2002 159.986 52.7705 159.723C52.3434 159.46 52.014 159.096 51.7822 158.633C51.5531 158.167 51.4385 157.63 51.4385 157.023C51.4385 156.414 51.5557 155.876 51.79 155.41C52.0244 154.941 52.3551 154.577 52.7822 154.316C53.2119 154.053 53.7197 153.922 54.3057 153.922C54.7926 153.922 55.2236 154.012 55.5986 154.191C55.9762 154.368 56.277 154.62 56.501 154.945C56.7249 155.268 56.8525 155.646 56.8838 156.078H55.5322C55.4775 155.789 55.3473 155.548 55.1416 155.355C54.9385 155.16 54.6663 155.062 54.3252 155.062C54.0361 155.062 53.7822 155.141 53.5635 155.297C53.3447 155.451 53.1742 155.672 53.0518 155.961C52.932 156.25 52.8721 156.596 52.8721 157C52.8721 157.409 52.932 157.76 53.0518 158.055C53.1715 158.346 53.3395 158.572 53.5557 158.73C53.7744 158.887 54.0309 158.965 54.3252 158.965C54.5335 158.965 54.7197 158.926 54.8838 158.848C55.0505 158.767 55.1898 158.651 55.3018 158.5C55.4137 158.349 55.4906 158.165 55.5322 157.949H56.8838C56.8499 158.374 56.7249 158.75 56.5088 159.078C56.2926 159.404 55.9984 159.659 55.626 159.844C55.2536 160.026 54.8161 160.117 54.3135 160.117ZM59.459 156.484V160H58.0449V152H59.4277V155.02H59.498C59.6387 154.681 59.8561 154.414 60.1504 154.219C60.4473 154.021 60.8249 153.922 61.2832 153.922C61.6999 153.922 62.0632 154.009 62.373 154.184C62.6829 154.358 62.9225 154.613 63.0918 154.949C63.2637 155.285 63.3496 155.695 63.3496 156.18V160H61.9355V156.398C61.9355 155.995 61.8314 155.681 61.623 155.457C61.4173 155.23 61.1283 155.117 60.7559 155.117C60.5059 155.117 60.2819 155.172 60.084 155.281C59.8887 155.388 59.735 155.543 59.623 155.746C59.5137 155.949 59.459 156.195 59.459 156.484ZM64.791 160V154H66.2051V160H64.791ZM65.502 153.148C65.278 153.148 65.0853 153.074 64.9238 152.926C64.7624 152.775 64.6816 152.594 64.6816 152.383C64.6816 152.169 64.7624 151.988 64.9238 151.84C65.0853 151.689 65.278 151.613 65.502 151.613C65.7285 151.613 65.9212 151.689 66.0801 151.84C66.2415 151.988 66.3223 152.169 66.3223 152.383C66.3223 152.594 66.2415 152.775 66.0801 152.926C65.9212 153.074 65.7285 153.148 65.502 153.148ZM69.8857 160.105C69.4144 160.105 68.9925 159.984 68.6201 159.742C68.2477 159.5 67.9535 159.148 67.7373 158.687C67.5212 158.227 67.4131 157.667 67.4131 157.008C67.4131 156.341 67.5225 155.779 67.7412 155.32C67.9626 154.859 68.2607 154.512 68.6357 154.277C69.0107 154.04 69.4287 153.922 69.8896 153.922C70.2412 153.922 70.5303 153.982 70.7568 154.102C70.9834 154.219 71.1631 154.361 71.2959 154.527C71.4287 154.691 71.5316 154.846 71.6045 154.992H71.6631V152H73.0811V160H71.6904V159.055H71.6045C71.5316 159.201 71.4261 159.355 71.2881 159.52C71.1501 159.681 70.9678 159.819 70.7412 159.934C70.5146 160.048 70.2295 160.105 69.8857 160.105ZM70.2803 158.945C70.5798 158.945 70.835 158.865 71.0459 158.703C71.2568 158.539 71.417 158.311 71.5264 158.02C71.6357 157.728 71.6904 157.388 71.6904 157C71.6904 156.612 71.6357 156.275 71.5264 155.988C71.4196 155.702 71.2607 155.479 71.0498 155.32C70.8415 155.161 70.585 155.082 70.2803 155.082C69.9652 155.082 69.7021 155.164 69.4912 155.328C69.2803 155.492 69.1214 155.719 69.0146 156.008C68.9079 156.297 68.8545 156.628 68.8545 157C68.8545 157.375 68.9079 157.71 69.0146 158.004C69.124 158.296 69.2842 158.526 69.4951 158.695C69.7087 158.862 69.9704 158.945 70.2803 158.945ZM77.2441 160.117C76.6426 160.117 76.123 159.992 75.6855 159.742C75.2507 159.49 74.916 159.133 74.6816 158.672C74.4473 158.208 74.3301 157.663 74.3301 157.035C74.3301 156.418 74.4473 155.876 74.6816 155.41C74.9186 154.941 75.2493 154.577 75.6738 154.316C76.0983 154.053 76.597 153.922 77.1699 153.922C77.5397 153.922 77.8887 153.982 78.2168 154.102C78.5475 154.219 78.8392 154.401 79.0918 154.648C79.347 154.896 79.5475 155.211 79.6934 155.594C79.8392 155.974 79.9121 156.427 79.9121 156.953V157.387H74.9941V156.434H78.5566C78.554 156.163 78.4954 155.922 78.3809 155.711C78.2663 155.497 78.1061 155.329 77.9004 155.207C77.6973 155.085 77.4603 155.023 77.1895 155.023C76.9004 155.023 76.6465 155.094 76.4277 155.234C76.209 155.372 76.0384 155.555 75.916 155.781C75.7962 156.005 75.735 156.251 75.7324 156.52V157.352C75.7324 157.701 75.7962 158 75.9238 158.25C76.0514 158.497 76.2298 158.687 76.459 158.82C76.6882 158.951 76.9564 159.016 77.2637 159.016C77.4694 159.016 77.6556 158.987 77.8223 158.93C77.9889 158.87 78.1335 158.783 78.2559 158.668C78.3783 158.553 78.4707 158.411 78.5332 158.242L79.8535 158.391C79.7702 158.74 79.6113 159.044 79.377 159.305C79.1452 159.562 78.8483 159.763 78.4863 159.906C78.1243 160.047 77.7103 160.117 77.2441 160.117ZM85.8506 155.586L84.5615 155.727C84.5251 155.596 84.4613 155.474 84.3701 155.359C84.2816 155.245 84.1618 155.152 84.0107 155.082C83.8597 155.012 83.6748 154.977 83.4561 154.977C83.1618 154.977 82.9144 155.04 82.7139 155.168C82.516 155.296 82.4183 155.461 82.4209 155.664C82.4183 155.839 82.4821 155.98 82.6123 156.09C82.7451 156.199 82.9639 156.289 83.2686 156.359L84.292 156.578C84.8597 156.701 85.2816 156.895 85.5576 157.16C85.8363 157.426 85.9769 157.773 85.9795 158.203C85.9769 158.581 85.8662 158.914 85.6475 159.203C85.4313 159.49 85.1305 159.714 84.7451 159.875C84.3597 160.036 83.917 160.117 83.417 160.117C82.6826 160.117 82.0915 159.964 81.6436 159.656C81.1956 159.346 80.9287 158.915 80.8428 158.363L82.2217 158.23C82.2842 158.501 82.417 158.706 82.6201 158.844C82.8232 158.982 83.0876 159.051 83.4131 159.051C83.749 159.051 84.0186 158.982 84.2217 158.844C84.4274 158.706 84.5303 158.535 84.5303 158.332C84.5303 158.16 84.4639 158.018 84.3311 157.906C84.2008 157.794 83.9977 157.708 83.7217 157.648L82.6982 157.434C82.1227 157.314 81.6969 157.112 81.4209 156.828C81.1449 156.542 81.0081 156.18 81.0107 155.742C81.0081 155.372 81.1084 155.052 81.3115 154.781C81.5173 154.508 81.8024 154.297 82.167 154.148C82.5342 153.997 82.9574 153.922 83.4365 153.922C84.1396 153.922 84.693 154.072 85.0967 154.371C85.5029 154.671 85.7542 155.076 85.8506 155.586Z" fill="black"/>
<rect x="236" y="27" width="15" height="14" fill="#525252"/>
<path d="M243.667 36.3333C244.858 36.3333 245.833 35.3583 245.833 34.1667C245.833 32.975 244.858 32 243.667 32C242.475 32 241.5 32.975 241.5 34.1667C241.5 35.3583 242.475 36.3333 243.667 36.3333ZM250.167 26.5833H249.083V24.4167C249.083 21.4267 246.657 19 243.667 19C240.677 19 238.25 21.4267 238.25 24.4167H240.308C240.308 22.5642 241.814 21.0583 243.667 21.0583C245.519 21.0583 247.025 22.5642 247.025 24.4167V26.5833H237.167C235.975 26.5833 235 27.5583 235 28.75V39.5833C235 40.775 235.975 41.75 237.167 41.75H250.167C251.358 41.75 252.333 40.775 252.333 39.5833V28.75C252.333 27.5583 251.358 26.5833 250.167 26.5833ZM250.167 39.5833H237.167V28.75H250.167V39.5833Z" fill="#525252"/>
<path d="M246 34.25C246 35.4926 244.993 36.5 243.75 36.5C242.507 36.5 241.5 35.4926 241.5 34.25C241.5 33.0074 242.507 32 243.75 32C244.993 32 246 33.0074 246 34.25Z" fill="#F4F0E8"/>
<ellipse cx="48.5" cy="91.5" rx="17.5" ry="15.5" fill="#CFA923"/>
<ellipse cx="108.5" cy="90.5" rx="17.5" ry="15.5" fill="#DF85D1"/>
<ellipse cx="167.5" cy="90.5" rx="17.5" ry="15.5" fill="#BE1FC1"/>
<ellipse cx="227.5" cy="90.5" rx="17.5" ry="15.5" fill="#EF1414"/>
<line x1="66" y1="90" x2="91" y2="90" stroke="black" stroke-width="2"/>
<line x1="126" y1="91" x2="151" y2="91" stroke="black" stroke-width="2"/>
<path d="M184.5 90L209.5 90" stroke="black" stroke-width="2"/>
<path fill-rule="evenodd" clip-rule="evenodd" d="M48.9998 82.6665C52.2215 82.6665 54.8332 85.2782 54.8332 88.4998C54.8332 89.5625 54.5498 90.5582 54.0526 91.4168C53.7211 91.9893 52.0368 94.9058 48.9998 100.167C45.9628 94.9058 44.2786 91.9893 43.9471 91.4168C43.4498 90.5582 43.1665 89.5625 43.1665 88.4998C43.1665 85.2782 45.7782 82.6665 48.9998 82.6665ZM48.9998 85.9998C47.6191 85.9998 46.4998 87.1191 46.4998 88.4998C46.4998 89.8805 47.6191 90.9998 48.9998 90.9998C50.3805 90.9998 51.4998 89.8805 51.4998 88.4998C51.4998 87.1191 50.3805 85.9998 48.9998 85.9998Z" fill="black"/>
<defs>
<filter id="filter0_d_1288_1596" x="0" y="0" width="279" height="282" filterUnits="userSpaceOnUse" color-interpolation-filters="sRGB">
<feFlood flood-opacity="0" result="BackgroundImageFix"/>
<feColorMatrix in="SourceAlpha" type="matrix" values="0 0 0 0 0 0 0 0 0 0 0 0 0 0 0 0 0 0 127 0" result="hardAlpha"/>
<feOffset dy="4"/>
<feGaussianBlur stdDeviation="5"/>
<feComposite in2="hardAlpha" operator="out"/>
<feColorMatrix type="matrix" values="0 0 0 0 0 0 0 0 0 0 0 0 0 0 0 0 0 0 0.08 0"/>
<feBlend mode="normal" in2="BackgroundImageFix" result="effect1_dropShadow_1288_1596"/>
<feBlend mode="normal" in="SourceGraphic" in2="effect1_dropShadow_1288_1596" result="shape"/>
</filter>
<filter id="filter1_d_1288_1596" x="190" y="176" width="75" height="39" filterUnits="userSpaceOnUse" color-interpolation-filters="sRGB">
<feFlood flood-opacity="0" result="BackgroundImageFix"/>
<feColorMatrix in="SourceAlpha" type="matrix" values="0 0 0 0 0 0 0 0 0 0 0 0 0 0 0 0 0 0 127 0" result="hardAlpha"/>
<feOffset dy="4"/>
<feGaussianBlur stdDeviation="5"/>
<feComposite in2="hardAlpha" operator="out"/>
<feColorMatrix type="matrix" values="0 0 0 0 0 0 0 0 0 0 0 0 0 0 0 0 0 0 0.05 0"/>
<feBlend mode="normal" in2="BackgroundImageFix" result="effect1_dropShadow_1288_1596"/>
<feBlend mode="normal" in="SourceGraphic" in2="effect1_dropShadow_1288_1596" result="shape"/>
</filter>
<filter id="filter2_d_1288_1596" x="120" y="176" width="75" height="39" filterUnits="userSpaceOnUse" color-interpolation-filters="sRGB">
<feFlood flood-opacity="0" result="BackgroundImageFix"/>
<feColorMatrix in="SourceAlpha" type="matrix" values="0 0 0 0 0 0 0 0 0 0 0 0 0 0 0 0 0 0 127 0" result="hardAlpha"/>
<feOffset dy="4"/>
<feGaussianBlur stdDeviation="5"/>
<feComposite in2="hardAlpha" operator="out"/>
<feColorMatrix type="matrix" values="0 0 0 0 0 0 0 0 0 0 0 0 0 0 0 0 0 0 0.05 0"/>
<feBlend mode="normal" in2="BackgroundImageFix" result="effect1_dropShadow_1288_1596"/>
<feBlend mode="normal" in="SourceGraphic" in2="effect1_dropShadow_1288_1596" result="shape"/>
</filter>
<clipPath id="clip0_1288_1596">
<rect width="20" height="20" fill="white" transform="translate(41 244)"/>
</clipPath>
</defs>
</svg>
