<svg width="279" height="282" viewBox="0 0 279 282" fill="none" xmlns="http://www.w3.org/2000/svg">
<g filter="url(#filter0_d_1538_2838)">
<rect x="10" y="6" width="259" height="262" rx="30" fill="white"/>
<rect x="10.5" y="6.5" width="258" height="261" rx="29.5" stroke="#D9D9D9"/>
</g>
<rect x="15" y="13" width="248" height="154" rx="30" fill="#F2F2F2"/>
<path d="M16.1378 197V183.909H21.3026C22.2955 183.909 23.1413 184.099 23.8402 184.478C24.5391 184.853 25.0717 185.375 25.4382 186.044C25.8089 186.709 25.9943 187.476 25.9943 188.345C25.9943 189.214 25.8068 189.982 25.4318 190.646C25.0568 191.311 24.5135 191.829 23.8018 192.2C23.0945 192.57 22.2379 192.756 21.2322 192.756H17.9403V190.538H20.7848C21.3175 190.538 21.7564 190.446 22.1016 190.263C22.451 190.075 22.7109 189.817 22.8814 189.489C23.0561 189.157 23.1435 188.776 23.1435 188.345C23.1435 187.911 23.0561 187.531 22.8814 187.207C22.7109 186.879 22.451 186.626 22.1016 186.447C21.7521 186.263 21.3089 186.172 20.772 186.172H18.9055V197H16.1378ZM30.277 197.185C29.6506 197.185 29.0923 197.077 28.6023 196.859C28.1122 196.638 27.7244 196.312 27.4389 195.881C27.1577 195.447 27.017 194.906 27.017 194.258C27.017 193.712 27.1172 193.254 27.3175 192.884C27.5178 192.513 27.7905 192.214 28.1357 191.989C28.4808 191.763 28.8729 191.592 29.3118 191.477C29.755 191.362 30.2195 191.281 30.7053 191.234C31.2763 191.175 31.7365 191.119 32.0859 191.068C32.4354 191.013 32.6889 190.932 32.8466 190.825C33.0043 190.719 33.0831 190.561 33.0831 190.352V190.314C33.0831 189.909 32.9553 189.596 32.6996 189.374C32.4482 189.153 32.0902 189.042 31.6257 189.042C31.1357 189.042 30.7457 189.151 30.456 189.368C30.1662 189.581 29.9744 189.849 29.8807 190.173L27.3622 189.969C27.4901 189.372 27.7415 188.857 28.1165 188.422C28.4915 187.983 28.9751 187.646 29.5675 187.412C30.1641 187.173 30.8544 187.054 31.6385 187.054C32.1839 187.054 32.706 187.118 33.2045 187.246C33.7074 187.374 34.1527 187.572 34.5405 187.84C34.9325 188.109 35.2415 188.454 35.4673 188.876C35.6932 189.293 35.8061 189.794 35.8061 190.378V197H33.2237V195.638H33.147C32.9893 195.945 32.7784 196.216 32.5142 196.45C32.25 196.68 31.9325 196.862 31.5618 196.994C31.1911 197.121 30.7628 197.185 30.277 197.185ZM31.0568 195.306C31.4574 195.306 31.8111 195.227 32.1179 195.07C32.4247 194.908 32.6655 194.69 32.8402 194.418C33.0149 194.145 33.1023 193.836 33.1023 193.491V192.449C33.017 192.504 32.8999 192.555 32.7507 192.602C32.6058 192.645 32.4418 192.685 32.2585 192.724C32.0753 192.758 31.892 192.79 31.7088 192.82C31.5256 192.845 31.3594 192.869 31.2102 192.89C30.8906 192.937 30.6115 193.011 30.3729 193.114C30.1342 193.216 29.9489 193.354 29.8168 193.529C29.6847 193.7 29.6186 193.913 29.6186 194.168C29.6186 194.539 29.7528 194.822 30.0213 195.018C30.294 195.21 30.6392 195.306 31.0568 195.306ZM37.9187 200.682V187.182H40.6033V188.831H40.7248C40.8441 188.567 41.0167 188.298 41.2425 188.026C41.4727 187.749 41.771 187.518 42.1374 187.335C42.5082 187.148 42.9684 187.054 43.5181 187.054C44.234 187.054 44.8945 187.241 45.4996 187.616C46.1048 187.987 46.5884 188.548 46.9506 189.298C47.3129 190.043 47.494 190.979 47.494 192.104C47.494 193.199 47.3171 194.124 46.9634 194.878C46.614 195.628 46.1367 196.197 45.5316 196.585C44.9308 196.968 44.2575 197.16 43.5117 197.16C42.9833 197.16 42.5337 197.072 42.163 196.898C41.7965 196.723 41.4961 196.504 41.2617 196.239C41.0273 195.971 40.8484 195.7 40.7248 195.428H40.6417V200.682H37.9187ZM40.5842 192.091C40.5842 192.675 40.6651 193.184 40.8271 193.619C40.989 194.053 41.2234 194.392 41.5302 194.635C41.837 194.874 42.2099 194.993 42.6488 194.993C43.092 194.993 43.467 194.871 43.7738 194.629C44.0806 194.381 44.3129 194.04 44.4705 193.606C44.6325 193.167 44.7134 192.662 44.7134 192.091C44.7134 191.524 44.6346 191.026 44.4769 190.595C44.3192 190.165 44.087 189.828 43.7802 189.585C43.4734 189.342 43.0962 189.221 42.6488 189.221C42.2056 189.221 41.8306 189.338 41.5238 189.572C41.2212 189.807 40.989 190.139 40.8271 190.57C40.6651 191 40.5842 191.507 40.5842 192.091ZM53.7837 197.192C52.7738 197.192 51.9045 196.987 51.1758 196.578C50.4513 196.165 49.8931 195.581 49.5011 194.827C49.109 194.068 48.913 193.171 48.913 192.136C48.913 191.126 49.109 190.239 49.5011 189.477C49.8931 188.714 50.445 188.119 51.1566 187.693C51.8725 187.267 52.712 187.054 53.6751 187.054C54.3228 187.054 54.9258 187.158 55.484 187.367C56.0465 187.572 56.5366 187.881 56.9542 188.294C57.3761 188.707 57.7042 189.227 57.9386 189.854C58.1729 190.476 58.2901 191.205 58.2901 192.04V192.788H49.9996V191.1H55.7269C55.7269 190.708 55.6417 190.361 55.4712 190.058C55.3008 189.756 55.0643 189.519 54.7617 189.349C54.4634 189.174 54.1161 189.087 53.7198 189.087C53.3065 189.087 52.94 189.183 52.6204 189.374C52.305 189.562 52.0579 189.815 51.8789 190.135C51.6999 190.45 51.6083 190.802 51.604 191.19V192.794C51.604 193.28 51.6935 193.7 51.8725 194.053C52.0558 194.407 52.3136 194.68 52.646 194.871C52.9783 195.063 53.3725 195.159 53.8285 195.159C54.131 195.159 54.408 195.116 54.6594 195.031C54.9109 194.946 55.1261 194.818 55.305 194.648C55.484 194.477 55.6204 194.268 55.7141 194.021L58.2326 194.188C58.1048 194.793 57.8427 195.321 57.4464 195.773C57.0543 196.22 56.5472 196.57 55.9251 196.821C55.3072 197.068 54.5934 197.192 53.7837 197.192ZM60.0671 197V187.182H62.707V188.895H62.8093C62.9883 188.286 63.2887 187.825 63.7106 187.514C64.1325 187.199 64.6183 187.041 65.168 187.041C65.3043 187.041 65.4513 187.05 65.609 187.067C65.7667 187.084 65.9052 187.107 66.0245 187.137V189.553C65.8967 189.515 65.7198 189.481 65.494 189.451C65.2681 189.421 65.0614 189.406 64.8739 189.406C64.4734 189.406 64.1154 189.494 63.8001 189.668C63.489 189.839 63.2418 190.077 63.0586 190.384C62.8796 190.691 62.7901 191.045 62.7901 191.445V197H60.0671ZM76.0344 197.192C75.0288 197.192 74.1637 196.979 73.4393 196.553C72.7191 196.122 72.1651 195.526 71.7773 194.763C71.3938 194 71.2021 193.122 71.2021 192.129C71.2021 191.124 71.396 190.241 71.7837 189.483C72.1758 188.72 72.7319 188.126 73.4521 187.7C74.1722 187.269 75.0288 187.054 76.0217 187.054C76.8782 187.054 77.6282 187.21 78.2717 187.521C78.9151 187.832 79.4244 188.268 79.7994 188.831C80.1744 189.393 80.381 190.054 80.4194 190.812H77.8498C77.7773 190.322 77.5856 189.928 77.2745 189.63C76.9677 189.327 76.565 189.176 76.0664 189.176C75.6445 189.176 75.2759 189.291 74.9606 189.521C74.6495 189.747 74.4066 190.077 74.2319 190.512C74.0572 190.947 73.9698 191.473 73.9698 192.091C73.9698 192.717 74.055 193.25 74.2255 193.689C74.4002 194.128 74.6452 194.462 74.9606 194.692C75.2759 194.923 75.6445 195.038 76.0664 195.038C76.3775 195.038 76.6566 194.974 76.9038 194.846C77.1552 194.718 77.3619 194.533 77.5238 194.29C77.69 194.043 77.7987 193.746 77.8498 193.401H80.4194C80.3768 194.151 80.1722 194.812 79.8058 195.383C79.4435 195.95 78.9428 196.393 78.3036 196.712C77.6644 197.032 76.908 197.192 76.0344 197.192ZM82.1628 197V187.182H84.8027V188.895H84.905C85.084 188.286 85.3844 187.825 85.8063 187.514C86.2282 187.199 86.714 187.041 87.2637 187.041C87.4 187.041 87.5471 187.05 87.7047 187.067C87.8624 187.084 88.0009 187.107 88.1202 187.137V189.553C87.9924 189.515 87.8155 189.481 87.5897 189.451C87.3638 189.421 87.1571 189.406 86.9696 189.406C86.5691 189.406 86.2111 189.494 85.8958 189.668C85.5847 189.839 85.3375 190.077 85.1543 190.384C84.9753 190.691 84.8858 191.045 84.8858 191.445V197H82.1628ZM92.0465 197.185C91.4201 197.185 90.8619 197.077 90.3718 196.859C89.8817 196.638 89.494 196.312 89.2085 195.881C88.9272 195.447 88.7866 194.906 88.7866 194.258C88.7866 193.712 88.8867 193.254 89.087 192.884C89.2873 192.513 89.56 192.214 89.9052 191.989C90.2504 191.763 90.6424 191.592 91.0813 191.477C91.5245 191.362 91.989 191.281 92.4748 191.234C93.0458 191.175 93.506 191.119 93.8555 191.068C94.2049 191.013 94.4585 190.932 94.6161 190.825C94.7738 190.719 94.8526 190.561 94.8526 190.352V190.314C94.8526 189.909 94.7248 189.596 94.4691 189.374C94.2177 189.153 93.8597 189.042 93.3952 189.042C92.9052 189.042 92.5153 189.151 92.2255 189.368C91.9357 189.581 91.744 189.849 91.6502 190.173L89.1317 189.969C89.2596 189.372 89.511 188.857 89.886 188.422C90.261 187.983 90.7447 187.646 91.337 187.412C91.9336 187.173 92.6239 187.054 93.408 187.054C93.9535 187.054 94.4755 187.118 94.9741 187.246C95.4769 187.374 95.9222 187.572 96.31 187.84C96.7021 188.109 97.011 188.454 97.2369 188.876C97.4627 189.293 97.5756 189.794 97.5756 190.378V197H94.9933V195.638H94.9165C94.7589 195.945 94.5479 196.216 94.2837 196.45C94.0195 196.68 93.7021 196.862 93.3313 196.994C92.9606 197.121 92.5323 197.185 92.0465 197.185ZM92.8263 195.306C93.2269 195.306 93.5806 195.227 93.8874 195.07C94.1942 194.908 94.435 194.69 94.6097 194.418C94.7844 194.145 94.8718 193.836 94.8718 193.491V192.449C94.7866 192.504 94.6694 192.555 94.5202 192.602C94.3754 192.645 94.2113 192.685 94.0281 192.724C93.8448 192.758 93.6616 192.79 93.4783 192.82C93.2951 192.845 93.1289 192.869 92.9798 192.89C92.6602 192.937 92.381 193.011 92.1424 193.114C91.9038 193.216 91.7184 193.354 91.5863 193.529C91.4542 193.7 91.3881 193.913 91.3881 194.168C91.3881 194.539 91.5224 194.822 91.7908 195.018C92.0636 195.21 92.4087 195.306 92.8263 195.306ZM104.968 187.182V189.227H98.9084V187.182H104.968ZM100.295 197V186.472C100.295 185.761 100.434 185.17 100.711 184.702C100.992 184.233 101.376 183.881 101.862 183.647C102.347 183.413 102.899 183.295 103.517 183.295C103.935 183.295 104.316 183.327 104.661 183.391C105.011 183.455 105.271 183.513 105.441 183.564L104.955 185.609C104.849 185.575 104.717 185.543 104.559 185.513C104.406 185.484 104.248 185.469 104.086 185.469C103.685 185.469 103.406 185.562 103.249 185.75C103.091 185.933 103.012 186.191 103.012 186.523V197H100.295ZM111.854 187.182V189.227H105.941V187.182H111.854ZM107.284 184.83H110.007V193.983C110.007 194.234 110.045 194.43 110.122 194.571C110.198 194.707 110.305 194.803 110.441 194.859C110.582 194.914 110.744 194.942 110.927 194.942C111.055 194.942 111.183 194.931 111.311 194.91C111.438 194.884 111.536 194.865 111.605 194.852L112.033 196.879C111.896 196.921 111.705 196.97 111.458 197.026C111.21 197.085 110.91 197.121 110.556 197.134C109.9 197.16 109.325 197.072 108.83 196.872C108.34 196.672 107.959 196.361 107.686 195.939C107.414 195.517 107.279 194.984 107.284 194.341V184.83Z" fill="black"/>
<path d="M219 6H239C255.569 6 269 19.4315 269 36V56H219V6Z" fill="#D9D9D9" fill-opacity="0.3"/>
<path d="M62.5156 256.977C62.3229 256.977 62.1576 256.908 62.0195 256.77C61.8815 256.632 61.8125 256.466 61.8125 256.273C61.8125 256.081 61.8815 255.915 62.0195 255.777C62.1576 255.639 62.3229 255.57 62.5156 255.57C62.7083 255.57 62.8737 255.639 63.0117 255.777C63.1497 255.915 63.2188 256.081 63.2188 256.273C63.2188 256.401 63.1862 256.518 63.1211 256.625C63.0586 256.732 62.974 256.818 62.8672 256.883C62.763 256.945 62.6458 256.977 62.5156 256.977ZM62.5156 252.93C62.3229 252.93 62.1576 252.861 62.0195 252.723C61.8815 252.585 61.8125 252.419 61.8125 252.227C61.8125 252.034 61.8815 251.868 62.0195 251.73C62.1576 251.592 62.3229 251.523 62.5156 251.523C62.7083 251.523 62.8737 251.592 63.0117 251.73C63.1497 251.868 63.2188 252.034 63.2188 252.227C63.2188 252.354 63.1862 252.471 63.1211 252.578C63.0586 252.685 62.974 252.771 62.8672 252.836C62.763 252.898 62.6458 252.93 62.5156 252.93ZM70.498 249.891C70.8262 249.893 71.1543 249.956 71.4824 250.078C71.8105 250.201 72.11 250.404 72.3809 250.687C72.6517 250.969 72.8691 251.353 73.0332 251.84C73.1973 252.327 73.2793 252.937 73.2793 253.672C73.2793 254.383 73.2116 255.014 73.0762 255.566C72.9434 256.116 72.7507 256.579 72.498 256.957C72.248 257.335 71.9434 257.621 71.584 257.816C71.2272 258.012 70.8236 258.109 70.373 258.109C69.9251 258.109 69.5254 258.021 69.1738 257.844C68.8249 257.664 68.5384 257.415 68.3145 257.098C68.0931 256.777 67.9512 256.406 67.8887 255.984H68.8418C68.9277 256.352 69.0983 256.655 69.3535 256.895C69.6113 257.132 69.9512 257.25 70.373 257.25C70.9902 257.25 71.4772 256.98 71.834 256.441C72.1934 255.902 72.373 255.141 72.373 254.156H72.3105C72.1647 254.375 71.9915 254.564 71.791 254.723C71.5905 254.882 71.3678 255.004 71.123 255.09C70.8783 255.176 70.6178 255.219 70.3418 255.219C69.8835 255.219 69.4629 255.105 69.0801 254.879C68.6999 254.65 68.3952 254.336 68.166 253.937C67.9395 253.536 67.8262 253.078 67.8262 252.562C67.8262 252.073 67.9355 251.625 68.1543 251.219C68.3757 250.81 68.6855 250.484 69.084 250.242C69.485 250 69.9564 249.883 70.498 249.891ZM70.498 250.75C70.1699 250.75 69.8743 250.832 69.6113 250.996C69.3509 251.158 69.1439 251.376 68.9902 251.652C68.8392 251.926 68.7637 252.229 68.7637 252.562C68.7637 252.896 68.8366 253.199 68.9824 253.473C69.1309 253.743 69.3327 253.96 69.5879 254.121C69.8457 254.28 70.1387 254.359 70.4668 254.359C70.7142 254.359 70.9447 254.311 71.1582 254.215C71.3717 254.116 71.5579 253.982 71.7168 253.812C71.8783 253.641 72.0046 253.447 72.0957 253.23C72.1868 253.012 72.2324 252.784 72.2324 252.547C72.2324 252.234 72.1569 251.941 72.0059 251.668C71.8574 251.395 71.6517 251.173 71.3887 251.004C71.1283 250.835 70.8314 250.75 70.498 250.75ZM77.3779 258.109C76.8415 258.109 76.3675 258.014 75.9561 257.824C75.5472 257.632 75.2282 257.367 74.999 257.031C74.7699 256.693 74.6566 256.307 74.6592 255.875C74.6566 255.536 74.723 255.224 74.8584 254.937C74.9938 254.648 75.1787 254.408 75.4131 254.215C75.6501 254.02 75.9144 253.896 76.2061 253.844V253.797C75.8232 253.698 75.5186 253.483 75.292 253.152C75.0654 252.819 74.9535 252.44 74.9561 252.016C74.9535 251.609 75.0563 251.246 75.2646 250.926C75.473 250.605 75.7594 250.353 76.124 250.168C76.4912 249.983 76.9092 249.891 77.3779 249.891C77.8415 249.891 78.2555 249.983 78.6201 250.168C78.9847 250.353 79.2712 250.605 79.4795 250.926C79.6904 251.246 79.7972 251.609 79.7998 252.016C79.7972 252.44 79.6813 252.819 79.4521 253.152C79.2256 253.483 78.9248 253.698 78.5498 253.797V253.844C78.8389 253.896 79.0993 254.02 79.3311 254.215C79.5628 254.408 79.7477 254.648 79.8857 254.937C80.0238 255.224 80.0941 255.536 80.0967 255.875C80.0941 256.307 79.9769 256.693 79.7451 257.031C79.516 257.367 79.1969 257.632 78.7881 257.824C78.3818 258.014 77.9118 258.109 77.3779 258.109ZM77.3779 257.25C77.7399 257.25 78.0524 257.191 78.3154 257.074C78.5785 256.957 78.7816 256.792 78.9248 256.578C79.068 256.365 79.141 256.115 79.1436 255.828C79.141 255.526 79.0628 255.259 78.9092 255.027C78.7555 254.796 78.5459 254.613 78.2803 254.48C78.0173 254.348 77.7165 254.281 77.3779 254.281C77.0368 254.281 76.7321 254.348 76.4639 254.48C76.1982 254.613 75.9886 254.796 75.835 255.027C75.6839 255.259 75.6097 255.526 75.6123 255.828C75.6097 256.115 75.6787 256.365 75.8193 256.578C75.9626 256.792 76.167 256.957 76.4326 257.074C76.6982 257.191 77.0133 257.25 77.3779 257.25ZM77.3779 253.453C77.6644 253.453 77.9183 253.396 78.1396 253.281C78.3636 253.167 78.5394 253.007 78.667 252.801C78.7946 252.595 78.8597 252.354 78.8623 252.078C78.8597 251.807 78.7959 251.572 78.6709 251.371C78.5459 251.168 78.3727 251.012 78.1514 250.902C77.93 250.79 77.6722 250.734 77.3779 250.734C77.0785 250.734 76.8167 250.79 76.5928 250.902C76.3688 251.012 76.1956 251.168 76.0732 251.371C75.9508 251.572 75.891 251.807 75.8936 252.078C75.891 252.354 75.9521 252.595 76.0771 252.801C76.2048 253.007 76.3805 253.167 76.6045 253.281C76.8285 253.396 77.0863 253.453 77.3779 253.453ZM84.1406 249.891C84.4688 249.893 84.7969 249.956 85.125 250.078C85.4531 250.201 85.7526 250.404 86.0234 250.687C86.2943 250.969 86.5117 251.353 86.6758 251.84C86.8398 252.327 86.9219 252.937 86.9219 253.672C86.9219 254.383 86.8542 255.014 86.7188 255.566C86.5859 256.116 86.3932 256.579 86.1406 256.957C85.8906 257.335 85.5859 257.621 85.2266 257.816C84.8698 258.012 84.4661 258.109 84.0156 258.109C83.5677 258.109 83.168 258.021 82.8164 257.844C82.4674 257.664 82.181 257.415 81.957 257.098C81.7357 256.777 81.5938 256.406 81.5313 255.984H82.4844C82.5703 256.352 82.7409 256.655 82.9961 256.895C83.2539 257.132 83.5938 257.25 84.0156 257.25C84.6328 257.25 85.1198 256.98 85.4766 256.441C85.8359 255.902 86.0156 255.141 86.0156 254.156H85.9531C85.8073 254.375 85.6341 254.564 85.4336 254.723C85.2331 254.882 85.0104 255.004 84.7656 255.09C84.5208 255.176 84.2604 255.219 83.9844 255.219C83.526 255.219 83.1055 255.105 82.7227 254.879C82.3424 254.65 82.0378 254.336 81.8086 253.937C81.582 253.536 81.4687 253.078 81.4687 252.562C81.4687 252.073 81.5781 251.625 81.7969 251.219C82.0182 250.81 82.3281 250.484 82.7266 250.242C83.1276 250 83.599 249.883 84.1406 249.891ZM84.1406 250.75C83.8125 250.75 83.5169 250.832 83.2539 250.996C82.9935 251.158 82.7865 251.376 82.6328 251.652C82.4818 251.926 82.4063 252.229 82.4063 252.562C82.4063 252.896 82.4792 253.199 82.625 253.473C82.7734 253.743 82.9753 253.96 83.2305 254.121C83.4883 254.28 83.7813 254.359 84.1094 254.359C84.3568 254.359 84.5872 254.311 84.8008 254.215C85.0143 254.116 85.2005 253.982 85.3594 253.812C85.5208 253.641 85.6471 253.447 85.7383 253.23C85.8294 253.012 85.875 252.784 85.875 252.547C85.875 252.234 85.7995 251.941 85.6484 251.668C85.5 251.395 85.2943 251.173 85.0313 251.004C84.7708 250.835 84.474 250.75 84.1406 250.75ZM96.4736 252L94.2549 258H93.3174L91.0986 252H92.0986L93.7549 256.781H93.8174L95.4736 252H96.4736ZM97.6904 258V252H98.6123V258H97.6904ZM98.1592 251C97.9795 251 97.8245 250.939 97.6943 250.816C97.5667 250.694 97.5029 250.547 97.5029 250.375C97.5029 250.203 97.5667 250.056 97.6943 249.934C97.8245 249.811 97.9795 249.75 98.1592 249.75C98.3389 249.75 98.4925 249.811 98.6201 249.934C98.7503 250.056 98.8154 250.203 98.8154 250.375C98.8154 250.547 98.7503 250.694 98.6201 250.816C98.4925 250.939 98.3389 251 98.1592 251ZM102.816 258.125C102.238 258.125 101.74 257.997 101.32 257.742C100.904 257.484 100.582 257.125 100.355 256.664C100.132 256.201 100.02 255.661 100.02 255.047C100.02 254.432 100.132 253.891 100.355 253.422C100.582 252.951 100.897 252.583 101.301 252.32C101.707 252.055 102.181 251.922 102.723 251.922C103.035 251.922 103.344 251.974 103.648 252.078C103.953 252.182 104.23 252.352 104.48 252.586C104.73 252.818 104.93 253.125 105.078 253.508C105.227 253.891 105.301 254.362 105.301 254.922V255.312H100.676V254.516H104.363C104.363 254.177 104.296 253.875 104.16 253.609C104.027 253.344 103.837 253.134 103.59 252.98C103.345 252.827 103.056 252.75 102.723 252.75C102.355 252.75 102.038 252.841 101.77 253.023C101.504 253.203 101.299 253.437 101.156 253.727C101.013 254.016 100.941 254.326 100.941 254.656V255.188C100.941 255.641 101.02 256.025 101.176 256.34C101.335 256.652 101.555 256.891 101.836 257.055C102.117 257.216 102.444 257.297 102.816 257.297C103.059 257.297 103.277 257.263 103.473 257.195C103.671 257.125 103.841 257.021 103.984 256.883C104.128 256.742 104.238 256.568 104.316 256.359L105.207 256.609C105.113 256.911 104.956 257.177 104.734 257.406C104.513 257.633 104.24 257.81 103.914 257.937C103.589 258.063 103.223 258.125 102.816 258.125ZM108.063 258L106.234 252H107.203L108.5 256.594H108.563L109.844 252H110.828L112.094 256.578H112.156L113.453 252H114.422L112.594 258H111.688L110.375 253.391H110.281L108.969 258H108.063ZM119.891 253.344L119.063 253.578C119.01 253.44 118.934 253.306 118.832 253.176C118.733 253.043 118.598 252.934 118.426 252.848C118.254 252.762 118.034 252.719 117.766 252.719C117.398 252.719 117.092 252.803 116.848 252.973C116.605 253.139 116.484 253.352 116.484 253.609C116.484 253.839 116.568 254.02 116.734 254.152C116.901 254.285 117.161 254.396 117.516 254.484L118.406 254.703C118.943 254.833 119.342 255.033 119.605 255.301C119.868 255.566 120 255.909 120 256.328C120 256.672 119.901 256.979 119.703 257.25C119.508 257.521 119.234 257.734 118.883 257.891C118.531 258.047 118.122 258.125 117.656 258.125C117.044 258.125 116.538 257.992 116.137 257.727C115.736 257.461 115.482 257.073 115.375 256.562L116.25 256.344C116.333 256.667 116.491 256.909 116.723 257.07C116.957 257.232 117.263 257.312 117.641 257.312C118.07 257.312 118.411 257.221 118.664 257.039C118.919 256.854 119.047 256.633 119.047 256.375C119.047 256.167 118.974 255.992 118.828 255.852C118.682 255.708 118.458 255.602 118.156 255.531L117.156 255.297C116.607 255.167 116.203 254.965 115.945 254.691C115.69 254.415 115.563 254.07 115.563 253.656C115.563 253.318 115.658 253.018 115.848 252.758C116.04 252.497 116.302 252.293 116.633 252.145C116.966 251.996 117.344 251.922 117.766 251.922C118.359 251.922 118.826 252.052 119.164 252.312C119.505 252.573 119.747 252.917 119.891 253.344Z" fill="#525252"/>
<path d="M134.969 160V152H135.938V159.141H139.656V160H134.969ZM142.797 160.141C142.417 160.141 142.072 160.069 141.762 159.926C141.452 159.78 141.206 159.57 141.023 159.297C140.841 159.021 140.75 158.687 140.75 158.297C140.75 157.953 140.818 157.674 140.953 157.461C141.089 157.245 141.27 157.076 141.496 156.953C141.723 156.831 141.973 156.74 142.246 156.68C142.522 156.617 142.799 156.568 143.078 156.531C143.443 156.484 143.738 156.449 143.965 156.426C144.194 156.4 144.361 156.357 144.465 156.297C144.572 156.237 144.625 156.133 144.625 155.984V155.953C144.625 155.568 144.52 155.268 144.309 155.055C144.1 154.841 143.784 154.734 143.359 154.734C142.919 154.734 142.574 154.831 142.324 155.023C142.074 155.216 141.898 155.422 141.797 155.641L140.922 155.328C141.078 154.964 141.286 154.68 141.547 154.477C141.81 154.271 142.096 154.128 142.406 154.047C142.719 153.964 143.026 153.922 143.328 153.922C143.521 153.922 143.742 153.945 143.992 153.992C144.245 154.036 144.488 154.129 144.723 154.27C144.96 154.41 145.156 154.622 145.313 154.906C145.469 155.19 145.547 155.57 145.547 156.047V160H144.625V159.187H144.578C144.516 159.318 144.411 159.457 144.266 159.605C144.12 159.754 143.926 159.88 143.684 159.984C143.441 160.089 143.146 160.141 142.797 160.141ZM142.938 159.312C143.302 159.312 143.609 159.241 143.859 159.098C144.112 158.954 144.302 158.77 144.43 158.543C144.56 158.316 144.625 158.078 144.625 157.828V156.984C144.586 157.031 144.5 157.074 144.367 157.113C144.237 157.15 144.086 157.182 143.914 157.211C143.745 157.237 143.579 157.26 143.418 157.281C143.259 157.299 143.13 157.315 143.031 157.328C142.792 157.359 142.568 157.41 142.359 157.48C142.154 157.548 141.987 157.651 141.859 157.789C141.734 157.924 141.672 158.109 141.672 158.344C141.672 158.664 141.79 158.906 142.027 159.07C142.267 159.232 142.57 159.312 142.938 159.312ZM151.479 155.344L150.651 155.578C150.599 155.44 150.522 155.306 150.421 155.176C150.322 155.043 150.187 154.934 150.015 154.848C149.843 154.762 149.623 154.719 149.354 154.719C148.987 154.719 148.681 154.803 148.437 154.973C148.194 155.139 148.073 155.352 148.073 155.609C148.073 155.839 148.157 156.02 148.323 156.152C148.49 156.285 148.75 156.396 149.104 156.484L149.995 156.703C150.532 156.833 150.931 157.033 151.194 157.301C151.457 157.566 151.589 157.909 151.589 158.328C151.589 158.672 151.49 158.979 151.292 159.25C151.097 159.521 150.823 159.734 150.472 159.891C150.12 160.047 149.711 160.125 149.245 160.125C148.633 160.125 148.127 159.992 147.726 159.727C147.325 159.461 147.071 159.073 146.964 158.562L147.839 158.344C147.922 158.667 148.08 158.909 148.312 159.07C148.546 159.232 148.852 159.312 149.229 159.312C149.659 159.312 150 159.221 150.253 159.039C150.508 158.854 150.636 158.633 150.636 158.375C150.636 158.167 150.563 157.992 150.417 157.852C150.271 157.708 150.047 157.602 149.745 157.531L148.745 157.297C148.196 157.167 147.792 156.965 147.534 156.691C147.279 156.415 147.151 156.07 147.151 155.656C147.151 155.318 147.246 155.018 147.437 154.758C147.629 154.497 147.891 154.293 148.222 154.145C148.555 153.996 148.933 153.922 149.354 153.922C149.948 153.922 150.414 154.052 150.753 154.312C151.094 154.573 151.336 154.917 151.479 155.344ZM155.586 154V154.781H152.477V154H155.586ZM153.383 152.562H154.305V158.281C154.305 158.542 154.342 158.737 154.418 158.867C154.496 158.995 154.595 159.081 154.715 159.125C154.837 159.167 154.966 159.187 155.102 159.187C155.203 159.187 155.286 159.182 155.352 159.172C155.417 159.159 155.469 159.148 155.508 159.141L155.695 159.969C155.633 159.992 155.546 160.016 155.434 160.039C155.322 160.065 155.18 160.078 155.008 160.078C154.747 160.078 154.492 160.022 154.242 159.91C153.995 159.798 153.789 159.628 153.625 159.398C153.464 159.169 153.383 158.88 153.383 158.531V152.562ZM163.848 157.547V154H164.77V160H163.848V158.984H163.785C163.645 159.289 163.426 159.548 163.129 159.762C162.832 159.973 162.457 160.078 162.004 160.078C161.629 160.078 161.296 159.996 161.004 159.832C160.712 159.665 160.483 159.415 160.316 159.082C160.15 158.746 160.066 158.323 160.066 157.812V154H160.988V157.75C160.988 158.187 161.111 158.536 161.355 158.797C161.603 159.057 161.918 159.187 162.301 159.187C162.53 159.187 162.763 159.129 163 159.012C163.24 158.895 163.44 158.715 163.602 158.473C163.766 158.23 163.848 157.922 163.848 157.547ZM166.458 162.25V154H167.349V154.953H167.458C167.526 154.849 167.619 154.716 167.739 154.555C167.862 154.391 168.036 154.245 168.263 154.117C168.492 153.987 168.802 153.922 169.192 153.922C169.698 153.922 170.143 154.048 170.528 154.301C170.914 154.553 171.215 154.911 171.431 155.375C171.647 155.839 171.755 156.385 171.755 157.016C171.755 157.651 171.647 158.202 171.431 158.668C171.215 159.132 170.915 159.491 170.532 159.746C170.149 159.999 169.708 160.125 169.208 160.125C168.823 160.125 168.514 160.061 168.282 159.934C168.05 159.803 167.872 159.656 167.747 159.492C167.622 159.326 167.526 159.187 167.458 159.078H167.38V162.25H166.458ZM167.364 157C167.364 157.453 167.431 157.853 167.563 158.199C167.696 158.543 167.89 158.812 168.146 159.008C168.401 159.201 168.713 159.297 169.083 159.297C169.468 159.297 169.79 159.195 170.048 158.992C170.308 158.786 170.504 158.51 170.634 158.164C170.767 157.815 170.833 157.427 170.833 157C170.833 156.578 170.768 156.198 170.638 155.859C170.51 155.518 170.316 155.249 170.056 155.051C169.798 154.85 169.474 154.75 169.083 154.75C168.708 154.75 168.393 154.845 168.138 155.035C167.882 155.223 167.69 155.486 167.56 155.824C167.429 156.16 167.364 156.552 167.364 157ZM175.427 160.125C174.927 160.125 174.485 159.999 174.103 159.746C173.72 159.491 173.42 159.132 173.204 158.668C172.988 158.202 172.88 157.651 172.88 157.016C172.88 156.385 172.988 155.839 173.204 155.375C173.42 154.911 173.721 154.553 174.106 154.301C174.492 154.048 174.937 153.922 175.442 153.922C175.833 153.922 176.142 153.987 176.368 154.117C176.597 154.245 176.772 154.391 176.892 154.555C177.014 154.716 177.109 154.849 177.177 154.953H177.255V152H178.177V160H177.286V159.078H177.177C177.109 159.187 177.013 159.326 176.888 159.492C176.763 159.656 176.584 159.803 176.353 159.934C176.121 160.061 175.812 160.125 175.427 160.125ZM175.552 159.297C175.922 159.297 176.234 159.201 176.489 159.008C176.744 158.812 176.938 158.543 177.071 158.199C177.204 157.853 177.271 157.453 177.271 157C177.271 156.552 177.205 156.16 177.075 155.824C176.945 155.486 176.752 155.223 176.497 155.035C176.242 154.845 175.927 154.75 175.552 154.75C175.161 154.75 174.836 154.85 174.575 155.051C174.317 155.249 174.123 155.518 173.993 155.859C173.866 156.198 173.802 156.578 173.802 157C173.802 157.427 173.867 157.815 173.997 158.164C174.13 158.51 174.325 158.786 174.583 158.992C174.843 159.195 175.166 159.297 175.552 159.297ZM181.759 160.141C181.379 160.141 181.034 160.069 180.724 159.926C180.414 159.78 180.168 159.57 179.985 159.297C179.803 159.021 179.712 158.687 179.712 158.297C179.712 157.953 179.78 157.674 179.915 157.461C180.05 157.245 180.231 157.076 180.458 156.953C180.685 156.831 180.935 156.74 181.208 156.68C181.484 156.617 181.761 156.568 182.04 156.531C182.405 156.484 182.7 156.449 182.927 156.426C183.156 156.4 183.323 156.357 183.427 156.297C183.534 156.237 183.587 156.133 183.587 155.984V155.953C183.587 155.568 183.481 155.268 183.271 155.055C183.062 154.841 182.746 154.734 182.321 154.734C181.881 154.734 181.536 154.831 181.286 155.023C181.036 155.216 180.86 155.422 180.759 155.641L179.884 155.328C180.04 154.964 180.248 154.68 180.509 154.477C180.772 154.271 181.058 154.128 181.368 154.047C181.681 153.964 181.988 153.922 182.29 153.922C182.483 153.922 182.704 153.945 182.954 153.992C183.207 154.036 183.45 154.129 183.685 154.27C183.922 154.41 184.118 154.622 184.274 154.906C184.431 155.19 184.509 155.57 184.509 156.047V160H183.587V159.187H183.54C183.478 159.318 183.373 159.457 183.228 159.605C183.082 159.754 182.888 159.88 182.646 159.984C182.403 160.089 182.108 160.141 181.759 160.141ZM181.899 159.312C182.264 159.312 182.571 159.241 182.821 159.098C183.074 158.954 183.264 158.77 183.392 158.543C183.522 158.316 183.587 158.078 183.587 157.828V156.984C183.548 157.031 183.462 157.074 183.329 157.113C183.199 157.15 183.048 157.182 182.876 157.211C182.707 157.237 182.541 157.26 182.38 157.281C182.221 157.299 182.092 157.315 181.993 157.328C181.754 157.359 181.53 157.41 181.321 157.48C181.116 157.548 180.949 157.651 180.821 157.789C180.696 157.924 180.634 158.109 180.634 158.344C180.634 158.664 180.752 158.906 180.989 159.07C181.229 159.232 181.532 159.312 181.899 159.312ZM188.801 154V154.781H185.691V154H188.801ZM186.598 152.562H187.52V158.281C187.52 158.542 187.557 158.737 187.633 158.867C187.711 158.995 187.81 159.081 187.93 159.125C188.052 159.167 188.181 159.187 188.316 159.187C188.418 159.187 188.501 159.182 188.566 159.172C188.632 159.159 188.684 159.148 188.723 159.141L188.91 159.969C188.848 159.992 188.76 160.016 188.648 160.039C188.536 160.065 188.395 160.078 188.223 160.078C187.962 160.078 187.707 160.022 187.457 159.91C187.21 159.798 187.004 159.628 186.84 159.398C186.678 159.169 186.598 158.88 186.598 158.531V152.562ZM192.639 160.125C192.061 160.125 191.562 159.997 191.143 159.742C190.726 159.484 190.404 159.125 190.178 158.664C189.954 158.201 189.842 157.661 189.842 157.047C189.842 156.432 189.954 155.891 190.178 155.422C190.404 154.951 190.719 154.583 191.123 154.32C191.529 154.055 192.003 153.922 192.545 153.922C192.857 153.922 193.166 153.974 193.471 154.078C193.775 154.182 194.053 154.352 194.303 154.586C194.553 154.818 194.752 155.125 194.9 155.508C195.049 155.891 195.123 156.362 195.123 156.922V157.312H190.498V156.516H194.186C194.186 156.177 194.118 155.875 193.982 155.609C193.85 155.344 193.66 155.134 193.412 154.98C193.167 154.827 192.878 154.75 192.545 154.75C192.178 154.75 191.86 154.841 191.592 155.023C191.326 155.203 191.122 155.437 190.979 155.727C190.835 156.016 190.764 156.326 190.764 156.656V157.188C190.764 157.641 190.842 158.025 190.998 158.34C191.157 158.652 191.377 158.891 191.658 159.055C191.939 159.216 192.266 159.297 192.639 159.297C192.881 159.297 193.1 159.263 193.295 159.195C193.493 159.125 193.663 159.021 193.807 158.883C193.95 158.742 194.061 158.568 194.139 158.359L195.029 158.609C194.936 158.911 194.778 159.177 194.557 159.406C194.335 159.633 194.062 159.81 193.736 159.937C193.411 160.063 193.045 160.125 192.639 160.125ZM198.791 160.125C198.291 160.125 197.85 159.999 197.467 159.746C197.084 159.491 196.785 159.132 196.568 158.668C196.352 158.202 196.244 157.651 196.244 157.016C196.244 156.385 196.352 155.839 196.568 155.375C196.785 154.911 197.085 154.553 197.471 154.301C197.856 154.048 198.301 153.922 198.807 153.922C199.197 153.922 199.506 153.987 199.732 154.117C199.962 154.245 200.136 154.391 200.256 154.555C200.378 154.716 200.473 154.849 200.541 154.953H200.619V152H201.541V160H200.65V159.078H200.541C200.473 159.187 200.377 159.326 200.252 159.492C200.127 159.656 199.949 159.803 199.717 159.934C199.485 160.061 199.176 160.125 198.791 160.125ZM198.916 159.297C199.286 159.297 199.598 159.201 199.854 159.008C200.109 158.812 200.303 158.543 200.436 158.199C200.568 157.853 200.635 157.453 200.635 157C200.635 156.552 200.57 156.16 200.439 155.824C200.309 155.486 200.117 155.223 199.861 155.035C199.606 154.845 199.291 154.75 198.916 154.75C198.525 154.75 198.2 154.85 197.939 155.051C197.682 155.249 197.488 155.518 197.357 155.859C197.23 156.198 197.166 156.578 197.166 157C197.166 157.427 197.231 157.815 197.361 158.164C197.494 158.51 197.689 158.786 197.947 158.992C198.208 159.195 198.531 159.297 198.916 159.297ZM204.029 160.063C203.837 160.063 203.671 159.993 203.533 159.855C203.395 159.717 203.326 159.552 203.326 159.359C203.326 159.167 203.395 159.001 203.533 158.863C203.671 158.725 203.837 158.656 204.029 158.656C204.222 158.656 204.387 158.725 204.525 158.863C204.663 159.001 204.732 159.167 204.732 159.359C204.732 159.487 204.7 159.604 204.635 159.711C204.572 159.818 204.488 159.904 204.381 159.969C204.277 160.031 204.16 160.063 204.029 160.063ZM204.029 155.609C203.837 155.609 203.671 155.54 203.533 155.402C203.395 155.264 203.326 155.099 203.326 154.906C203.326 154.714 203.395 154.548 203.533 154.41C203.671 154.272 203.837 154.203 204.029 154.203C204.222 154.203 204.387 154.272 204.525 154.41C204.663 154.548 204.732 154.714 204.732 154.906C204.732 155.034 204.7 155.151 204.635 155.258C204.572 155.365 204.488 155.451 204.381 155.516C204.277 155.578 204.16 155.609 204.029 155.609ZM209.465 160V159.297L212.105 156.406C212.415 156.068 212.671 155.773 212.871 155.523C213.072 155.271 213.22 155.034 213.316 154.812C213.415 154.589 213.465 154.354 213.465 154.109C213.465 153.828 213.397 153.585 213.262 153.379C213.129 153.173 212.947 153.014 212.715 152.902C212.483 152.79 212.223 152.734 211.934 152.734C211.626 152.734 211.358 152.798 211.129 152.926C210.902 153.051 210.727 153.227 210.602 153.453C210.479 153.68 210.418 153.945 210.418 154.25H209.496C209.496 153.781 209.604 153.37 209.82 153.016C210.036 152.661 210.331 152.385 210.703 152.187C211.078 151.99 211.499 151.891 211.965 151.891C212.434 151.891 212.849 151.99 213.211 152.187C213.573 152.385 213.857 152.652 214.063 152.988C214.268 153.324 214.371 153.698 214.371 154.109C214.371 154.404 214.318 154.691 214.211 154.973C214.107 155.251 213.924 155.562 213.664 155.906C213.406 156.247 213.048 156.664 212.59 157.156L210.793 159.078V159.141H214.512V160H209.465ZM218.937 152V160H217.969V153.016H217.922L215.969 154.312V153.328L217.969 152H218.937ZM224.082 151.625L221.504 161.203H220.66L223.238 151.625H224.082ZM225.159 160V159.297L227.8 156.406C228.11 156.068 228.365 155.773 228.565 155.523C228.766 155.271 228.914 155.034 229.011 154.812C229.11 154.589 229.159 154.354 229.159 154.109C229.159 153.828 229.091 153.585 228.956 153.379C228.823 153.173 228.641 153.014 228.409 152.902C228.177 152.79 227.917 152.734 227.628 152.734C227.321 152.734 227.052 152.798 226.823 152.926C226.597 153.051 226.421 153.227 226.296 153.453C226.174 153.68 226.112 153.945 226.112 154.25H225.19C225.19 153.781 225.299 153.37 225.515 153.016C225.731 152.661 226.025 152.385 226.397 152.187C226.772 151.99 227.193 151.891 227.659 151.891C228.128 151.891 228.543 151.99 228.905 152.187C229.267 152.385 229.551 152.652 229.757 152.988C229.963 153.324 230.065 153.698 230.065 154.109C230.065 154.404 230.012 154.691 229.905 154.973C229.801 155.251 229.619 155.562 229.358 155.906C229.101 156.247 228.743 156.664 228.284 157.156L226.487 159.078V159.141H230.206V160H225.159ZM234.663 151.625L232.085 161.203H231.241L233.819 151.625H234.663ZM235.74 160V159.297L238.381 156.406C238.691 156.068 238.946 155.773 239.146 155.523C239.347 155.271 239.495 155.034 239.592 154.812C239.691 154.589 239.74 154.354 239.74 154.109C239.74 153.828 239.673 153.585 239.537 153.379C239.404 153.173 239.222 153.014 238.99 152.902C238.758 152.79 238.498 152.734 238.209 152.734C237.902 152.734 237.633 152.798 237.404 152.926C237.178 153.051 237.002 153.227 236.877 153.453C236.755 153.68 236.693 153.945 236.693 154.25H235.771C235.771 153.781 235.88 153.37 236.096 153.016C236.312 152.661 236.606 152.385 236.979 152.187C237.354 151.99 237.774 151.891 238.24 151.891C238.709 151.891 239.124 151.99 239.486 152.187C239.848 152.385 240.132 152.652 240.338 152.988C240.544 153.324 240.646 153.698 240.646 154.109C240.646 154.404 240.593 154.691 240.486 154.973C240.382 155.251 240.2 155.562 239.939 155.906C239.682 156.247 239.324 156.664 238.865 157.156L237.068 159.078V159.141H240.787V160H235.74ZM245.104 160.109C244.588 160.109 244.128 160.021 243.725 159.844C243.324 159.667 243.005 159.421 242.768 159.105C242.533 158.788 242.406 158.419 242.385 158H243.369C243.39 158.258 243.479 158.48 243.635 158.668C243.791 158.853 243.995 158.996 244.248 159.098C244.501 159.199 244.781 159.25 245.088 159.25C245.432 159.25 245.736 159.19 246.002 159.07C246.268 158.951 246.476 158.784 246.627 158.57C246.778 158.357 246.854 158.109 246.854 157.828C246.854 157.534 246.781 157.275 246.635 157.051C246.489 156.824 246.275 156.647 245.994 156.52C245.713 156.392 245.369 156.328 244.963 156.328H244.322V155.469H244.963C245.281 155.469 245.559 155.411 245.799 155.297C246.041 155.182 246.23 155.021 246.365 154.812C246.503 154.604 246.572 154.359 246.572 154.078C246.572 153.807 246.512 153.572 246.393 153.371C246.273 153.171 246.104 153.014 245.885 152.902C245.669 152.79 245.413 152.734 245.119 152.734C244.843 152.734 244.583 152.785 244.338 152.887C244.096 152.986 243.898 153.13 243.744 153.32C243.59 153.508 243.507 153.734 243.494 154H242.557C242.572 153.581 242.699 153.214 242.936 152.898C243.173 152.581 243.482 152.333 243.865 152.156C244.251 151.979 244.674 151.891 245.135 151.891C245.63 151.891 246.054 151.991 246.408 152.191C246.762 152.389 247.035 152.651 247.225 152.977C247.415 153.302 247.51 153.654 247.51 154.031C247.51 154.482 247.391 154.866 247.154 155.184C246.92 155.501 246.601 155.721 246.197 155.844V155.906C246.702 155.99 247.097 156.204 247.381 156.551C247.665 156.895 247.807 157.32 247.807 157.828C247.807 158.263 247.688 158.654 247.451 159C247.217 159.344 246.896 159.615 246.49 159.812C246.084 160.01 245.622 160.109 245.104 160.109Z" fill="#525252"/>
<path d="M162.406 222.5H161.438C161.38 222.221 161.28 221.977 161.137 221.766C160.996 221.555 160.824 221.378 160.621 221.234C160.421 221.089 160.198 220.979 159.953 220.906C159.708 220.833 159.453 220.797 159.188 220.797C158.703 220.797 158.264 220.919 157.871 221.164C157.48 221.409 157.169 221.77 156.938 222.246C156.708 222.723 156.594 223.307 156.594 224C156.594 224.693 156.708 225.277 156.938 225.754C157.169 226.23 157.48 226.591 157.871 226.836C158.264 227.081 158.703 227.203 159.188 227.203C159.453 227.203 159.708 227.167 159.953 227.094C160.198 227.021 160.421 226.913 160.621 226.77C160.824 226.624 160.996 226.445 161.137 226.234C161.28 226.021 161.38 225.776 161.438 225.5H162.406C162.333 225.909 162.201 226.275 162.008 226.598C161.815 226.921 161.576 227.195 161.289 227.422C161.003 227.646 160.681 227.816 160.324 227.934C159.97 228.051 159.591 228.109 159.188 228.109C158.505 228.109 157.898 227.943 157.367 227.609C156.836 227.276 156.418 226.802 156.113 226.187C155.809 225.573 155.656 224.844 155.656 224C155.656 223.156 155.809 222.427 156.113 221.812C156.418 221.198 156.836 220.724 157.367 220.391C157.898 220.057 158.505 219.891 159.188 219.891C159.591 219.891 159.97 219.949 160.324 220.066C160.681 220.184 161.003 220.355 161.289 220.582C161.576 220.806 161.815 221.079 162.008 221.402C162.201 221.723 162.333 222.089 162.406 222.5ZM163.847 228V222H164.737V222.906H164.8C164.909 222.609 165.107 222.368 165.394 222.184C165.68 221.999 166.003 221.906 166.362 221.906C166.43 221.906 166.515 221.908 166.616 221.91C166.718 221.913 166.795 221.917 166.847 221.922V222.859C166.815 222.852 166.744 222.84 166.632 222.824C166.522 222.806 166.407 222.797 166.284 222.797C165.993 222.797 165.732 222.858 165.503 222.98C165.276 223.1 165.097 223.267 164.964 223.48C164.834 223.691 164.769 223.932 164.769 224.203V228H163.847ZM170.272 228.125C169.694 228.125 169.196 227.997 168.776 227.742C168.36 227.484 168.038 227.125 167.812 226.664C167.588 226.201 167.476 225.661 167.476 225.047C167.476 224.432 167.588 223.891 167.812 223.422C168.038 222.951 168.353 222.583 168.757 222.32C169.163 222.055 169.637 221.922 170.179 221.922C170.491 221.922 170.8 221.974 171.104 222.078C171.409 222.182 171.687 222.352 171.937 222.586C172.187 222.818 172.386 223.125 172.534 223.508C172.683 223.891 172.757 224.362 172.757 224.922V225.312H168.132V224.516H171.819C171.819 224.177 171.752 223.875 171.616 223.609C171.483 223.344 171.293 223.134 171.046 222.98C170.801 222.827 170.512 222.75 170.179 222.75C169.812 222.75 169.494 222.841 169.226 223.023C168.96 223.203 168.756 223.437 168.612 223.727C168.469 224.016 168.397 224.326 168.397 224.656V225.188C168.397 225.641 168.476 226.025 168.632 226.34C168.791 226.652 169.011 226.891 169.292 227.055C169.573 227.216 169.9 227.297 170.272 227.297C170.515 227.297 170.733 227.263 170.929 227.195C171.127 227.125 171.297 227.021 171.44 226.883C171.584 226.742 171.694 226.568 171.772 226.359L172.663 226.609C172.569 226.911 172.412 227.177 172.19 227.406C171.969 227.633 171.696 227.81 171.37 227.937C171.045 228.063 170.679 228.125 170.272 228.125ZM175.925 228.141C175.545 228.141 175.2 228.069 174.89 227.926C174.58 227.78 174.334 227.57 174.151 227.297C173.969 227.021 173.878 226.687 173.878 226.297C173.878 225.953 173.946 225.674 174.081 225.461C174.216 225.245 174.397 225.076 174.624 224.953C174.851 224.831 175.101 224.74 175.374 224.68C175.65 224.617 175.927 224.568 176.206 224.531C176.571 224.484 176.866 224.449 177.093 224.426C177.322 224.4 177.489 224.357 177.593 224.297C177.7 224.237 177.753 224.133 177.753 223.984V223.953C177.753 223.568 177.647 223.268 177.437 223.055C177.228 222.841 176.912 222.734 176.487 222.734C176.047 222.734 175.702 222.831 175.452 223.023C175.202 223.216 175.026 223.422 174.925 223.641L174.05 223.328C174.206 222.964 174.414 222.68 174.675 222.477C174.938 222.271 175.224 222.128 175.534 222.047C175.847 221.964 176.154 221.922 176.456 221.922C176.649 221.922 176.87 221.945 177.12 221.992C177.373 222.036 177.616 222.129 177.851 222.27C178.088 222.41 178.284 222.622 178.44 222.906C178.597 223.19 178.675 223.57 178.675 224.047V228H177.753V227.187H177.706C177.644 227.318 177.539 227.457 177.394 227.605C177.248 227.754 177.054 227.88 176.812 227.984C176.569 228.089 176.274 228.141 175.925 228.141ZM176.065 227.312C176.43 227.312 176.737 227.241 176.987 227.098C177.24 226.954 177.43 226.77 177.558 226.543C177.688 226.316 177.753 226.078 177.753 225.828V224.984C177.714 225.031 177.628 225.074 177.495 225.113C177.365 225.15 177.214 225.182 177.042 225.211C176.873 225.237 176.707 225.26 176.546 225.281C176.387 225.299 176.258 225.315 176.159 225.328C175.92 225.359 175.696 225.41 175.487 225.48C175.282 225.548 175.115 225.651 174.987 225.789C174.862 225.924 174.8 226.109 174.8 226.344C174.8 226.664 174.918 226.906 175.155 227.07C175.395 227.232 175.698 227.312 176.065 227.312ZM182.967 222V222.781H179.857V222H182.967ZM180.764 220.562H181.686V226.281C181.686 226.542 181.723 226.737 181.799 226.867C181.877 226.995 181.976 227.081 182.096 227.125C182.218 227.167 182.347 227.187 182.482 227.187C182.584 227.187 182.667 227.182 182.732 227.172C182.798 227.159 182.85 227.148 182.889 227.141L183.076 227.969C183.014 227.992 182.926 228.016 182.814 228.039C182.702 228.065 182.561 228.078 182.389 228.078C182.128 228.078 181.873 228.022 181.623 227.91C181.376 227.798 181.17 227.628 181.006 227.398C180.844 227.169 180.764 226.88 180.764 226.531V220.562ZM186.805 228.125C186.227 228.125 185.728 227.997 185.309 227.742C184.892 227.484 184.57 227.125 184.344 226.664C184.12 226.201 184.008 225.661 184.008 225.047C184.008 224.432 184.12 223.891 184.344 223.422C184.57 222.951 184.885 222.583 185.289 222.32C185.695 222.055 186.169 221.922 186.711 221.922C187.023 221.922 187.332 221.974 187.637 222.078C187.941 222.182 188.219 222.352 188.469 222.586C188.719 222.818 188.918 223.125 189.066 223.508C189.215 223.891 189.289 224.362 189.289 224.922V225.312H184.664V224.516H188.352C188.352 224.177 188.284 223.875 188.148 223.609C188.016 223.344 187.826 223.134 187.578 222.98C187.333 222.827 187.044 222.75 186.711 222.75C186.344 222.75 186.026 222.841 185.758 223.023C185.492 223.203 185.288 223.437 185.145 223.727C185.001 224.016 184.93 224.326 184.93 224.656V225.188C184.93 225.641 185.008 226.025 185.164 226.34C185.323 226.652 185.543 226.891 185.824 227.055C186.105 227.216 186.432 227.297 186.805 227.297C187.047 227.297 187.266 227.263 187.461 227.195C187.659 227.125 187.829 227.021 187.973 226.883C188.116 226.742 188.227 226.568 188.305 226.359L189.195 226.609C189.102 226.911 188.944 227.177 188.723 227.406C188.501 227.633 188.228 227.81 187.902 227.937C187.577 228.063 187.211 228.125 186.805 228.125ZM192.957 228.125C192.457 228.125 192.016 227.999 191.633 227.746C191.25 227.491 190.951 227.132 190.734 226.668C190.518 226.202 190.41 225.651 190.41 225.016C190.41 224.385 190.518 223.839 190.734 223.375C190.951 222.911 191.251 222.553 191.637 222.301C192.022 222.048 192.467 221.922 192.973 221.922C193.363 221.922 193.672 221.987 193.898 222.117C194.128 222.245 194.302 222.391 194.422 222.555C194.544 222.716 194.639 222.849 194.707 222.953H194.785V220H195.707V228H194.816V227.078H194.707C194.639 227.187 194.543 227.326 194.418 227.492C194.293 227.656 194.115 227.803 193.883 227.934C193.651 228.061 193.342 228.125 192.957 228.125ZM193.082 227.297C193.452 227.297 193.764 227.201 194.02 227.008C194.275 226.812 194.469 226.543 194.602 226.199C194.734 225.853 194.801 225.453 194.801 225C194.801 224.552 194.736 224.16 194.605 223.824C194.475 223.486 194.283 223.223 194.027 223.035C193.772 222.845 193.457 222.75 193.082 222.75C192.691 222.75 192.366 222.85 192.105 223.051C191.848 223.249 191.654 223.518 191.523 223.859C191.396 224.198 191.332 224.578 191.332 225C191.332 225.427 191.397 225.815 191.527 226.164C191.66 226.51 191.855 226.786 192.113 226.992C192.374 227.195 192.697 227.297 193.082 227.297ZM201.289 226.977C201.096 226.977 200.931 226.908 200.793 226.77C200.655 226.632 200.586 226.466 200.586 226.273C200.586 226.081 200.655 225.915 200.793 225.777C200.931 225.639 201.096 225.57 201.289 225.57C201.482 225.57 201.647 225.639 201.785 225.777C201.923 225.915 201.992 226.081 201.992 226.273C201.992 226.401 201.96 226.518 201.895 226.625C201.832 226.732 201.747 226.818 201.641 226.883C201.536 226.945 201.419 226.977 201.289 226.977ZM201.289 222.93C201.096 222.93 200.931 222.861 200.793 222.723C200.655 222.585 200.586 222.419 200.586 222.227C200.586 222.034 200.655 221.868 200.793 221.73C200.931 221.592 201.096 221.523 201.289 221.523C201.482 221.523 201.647 221.592 201.785 221.73C201.923 221.868 201.992 222.034 201.992 222.227C201.992 222.354 201.96 222.471 201.895 222.578C201.832 222.685 201.747 222.771 201.641 222.836C201.536 222.898 201.419 222.93 201.289 222.93ZM209.537 220V228H208.568V221.016H208.521L206.568 222.312V221.328L208.568 220H209.537ZM214.447 228.109C213.859 228.109 213.357 227.949 212.943 227.629C212.529 227.306 212.213 226.839 211.994 226.227C211.775 225.612 211.666 224.87 211.666 224C211.666 223.135 211.775 222.397 211.994 221.785C212.215 221.171 212.533 220.702 212.947 220.379C213.364 220.053 213.864 219.891 214.447 219.891C215.031 219.891 215.529 220.053 215.943 220.379C216.36 220.702 216.678 221.171 216.896 221.785C217.118 222.397 217.229 223.135 217.229 224C217.229 224.87 217.119 225.612 216.9 226.227C216.682 226.839 216.365 227.306 215.951 227.629C215.537 227.949 215.036 228.109 214.447 228.109ZM214.447 227.25C215.031 227.25 215.484 226.969 215.807 226.406C216.13 225.844 216.291 225.042 216.291 224C216.291 223.307 216.217 222.717 216.068 222.23C215.923 221.743 215.712 221.372 215.436 221.117C215.162 220.862 214.833 220.734 214.447 220.734C213.869 220.734 213.417 221.02 213.092 221.59C212.766 222.158 212.604 222.961 212.604 224C212.604 224.693 212.676 225.281 212.822 225.766C212.968 226.25 213.178 226.618 213.451 226.871C213.727 227.124 214.059 227.25 214.447 227.25ZM221.557 219.625L218.979 229.203H218.135L220.713 219.625H221.557ZM225.446 220V228H224.478V221.016H224.431L222.478 222.312V221.328L224.478 220H225.446ZM230.591 219.625L228.013 229.203H227.169L229.747 219.625H230.591ZM231.668 228V227.297L234.309 224.406C234.618 224.068 234.874 223.773 235.074 223.523C235.275 223.271 235.423 223.034 235.52 222.812C235.618 222.589 235.668 222.354 235.668 222.109C235.668 221.828 235.6 221.585 235.465 221.379C235.332 221.173 235.15 221.014 234.918 220.902C234.686 220.79 234.426 220.734 234.137 220.734C233.829 220.734 233.561 220.798 233.332 220.926C233.105 221.051 232.93 221.227 232.805 221.453C232.682 221.68 232.621 221.945 232.621 222.25H231.699C231.699 221.781 231.807 221.37 232.023 221.016C232.24 220.661 232.534 220.385 232.906 220.187C233.281 219.99 233.702 219.891 234.168 219.891C234.637 219.891 235.052 219.99 235.414 220.187C235.776 220.385 236.06 220.652 236.266 220.988C236.471 221.324 236.574 221.698 236.574 222.109C236.574 222.404 236.521 222.691 236.414 222.973C236.31 223.251 236.128 223.562 235.867 223.906C235.609 224.247 235.251 224.664 234.793 225.156L232.996 227.078V227.141H236.715V228H231.668ZM241.031 228.109C240.516 228.109 240.056 228.021 239.652 227.844C239.251 227.667 238.932 227.421 238.695 227.105C238.461 226.788 238.333 226.419 238.313 226H239.297C239.318 226.258 239.406 226.48 239.562 226.668C239.719 226.853 239.923 226.996 240.176 227.098C240.428 227.199 240.708 227.25 241.016 227.25C241.359 227.25 241.664 227.19 241.93 227.07C242.195 226.951 242.404 226.784 242.555 226.57C242.706 226.357 242.781 226.109 242.781 225.828C242.781 225.534 242.708 225.275 242.563 225.051C242.417 224.824 242.203 224.647 241.922 224.52C241.641 224.392 241.297 224.328 240.891 224.328H240.25V223.469H240.891C241.208 223.469 241.487 223.411 241.727 223.297C241.969 223.182 242.158 223.021 242.293 222.812C242.431 222.604 242.5 222.359 242.5 222.078C242.5 221.807 242.44 221.572 242.32 221.371C242.201 221.171 242.031 221.014 241.813 220.902C241.596 220.79 241.341 220.734 241.047 220.734C240.771 220.734 240.51 220.785 240.266 220.887C240.023 220.986 239.826 221.13 239.672 221.32C239.518 221.508 239.435 221.734 239.422 222H238.484C238.5 221.581 238.626 221.214 238.863 220.898C239.1 220.581 239.41 220.333 239.793 220.156C240.178 219.979 240.602 219.891 241.063 219.891C241.557 219.891 241.982 219.991 242.336 220.191C242.69 220.389 242.962 220.651 243.152 220.977C243.342 221.302 243.438 221.654 243.438 222.031C243.438 222.482 243.319 222.866 243.082 223.184C242.848 223.501 242.529 223.721 242.125 223.844V223.906C242.63 223.99 243.025 224.204 243.309 224.551C243.592 224.895 243.734 225.32 243.734 225.828C243.734 226.263 243.616 226.654 243.379 227C243.145 227.344 242.824 227.615 242.418 227.812C242.012 228.01 241.549 228.109 241.031 228.109Z" fill="#525252"/>
<g filter="url(#filter1_d_1538_2838)">
<rect x="200" y="182" width="55" height="19" rx="9.5" fill="white"/>
<rect x="200.25" y="182.25" width="54.5" height="18.5" rx="9.25" stroke="#D9D9D9" stroke-width="0.5"/>
</g>
<g filter="url(#filter2_d_1538_2838)">
<rect x="130" y="182" width="55" height="19" rx="9.5" fill="white"/>
<rect x="130.25" y="182.25" width="54.5" height="18.5" rx="9.25" stroke="#D9D9D9" stroke-width="0.5"/>
</g>
<path d="M155.452 194.126C155.237 194.126 155.052 194.051 154.898 193.899C154.745 193.745 154.669 193.561 154.671 193.345C154.669 193.132 154.745 192.95 154.898 192.798C155.052 192.647 155.237 192.571 155.452 192.571C155.661 192.571 155.842 192.647 155.996 192.798C156.152 192.95 156.231 193.132 156.234 193.345C156.231 193.49 156.193 193.621 156.12 193.739C156.049 193.858 155.954 193.952 155.836 194.023C155.72 194.092 155.592 194.126 155.452 194.126ZM155.452 190.522C155.237 190.522 155.052 190.446 154.898 190.295C154.745 190.141 154.669 189.956 154.671 189.741C154.669 189.528 154.745 189.345 154.898 189.194C155.052 189.04 155.237 188.963 155.452 188.963C155.661 188.963 155.842 189.04 155.996 189.194C156.152 189.345 156.231 189.528 156.234 189.741C156.231 189.883 156.193 190.013 156.12 190.131C156.049 190.25 155.954 190.344 155.836 190.415C155.72 190.487 155.592 190.522 155.452 190.522ZM162.508 195V194.048L165.032 191.573C165.274 191.329 165.475 191.113 165.636 190.923C165.797 190.734 165.918 190.55 165.998 190.373C166.079 190.195 166.119 190.006 166.119 189.805C166.119 189.575 166.067 189.379 165.963 189.215C165.859 189.049 165.715 188.922 165.533 188.832C165.351 188.742 165.144 188.697 164.912 188.697C164.673 188.697 164.463 188.746 164.283 188.846C164.103 188.943 163.964 189.081 163.864 189.261C163.767 189.441 163.719 189.656 163.719 189.904H162.465C162.465 189.442 162.57 189.041 162.781 188.7C162.992 188.359 163.282 188.095 163.651 187.908C164.023 187.721 164.449 187.628 164.93 187.628C165.417 187.628 165.846 187.719 166.215 187.901C166.584 188.084 166.871 188.333 167.074 188.651C167.28 188.968 167.383 189.33 167.383 189.737C167.383 190.009 167.331 190.277 167.227 190.54C167.123 190.803 166.939 191.094 166.677 191.413C166.416 191.733 166.05 192.12 165.579 192.575L164.326 193.849V193.899H167.493V195H162.508ZM171.247 195.099C170.773 195.099 170.35 195.011 169.976 194.833C169.602 194.653 169.305 194.407 169.084 194.094C168.867 193.782 168.751 193.424 168.736 193.022H170.015C170.038 193.32 170.167 193.564 170.402 193.754C170.636 193.941 170.918 194.034 171.247 194.034C171.505 194.034 171.735 193.975 171.936 193.857C172.137 193.738 172.296 193.574 172.412 193.363C172.528 193.152 172.585 192.912 172.582 192.642C172.585 192.367 172.527 192.124 172.408 191.911C172.29 191.697 172.128 191.531 171.922 191.41C171.716 191.287 171.479 191.225 171.211 191.225C170.994 191.223 170.779 191.263 170.569 191.346C170.358 191.429 170.191 191.538 170.068 191.673L168.878 191.477L169.258 187.727H173.477V188.828H170.349L170.139 190.756H170.182C170.317 190.598 170.507 190.466 170.753 190.362C171 190.256 171.269 190.202 171.563 190.202C172.003 190.202 172.396 190.307 172.742 190.515C173.088 190.721 173.36 191.005 173.559 191.367C173.758 191.729 173.857 192.144 173.857 192.61C173.857 193.091 173.746 193.519 173.523 193.896C173.303 194.27 172.997 194.564 172.604 194.78C172.213 194.993 171.761 195.099 171.247 195.099ZM174.915 193.651V192.603L178.001 187.727H178.875V189.219H178.342L176.265 192.511V192.567H180.572V193.651H174.915ZM178.385 195V193.331L178.399 192.862V187.727H179.642V195H178.385Z" fill="black"/>
<path d="M225.452 194.126C225.237 194.126 225.052 194.051 224.898 193.899C224.745 193.745 224.669 193.561 224.671 193.345C224.669 193.132 224.745 192.95 224.898 192.798C225.052 192.647 225.237 192.571 225.452 192.571C225.661 192.571 225.842 192.647 225.996 192.798C226.152 192.95 226.231 193.132 226.234 193.345C226.231 193.49 226.193 193.621 226.12 193.739C226.049 193.858 225.954 193.952 225.836 194.023C225.72 194.092 225.592 194.126 225.452 194.126ZM225.452 190.522C225.237 190.522 225.052 190.446 224.898 190.295C224.745 190.141 224.669 189.956 224.671 189.741C224.669 189.528 224.745 189.345 224.898 189.194C225.052 189.04 225.237 188.963 225.452 188.963C225.661 188.963 225.842 189.04 225.996 189.194C226.152 189.345 226.231 189.528 226.234 189.741C226.231 189.883 226.193 190.013 226.12 190.131C226.049 190.25 225.954 190.344 225.836 190.415C225.72 190.487 225.592 190.522 225.452 190.522ZM235.171 195.099C234.823 195.097 234.483 195.037 234.152 194.918C233.82 194.798 233.522 194.602 233.257 194.332C232.992 194.06 232.781 193.699 232.625 193.249C232.469 192.797 232.392 192.237 232.394 191.57C232.394 190.947 232.46 190.392 232.593 189.904C232.725 189.416 232.916 189.004 233.165 188.668C233.413 188.33 233.713 188.072 234.063 187.894C234.416 187.717 234.81 187.628 235.246 187.628C235.702 187.628 236.107 187.718 236.46 187.898C236.815 188.078 237.102 188.324 237.319 188.636C237.537 188.946 237.672 189.297 237.724 189.688H236.428C236.362 189.408 236.226 189.186 236.02 189.02C235.816 188.852 235.558 188.768 235.246 188.768C234.741 188.768 234.353 188.987 234.081 189.425C233.811 189.863 233.675 190.464 233.672 191.229H233.722C233.838 191.02 233.988 190.842 234.173 190.692C234.358 190.543 234.566 190.429 234.798 190.348C235.032 190.265 235.28 190.224 235.54 190.224C235.966 190.224 236.349 190.326 236.687 190.529C237.028 190.733 237.298 191.013 237.497 191.371C237.696 191.726 237.794 192.133 237.792 192.592C237.794 193.071 237.685 193.5 237.465 193.881C237.245 194.26 236.938 194.558 236.545 194.776C236.152 194.994 235.694 195.102 235.171 195.099ZM235.164 194.034C235.422 194.034 235.653 193.971 235.856 193.846C236.06 193.72 236.221 193.551 236.339 193.338C236.458 193.125 236.516 192.886 236.513 192.621C236.516 192.36 236.459 192.125 236.343 191.914C236.229 191.703 236.072 191.536 235.871 191.413C235.669 191.29 235.44 191.229 235.182 191.229C234.99 191.229 234.811 191.265 234.645 191.339C234.48 191.412 234.335 191.514 234.212 191.644C234.089 191.772 233.992 191.921 233.921 192.092C233.852 192.26 233.817 192.44 233.814 192.631C233.817 192.885 233.876 193.118 233.992 193.331C234.108 193.544 234.268 193.714 234.471 193.842C234.675 193.97 234.906 194.034 235.164 194.034ZM241.602 195.099C241.091 195.099 240.636 195.012 240.238 194.837C239.843 194.661 239.531 194.418 239.301 194.105C239.071 193.793 238.949 193.432 238.935 193.022H240.27C240.282 193.219 240.347 193.39 240.466 193.537C240.584 193.681 240.742 193.794 240.938 193.874C241.135 193.955 241.355 193.995 241.599 193.995C241.859 193.995 242.09 193.95 242.291 193.86C242.492 193.768 242.65 193.64 242.763 193.477C242.877 193.313 242.933 193.125 242.93 192.912C242.933 192.692 242.876 192.498 242.76 192.33C242.644 192.161 242.476 192.03 242.256 191.935C242.038 191.841 241.775 191.793 241.467 191.793H240.824V190.778H241.467C241.72 190.778 241.942 190.734 242.131 190.646C242.323 190.559 242.473 190.436 242.582 190.277C242.691 190.116 242.744 189.93 242.742 189.719C242.744 189.513 242.698 189.335 242.604 189.183C242.511 189.029 242.38 188.91 242.209 188.825C242.041 188.739 241.844 188.697 241.616 188.697C241.394 188.697 241.188 188.737 240.998 188.817C240.809 188.898 240.656 189.013 240.54 189.162C240.424 189.309 240.363 189.484 240.356 189.688H239.088C239.097 189.28 239.215 188.923 239.439 188.615C239.667 188.305 239.97 188.063 240.349 187.891C240.727 187.715 241.152 187.628 241.623 187.628C242.109 187.628 242.53 187.719 242.888 187.901C243.247 188.081 243.526 188.324 243.722 188.629C243.919 188.935 244.017 189.272 244.017 189.641C244.019 190.051 243.898 190.394 243.655 190.671C243.413 190.948 243.096 191.129 242.703 191.214V191.271C243.214 191.342 243.606 191.532 243.878 191.839C244.153 192.145 244.289 192.525 244.287 192.979C244.287 193.387 244.171 193.751 243.939 194.073C243.709 194.393 243.392 194.644 242.987 194.826C242.585 195.008 242.123 195.099 241.602 195.099ZM245.506 195V194.048L248.031 191.573C248.272 191.329 248.473 191.113 248.634 190.923C248.795 190.734 248.916 190.55 248.996 190.373C249.077 190.195 249.117 190.006 249.117 189.805C249.117 189.575 249.065 189.379 248.961 189.215C248.857 189.049 248.714 188.922 248.531 188.832C248.349 188.742 248.142 188.697 247.91 188.697C247.671 188.697 247.461 188.746 247.281 188.846C247.101 188.943 246.962 189.081 246.862 189.261C246.765 189.441 246.717 189.656 246.717 189.904H245.463C245.463 189.442 245.568 189.041 245.779 188.7C245.99 188.359 246.28 188.095 246.649 187.908C247.021 187.721 247.447 187.628 247.928 187.628C248.415 187.628 248.844 187.719 249.213 187.901C249.582 188.084 249.869 188.333 250.072 188.651C250.278 188.968 250.381 189.33 250.381 189.737C250.381 190.009 250.329 190.277 250.225 190.54C250.121 190.803 249.938 191.094 249.675 191.413C249.414 191.733 249.049 192.12 248.577 192.575L247.324 193.849V193.899H250.491V195H245.506Z" fill="black"/>
<path fill-rule="evenodd" clip-rule="evenodd" d="M138.5 189C139.881 189 141 187.881 141 186.5C141 185.119 139.881 184 138.5 184C137.119 184 136 185.119 136 186.5C136 187.881 137.119 189 138.5 189ZM138.5 187.5C139.052 187.5 139.5 187.052 139.5 186.5C139.5 185.948 139.052 185.5 138.5 185.5C137.948 185.5 137.5 185.948 137.5 186.5C137.5 187.052 137.948 187.5 138.5 187.5Z" fill="#2431A1"/>
<path fill-rule="evenodd" clip-rule="evenodd" d="M146.5 192C147.881 192 149 190.881 149 189.5C149 188.119 147.881 187 146.5 187C145.119 187 144 188.119 144 189.5C144 190.881 145.119 192 146.5 192ZM146.5 190.5C147.052 190.5 147.5 190.052 147.5 189.5C147.5 188.948 147.052 188.5 146.5 188.5C145.948 188.5 145.5 188.948 145.5 189.5C145.5 190.052 145.948 190.5 146.5 190.5Z" fill="#2431A1"/>
<path fill-rule="evenodd" clip-rule="evenodd" d="M138.5 199C139.881 199 141 197.881 141 196.5C141 195.119 139.881 194 138.5 194C137.119 194 136 195.119 136 196.5C136 197.881 137.119 199 138.5 199ZM138.5 197.5C139.052 197.5 139.5 197.052 139.5 196.5C139.5 195.948 139.052 195.5 138.5 195.5C137.948 195.5 137.5 195.948 137.5 196.5C137.5 197.052 137.948 197.5 138.5 197.5Z" fill="#2431A1"/>
<path d="M138 189.3V188H139.5V189.3V189.95V191.9V194.5H139H138V193.85V193.2V191.9V190.6V189.3Z" fill="#2431A1" stroke="#2431A1" stroke-width="0.1"/>
<path fill-rule="evenodd" clip-rule="evenodd" d="M144.992 191H146.99C146.991 191.156 146.993 191.298 146.995 191.431C147 191.824 147.005 192.141 146.99 192.5L146.324 193.5L145.658 194L144.327 194.5L142.329 195H140.997H139V193.258H141.036C141.732 193.236 142.271 193.196 142.633 193.169C142.823 193.155 142.963 193.145 143.051 193.143C143.24 193.112 143.365 193.061 143.453 193.001C144.173 192.997 144.772 192.654 144.91 192.2C144.949 192.153 144.978 192.088 144.992 192C145.051 191.632 145.031 191.471 145.011 191.312C145 191.22 144.989 191.129 144.992 191Z" fill="#2431A1"/>
<path d="M146.99 191L147.04 191L147.039 190.95H146.99V191ZM144.992 191V190.95H144.944L144.942 190.999L144.992 191ZM146.995 191.431L146.945 191.432V191.432L146.995 191.431ZM146.99 192.5L147.031 192.528L147.039 192.516L147.04 192.502L146.99 192.5ZM146.324 193.5L146.354 193.54L146.361 193.535L146.366 193.528L146.324 193.5ZM145.658 194L145.676 194.047L145.682 194.044L145.688 194.04L145.658 194ZM144.327 194.5L144.339 194.549L144.344 194.547L144.327 194.5ZM142.329 195V195.052L142.341 195.049L142.329 195ZM139 195H138.95V195.05H139V195ZM139 193.258V193.208H138.95V193.258H139ZM141.036 193.258V193.308L141.037 193.308L141.036 193.258ZM142.633 193.169L142.629 193.119L142.633 193.169ZM143.051 193.143L143.052 193.193L143.059 193.192L143.051 193.143ZM143.453 193.001L143.453 192.951L143.438 192.951L143.425 192.96L143.453 193.001ZM144.91 192.2L144.871 192.168L144.865 192.176L144.862 192.186L144.91 192.2ZM144.992 192L144.943 191.992V191.992L144.992 192ZM145.011 191.312L144.962 191.318V191.318L145.011 191.312ZM146.99 190.95H144.992V191.05H146.99V190.95ZM147.045 191.431C147.043 191.297 147.041 191.155 147.04 191L146.94 191C146.941 191.156 146.943 191.299 146.945 191.432L147.045 191.431ZM147.04 192.502C147.055 192.142 147.05 191.824 147.045 191.431L146.945 191.432C146.95 191.825 146.955 192.141 146.94 192.498L147.04 192.502ZM146.366 193.528L147.031 192.528L146.948 192.472L146.282 193.472L146.366 193.528ZM145.688 194.04L146.354 193.54L146.294 193.46L145.628 193.96L145.688 194.04ZM144.344 194.547L145.676 194.047L145.641 193.953L144.309 194.453L144.344 194.547ZM142.341 195.049L144.339 194.549L144.314 194.451L142.317 194.951L142.341 195.049ZM140.997 195.05H142.329V194.95H140.997V195.05ZM139 195.05H140.997V194.95H139V195.05ZM138.95 193.258V195H139.05V193.258H138.95ZM141.036 193.208H139V193.308H141.036V193.208ZM142.629 193.119C142.268 193.146 141.729 193.186 141.034 193.208L141.037 193.308C141.734 193.286 142.275 193.246 142.636 193.219L142.629 193.119ZM143.05 193.093C142.96 193.095 142.818 193.105 142.629 193.119L142.636 193.219C142.827 193.205 142.966 193.195 143.052 193.193L143.05 193.093ZM143.425 192.96C143.344 193.015 143.227 193.064 143.043 193.093L143.059 193.192C143.253 193.161 143.385 193.108 143.481 193.042L143.425 192.96ZM144.862 192.186C144.798 192.397 144.625 192.587 144.375 192.725C144.127 192.864 143.805 192.949 143.453 192.951L143.454 193.051C143.821 193.049 144.159 192.96 144.424 192.813C144.689 192.666 144.884 192.458 144.957 192.215L144.862 192.186ZM144.943 191.992C144.93 192.073 144.904 192.129 144.871 192.168L144.948 192.232C144.995 192.176 145.027 192.103 145.042 192.008L144.943 191.992ZM144.962 191.318C144.981 191.474 145.001 191.63 144.943 191.992L145.042 192.008C145.101 191.634 145.081 191.468 145.061 191.305L144.962 191.318ZM144.942 190.999C144.938 191.132 144.95 191.226 144.962 191.318L145.061 191.305C145.05 191.214 145.039 191.127 145.042 191.001L144.942 190.999Z" fill="#2431A1"/>
<path d="M208 196H216.322C216.676 196.002 217.02 195.881 217.294 195.656C217.568 195.432 217.755 195.118 217.822 194.771L218.474 191.271C218.514 191.056 218.507 190.836 218.451 190.625C218.396 190.414 218.296 190.218 218.156 190.051C218.012 189.878 217.831 189.739 217.627 189.644C217.423 189.548 217.2 189.499 216.974 189.5H214.589V187.5C214.589 186.469 213.533 186 212.551 186C212.418 186 212.291 186.053 212.197 186.146C212.104 186.24 212.051 186.367 212.051 186.5C212.051 187.454 211.881 188.455 211.689 188.642L210.296 190H208C207.867 190 207.74 190.053 207.646 190.146C207.553 190.24 207.5 190.367 207.5 190.5V195.5C207.5 195.633 207.553 195.76 207.646 195.854C207.74 195.947 207.867 196 208 196ZM211 190.71L212.387 189.36C212.852 188.907 212.993 187.805 213.037 187.069C213.308 187.133 213.591 187.259 213.591 187.503V190.003C213.591 190.135 213.644 190.262 213.738 190.356C213.832 190.45 213.959 190.503 214.091 190.503H216.977C217.055 190.502 217.133 190.519 217.204 190.552C217.275 190.584 217.339 190.632 217.389 190.693C217.435 190.747 217.469 190.811 217.487 190.881C217.505 190.95 217.507 191.022 217.494 191.093L216.844 194.592C216.818 194.711 216.752 194.816 216.657 194.891C216.561 194.965 216.443 195.004 216.322 195H211V190.71ZM208.5 191H210V195H208.5V191Z" fill="#00286E"/>
<g clip-path="url(#clip0_1538_2838)">
<path d="M51.0007 249C54.159 249 56.9757 250.775 58.3507 253.583C56.9757 256.392 54.159 258.167 51.0007 258.167C47.8423 258.167 45.0257 256.392 43.6507 253.583C45.0257 250.775 47.8423 249 51.0007 249ZM51.0007 247.333C46.834 247.333 43.2757 249.925 41.834 253.583C43.2757 257.242 46.834 259.833 51.0007 259.833C55.1673 259.833 58.7257 257.242 60.1673 253.583C58.7257 249.925 55.1673 247.333 51.0007 247.333ZM51.0007 251.5C52.1507 251.5 53.084 252.433 53.084 253.583C53.084 254.733 52.1507 255.667 51.0007 255.667C49.8507 255.667 48.9173 254.733 48.9173 253.583C48.9173 252.433 49.8507 251.5 51.0007 251.5ZM51.0007 249.833C48.934 249.833 47.2507 251.517 47.2507 253.583C47.2507 255.65 48.934 257.333 51.0007 257.333C53.0673 257.333 54.7507 255.65 54.7507 253.583C54.7507 251.517 53.0673 249.833 51.0007 249.833Z" fill="#525252"/>
</g>
<path d="M24.9375 223C24.9375 223.862 24.776 224.6 24.4531 225.215C24.1328 225.827 23.6953 226.296 23.1406 226.621C22.5885 226.947 21.9622 227.109 21.2617 227.109C20.5612 227.109 19.9336 226.947 19.3789 226.621C18.8268 226.293 18.3893 225.823 18.0664 225.211C17.7461 224.596 17.5859 223.859 17.5859 223C17.5859 222.138 17.7461 221.401 18.0664 220.789C18.3893 220.174 18.8268 219.704 19.3789 219.379C19.9336 219.053 20.5612 218.891 21.2617 218.891C21.9622 218.891 22.5885 219.053 23.1406 219.379C23.6953 219.704 24.1328 220.174 24.4531 220.789C24.776 221.401 24.9375 222.138 24.9375 223ZM23.4805 223C23.4805 222.393 23.3854 221.882 23.1953 221.465C23.0078 221.046 22.7474 220.729 22.4141 220.516C22.0807 220.299 21.6966 220.191 21.2617 220.191C20.8268 220.191 20.4427 220.299 20.1094 220.516C19.776 220.729 19.5143 221.046 19.3242 221.465C19.1367 221.882 19.043 222.393 19.043 223C19.043 223.607 19.1367 224.12 19.3242 224.539C19.5143 224.956 19.776 225.272 20.1094 225.488C20.4427 225.702 20.8268 225.809 21.2617 225.809C21.6966 225.809 22.0807 225.702 22.4141 225.488C22.7474 225.272 23.0078 224.956 23.1953 224.539C23.3854 224.12 23.4805 223.607 23.4805 223ZM27.4834 227L25.7881 221H27.2295L28.2842 225.219H28.3389L29.417 221H30.8428L31.9209 225.195H31.9795L33.0186 221H34.4639L32.7646 227H31.292L30.167 222.945H30.085L28.96 227H27.4834ZM36.8652 223.484V227H35.4512V221H36.8027V222.02H36.873C37.0111 221.684 37.2311 221.417 37.5332 221.219C37.8379 221.021 38.2142 220.922 38.6621 220.922C39.0762 220.922 39.4368 221.01 39.7441 221.187C40.054 221.365 40.2936 221.621 40.4629 221.957C40.6348 222.293 40.7194 222.701 40.7168 223.18V227H39.3027V223.398C39.3027 222.997 39.1986 222.684 38.9902 222.457C38.7845 222.23 38.4993 222.117 38.1348 222.117C37.8874 222.117 37.6673 222.172 37.4746 222.281C37.2845 222.388 37.1348 222.543 37.0254 222.746C36.9186 222.949 36.8652 223.195 36.8652 223.484ZM44.8105 227.117C44.209 227.117 43.6895 226.992 43.252 226.742C42.8171 226.49 42.4824 226.133 42.248 225.672C42.0137 225.208 41.8965 224.663 41.8965 224.035C41.8965 223.418 42.0137 222.876 42.248 222.41C42.485 221.941 42.8158 221.577 43.2402 221.316C43.6647 221.053 44.1634 220.922 44.7363 220.922C45.1061 220.922 45.4551 220.982 45.7832 221.102C46.1139 221.219 46.4056 221.401 46.6582 221.648C46.9134 221.896 47.1139 222.211 47.2598 222.594C47.4056 222.974 47.4785 223.427 47.4785 223.953V224.387H42.5605V223.434H46.123C46.1204 223.163 46.0618 222.922 45.9473 222.711C45.8327 222.497 45.6725 222.329 45.4668 222.207C45.2637 222.085 45.0267 222.023 44.7559 222.023C44.4668 222.023 44.2129 222.094 43.9941 222.234C43.7754 222.372 43.6048 222.555 43.4824 222.781C43.3626 223.005 43.3014 223.251 43.2988 223.52V224.352C43.2988 224.701 43.3626 225 43.4902 225.25C43.6178 225.497 43.7962 225.687 44.0254 225.82C44.2546 225.951 44.5228 226.016 44.8301 226.016C45.0358 226.016 45.222 225.987 45.3887 225.93C45.5553 225.87 45.6999 225.783 45.8223 225.668C45.9447 225.553 46.0371 225.411 46.0996 225.242L47.4199 225.391C47.3366 225.74 47.1777 226.044 46.9434 226.305C46.7116 226.562 46.4147 226.763 46.0527 226.906C45.6908 227.047 45.2767 227.117 44.8105 227.117ZM48.6748 227V221H50.0459V222H50.1084C50.2178 221.654 50.4053 221.387 50.6709 221.199C50.9391 221.009 51.2451 220.914 51.5889 220.914C51.667 220.914 51.7542 220.918 51.8506 220.926C51.9495 220.931 52.0316 220.94 52.0967 220.953V222.254C52.0368 222.233 51.9417 222.215 51.8115 222.199C51.6839 222.181 51.5602 222.172 51.4404 222.172C51.1826 222.172 50.9508 222.228 50.7451 222.34C50.542 222.449 50.3818 222.602 50.2646 222.797C50.1475 222.992 50.0889 223.217 50.0889 223.473V227H48.6748ZM53.9072 227.086C53.6702 227.086 53.4671 227.003 53.2979 226.836C53.1286 226.669 53.0452 226.466 53.0479 226.227C53.0452 225.992 53.1286 225.792 53.2979 225.625C53.4671 225.458 53.6702 225.375 53.9072 225.375C54.1364 225.375 54.3356 225.458 54.5049 225.625C54.6768 225.792 54.764 225.992 54.7666 226.227C54.764 226.385 54.7223 226.53 54.6416 226.66C54.5635 226.79 54.4593 226.895 54.3291 226.973C54.2015 227.048 54.0609 227.086 53.9072 227.086ZM53.9072 222.805C53.6702 222.805 53.4671 222.721 53.2979 222.555C53.1286 222.385 53.0452 222.182 53.0479 221.945C53.0452 221.711 53.1286 221.51 53.2979 221.344C53.4671 221.174 53.6702 221.09 53.9072 221.09C54.1364 221.09 54.3356 221.174 54.5049 221.344C54.6768 221.51 54.764 221.711 54.7666 221.945C54.764 222.102 54.7223 222.245 54.6416 222.375C54.5635 222.505 54.4593 222.609 54.3291 222.687C54.2015 222.766 54.0609 222.805 53.9072 222.805ZM59.0176 227V219H60.4316V221.992H60.4902C60.5632 221.846 60.666 221.691 60.7988 221.527C60.9316 221.361 61.1113 221.219 61.3379 221.102C61.5645 220.982 61.8535 220.922 62.2051 220.922C62.6686 220.922 63.0866 221.04 63.459 221.277C63.834 221.512 64.1309 221.859 64.3496 222.32C64.571 222.779 64.6816 223.341 64.6816 224.008C64.6816 224.667 64.5736 225.227 64.3574 225.687C64.1413 226.148 63.847 226.5 63.4746 226.742C63.1022 226.984 62.6803 227.105 62.209 227.105C61.8652 227.105 61.5801 227.048 61.3535 226.934C61.127 226.819 60.9447 226.681 60.8066 226.52C60.6712 226.355 60.5658 226.201 60.4902 226.055H60.4082V227H59.0176ZM60.4043 224C60.4043 224.388 60.459 224.728 60.5684 225.02C60.6803 225.311 60.8405 225.539 61.0488 225.703C61.2598 225.865 61.515 225.945 61.8145 225.945C62.127 225.945 62.3887 225.862 62.5996 225.695C62.8105 225.526 62.9694 225.296 63.0762 225.004C63.1855 224.71 63.2402 224.375 63.2402 224C63.2402 223.628 63.1868 223.297 63.0801 223.008C62.9733 222.719 62.8145 222.492 62.6035 222.328C62.3926 222.164 62.1296 222.082 61.8145 222.082C61.5124 222.082 61.2559 222.161 61.0449 222.32C60.834 222.479 60.6738 222.702 60.5645 222.988C60.4577 223.275 60.4043 223.612 60.4043 224ZM68.54 227.117C67.9385 227.117 67.4189 226.992 66.9814 226.742C66.5465 226.49 66.2119 226.133 65.9775 225.672C65.7432 225.208 65.626 224.663 65.626 224.035C65.626 223.418 65.7432 222.876 65.9775 222.41C66.2145 221.941 66.5452 221.577 66.9697 221.316C67.3942 221.053 67.8929 220.922 68.4658 220.922C68.8356 220.922 69.1846 220.982 69.5127 221.102C69.8434 221.219 70.1351 221.401 70.3877 221.648C70.6429 221.896 70.8434 222.211 70.9893 222.594C71.1351 222.974 71.208 223.427 71.208 223.953V224.387H66.29V223.434H69.8525C69.8499 223.163 69.7913 222.922 69.6768 222.711C69.5622 222.497 69.402 222.329 69.1963 222.207C68.9932 222.085 68.7562 222.023 68.4854 222.023C68.1963 222.023 67.9424 222.094 67.7236 222.234C67.5049 222.372 67.3343 222.555 67.2119 222.781C67.0921 223.005 67.0309 223.251 67.0283 223.52V224.352C67.0283 224.701 67.0921 225 67.2197 225.25C67.3473 225.497 67.5257 225.687 67.7549 225.82C67.984 225.951 68.2523 226.016 68.5596 226.016C68.7653 226.016 68.9515 225.987 69.1182 225.93C69.2848 225.87 69.4294 225.783 69.5518 225.668C69.6742 225.553 69.7666 225.411 69.8291 225.242L71.1494 225.391C71.0661 225.74 70.9072 226.044 70.6729 226.305C70.4411 226.562 70.1442 226.763 69.7822 226.906C69.4202 227.047 69.0062 227.117 68.54 227.117ZM75.0605 227.117C74.459 227.117 73.9395 226.992 73.502 226.742C73.0671 226.49 72.7324 226.133 72.498 225.672C72.2637 225.208 72.1465 224.663 72.1465 224.035C72.1465 223.418 72.2637 222.876 72.498 222.41C72.735 221.941 73.0658 221.577 73.4902 221.316C73.9147 221.053 74.4134 220.922 74.9863 220.922C75.3561 220.922 75.7051 220.982 76.0332 221.102C76.3639 221.219 76.6556 221.401 76.9082 221.648C77.1634 221.896 77.3639 222.211 77.5098 222.594C77.6556 222.974 77.7285 223.427 77.7285 223.953V224.387H72.8105V223.434H76.373C76.3704 223.163 76.3118 222.922 76.1973 222.711C76.0827 222.497 75.9225 222.329 75.7168 222.207C75.5137 222.085 75.2767 222.023 75.0059 222.023C74.7168 222.023 74.4629 222.094 74.2441 222.234C74.0254 222.372 73.8548 222.555 73.7324 222.781C73.6126 223.005 73.5514 223.251 73.5488 223.52V224.352C73.5488 224.701 73.6126 225 73.7402 225.25C73.8678 225.497 74.0462 225.687 74.2754 225.82C74.5046 225.951 74.7728 226.016 75.0801 226.016C75.2858 226.016 75.472 225.987 75.6387 225.93C75.8053 225.87 75.9499 225.783 76.0723 225.668C76.1947 225.553 76.2871 225.411 76.3496 225.242L77.6699 225.391C77.5866 225.74 77.4277 226.044 77.1934 226.305C76.9616 226.562 76.6647 226.763 76.3027 226.906C75.9408 227.047 75.5267 227.117 75.0605 227.117ZM80.3389 223.484V227H78.9248V221H80.2764V222.02H80.3467C80.4847 221.684 80.7048 221.417 81.0068 221.219C81.3115 221.021 81.6878 220.922 82.1357 220.922C82.5498 220.922 82.9105 221.01 83.2178 221.187C83.5277 221.365 83.7673 221.621 83.9365 221.957C84.1084 222.293 84.193 222.701 84.1904 223.18V227H82.7764V223.398C82.7764 222.997 82.6722 222.684 82.4639 222.457C82.2581 222.23 81.973 222.117 81.6084 222.117C81.361 222.117 81.141 222.172 80.9482 222.281C80.7581 222.388 80.6084 222.543 80.499 222.746C80.3923 222.949 80.3389 223.195 80.3389 223.484Z" fill="black"/>
<path d="M31.7266 160V154H33.0781V155.02H33.1484C33.2734 154.676 33.4805 154.408 33.7695 154.215C34.0586 154.02 34.4036 153.922 34.8047 153.922C35.2109 153.922 35.5534 154.021 35.832 154.219C36.1133 154.414 36.3112 154.681 36.4258 155.02H36.4883C36.6211 154.686 36.8451 154.421 37.1602 154.223C37.4779 154.022 37.8542 153.922 38.2891 153.922C38.8411 153.922 39.2917 154.096 39.6406 154.445C39.9896 154.794 40.1641 155.303 40.1641 155.973V160H38.7461V156.191C38.7461 155.819 38.6471 155.547 38.4492 155.375C38.2513 155.201 38.0091 155.113 37.7227 155.113C37.3815 155.113 37.1146 155.22 36.9219 155.434C36.7318 155.645 36.6367 155.919 36.6367 156.258V160H35.25V156.133C35.25 155.823 35.1563 155.576 34.9688 155.391C34.7839 155.206 34.5417 155.113 34.2422 155.113C34.0391 155.113 33.8542 155.165 33.6875 155.27C33.5208 155.371 33.388 155.516 33.2891 155.703C33.1901 155.888 33.1406 156.104 33.1406 156.352V160H31.7266ZM41.5986 160V154H42.9697V155H43.0322C43.1416 154.654 43.3291 154.387 43.5947 154.199C43.863 154.009 44.1689 153.914 44.5127 153.914C44.5908 153.914 44.6781 153.918 44.7744 153.926C44.8734 153.931 44.9554 153.94 45.0205 153.953V155.254C44.9606 155.233 44.8656 155.215 44.7354 155.199C44.6077 155.181 44.484 155.172 44.3643 155.172C44.1064 155.172 43.8747 155.228 43.6689 155.34C43.4658 155.449 43.3057 155.602 43.1885 155.797C43.0713 155.992 43.0127 156.217 43.0127 156.473V160H41.5986ZM46.1436 160.086C45.9066 160.086 45.7035 160.003 45.5342 159.836C45.3649 159.669 45.2816 159.466 45.2842 159.227C45.2816 158.992 45.3649 158.792 45.5342 158.625C45.7035 158.458 45.9066 158.375 46.1436 158.375C46.3727 158.375 46.5719 158.458 46.7412 158.625C46.9131 158.792 47.0003 158.992 47.0029 159.227C47.0003 159.385 46.9587 159.53 46.8779 159.66C46.7998 159.79 46.6956 159.895 46.5654 159.973C46.4378 160.048 46.2972 160.086 46.1436 160.086ZM48.5254 160V152H49.9395V154.992H49.998C50.071 154.846 50.1738 154.691 50.3066 154.527C50.4395 154.361 50.6191 154.219 50.8457 154.102C51.0723 153.982 51.3613 153.922 51.7129 153.922C52.1764 153.922 52.5944 154.04 52.9668 154.277C53.3418 154.512 53.6387 154.859 53.8574 155.32C54.0788 155.779 54.1895 156.341 54.1895 157.008C54.1895 157.667 54.0814 158.227 53.8652 158.687C53.6491 159.148 53.3548 159.5 52.9824 159.742C52.61 159.984 52.1882 160.105 51.7168 160.105C51.373 160.105 51.0879 160.048 50.8613 159.934C50.6348 159.819 50.4525 159.681 50.3145 159.52C50.179 159.355 50.0736 159.201 49.998 159.055H49.916V160H48.5254ZM49.9121 157C49.9121 157.388 49.9668 157.728 50.0762 158.02C50.1882 158.311 50.3483 158.539 50.5566 158.703C50.7676 158.865 51.0228 158.945 51.3223 158.945C51.6348 158.945 51.8965 158.862 52.1074 158.695C52.3184 158.526 52.4772 158.296 52.584 158.004C52.6934 157.71 52.748 157.375 52.748 157C52.748 156.628 52.6947 156.297 52.5879 156.008C52.4811 155.719 52.3223 155.492 52.1113 155.328C51.9004 155.164 51.6374 155.082 51.3223 155.082C51.0202 155.082 50.7637 155.161 50.5527 155.32C50.3418 155.479 50.1816 155.702 50.0723 155.988C49.9655 156.275 49.9121 156.612 49.9121 157ZM58.0479 160.117C57.4463 160.117 56.9268 159.992 56.4893 159.742C56.0544 159.49 55.7197 159.133 55.4854 158.672C55.251 158.208 55.1338 157.663 55.1338 157.035C55.1338 156.418 55.251 155.876 55.4854 155.41C55.7223 154.941 56.0531 154.577 56.4775 154.316C56.902 154.053 57.4007 153.922 57.9736 153.922C58.3434 153.922 58.6924 153.982 59.0205 154.102C59.3512 154.219 59.6429 154.401 59.8955 154.648C60.1507 154.896 60.3512 155.211 60.4971 155.594C60.6429 155.974 60.7158 156.427 60.7158 156.953V157.387H55.7979V156.434H59.3604C59.3577 156.163 59.2992 155.922 59.1846 155.711C59.07 155.497 58.9098 155.329 58.7041 155.207C58.501 155.085 58.264 155.023 57.9932 155.023C57.7041 155.023 57.4502 155.094 57.2314 155.234C57.0127 155.372 56.8421 155.555 56.7197 155.781C56.5999 156.005 56.5387 156.251 56.5361 156.52V157.352C56.5361 157.701 56.5999 158 56.7275 158.25C56.8551 158.497 57.0335 158.687 57.2627 158.82C57.4919 158.951 57.7601 159.016 58.0674 159.016C58.2731 159.016 58.4593 158.987 58.626 158.93C58.7926 158.87 58.9372 158.783 59.0596 158.668C59.182 158.553 59.2744 158.411 59.3369 158.242L60.6572 158.391C60.5739 158.74 60.415 159.044 60.1807 159.305C59.9489 159.562 59.652 159.763 59.29 159.906C58.9281 160.047 58.514 160.117 58.0479 160.117ZM63.6387 160.121C63.2585 160.121 62.916 160.053 62.6113 159.918C62.3092 159.78 62.0697 159.577 61.8926 159.309C61.7181 159.04 61.6309 158.71 61.6309 158.316C61.6309 157.978 61.6934 157.698 61.8184 157.477C61.9434 157.255 62.1139 157.078 62.3301 156.945C62.5462 156.812 62.7897 156.712 63.0605 156.645C63.334 156.574 63.6165 156.523 63.9082 156.492C64.2598 156.456 64.5449 156.423 64.7637 156.395C64.9824 156.363 65.1413 156.316 65.2402 156.254C65.3418 156.189 65.3926 156.089 65.3926 155.953V155.93C65.3926 155.635 65.3053 155.408 65.1309 155.246C64.9564 155.085 64.7051 155.004 64.377 155.004C64.0306 155.004 63.7559 155.079 63.5527 155.23C63.3522 155.382 63.2168 155.56 63.1465 155.766L61.8262 155.578C61.9303 155.214 62.1022 154.909 62.3418 154.664C62.5814 154.417 62.8743 154.232 63.2207 154.109C63.5671 153.984 63.9499 153.922 64.3691 153.922C64.6582 153.922 64.946 153.956 65.2324 154.023C65.5189 154.091 65.7806 154.203 66.0176 154.359C66.2546 154.513 66.4447 154.723 66.5879 154.988C66.7337 155.254 66.8066 155.586 66.8066 155.984V160H65.4473V159.176H65.4004C65.3145 159.342 65.1934 159.499 65.0371 159.645C64.8835 159.788 64.6895 159.904 64.4551 159.992C64.2233 160.078 63.9512 160.121 63.6387 160.121ZM64.0059 159.082C64.2897 159.082 64.5358 159.026 64.7441 158.914C64.9525 158.799 65.1126 158.648 65.2246 158.461C65.3392 158.273 65.3965 158.069 65.3965 157.848V157.141C65.3522 157.177 65.2767 157.211 65.1699 157.242C65.0658 157.273 64.9486 157.301 64.8184 157.324C64.6882 157.348 64.5592 157.368 64.4316 157.387C64.304 157.405 64.1934 157.421 64.0996 157.434C63.8887 157.462 63.6999 157.509 63.5332 157.574C63.3665 157.639 63.235 157.73 63.1387 157.848C63.0423 157.962 62.9941 158.111 62.9941 158.293C62.9941 158.553 63.0892 158.75 63.2793 158.883C63.4694 159.016 63.7116 159.082 64.0059 159.082ZM69.6426 156.484V160H68.2285V154H69.5801V155.02H69.6504C69.7884 154.684 70.0085 154.417 70.3105 154.219C70.6152 154.021 70.9915 153.922 71.4395 153.922C71.8535 153.922 72.2142 154.01 72.5215 154.187C72.8314 154.365 73.071 154.621 73.2402 154.957C73.4121 155.293 73.4967 155.701 73.4941 156.18V160H72.0801V156.398C72.0801 155.997 71.9759 155.684 71.7676 155.457C71.5618 155.23 71.2767 155.117 70.9121 155.117C70.6647 155.117 70.4447 155.172 70.252 155.281C70.0618 155.388 69.9121 155.543 69.8027 155.746C69.696 155.949 69.6426 156.195 69.6426 156.484Z" fill="black"/>
<rect x="236" y="27" width="15" height="14" fill="#525252"/>
<path d="M243.667 36.3333C244.858 36.3333 245.833 35.3583 245.833 34.1667C245.833 32.975 244.858 32 243.667 32C242.475 32 241.5 32.975 241.5 34.1667C241.5 35.3583 242.475 36.3333 243.667 36.3333ZM250.167 26.5833H249.083V24.4167C249.083 21.4267 246.657 19 243.667 19C240.677 19 238.25 21.4267 238.25 24.4167H240.308C240.308 22.5642 241.814 21.0583 243.667 21.0583C245.519 21.0583 247.025 22.5642 247.025 24.4167V26.5833H237.167C235.975 26.5833 235 27.5583 235 28.75V39.5833C235 40.775 235.975 41.75 237.167 41.75H250.167C251.358 41.75 252.333 40.775 252.333 39.5833V28.75C252.333 27.5583 251.358 26.5833 250.167 26.5833ZM250.167 39.5833H237.167V28.75H250.167V39.5833Z" fill="#525252"/>
<path d="M246 34.25C246 35.4926 244.993 36.5 243.75 36.5C242.507 36.5 241.5 35.4926 241.5 34.25C241.5 33.0074 242.507 32 243.75 32C244.993 32 246 33.0074 246 34.25Z" fill="#F4F0E8"/>
<ellipse cx="50.5" cy="92.5" rx="17.5" ry="15.5" fill="#E27C7C"/>
<ellipse cx="110.5" cy="91.5" rx="17.5" ry="15.5" fill="#DF85D1"/>
<ellipse cx="169.5" cy="91.5" rx="17.5" ry="15.5" fill="#BE1FC1"/>
<ellipse cx="229.5" cy="91.5" rx="17.5" ry="15.5" fill="#EF1414"/>
<line x1="68" y1="91" x2="93" y2="91" stroke="black" stroke-width="2"/>
<line x1="128" y1="92" x2="153" y2="92" stroke="black" stroke-width="2"/>
<path d="M186.5 91L211.5 91" stroke="black" stroke-width="2"/>
<defs>
<filter id="filter0_d_1538_2838" x="0" y="0" width="279" height="282" filterUnits="userSpaceOnUse" color-interpolation-filters="sRGB">
<feFlood flood-opacity="0" result="BackgroundImageFix"/>
<feColorMatrix in="SourceAlpha" type="matrix" values="0 0 0 0 0 0 0 0 0 0 0 0 0 0 0 0 0 0 127 0" result="hardAlpha"/>
<feOffset dy="4"/>
<feGaussianBlur stdDeviation="5"/>
<feComposite in2="hardAlpha" operator="out"/>
<feColorMatrix type="matrix" values="0 0 0 0 0 0 0 0 0 0 0 0 0 0 0 0 0 0 0.08 0"/>
<feBlend mode="normal" in2="BackgroundImageFix" result="effect1_dropShadow_1538_2838"/>
<feBlend mode="normal" in="SourceGraphic" in2="effect1_dropShadow_1538_2838" result="shape"/>
</filter>
<filter id="filter1_d_1538_2838" x="190" y="176" width="75" height="39" filterUnits="userSpaceOnUse" color-interpolation-filters="sRGB">
<feFlood flood-opacity="0" result="BackgroundImageFix"/>
<feColorMatrix in="SourceAlpha" type="matrix" values="0 0 0 0 0 0 0 0 0 0 0 0 0 0 0 0 0 0 127 0" result="hardAlpha"/>
<feOffset dy="4"/>
<feGaussianBlur stdDeviation="5"/>
<feComposite in2="hardAlpha" operator="out"/>
<feColorMatrix type="matrix" values="0 0 0 0 0 0 0 0 0 0 0 0 0 0 0 0 0 0 0.05 0"/>
<feBlend mode="normal" in2="BackgroundImageFix" result="effect1_dropShadow_1538_2838"/>
<feBlend mode="normal" in="SourceGraphic" in2="effect1_dropShadow_1538_2838" result="shape"/>
</filter>
<filter id="filter2_d_1538_2838" x="120" y="176" width="75" height="39" filterUnits="userSpaceOnUse" color-interpolation-filters="sRGB">
<feFlood flood-opacity="0" result="BackgroundImageFix"/>
<feColorMatrix in="SourceAlpha" type="matrix" values="0 0 0 0 0 0 0 0 0 0 0 0 0 0 0 0 0 0 127 0" result="hardAlpha"/>
<feOffset dy="4"/>
<feGaussianBlur stdDeviation="5"/>
<feComposite in2="hardAlpha" operator="out"/>
<feColorMatrix type="matrix" values="0 0 0 0 0 0 0 0 0 0 0 0 0 0 0 0 0 0 0.05 0"/>
<feBlend mode="normal" in2="BackgroundImageFix" result="effect1_dropShadow_1538_2838"/>
<feBlend mode="normal" in="SourceGraphic" in2="effect1_dropShadow_1538_2838" result="shape"/>
</filter>
<clipPath id="clip0_1538_2838">
<rect width="20" height="20" fill="white" transform="translate(41 244)"/>
</clipPath>
</defs>
</svg>
