<svg width="35" height="35" viewBox="0 0 35 35" fill="none" xmlns="http://www.w3.org/2000/svg">
<g clip-path="url(#clip0_46_148)">
<path d="M27.7083 5.83341H26.25V2.91675H23.3333V5.83341H11.6667V2.91675H8.75V5.83341H7.29167C5.67292 5.83341 4.38958 7.14591 4.38958 8.75008L4.375 29.1667C4.375 30.7709 5.67292 32.0834 7.29167 32.0834H27.7083C29.3125 32.0834 30.625 30.7709 30.625 29.1667V8.75008C30.625 7.14591 29.3125 5.83341 27.7083 5.83341ZM27.7083 29.1667H7.29167V14.5834H27.7083V29.1667ZM13.125 20.4167H10.2083V17.5001H13.125V20.4167ZM18.9583 20.4167H16.0417V17.5001H18.9583V20.4167ZM24.7917 20.4167H21.875V17.5001H24.7917V20.4167ZM13.125 26.2501H10.2083V23.3334H13.125V26.2501ZM18.9583 26.2501H16.0417V23.3334H18.9583V26.2501ZM24.7917 26.2501H21.875V23.3334H24.7917V26.2501Z" fill="white"/>
</g>
<defs>
<clipPath id="clip0_46_148">
<rect width="35" height="35" fill="white"/>
</clipPath>
</defs>
</svg>
