<svg width="18" height="23" viewBox="0 0 18 23" fill="none" xmlns="http://www.w3.org/2000/svg">
<path d="M15.4999 7.66683H14.4166V5.50016C14.4166 2.51016 11.9899 0.0834961 8.99992 0.0834961C6.00992 0.0834961 3.58325 2.51016 3.58325 5.50016V7.66683H2.49992C1.30825 7.66683 0.333252 8.64183 0.333252 9.8335V20.6668C0.333252 21.8585 1.30825 22.8335 2.49992 22.8335H15.4999C16.6916 22.8335 17.6666 21.8585 17.6666 20.6668V9.8335C17.6666 8.64183 16.6916 7.66683 15.4999 7.66683ZM8.99992 17.4168C7.80825 17.4168 6.83325 16.4418 6.83325 15.2502C6.83325 14.0585 7.80825 13.0835 8.99992 13.0835C10.1916 13.0835 11.1666 14.0585 11.1666 15.2502C11.1666 16.4418 10.1916 17.4168 8.99992 17.4168ZM12.3583 7.66683H5.64158V5.50016C5.64158 3.64766 7.14742 2.14183 8.99992 2.14183C10.8524 2.14183 12.3583 3.64766 12.3583 5.50016V7.66683Z" fill="#525252"/>
</svg>
