<svg width="39" height="46" viewBox="0 0 39 46" fill="none" xmlns="http://www.w3.org/2000/svg">
<path d="M32.7188 17.25H31.25V11.7645C31.25 5.16781 26.3738 0 19.4457 0C12.4897 0 7.75 5.27706 7.75 11.7645V17.25H6.28125C3.04119 17.25 0.40625 19.8289 0.40625 23V40.25C0.40625 43.4211 3.04119 46 6.28125 46H32.7188C35.9588 46 38.5938 43.4211 38.5938 40.25V23C38.5938 19.8289 35.9588 17.25 32.7188 17.25ZM10.6875 11.7645C10.6875 6.86406 14.1097 2.875 19.4457 2.875C24.7273 2.875 28.3125 6.77925 28.3125 11.7645V17.25H10.6875V11.7645ZM35.6562 40.25C35.6562 41.8341 34.3373 43.125 32.7188 43.125H6.28125C4.66122 43.125 3.34375 41.8341 3.34375 40.25V23C3.34375 21.4159 4.66122 20.125 6.28125 20.125H32.7188C34.3373 20.125 35.6562 21.4159 35.6562 23V40.25ZM19.5 25.875C17.8785 25.875 16.5625 27.1616 16.5625 28.75C16.5625 29.8109 17.1573 30.728 18.0312 31.2268V35.9375C18.0312 36.731 18.6893 37.375 19.5 37.375C20.3107 37.375 20.9688 36.731 20.9688 35.9375V31.2268C21.8427 30.7294 22.4375 29.8109 22.4375 28.75C22.4375 27.1616 21.123 25.875 19.5 25.875Z" fill="black"/>
</svg>
