<svg width="18" height="23" viewBox="0 0 18 23" fill="none" xmlns="http://www.w3.org/2000/svg">
<path d="M8.66667 17.3333C9.85833 17.3333 10.8333 16.3583 10.8333 15.1667C10.8333 13.975 9.85833 13 8.66667 13C7.475 13 6.5 13.975 6.5 15.1667C6.5 16.3583 7.475 17.3333 8.66667 17.3333ZM15.1667 7.58333H14.0833V5.41667C14.0833 2.42667 11.6567 0 8.66667 0C5.67667 0 3.25 2.42667 3.25 5.41667H5.30833C5.30833 3.56417 6.81417 2.05833 8.66667 2.05833C10.5192 2.05833 12.025 3.56417 12.025 5.41667V7.58333H2.16667C0.975 7.58333 0 8.55833 0 9.75V20.5833C0 21.775 0.975 22.75 2.16667 22.75H15.1667C16.3583 22.75 17.3333 21.775 17.3333 20.5833V9.75C17.3333 8.55833 16.3583 7.58333 15.1667 7.58333ZM15.1667 20.5833H2.16667V9.75H15.1667V20.5833Z" fill="#525252"/>
</svg>
